<?xml version="1.0" encoding="UTF-8"?>
<svg xmlns="http://www.w3.org/2000/svg" xmlns:xlink="http://www.w3.org/1999/xlink" width="3873" height="3873" viewBox="0 0 3873 3873">
<defs>
<clipPath id="clip-0">
<path clip-rule="nonzero" d="M 719 480 L 3154 480 L 3154 3393 L 719 3393 Z M 719 480 "/>
</clipPath>
<clipPath id="clip-1">
<path clip-rule="nonzero" d="M 2428.5 3392.601562 L 2788.898438 3392.601562 C 2800.398438 3392.601562 2810.101562 3386.398438 2815.699219 3376.5 C 2915.398438 3190.101562 2992.5 2987.300781 3047.699219 2775.898438 C 2911.5 2790.5 2774.398438 2801.601562 2638.601562 2809.699219 C 2586.800781 3011 2516.898438 3206.800781 2428.5 3392.601562 Z M 2047.601562 3392.601562 L 2361.199219 3392.601562 C 2361.5 3391.800781 2361.898438 3391 2362.199219 3390.199219 C 2451.699219 3206.601562 2522.5 3012.699219 2575.101562 2813.199219 C 2455.398438 2819.601562 2336.898438 2823.699219 2221.199219 2826 C 2178.601562 3024.101562 2120.800781 3214.699219 2047.601562 3392.601562 Z M 1877.800781 3392.601562 L 1981.898438 3392.601562 L 1982.199219 3391.800781 C 2056.898438 3215 2115.699219 3024.898438 2159.199219 2827.101562 C 2096.898438 2828 2035.5 2828.398438 1975.300781 2828.398438 C 1880.300781 2828.398438 1788.300781 2827.199219 1700.101562 2825.300781 C 1743.699219 3023.800781 1802.601562 3214.398438 1877.5 3391.800781 Z M 1498.5 3392.601562 L 1812.199219 3392.601562 C 1738.699219 3214 1680.800781 3022.601562 1638 2823.800781 C 1507 2820.300781 1385.300781 2815.101562 1276.398438 2809.199219 C 1330 3013.101562 1403.300781 3208.601562 1497.101562 3389.601562 C 1497.699219 3390.601562 1498.101562 3391.601562 1498.5 3392.601562 Z M 825.101562 2775.101562 C 880.101562 2985.898438 956.898438 3188 1056.101562 3374 C 1060.699219 3384.898438 1071.398438 3392.601562 1084 3392.601562 L 1430.5 3392.601562 C 1338 3209 1265.699219 3011.300781 1213.101562 2805.601562 C 1042.601562 2795.5 908.300781 2783.898438 825.101562 2775.101562 Z M 2653.699219 2748.300781 C 2789.699219 2739.898438 2926.898438 2728.5 3063.300781 2713.398438 C 3096.300781 2575.398438 3120.199219 2434.101562 3135.101562 2291.601562 C 3002.300781 2305.800781 2865.5 2316.5 2727.601562 2324.5 C 2711.398438 2467.199219 2686.800781 2608.898438 2653.699219 2748.300781 Z M 2233.800781 2765.5 C 2350.398438 2763 2469.898438 2758.601562 2590.699219 2752 C 2624.699219 2612.601562 2649.800781 2470.699219 2666.398438 2327.898438 C 2542.5 2334.300781 2418 2338.601562 2295 2341.101562 C 2281.800781 2484.601562 2261.398438 2626.699219 2233.800781 2765.5 Z M 1687.300781 2764.800781 C 1779.398438 2766.898438 1875.699219 2768.199219 1975.300781 2768.199219 C 2039.601562 2768.199219 2105.300781 2767.699219 2172 2766.699219 C 2200.101562 2628.101562 2220.800781 2485.898438 2234.300781 2342.101562 C 2157.699219 2343.300781 2081.800781 2343.800781 2007.101562 2343.800781 C 1874.800781 2343.800781 1746.5 2342 1625 2339 C 1638.5 2483.199219 1659.199219 2625.699219 1687.300781 2764.800781 Z M 1261 2747.898438 C 1370.199219 2754 1492.898438 2759.5 1625.5 2763.199219 C 1597.898438 2624 1577.601562 2481.5 1564.398438 2337.398438 C 1427.699219 2333.5 1300.601562 2328.300781 1187.199219 2322.398438 C 1202.800781 2466.5 1227.398438 2609 1261 2747.898438 Z M 737.800781 2290.699219 C 752.699219 2433.300781 776.5 2574.601562 809.5 2712.5 C 886.300781 2721.101562 1021.699219 2733.398438 1198 2744.199219 C 1165.300781 2605.199219 1141.398438 2462.898438 1126.101562 2319 C 954.398438 2309.5 819.300781 2298.898438 737.800781 2290.699219 Z M 2733.898438 2263.601562 C 2871.699219 2255.5 3008.300781 2244.5 3140.898438 2230.101562 C 3148.699219 2139.398438 3153 2048.300781 3153.699219 1957.300781 C 3154.699219 1830.699219 3148.800781 1703.398438 3136.101562 1577.101562 C 3004.300781 1562.699219 2868.800781 1551.800781 2732.398438 1543.601562 C 2745.398438 1673.101562 2751.5 1804 2750.601562 1935.300781 C 2750 2044.699219 2744.398438 2154.398438 2733.898438 2263.601562 Z M 2300.199219 2280.601562 C 2423.601562 2278 2548.601562 2273.699219 2673 2267.101562 C 2683.898438 2156.699219 2689.699219 2045.800781 2690.398438 1935.101562 C 2691.300781 1802.699219 2684.898438 1670.601562 2671.5 1540.199219 C 2545.898438 1533.5 2419.898438 1529 2295.601562 1526.398438 C 2308.300781 1668.5 2314.398438 1812.300781 2313.699219 1956.101562 C 2313.101562 2064.5 2308.601562 2172.898438 2300.199219 2280.601562 Z M 1619.898438 2278.5 C 1743 2281.601562 1873.101562 2283.5 2007.199219 2283.5 C 2083.5 2283.5 2161.199219 2283 2239.601562 2281.699219 C 2248.199219 2173.601562 2252.800781 2064.699219 2253.398438 1955.800781 C 2254.199219 1811.699219 2248 1667.601562 2235 1525.199219 C 2157.300781 1523.898438 2080.398438 1523.398438 2004.800781 1523.398438 C 1873.101562 1523.5 1745.300781 1525.300781 1624.5 1528.398438 C 1611.699219 1669.601562 1605.601562 1812.5 1606.398438 1955.5 C 1606.898438 2063.398438 1611.398438 2171.398438 1619.898438 2278.5 Z M 1181 2261.601562 C 1294.398438 2267.5 1421.898438 2272.898438 1559.300781 2276.898438 C 1551 2170.300781 1546.699219 2063 1546.101562 1955.699219 C 1545.300781 1813.300781 1551.300781 1670.800781 1563.800781 1530 C 1426.601562 1534 1299.300781 1539.398438 1186.199219 1545.5 C 1171.898438 1680.898438 1165.199219 1817.898438 1166.101562 1954.898438 C 1166.699219 2057.398438 1171.699219 2159.800781 1181 2261.601562 Z M 736.800781 1578.300781 C 724.300781 1703.101562 718.398438 1829 719.199219 1954.601562 C 719.800781 2046.199219 724.101562 2138 731.898438 2229.398438 C 809.5 2237.5 945.199219 2248.398438 1120.101562 2258.300781 C 1111.101562 2157.699219 1106.300781 2056.398438 1105.601562 1955.199219 C 1104.699219 1819.300781 1111.199219 1683.398438 1125 1549 C 949.398438 1559 813.601562 1570.101562 736.800781 1578.300781 Z M 2725.800781 1482.699219 C 2862.199219 1490.699219 2997.601562 1501.398438 3129.398438 1515.5 C 3112.5 1372.398438 3087 1230.898438 3053 1093.300781 C 2918.398438 1078.398438 2783.199219 1067 2649.699219 1058.601562 C 2683.5 1196.898438 2708.898438 1338.800781 2725.800781 1482.699219 Z M 2289.800781 1465.898438 C 2413.800781 1468.398438 2539.5 1472.699219 2664.699219 1479.300781 C 2647.300781 1335.101562 2621.199219 1193.101562 2586.5 1054.898438 C 2463.699219 1048 2342.5 1043.5 2224.5 1041 C 2253.101562 1179.398438 2274.898438 1321.699219 2289.800781 1465.898438 Z M 1630.300781 1467.898438 C 1749.398438 1465 1875.101562 1463.199219 2004.699219 1463.101562 C 2078.398438 1463.101562 2153.300781 1463.601562 2229 1464.800781 C 2213.800781 1320.398438 2191.601562 1178.199219 2162.5 1039.898438 C 2097.601562 1038.898438 2033.800781 1038.398438 1971.398438 1038.5 C 1876.5 1038.601562 1784.699219 1039.699219 1696.800781 1041.699219 C 1667.699219 1180.398438 1645.5 1323.101562 1630.300781 1467.898438 Z M 1193.101562 1484.699219 C 1306.199219 1478.800781 1433.101562 1473.398438 1569.601562 1469.601562 C 1584.398438 1324.898438 1606.300781 1182.199219 1634.898438 1043.300781 C 1502.898438 1047 1380.800781 1052.398438 1272.101562 1058.601562 C 1237.199219 1197.199219 1210.800781 1339.898438 1193.101562 1484.699219 Z M 820.5 1094.398438 C 786.199219 1232 760.5 1373.398438 743.601562 1516.699219 C 824.699219 1508.5 959.800781 1497.699219 1132 1488 C 1149.300781 1343.5 1174.898438 1201 1208.898438 1062.300781 C 1032.601562 1073.300781 897.398438 1085.800781 820.5 1094.398438 Z M 2634 997.199219 C 2767.398438 1005.300781 2902.398438 1016.199219 3036.800781 1030.699219 C 2986.699219 843.898438 2920.699219 665 2839.300781 500 C 2833.601562 488.5 2825.199219 480.398438 2810.800781 480.398438 L 2447.898438 480.398438 C 2524.199219 643.601562 2586.300781 817 2634 997.199219 Z M 2211.5 980.398438 C 2328.601562 982.699219 2448.699219 986.898438 2570.5 993.5 C 2522 815 2459 643.5 2381.800781 482.398438 C 2381.5 481.699219 2381.199219 481 2380.898438 480.300781 L 2062.699219 480.300781 C 2122.898438 638 2172.601562 805.898438 2211.5 980.398438 Z M 1710 981.101562 C 1793.898438 979.300781 1881.300781 978.199219 1971.398438 978.199219 C 2029.601562 978.199219 2089 978.601562 2149.300781 979.398438 C 2109.699219 804.898438 2059 637.199219 1997.601562 480.398438 L 1862.101562 480.398438 C 1800.5 637.699219 1749.699219 805.898438 1710 981.101562 Z M 1288 997.199219 C 1396.300781 991.199219 1517.300781 986 1647.800781 982.601562 C 1686.699219 807.300781 1736.601562 638.601562 1797.199219 480.398438 L 1479 480.398438 C 1478.699219 481.101562 1478.398438 481.800781 1478.101562 482.5 C 1400.5 643.601562 1337 816.601562 1288 997.199219 Z M 1064.5 480.300781 C 1051.800781 480.300781 1040.898438 488.101562 1036.398438 499.300781 C 954.101562 665.300781 887.300781 844.601562 836.699219 1031.800781 C 920 1023 1054.101562 1011.101562 1224.398438 1000.898438 C 1272.601562 818.699219 1335.199219 643.800781 1411.898438 480.398438 Z M 1064.5 480.300781 "/>
</clipPath>
<clipPath id="clip-2">
<path clip-rule="nonzero" d="M 2428.5 3392.601562 L 2788.898438 3392.601562 C 2800.398438 3392.601562 2810.101562 3386.398438 2815.699219 3376.5 C 2915.398438 3190.101562 2992.5 2987.300781 3047.699219 2775.898438 C 2911.5 2790.5 2774.398438 2801.601562 2638.601562 2809.699219 C 2586.800781 3011 2516.898438 3206.800781 2428.5 3392.601562 Z M 2047.601562 3392.601562 L 2361.199219 3392.601562 C 2361.5 3391.800781 2361.898438 3391 2362.199219 3390.199219 C 2451.699219 3206.601562 2522.5 3012.699219 2575.101562 2813.199219 C 2455.398438 2819.601562 2336.898438 2823.699219 2221.199219 2826 C 2178.601562 3024.101562 2120.800781 3214.699219 2047.601562 3392.601562 Z M 1877.800781 3392.601562 L 1981.898438 3392.601562 L 1982.199219 3391.800781 C 2056.898438 3215 2115.699219 3024.898438 2159.199219 2827.101562 C 2096.898438 2828 2035.5 2828.398438 1975.300781 2828.398438 C 1880.300781 2828.398438 1788.300781 2827.199219 1700.101562 2825.300781 C 1743.699219 3023.800781 1802.601562 3214.398438 1877.5 3391.800781 Z M 1498.5 3392.601562 L 1812.199219 3392.601562 C 1738.699219 3214 1680.800781 3022.601562 1638 2823.800781 C 1507 2820.300781 1385.300781 2815.101562 1276.398438 2809.199219 C 1330 3013.101562 1403.300781 3208.601562 1497.101562 3389.601562 C 1497.699219 3390.601562 1498.101562 3391.601562 1498.5 3392.601562 Z M 825.101562 2775.101562 C 880.101562 2985.898438 956.898438 3188 1056.101562 3374 C 1060.699219 3384.898438 1071.398438 3392.601562 1084 3392.601562 L 1430.5 3392.601562 C 1338 3209 1265.699219 3011.300781 1213.101562 2805.601562 C 1042.601562 2795.5 908.300781 2783.898438 825.101562 2775.101562 Z M 2653.699219 2748.300781 C 2789.699219 2739.898438 2926.898438 2728.5 3063.300781 2713.398438 C 3096.300781 2575.398438 3120.199219 2434.101562 3135.101562 2291.601562 C 3002.300781 2305.800781 2865.5 2316.5 2727.601562 2324.5 C 2711.398438 2467.199219 2686.800781 2608.898438 2653.699219 2748.300781 Z M 2233.800781 2765.5 C 2350.398438 2763 2469.898438 2758.601562 2590.699219 2752 C 2624.699219 2612.601562 2649.800781 2470.699219 2666.398438 2327.898438 C 2542.5 2334.300781 2418 2338.601562 2295 2341.101562 C 2281.800781 2484.601562 2261.398438 2626.699219 2233.800781 2765.5 Z M 1687.300781 2764.800781 C 1779.398438 2766.898438 1875.699219 2768.199219 1975.300781 2768.199219 C 2039.601562 2768.199219 2105.300781 2767.699219 2172 2766.699219 C 2200.101562 2628.101562 2220.800781 2485.898438 2234.300781 2342.101562 C 2157.699219 2343.300781 2081.800781 2343.800781 2007.101562 2343.800781 C 1874.800781 2343.800781 1746.5 2342 1625 2339 C 1638.5 2483.199219 1659.199219 2625.699219 1687.300781 2764.800781 Z M 1261 2747.898438 C 1370.199219 2754 1492.898438 2759.5 1625.5 2763.199219 C 1597.898438 2624 1577.601562 2481.5 1564.398438 2337.398438 C 1427.699219 2333.5 1300.601562 2328.300781 1187.199219 2322.398438 C 1202.800781 2466.5 1227.398438 2609 1261 2747.898438 Z M 737.800781 2290.699219 C 752.699219 2433.300781 776.5 2574.601562 809.5 2712.5 C 886.300781 2721.101562 1021.699219 2733.398438 1198 2744.199219 C 1165.300781 2605.199219 1141.398438 2462.898438 1126.101562 2319 C 954.398438 2309.5 819.300781 2298.898438 737.800781 2290.699219 Z M 2733.898438 2263.601562 C 2871.699219 2255.5 3008.300781 2244.5 3140.898438 2230.101562 C 3148.699219 2139.398438 3153 2048.300781 3153.699219 1957.300781 C 3154.699219 1830.699219 3148.800781 1703.398438 3136.101562 1577.101562 C 3004.300781 1562.699219 2868.800781 1551.800781 2732.398438 1543.601562 C 2745.398438 1673.101562 2751.5 1804 2750.601562 1935.300781 C 2750 2044.699219 2744.398438 2154.398438 2733.898438 2263.601562 Z M 2300.199219 2280.601562 C 2423.601562 2278 2548.601562 2273.699219 2673 2267.101562 C 2683.898438 2156.699219 2689.699219 2045.800781 2690.398438 1935.101562 C 2691.300781 1802.699219 2684.898438 1670.601562 2671.5 1540.199219 C 2545.898438 1533.5 2419.898438 1529 2295.601562 1526.398438 C 2308.300781 1668.5 2314.398438 1812.300781 2313.699219 1956.101562 C 2313.101562 2064.5 2308.601562 2172.898438 2300.199219 2280.601562 Z M 1619.898438 2278.5 C 1743 2281.601562 1873.101562 2283.5 2007.199219 2283.5 C 2083.5 2283.5 2161.199219 2283 2239.601562 2281.699219 C 2248.199219 2173.601562 2252.800781 2064.699219 2253.398438 1955.800781 C 2254.199219 1811.699219 2248 1667.601562 2235 1525.199219 C 2157.300781 1523.898438 2080.398438 1523.398438 2004.800781 1523.398438 C 1873.101562 1523.5 1745.300781 1525.300781 1624.5 1528.398438 C 1611.699219 1669.601562 1605.601562 1812.5 1606.398438 1955.5 C 1606.898438 2063.398438 1611.398438 2171.398438 1619.898438 2278.5 Z M 1181 2261.601562 C 1294.398438 2267.5 1421.898438 2272.898438 1559.300781 2276.898438 C 1551 2170.300781 1546.699219 2063 1546.101562 1955.699219 C 1545.300781 1813.300781 1551.300781 1670.800781 1563.800781 1530 C 1426.601562 1534 1299.300781 1539.398438 1186.199219 1545.5 C 1171.898438 1680.898438 1165.199219 1817.898438 1166.101562 1954.898438 C 1166.699219 2057.398438 1171.699219 2159.800781 1181 2261.601562 Z M 736.800781 1578.300781 C 724.300781 1703.101562 718.398438 1829 719.199219 1954.601562 C 719.800781 2046.199219 724.101562 2138 731.898438 2229.398438 C 809.5 2237.5 945.199219 2248.398438 1120.101562 2258.300781 C 1111.101562 2157.699219 1106.300781 2056.398438 1105.601562 1955.199219 C 1104.699219 1819.300781 1111.199219 1683.398438 1125 1549 C 949.398438 1559 813.601562 1570.101562 736.800781 1578.300781 Z M 2725.800781 1482.699219 C 2862.199219 1490.699219 2997.601562 1501.398438 3129.398438 1515.5 C 3112.5 1372.398438 3087 1230.898438 3053 1093.300781 C 2918.398438 1078.398438 2783.199219 1067 2649.699219 1058.601562 C 2683.5 1196.898438 2708.898438 1338.800781 2725.800781 1482.699219 Z M 2289.800781 1465.898438 C 2413.800781 1468.398438 2539.5 1472.699219 2664.699219 1479.300781 C 2647.300781 1335.101562 2621.199219 1193.101562 2586.5 1054.898438 C 2463.699219 1048 2342.5 1043.5 2224.5 1041 C 2253.101562 1179.398438 2274.898438 1321.699219 2289.800781 1465.898438 Z M 1630.300781 1467.898438 C 1749.398438 1465 1875.101562 1463.199219 2004.699219 1463.101562 C 2078.398438 1463.101562 2153.300781 1463.601562 2229 1464.800781 C 2213.800781 1320.398438 2191.601562 1178.199219 2162.5 1039.898438 C 2097.601562 1038.898438 2033.800781 1038.398438 1971.398438 1038.5 C 1876.5 1038.601562 1784.699219 1039.699219 1696.800781 1041.699219 C 1667.699219 1180.398438 1645.5 1323.101562 1630.300781 1467.898438 Z M 1193.101562 1484.699219 C 1306.199219 1478.800781 1433.101562 1473.398438 1569.601562 1469.601562 C 1584.398438 1324.898438 1606.300781 1182.199219 1634.898438 1043.300781 C 1502.898438 1047 1380.800781 1052.398438 1272.101562 1058.601562 C 1237.199219 1197.199219 1210.800781 1339.898438 1193.101562 1484.699219 Z M 820.5 1094.398438 C 786.199219 1232 760.5 1373.398438 743.601562 1516.699219 C 824.699219 1508.5 959.800781 1497.699219 1132 1488 C 1149.300781 1343.5 1174.898438 1201 1208.898438 1062.300781 C 1032.601562 1073.300781 897.398438 1085.800781 820.5 1094.398438 Z M 2634 997.199219 C 2767.398438 1005.300781 2902.398438 1016.199219 3036.800781 1030.699219 C 2986.699219 843.898438 2920.699219 665 2839.300781 500 C 2833.601562 488.5 2825.199219 480.398438 2810.800781 480.398438 L 2447.898438 480.398438 C 2524.199219 643.601562 2586.300781 817 2634 997.199219 Z M 2211.5 980.398438 C 2328.601562 982.699219 2448.699219 986.898438 2570.5 993.5 C 2522 815 2459 643.5 2381.800781 482.398438 C 2381.5 481.699219 2381.199219 481 2380.898438 480.300781 L 2062.699219 480.300781 C 2122.898438 638 2172.601562 805.898438 2211.5 980.398438 Z M 1710 981.101562 C 1793.898438 979.300781 1881.300781 978.199219 1971.398438 978.199219 C 2029.601562 978.199219 2089 978.601562 2149.300781 979.398438 C 2109.699219 804.898438 2059 637.199219 1997.601562 480.398438 L 1862.101562 480.398438 C 1800.5 637.699219 1749.699219 805.898438 1710 981.101562 Z M 1288 997.199219 C 1396.300781 991.199219 1517.300781 986 1647.800781 982.601562 C 1686.699219 807.300781 1736.601562 638.601562 1797.199219 480.398438 L 1479 480.398438 C 1478.699219 481.101562 1478.398438 481.800781 1478.101562 482.5 C 1400.5 643.601562 1337 816.601562 1288 997.199219 Z M 1064.5 480.300781 C 1051.800781 480.300781 1040.898438 488.101562 1036.398438 499.300781 C 954.101562 665.300781 887.300781 844.601562 836.699219 1031.800781 C 920 1023 1054.101562 1011.101562 1224.398438 1000.898438 C 1272.601562 818.699219 1335.199219 643.800781 1411.898438 480.398438 L 1064.5 480.300781 "/>
</clipPath>
<linearGradient id="linear-pattern-0" gradientUnits="userSpaceOnUse" x1="-0.000365551" y1="0" x2="1.0003" y2="0" gradientTransform="matrix(-2434.68, 0, 0, -2434.68, 3153.81, 1936.45)">
<stop offset="0" stop-color="rgb(100%, 0%, 39.99939%)" stop-opacity="1"/>
<stop offset="0.00390625" stop-color="rgb(99.172974%, 0.8255%, 39.668274%)" stop-opacity="1"/>
<stop offset="0.0078125" stop-color="rgb(98.347473%, 1.651001%, 39.338684%)" stop-opacity="1"/>
<stop offset="0.0117188" stop-color="rgb(97.480774%, 2.5177%, 38.990784%)" stop-opacity="1"/>
<stop offset="0.015625" stop-color="rgb(96.614075%, 3.384399%, 38.644409%)" stop-opacity="1"/>
<stop offset="0.0195312" stop-color="rgb(95.747375%, 4.251099%, 38.298035%)" stop-opacity="1"/>
<stop offset="0.0234375" stop-color="rgb(94.880676%, 5.117798%, 37.95166%)" stop-opacity="1"/>
<stop offset="0.0273438" stop-color="rgb(94.013977%, 5.984497%, 37.605286%)" stop-opacity="1"/>
<stop offset="0.03125" stop-color="rgb(93.147278%, 6.851196%, 37.258911%)" stop-opacity="1"/>
<stop offset="0.0351562" stop-color="rgb(92.280579%, 7.717896%, 36.911011%)" stop-opacity="1"/>
<stop offset="0.0390625" stop-color="rgb(91.413879%, 8.584595%, 36.564636%)" stop-opacity="1"/>
<stop offset="0.0429688" stop-color="rgb(90.54718%, 9.451294%, 36.218262%)" stop-opacity="1"/>
<stop offset="0.046875" stop-color="rgb(89.680481%, 10.317993%, 35.871887%)" stop-opacity="1"/>
<stop offset="0.0507812" stop-color="rgb(88.813782%, 11.184692%, 35.523987%)" stop-opacity="1"/>
<stop offset="0.0546875" stop-color="rgb(87.947083%, 12.051392%, 35.177612%)" stop-opacity="1"/>
<stop offset="0.0585938" stop-color="rgb(87.080383%, 12.918091%, 34.831238%)" stop-opacity="1"/>
<stop offset="0.0625" stop-color="rgb(86.213684%, 13.78479%, 34.484863%)" stop-opacity="1"/>
<stop offset="0.0664062" stop-color="rgb(85.346985%, 14.651489%, 34.138489%)" stop-opacity="1"/>
<stop offset="0.0703125" stop-color="rgb(84.480286%, 15.518188%, 33.792114%)" stop-opacity="1"/>
<stop offset="0.0742188" stop-color="rgb(83.613586%, 16.384888%, 33.444214%)" stop-opacity="1"/>
<stop offset="0.078125" stop-color="rgb(82.746887%, 17.251587%, 33.097839%)" stop-opacity="1"/>
<stop offset="0.0820312" stop-color="rgb(81.880188%, 18.118286%, 32.751465%)" stop-opacity="1"/>
<stop offset="0.0859375" stop-color="rgb(81.013489%, 18.984985%, 32.40509%)" stop-opacity="1"/>
<stop offset="0.0898438" stop-color="rgb(80.145264%, 19.851685%, 32.05719%)" stop-opacity="1"/>
<stop offset="0.09375" stop-color="rgb(79.278564%, 20.71991%, 31.710815%)" stop-opacity="1"/>
<stop offset="0.0976562" stop-color="rgb(78.411865%, 21.586609%, 31.364441%)" stop-opacity="1"/>
<stop offset="0.101562" stop-color="rgb(77.545166%, 22.453308%, 31.018066%)" stop-opacity="1"/>
<stop offset="0.105469" stop-color="rgb(76.678467%, 23.320007%, 30.670166%)" stop-opacity="1"/>
<stop offset="0.109375" stop-color="rgb(75.811768%, 24.186707%, 30.323792%)" stop-opacity="1"/>
<stop offset="0.113281" stop-color="rgb(74.945068%, 25.053406%, 29.977417%)" stop-opacity="1"/>
<stop offset="0.117188" stop-color="rgb(74.078369%, 25.920105%, 29.631042%)" stop-opacity="1"/>
<stop offset="0.121094" stop-color="rgb(73.21167%, 26.786804%, 29.284668%)" stop-opacity="1"/>
<stop offset="0.125" stop-color="rgb(72.344971%, 27.653503%, 28.938293%)" stop-opacity="1"/>
<stop offset="0.128906" stop-color="rgb(71.478271%, 28.520203%, 28.590393%)" stop-opacity="1"/>
<stop offset="0.132812" stop-color="rgb(70.611572%, 29.386902%, 28.244019%)" stop-opacity="1"/>
<stop offset="0.136719" stop-color="rgb(69.744873%, 30.253601%, 27.897644%)" stop-opacity="1"/>
<stop offset="0.140625" stop-color="rgb(68.878174%, 31.1203%, 27.55127%)" stop-opacity="1"/>
<stop offset="0.144531" stop-color="rgb(68.011475%, 31.987%, 27.203369%)" stop-opacity="1"/>
<stop offset="0.148438" stop-color="rgb(67.144775%, 32.853699%, 26.856995%)" stop-opacity="1"/>
<stop offset="0.152344" stop-color="rgb(66.278076%, 33.720398%, 26.51062%)" stop-opacity="1"/>
<stop offset="0.15625" stop-color="rgb(65.411377%, 34.587097%, 26.164246%)" stop-opacity="1"/>
<stop offset="0.160156" stop-color="rgb(64.544678%, 35.453796%, 25.817871%)" stop-opacity="1"/>
<stop offset="0.164062" stop-color="rgb(63.677979%, 36.320496%, 25.471497%)" stop-opacity="1"/>
<stop offset="0.167969" stop-color="rgb(62.811279%, 37.187195%, 25.123596%)" stop-opacity="1"/>
<stop offset="0.171875" stop-color="rgb(61.94458%, 38.053894%, 24.777222%)" stop-opacity="1"/>
<stop offset="0.175781" stop-color="rgb(61.077881%, 38.920593%, 24.430847%)" stop-opacity="1"/>
<stop offset="0.179688" stop-color="rgb(60.211182%, 39.787292%, 24.084473%)" stop-opacity="1"/>
<stop offset="0.183594" stop-color="rgb(59.344482%, 40.653992%, 23.736572%)" stop-opacity="1"/>
<stop offset="0.1875" stop-color="rgb(58.477783%, 41.520691%, 23.390198%)" stop-opacity="1"/>
<stop offset="0.191406" stop-color="rgb(57.611084%, 42.38739%, 23.043823%)" stop-opacity="1"/>
<stop offset="0.195312" stop-color="rgb(56.744385%, 43.254089%, 22.697449%)" stop-opacity="1"/>
<stop offset="0.199219" stop-color="rgb(55.877686%, 44.120789%, 22.351074%)" stop-opacity="1"/>
<stop offset="0.203125" stop-color="rgb(55.010986%, 44.987488%, 22.0047%)" stop-opacity="1"/>
<stop offset="0.207031" stop-color="rgb(54.144287%, 45.854187%, 21.656799%)" stop-opacity="1"/>
<stop offset="0.210938" stop-color="rgb(53.277588%, 46.720886%, 21.310425%)" stop-opacity="1"/>
<stop offset="0.214844" stop-color="rgb(52.410889%, 47.587585%, 20.96405%)" stop-opacity="1"/>
<stop offset="0.21875" stop-color="rgb(51.544189%, 48.454285%, 20.617676%)" stop-opacity="1"/>
<stop offset="0.222656" stop-color="rgb(50.67749%, 49.320984%, 20.269775%)" stop-opacity="1"/>
<stop offset="0.226562" stop-color="rgb(49.810791%, 50.187683%, 19.923401%)" stop-opacity="1"/>
<stop offset="0.230469" stop-color="rgb(48.944092%, 51.054382%, 19.577026%)" stop-opacity="1"/>
<stop offset="0.234375" stop-color="rgb(48.077393%, 51.921082%, 19.230652%)" stop-opacity="1"/>
<stop offset="0.238281" stop-color="rgb(47.210693%, 52.787781%, 18.884277%)" stop-opacity="1"/>
<stop offset="0.242188" stop-color="rgb(46.343994%, 53.65448%, 18.537903%)" stop-opacity="1"/>
<stop offset="0.246094" stop-color="rgb(45.477295%, 54.521179%, 18.190002%)" stop-opacity="1"/>
<stop offset="0.25" stop-color="rgb(44.610596%, 55.387878%, 17.843628%)" stop-opacity="1"/>
<stop offset="0.253906" stop-color="rgb(43.743896%, 56.254578%, 17.497253%)" stop-opacity="1"/>
<stop offset="0.257812" stop-color="rgb(42.877197%, 57.121277%, 17.150879%)" stop-opacity="1"/>
<stop offset="0.261719" stop-color="rgb(42.010498%, 57.987976%, 16.802979%)" stop-opacity="1"/>
<stop offset="0.265625" stop-color="rgb(41.143799%, 58.854675%, 16.456604%)" stop-opacity="1"/>
<stop offset="0.269531" stop-color="rgb(40.2771%, 59.721375%, 16.110229%)" stop-opacity="1"/>
<stop offset="0.273438" stop-color="rgb(39.4104%, 60.588074%, 15.763855%)" stop-opacity="1"/>
<stop offset="0.277344" stop-color="rgb(38.543701%, 61.454773%, 15.41748%)" stop-opacity="1"/>
<stop offset="0.28125" stop-color="rgb(37.677002%, 62.321472%, 15.071106%)" stop-opacity="1"/>
<stop offset="0.285156" stop-color="rgb(36.810303%, 63.188171%, 14.723206%)" stop-opacity="1"/>
<stop offset="0.289063" stop-color="rgb(35.943604%, 64.054871%, 14.376831%)" stop-opacity="1"/>
<stop offset="0.292969" stop-color="rgb(35.076904%, 64.92157%, 14.030457%)" stop-opacity="1"/>
<stop offset="0.296875" stop-color="rgb(34.210205%, 65.788269%, 13.684082%)" stop-opacity="1"/>
<stop offset="0.300781" stop-color="rgb(33.343506%, 66.654968%, 13.336182%)" stop-opacity="1"/>
<stop offset="0.304687" stop-color="rgb(32.476807%, 67.521667%, 12.989807%)" stop-opacity="1"/>
<stop offset="0.308594" stop-color="rgb(31.610107%, 68.388367%, 12.643433%)" stop-opacity="1"/>
<stop offset="0.3125" stop-color="rgb(30.743408%, 69.255066%, 12.297058%)" stop-opacity="1"/>
<stop offset="0.316406" stop-color="rgb(29.876709%, 70.121765%, 11.950684%)" stop-opacity="1"/>
<stop offset="0.320312" stop-color="rgb(29.01001%, 70.988464%, 11.604309%)" stop-opacity="1"/>
<stop offset="0.324219" stop-color="rgb(28.143311%, 71.855164%, 11.256409%)" stop-opacity="1"/>
<stop offset="0.328125" stop-color="rgb(27.276611%, 72.721863%, 10.910034%)" stop-opacity="1"/>
<stop offset="0.332031" stop-color="rgb(26.409912%, 73.588562%, 10.56366%)" stop-opacity="1"/>
<stop offset="0.335938" stop-color="rgb(25.543213%, 74.455261%, 10.217285%)" stop-opacity="1"/>
<stop offset="0.339844" stop-color="rgb(24.676514%, 75.32196%, 9.869385%)" stop-opacity="1"/>
<stop offset="0.34375" stop-color="rgb(23.809814%, 76.18866%, 9.52301%)" stop-opacity="1"/>
<stop offset="0.347656" stop-color="rgb(22.943115%, 77.055359%, 9.176636%)" stop-opacity="1"/>
<stop offset="0.351562" stop-color="rgb(22.076416%, 77.922058%, 8.830261%)" stop-opacity="1"/>
<stop offset="0.355469" stop-color="rgb(21.209717%, 78.788757%, 8.483887%)" stop-opacity="1"/>
<stop offset="0.359375" stop-color="rgb(20.343018%, 79.655457%, 8.137512%)" stop-opacity="1"/>
<stop offset="0.363281" stop-color="rgb(19.476318%, 80.522156%, 7.789612%)" stop-opacity="1"/>
<stop offset="0.367188" stop-color="rgb(18.609619%, 81.388855%, 7.443237%)" stop-opacity="1"/>
<stop offset="0.371094" stop-color="rgb(17.74292%, 82.255554%, 7.096863%)" stop-opacity="1"/>
<stop offset="0.375" stop-color="rgb(16.876221%, 83.122253%, 6.750488%)" stop-opacity="1"/>
<stop offset="0.378906" stop-color="rgb(16.009521%, 83.988953%, 6.402588%)" stop-opacity="1"/>
<stop offset="0.382813" stop-color="rgb(15.142822%, 84.855652%, 6.056213%)" stop-opacity="1"/>
<stop offset="0.386719" stop-color="rgb(14.276123%, 85.722351%, 5.709839%)" stop-opacity="1"/>
<stop offset="0.390625" stop-color="rgb(13.409424%, 86.58905%, 5.363464%)" stop-opacity="1"/>
<stop offset="0.394531" stop-color="rgb(12.542725%, 87.45575%, 5.01709%)" stop-opacity="1"/>
<stop offset="0.398438" stop-color="rgb(11.676025%, 88.322449%, 4.670715%)" stop-opacity="1"/>
<stop offset="0.402344" stop-color="rgb(10.809326%, 89.189148%, 4.322815%)" stop-opacity="1"/>
<stop offset="0.40625" stop-color="rgb(9.942627%, 90.055847%, 3.97644%)" stop-opacity="1"/>
<stop offset="0.410156" stop-color="rgb(9.075928%, 90.922546%, 3.630066%)" stop-opacity="1"/>
<stop offset="0.414062" stop-color="rgb(8.209229%, 91.789246%, 3.283691%)" stop-opacity="1"/>
<stop offset="0.417969" stop-color="rgb(7.342529%, 92.655945%, 2.935791%)" stop-opacity="1"/>
<stop offset="0.421875" stop-color="rgb(6.47583%, 93.522644%, 2.589417%)" stop-opacity="1"/>
<stop offset="0.425781" stop-color="rgb(5.609131%, 94.389343%, 2.243042%)" stop-opacity="1"/>
<stop offset="0.429688" stop-color="rgb(4.742432%, 95.256042%, 1.896667%)" stop-opacity="1"/>
<stop offset="0.433594" stop-color="rgb(3.875732%, 96.122742%, 1.550293%)" stop-opacity="1"/>
<stop offset="0.4375" stop-color="rgb(3.009033%, 96.989441%, 1.203918%)" stop-opacity="1"/>
<stop offset="0.441406" stop-color="rgb(2.142334%, 97.85614%, 0.856018%)" stop-opacity="1"/>
<stop offset="0.445312" stop-color="rgb(1.275635%, 98.722839%, 0.509644%)" stop-opacity="1"/>
<stop offset="0.449219" stop-color="rgb(0.8255%, 99.360657%, 0.254822%)" stop-opacity="1"/>
<stop offset="0.453125" stop-color="rgb(0.375366%, 100%, 0%)" stop-opacity="1"/>
<stop offset="0.457031" stop-color="rgb(1.086426%, 100%, 0%)" stop-opacity="1"/>
<stop offset="0.460938" stop-color="rgb(1.799011%, 100%, 0%)" stop-opacity="1"/>
<stop offset="0.464844" stop-color="rgb(2.510071%, 100%, 0%)" stop-opacity="1"/>
<stop offset="0.46875" stop-color="rgb(3.222656%, 100%, 0%)" stop-opacity="1"/>
<stop offset="0.472656" stop-color="rgb(3.933716%, 100%, 0%)" stop-opacity="1"/>
<stop offset="0.476563" stop-color="rgb(4.646301%, 100%, 0%)" stop-opacity="1"/>
<stop offset="0.480469" stop-color="rgb(5.357361%, 100%, 0%)" stop-opacity="1"/>
<stop offset="0.484375" stop-color="rgb(6.069946%, 100%, 0%)" stop-opacity="1"/>
<stop offset="0.488281" stop-color="rgb(6.782532%, 100%, 0%)" stop-opacity="1"/>
<stop offset="0.492188" stop-color="rgb(7.495117%, 100%, 0%)" stop-opacity="1"/>
<stop offset="0.496094" stop-color="rgb(8.206177%, 100%, 0%)" stop-opacity="1"/>
<stop offset="0.5" stop-color="rgb(8.918762%, 100%, 0%)" stop-opacity="1"/>
<stop offset="0.503906" stop-color="rgb(9.629822%, 100%, 0%)" stop-opacity="1"/>
<stop offset="0.507812" stop-color="rgb(10.342407%, 100%, 0%)" stop-opacity="1"/>
<stop offset="0.511719" stop-color="rgb(11.053467%, 100%, 0%)" stop-opacity="1"/>
<stop offset="0.515625" stop-color="rgb(11.766052%, 100%, 0%)" stop-opacity="1"/>
<stop offset="0.519531" stop-color="rgb(12.478638%, 100%, 0%)" stop-opacity="1"/>
<stop offset="0.523438" stop-color="rgb(13.191223%, 100%, 0%)" stop-opacity="1"/>
<stop offset="0.527344" stop-color="rgb(13.902283%, 100%, 0%)" stop-opacity="1"/>
<stop offset="0.53125" stop-color="rgb(14.614868%, 100%, 0%)" stop-opacity="1"/>
<stop offset="0.535156" stop-color="rgb(15.325928%, 100%, 0%)" stop-opacity="1"/>
<stop offset="0.539062" stop-color="rgb(16.038513%, 100%, 0%)" stop-opacity="1"/>
<stop offset="0.542969" stop-color="rgb(16.749573%, 100%, 0%)" stop-opacity="1"/>
<stop offset="0.546875" stop-color="rgb(17.462158%, 100%, 0%)" stop-opacity="1"/>
<stop offset="0.550781" stop-color="rgb(18.173218%, 100%, 0%)" stop-opacity="1"/>
<stop offset="0.554688" stop-color="rgb(18.885803%, 100%, 0%)" stop-opacity="1"/>
<stop offset="0.558594" stop-color="rgb(19.598389%, 100%, 0%)" stop-opacity="1"/>
<stop offset="0.5625" stop-color="rgb(20.310974%, 100%, 0%)" stop-opacity="1"/>
<stop offset="0.566406" stop-color="rgb(21.022034%, 100%, 0%)" stop-opacity="1"/>
<stop offset="0.570313" stop-color="rgb(21.734619%, 100%, 0%)" stop-opacity="1"/>
<stop offset="0.574219" stop-color="rgb(22.445679%, 100%, 0%)" stop-opacity="1"/>
<stop offset="0.578125" stop-color="rgb(23.158264%, 100%, 0%)" stop-opacity="1"/>
<stop offset="0.582031" stop-color="rgb(23.869324%, 100%, 0%)" stop-opacity="1"/>
<stop offset="0.585938" stop-color="rgb(24.581909%, 100%, 0%)" stop-opacity="1"/>
<stop offset="0.589844" stop-color="rgb(25.294495%, 100%, 0%)" stop-opacity="1"/>
<stop offset="0.59375" stop-color="rgb(26.00708%, 100%, 0%)" stop-opacity="1"/>
<stop offset="0.597656" stop-color="rgb(26.71814%, 100%, 0%)" stop-opacity="1"/>
<stop offset="0.601562" stop-color="rgb(27.430725%, 100%, 0%)" stop-opacity="1"/>
<stop offset="0.605469" stop-color="rgb(28.141785%, 100%, 0%)" stop-opacity="1"/>
<stop offset="0.609375" stop-color="rgb(28.85437%, 100%, 0%)" stop-opacity="1"/>
<stop offset="0.613281" stop-color="rgb(29.56543%, 100%, 0%)" stop-opacity="1"/>
<stop offset="0.617188" stop-color="rgb(30.278015%, 100%, 0%)" stop-opacity="1"/>
<stop offset="0.621094" stop-color="rgb(30.989075%, 100%, 0%)" stop-opacity="1"/>
<stop offset="0.625" stop-color="rgb(31.70166%, 100%, 0%)" stop-opacity="1"/>
<stop offset="0.628906" stop-color="rgb(32.414246%, 100%, 0%)" stop-opacity="1"/>
<stop offset="0.632812" stop-color="rgb(33.126831%, 100%, 0%)" stop-opacity="1"/>
<stop offset="0.636719" stop-color="rgb(33.837891%, 100%, 0%)" stop-opacity="1"/>
<stop offset="0.640625" stop-color="rgb(34.550476%, 100%, 0%)" stop-opacity="1"/>
<stop offset="0.644531" stop-color="rgb(35.261536%, 100%, 0%)" stop-opacity="1"/>
<stop offset="0.648438" stop-color="rgb(35.974121%, 100%, 0%)" stop-opacity="1"/>
<stop offset="0.652344" stop-color="rgb(36.685181%, 100%, 0%)" stop-opacity="1"/>
<stop offset="0.65625" stop-color="rgb(37.397766%, 100%, 0%)" stop-opacity="1"/>
<stop offset="0.660156" stop-color="rgb(38.110352%, 100%, 0%)" stop-opacity="1"/>
<stop offset="0.664063" stop-color="rgb(38.822937%, 100%, 0%)" stop-opacity="1"/>
<stop offset="0.667969" stop-color="rgb(39.533997%, 100%, 0%)" stop-opacity="1"/>
<stop offset="0.671875" stop-color="rgb(40.246582%, 100%, 0%)" stop-opacity="1"/>
<stop offset="0.675781" stop-color="rgb(40.957642%, 100%, 0%)" stop-opacity="1"/>
<stop offset="0.679688" stop-color="rgb(41.670227%, 100%, 0%)" stop-opacity="1"/>
<stop offset="0.683594" stop-color="rgb(42.381287%, 100%, 0%)" stop-opacity="1"/>
<stop offset="0.6875" stop-color="rgb(43.093872%, 100%, 0%)" stop-opacity="1"/>
<stop offset="0.691406" stop-color="rgb(43.806458%, 100%, 0%)" stop-opacity="1"/>
<stop offset="0.695312" stop-color="rgb(44.519043%, 100%, 0%)" stop-opacity="1"/>
<stop offset="0.699219" stop-color="rgb(45.230103%, 100%, 0%)" stop-opacity="1"/>
<stop offset="0.703125" stop-color="rgb(45.942688%, 100%, 0%)" stop-opacity="1"/>
<stop offset="0.707031" stop-color="rgb(46.653748%, 100%, 0%)" stop-opacity="1"/>
<stop offset="0.710938" stop-color="rgb(47.366333%, 100%, 0%)" stop-opacity="1"/>
<stop offset="0.714844" stop-color="rgb(48.077393%, 100%, 0%)" stop-opacity="1"/>
<stop offset="0.71875" stop-color="rgb(48.789978%, 100%, 0%)" stop-opacity="1"/>
<stop offset="0.722656" stop-color="rgb(49.501038%, 100%, 0%)" stop-opacity="1"/>
<stop offset="0.726562" stop-color="rgb(50.213623%, 100%, 0%)" stop-opacity="1"/>
<stop offset="0.730469" stop-color="rgb(50.926208%, 100%, 0%)" stop-opacity="1"/>
<stop offset="0.734375" stop-color="rgb(51.638794%, 100%, 0%)" stop-opacity="1"/>
<stop offset="0.738281" stop-color="rgb(52.349854%, 100%, 0%)" stop-opacity="1"/>
<stop offset="0.742188" stop-color="rgb(53.062439%, 100%, 0%)" stop-opacity="1"/>
<stop offset="0.746094" stop-color="rgb(53.773499%, 100%, 0%)" stop-opacity="1"/>
<stop offset="0.75" stop-color="rgb(54.486084%, 100%, 0%)" stop-opacity="1"/>
<stop offset="0.753906" stop-color="rgb(55.197144%, 100%, 0%)" stop-opacity="1"/>
<stop offset="0.757813" stop-color="rgb(55.909729%, 100%, 0%)" stop-opacity="1"/>
<stop offset="0.761719" stop-color="rgb(56.622314%, 100%, 0%)" stop-opacity="1"/>
<stop offset="0.765625" stop-color="rgb(57.3349%, 100%, 0%)" stop-opacity="1"/>
<stop offset="0.769531" stop-color="rgb(58.045959%, 100%, 0%)" stop-opacity="1"/>
<stop offset="0.773438" stop-color="rgb(58.758545%, 100%, 0%)" stop-opacity="1"/>
<stop offset="0.777344" stop-color="rgb(59.469604%, 100%, 0%)" stop-opacity="1"/>
<stop offset="0.78125" stop-color="rgb(60.18219%, 100%, 0%)" stop-opacity="1"/>
<stop offset="0.785156" stop-color="rgb(60.89325%, 100%, 0%)" stop-opacity="1"/>
<stop offset="0.789062" stop-color="rgb(61.605835%, 100%, 0%)" stop-opacity="1"/>
<stop offset="0.792969" stop-color="rgb(62.316895%, 100%, 0%)" stop-opacity="1"/>
<stop offset="0.796875" stop-color="rgb(63.02948%, 100%, 0%)" stop-opacity="1"/>
<stop offset="0.800781" stop-color="rgb(63.742065%, 100%, 0%)" stop-opacity="1"/>
<stop offset="0.804688" stop-color="rgb(64.454651%, 100%, 0%)" stop-opacity="1"/>
<stop offset="0.808594" stop-color="rgb(65.16571%, 100%, 0%)" stop-opacity="1"/>
<stop offset="0.8125" stop-color="rgb(65.878296%, 100%, 0%)" stop-opacity="1"/>
<stop offset="0.816406" stop-color="rgb(66.589355%, 100%, 0%)" stop-opacity="1"/>
<stop offset="0.820312" stop-color="rgb(67.301941%, 100%, 0%)" stop-opacity="1"/>
<stop offset="0.824219" stop-color="rgb(68.013%, 100%, 0%)" stop-opacity="1"/>
<stop offset="0.828125" stop-color="rgb(68.725586%, 100%, 0%)" stop-opacity="1"/>
<stop offset="0.832031" stop-color="rgb(69.438171%, 100%, 0%)" stop-opacity="1"/>
<stop offset="0.835938" stop-color="rgb(70.150757%, 100%, 0%)" stop-opacity="1"/>
<stop offset="0.839844" stop-color="rgb(70.861816%, 100%, 0%)" stop-opacity="1"/>
<stop offset="0.84375" stop-color="rgb(71.574402%, 100%, 0%)" stop-opacity="1"/>
<stop offset="0.847656" stop-color="rgb(72.285461%, 100%, 0%)" stop-opacity="1"/>
<stop offset="0.851563" stop-color="rgb(72.998047%, 100%, 0%)" stop-opacity="1"/>
<stop offset="0.855469" stop-color="rgb(73.709106%, 100%, 0%)" stop-opacity="1"/>
<stop offset="0.859375" stop-color="rgb(74.421692%, 100%, 0%)" stop-opacity="1"/>
<stop offset="0.863281" stop-color="rgb(75.132751%, 100%, 0%)" stop-opacity="1"/>
<stop offset="0.867188" stop-color="rgb(75.845337%, 100%, 0%)" stop-opacity="1"/>
<stop offset="0.871094" stop-color="rgb(76.557922%, 100%, 0%)" stop-opacity="1"/>
<stop offset="0.875" stop-color="rgb(77.270508%, 100%, 0%)" stop-opacity="1"/>
<stop offset="0.878906" stop-color="rgb(77.981567%, 100%, 0%)" stop-opacity="1"/>
<stop offset="0.882812" stop-color="rgb(78.694153%, 100%, 0%)" stop-opacity="1"/>
<stop offset="0.886719" stop-color="rgb(79.405212%, 100%, 0%)" stop-opacity="1"/>
<stop offset="0.890625" stop-color="rgb(80.117798%, 100%, 0%)" stop-opacity="1"/>
<stop offset="0.894531" stop-color="rgb(80.828857%, 100%, 0%)" stop-opacity="1"/>
<stop offset="0.898438" stop-color="rgb(81.541443%, 100%, 0%)" stop-opacity="1"/>
<stop offset="0.902344" stop-color="rgb(82.254028%, 100%, 0%)" stop-opacity="1"/>
<stop offset="0.90625" stop-color="rgb(82.966614%, 100%, 0%)" stop-opacity="1"/>
<stop offset="0.910156" stop-color="rgb(83.677673%, 100%, 0%)" stop-opacity="1"/>
<stop offset="0.914062" stop-color="rgb(84.390259%, 100%, 0%)" stop-opacity="1"/>
<stop offset="0.917969" stop-color="rgb(85.101318%, 100%, 0%)" stop-opacity="1"/>
<stop offset="0.921875" stop-color="rgb(85.813904%, 100%, 0%)" stop-opacity="1"/>
<stop offset="0.925781" stop-color="rgb(86.524963%, 100%, 0%)" stop-opacity="1"/>
<stop offset="0.929688" stop-color="rgb(87.237549%, 100%, 0%)" stop-opacity="1"/>
<stop offset="0.933594" stop-color="rgb(87.948608%, 100%, 0%)" stop-opacity="1"/>
<stop offset="0.9375" stop-color="rgb(88.661194%, 100%, 0%)" stop-opacity="1"/>
<stop offset="0.941406" stop-color="rgb(89.373779%, 100%, 0%)" stop-opacity="1"/>
<stop offset="0.945313" stop-color="rgb(90.086365%, 100%, 0%)" stop-opacity="1"/>
<stop offset="0.949219" stop-color="rgb(90.797424%, 100%, 0%)" stop-opacity="1"/>
<stop offset="0.953125" stop-color="rgb(91.51001%, 100%, 0%)" stop-opacity="1"/>
<stop offset="0.957031" stop-color="rgb(92.221069%, 100%, 0%)" stop-opacity="1"/>
<stop offset="0.960938" stop-color="rgb(92.933655%, 100%, 0%)" stop-opacity="1"/>
<stop offset="0.964844" stop-color="rgb(93.644714%, 100%, 0%)" stop-opacity="1"/>
<stop offset="0.96875" stop-color="rgb(94.3573%, 100%, 0%)" stop-opacity="1"/>
<stop offset="0.972656" stop-color="rgb(95.069885%, 100%, 0%)" stop-opacity="1"/>
<stop offset="0.976562" stop-color="rgb(95.782471%, 100%, 0%)" stop-opacity="1"/>
<stop offset="0.980469" stop-color="rgb(96.49353%, 100%, 0%)" stop-opacity="1"/>
<stop offset="0.984375" stop-color="rgb(97.206116%, 100%, 0%)" stop-opacity="1"/>
<stop offset="0.988281" stop-color="rgb(97.917175%, 100%, 0%)" stop-opacity="1"/>
<stop offset="0.992188" stop-color="rgb(98.629761%, 100%, 0%)" stop-opacity="1"/>
<stop offset="0.996094" stop-color="rgb(99.31488%, 100%, 0%)" stop-opacity="1"/>
<stop offset="1" stop-color="rgb(100%, 100%, 0%)" stop-opacity="1"/>
</linearGradient>
</defs>
<rect x="-387.3" y="-387.3" width="4647.6" height="4647.6" fill="rgb(0%, 0%, 0%)" fill-opacity="1"/>
<g clip-path="url(#clip-0)">
<g clip-path="url(#clip-1)">
<g clip-path="url(#clip-2)">
<path fill-rule="nonzero" fill="url(#linear-pattern-0)" d="M 3154.699219 3392.601562 L 3154.699219 480.300781 L 718.398438 480.300781 L 718.398438 3392.601562 Z M 3154.699219 3392.601562 "/>
</g>
</g>
</g>
</svg>
