<?xml version="1.0" encoding="UTF-8"?>
<svg viewBox="0 0 90 65" xmlns="http://www.w3.org/2000/svg" xmlns:xlink="http://www.w3.org/1999/xlink">
 <defs>
  <linearGradient id="d" x1="229.1" x2="232.85" gradientUnits="userSpaceOnUse">
   <stop stop-color="#3d1c00" offset="0"/>
   <stop stop-opacity="0" offset="1"/>
  </linearGradient>
  <linearGradient id="a">
   <stop stop-color="#f2d694" offset="0"/>
   <stop stop-color="#f2d694" stop-opacity="0" offset="1"/>
  </linearGradient>
  <linearGradient id="e" x1="224.75" x2="220.9" gradientUnits="userSpaceOnUse">
   <stop stop-color="#3d1c00" offset="0"/>
   <stop stop-color="#fff" offset="1"/>
  </linearGradient>
  <linearGradient id="c" x1="234.15" x2="245.65" gradientUnits="userSpaceOnUse" xlink:href="#a"/>
  <radialGradient id="b" cx="185.12" cy="97.044" r="2.5556" gradientTransform="matrix(1 0 0 .82 0 17.468)" gradientUnits="userSpaceOnUse" xlink:href="#a"/>
 </defs>
 <g transform="matrix(3 0 0 3 -654.01 -234.99)">
  <path d="m222.49 80.825h21.127a3.03 3.0066 0 0 1 3.03 3.0066v12.246a3.03 3.0066 0 0 1 -3.03 3.0066h-21.127a3.03 3.0066 0 0 1 -3.03 -3.0066v-12.246a3.03 3.0066 0 0 1 3.03 -3.0066" fill="#f2d694"/>
  <path transform="matrix(1.1571 0 0 1.0946 39.532 -11.394)" d="m172.89 95.362c0 2.2705-1.7411 4.1111-3.8889 4.1111s-3.8889-1.8406-3.8889-4.1111 1.7411-4.1111 3.8889-4.1111 3.8889 1.8406 3.8889 4.1111z" fill="none" stroke="#3d1c00" stroke-miterlimit="4.5" stroke-width="1.3995"/>
  <path d="m229.7403,82.78783h2.47216a.63892,.66667 0 0,1 .63892.66667v2.41667a.63892,.66667 0 0,1 -.63892.66667h-2.47216a.63892,.66667 0 0,1 -.63892-.66667v-2.41667a.63892,.66667 0 0,1 .63892-.66667" fill="#3d1c00" stroke="url(#d)" stroke-width=".5"/>
  <path d="m235.14538,82.6937h9.51047a.49476,.61333 0 0,1 .49476.61333v2.22333a.49476,.61333 0 0,1 -.49476.61333h-9.51047a.49476,.61333 0 0,1 -.49476-.61333v-2.22333a.49476,.61333 0 0,1 .49476-.61333" fill="#3d1c00" stroke="url(#c)" stroke-width=".4"/>
  <path d="m221.73461,79.51371h1.93708a.50063,.22459 0 0,1 .50063.22459v.81415a.50063,.22459 0 0,1 -.50063.22459h-1.93708a.50063,.22459 0 0,1 -.50063-.22459v-.81415a.50063,.22459 0 0,1 .50063-.22459" fill="#3d1c00" stroke="#f2d694" stroke-width=".3"/>
  <path transform="rotate(-90)" d="m-95.934 224.8h11.993a3.0995 0.030155 0 0 1 3.0995 0.03015v0.10931a3.0995 0.030155 0 0 1 -3.0995 0.03015h-11.993a3.0995 0.030155 0 0 1 -3.0995 -0.03015v-0.10931a3.0995 0.030155 0 0 1 3.0995 -0.03015" fill="#3d1c00"/>
  <path d="m222.48 80.777c-1.2581 0-2.25 0.78452-2.25 1.7344v14.859c0 0.93766 0.96801 1.7146 2.2031 1.7344h2.3437v-18.281h-2.0156c-0.0958-0.0095-0.18179-0.04687-0.28125-0.04687z" fill="url(#e)" opacity=".20264"/>
  <path transform="matrix(1.3206 0 0 1.6106 -9.3609 -63.271)" d="m187.68 97.044c0 1.1573-1.1442 2.0956-2.5556 2.0956s-2.5556-0.93821-2.5556-2.0956 1.1442-2.0956 2.5556-2.0956 2.5556 0.93821 2.5556 2.0956z" fill="#3d1c00"/>
  <path transform="matrix(1.1739 0 0 1.4316 17.776 -45.909)" d="m187.68 97.044c0 1.1573-1.1442 2.0956-2.5556 2.0956s-2.5556-0.93821-2.5556-2.0956 1.1442-2.0956 2.5556-2.0956 2.5556 0.93821 2.5556 2.0956z" fill="url(#b)"/>
 </g>
</svg>
