<?xml version="1.0" encoding="UTF-8"?>
<svg viewBox="0 0 1200 800" xmlns="http://www.w3.org/2000/svg">
 <path d="m534.23 65.028 32.06 19.176-18.876 19.176-24.269-28.764 8.9886-8.9886z" fill="#445d70" stroke="#000"/>
 <path d="m505.84 47.188c-2.6217 0.04313-5.2533 0.95595-7.875 3.75l-22.156 30.75 3.6562 3.1875-39.594 55.25-4.4375-2.0312-155.03 219.28 8.0625 5.5312-6.8438 10-10.281 0.9375-25.969 34-3.6875 1-15.781 22.031 11.406 46.125 438.03 283.44c11.012 5.858 17.541 0.49506 22.188-9.5625l259.47-420.69c4.9953-6.8775 1.2937-11.263-4.8125-14.969l-389.38-237.5c-1.9794 6.4999-11.086 14.22-20.656 6.6875-7.7125-5.6211-7.3259-12.654-2.0625-20.531l-24.156-14.719c-3.3707-0.62909-6.723-2.0242-10.094-1.9688zm149.94 640.47 19.844 13.625-15.781 23-19.844-13.625 15.781-23z" fill="#43637b" stroke="#000"/>
 <path d="m428.31 175.59 54.831-74.606c2.2619-3.3263 5.1461-4.5792 6.292-3.7453 1.0469 1.6151 0.0876 3.2302-0.85817 4.8454-18.515 26.44-37.849 52.775-56.819 79.049l-6.1422-2.397z" fill="none" stroke="#000" stroke-width=".8"/>
 <path d="m479.39 84.803 142.92 85.991c6.485 3.1839 7.8052 12.277 5.0936 14.981l-182.17 262.47-63.52-40.149" fill="none" stroke="#000" stroke-width=".6"/>
 <path transform="matrix(.84585 .53341 -.53341 .84585 267.15 -109)" d="m365.68 478.39a10.381 12.732 0 1 1 -20.763 0 10.381 12.732 0 1 1 20.763 0z" fill="none" stroke="#000" stroke-linecap="round" stroke-linejoin="round"/>
 <path transform="translate(-3.6017 -2.5424)" d="m252.1 479.34c1.4699-5.8993 6.8033-10.27 13.158-10.27 7.4886 0 13.559 6.0707 13.559 13.559 0 2.9307-0.77997 7.442-3.4093 9.21" fill="none" stroke="#000" stroke-linecap="round" stroke-linejoin="round"/>
 <path d="m934.52 367.65-50.336-32.359c-4.4502-2.8895-11.794-4.4317-15.88 0.59924l-205.54 319.7c-1.9381 4.9189-3.8094 7.4744 0.59924 14.681l59.625 39.55z" stroke="#000"/>
 <path d="m797.25 395.97 46.398-71.822c2.0488-3.3464 4.579-5.7055 8.2536-5.7173 7.2958 0.0886 7.6663 8.3862 4.6701 12.709l-47.034 76.695c-5.8163 9.9374-15.107 6.9233-16.391 0.4415-0.6997-3.5331 1.0692-7.4365 4.1027-12.306z" fill="none" stroke="#000" stroke-width=".8"/>
 <path d="m677.12 392.58c0.8157 39.731-36.978 77.302-78.178 74.364-38.165-2.7216-77.808-38.223-78.178-76.483-0.42373-43.771 32.793-70.618 70.975-73.093 38.454-2.4926 84.369 25.914 85.381 75.212z"/>
 <path transform="matrix(.95058 0 0 .95058 12.438 -7.4892)" d="m688.98 418.64c0 40.251-32.63 72.881-72.881 72.881s-76.893-32.63-76.893-72.881 36.642-72.881 76.893-72.881 72.881 32.63 72.881 72.881z" fill="#cdcdcd"/>
 <path transform="matrix(.12602,-.99203,.99203,.12602,0,0)" d="m-320.82 625.06h17.892a4.2373 4.2373 0 0 1 4.2373 4.2373v17.892a4.2373 4.2373 0 0 1 -4.2373 4.2373h-17.892a4.2373 4.2373 0 0 1 -4.2373 -4.2373v-17.892a4.2373 4.2373 0 0 1 4.2373 -4.2373" fill-rule="evenodd" stroke="#000"/>
 <path transform="rotate(5.9063)" d="m625.02 271.43h38.832a4.2373 4.2373 0 0 1 4.2373 4.2373v20.763a4.2373 4.2373 0 0 1 -4.2373 4.2373h-38.832a4.2373 4.2373 0 0 1 -4.2373 -4.2373v-20.763a4.2373 4.2373 0 0 1 4.2373 -4.2373" fill-rule="evenodd" stroke="#000"/>
 <path d="m435.53 137.47-155.09 220.28 144.12 89c8.559 4.8017 15.309 5.4705 21.562-2.6875l135.22-200.41c4.4515-6.73 7.1813-13.632-5.0625-22.031l-140.75-84.156zm8.6562 18.188c0.81488 0.03094 1.6331 0.32417 2.3438 0.84375l4.125 3c1.895 1.3855 2.2918 4.0113 0.90625 5.9062l-7.9375 10.875c-1.3855 1.895-4.0426 2.2918-5.9375 0.90625l-4.0938-3c-1.895-1.3855-2.323-4.0113-0.9375-5.9062l7.9688-10.875c0.86596-1.1843 2.2044-1.8016 3.5625-1.75z" fill="#d6d6d6"/>
 <path d="m334.53 311.23 7.6271 4.2373-10.805 13.983c-2.5756 2.749-3.0077 5.3321 0 7.2034l121.4 75.424 37.712-57.203-119.07-73.305c-3.5484-2.393-5.1748-1.3165-5.9322 0l-11.229 15.678-6.5678-3.8136z" fill="#43637b" stroke="#000" stroke-width=".8"/>
 <path transform="matrix(.59023,-.80724,.80724,.59023,0,0)" d="m119.58 448.78h13.257a4.1718 4.1718 0 0 1 4.1718 4.1718v5.0062a4.1718 4.1718 0 0 1 -4.1718 4.1718h-13.257a4.1718 4.1718 0 0 1 -4.1718 -4.1718v-5.0062a4.1718 4.1718 0 0 1 4.1718 -4.1718" fill="none" stroke="#000" stroke-width=".39382"/>
 <path d="m717.89 718.5-62.921-43.445c-6.3895-5.4927-5.0376-10.744-2.9962-13.783l210.03-329.28c6.9636-8.9164 12.806-6.2526 17.378-4.7939l57.527 35.056" fill="none" stroke="#000"/>
 <path transform="matrix(-.72206 .47643 .45535 .75549 611.34 -416)" d="m365.68 478.39a10.381 10.011 0 1 1 -20.763 0 10.381 10.011 0 1 1 20.763 0z" fill="none" stroke="#000" stroke-linecap="round" stroke-linejoin="round" stroke-width="1.1452"/>
 <path d="m249.29 475.58c8.577-6.2688 16.094-3.4751 25.318 1.8726-1.5117-6.0939-3.6938-7.2638-8.8388-10.187-2.3615-0.87718-4.9022-1.4856-8.8388 0-4.3095 2.5729-5.7336 3.9563-7.6404 8.3145z"/>
 <path d="m309.32 475c10.76 4.1896 3.6674 19.279-3.072 20.869l3.3898 1.589 4.661-0.74153 4.661-2.6483 3.072-4.2373 1.9068-5.6144-1.3771-6.3559-2.9661-3.6017-4.8729-1.0593-4.4492 0.84746z"/>
 <path d="m567.18 108.17c11.257 0.84906 9.5203 10.469 1.9475 14.981l5.3932 0.44943 3.5955-2.0974 2.9962-3.146 0.14981-5.0936-1.3483-3.4456c-0.81852-0.95942-1.7337-1.8215-2.728-2.4965-2.8288-1.9202-6.2983-2.3261-10.006 0.84855z"/>
</svg>
