<?xml version="1.0" standalone="no"?>
<!DOCTYPE svg PUBLIC "-//W3C//DTD SVG 20010904//EN"
 "http://www.w3.org/TR/2001/REC-SVG-20010904/DTD/svg10.dtd">
<svg version="1.0" xmlns="http://www.w3.org/2000/svg"
 width="300.000000pt" height="477.000000pt" viewBox="0 0 300.000000 477.000000"
 preserveAspectRatio="xMidYMid meet">
<metadata>
Created by potrace 1.10, written by Peter Selinger 2001-2011
</metadata>
<g transform="translate(0.000000,477.000000) scale(0.100000,-0.100000)"
fill="#000000" stroke="none">
<path d="M1768 4763 c17 -2 47 -2 65 0 17 2 3 4 -33 4 -36 0 -50 -2 -32 -4z"/>
<path d="M2413 4763 l537 -3 1 -48 c1 -51 5 -125 14 -246 l6 -78 -883 7 c-486
4 -880 4 -876 0 4 -4 121 -9 260 -11 139 -3 359 -7 488 -10 129 -3 268 -6 308
-6 39 1 72 -2 72 -7 0 -4 26 -4 58 0 90 11 324 11 317 -1 -3 -5 -15 -10 -25
-10 -10 0 -22 -5 -25 -10 -9 -14 39 -3 85 20 36 18 80 12 80 -11 0 -9 3 -9 14
0 7 6 24 10 37 8 13 -2 32 1 41 7 22 13 28 7 39 -41 15 -66 12 -113 -8 -113
-17 -1 -17 -1 0 -14 9 -7 17 -23 17 -35 0 -11 4 -21 10 -21 5 0 8 6 5 13 -2 6
-6 144 -9 305 -3 161 -8 297 -11 302 -4 6 -210 9 -548 8 l-542 -3 538 -2z"/>
<path d="M460 4401 c24 -14 131 -19 127 -7 -2 6 -34 12 -73 13 -42 2 -63 -1
-54 -6z"/>
<path d="M1068 4402 c-16 -2 -28 -6 -28 -10 0 -9 128 -8 137 1 3 4 2 8 -3 8
-22 4 -81 4 -106 1z"/>
<path d="M591 4361 c-10 -6 -5 -13 18 -24 34 -17 41 -9 13 16 -11 10 -23 13
-31 8z"/>
<path d="M157 4303 c-18 -17 -6 -53 23 -68 17 -9 30 -11 30 -5 0 5 -7 10 -15
10 -10 0 -15 11 -15 35 0 33 -8 43 -23 28z"/>
<path d="M790 4215 c20 -24 110 -45 110 -25 0 6 -9 10 -19 10 -11 0 -26 6 -33
13 -7 7 -26 14 -42 15 -24 2 -27 0 -16 -13z"/>
<path d="M150 4158 c0 -54 6 -72 21 -63 4 3 4 19 -1 35 -5 18 -5 30 1 30 14 0
11 26 -6 40 -13 11 -15 5 -15 -42z"/>
<path d="M1225 4028 c11 -6 25 -17 31 -24 10 -12 15 -11 34 4 l24 19 -31 -4
c-17 -3 -34 0 -37 6 -4 6 -15 11 -24 11 -14 -1 -14 -2 3 -12z"/>
<path d="M1475 3700 c-45 -7 -85 -26 -85 -40 0 -6 -8 -10 -19 -10 -10 0 -24
-7 -31 -15 -7 -8 -18 -15 -24 -15 -23 0 -85 -75 -112 -135 -14 -33 -30 -62
-33 -65 -4 -3 -16 -24 -28 -47 -14 -30 -17 -43 -8 -43 13 0 41 28 39 39 -1 3
11 24 25 46 50 78 56 88 66 121 3 9 11 14 20 10 9 -3 15 0 15 9 0 8 9 15 19
15 11 0 23 4 26 10 4 6 -1 7 -12 4 -16 -5 -16 -4 1 10 20 16 41 12 30 -6 -5
-8 -1 -9 10 -5 10 4 27 7 39 7 20 1 21 2 5 14 -14 10 -15 16 -5 28 14 18 82
42 96 34 5 -4 11 -1 13 6 3 7 12 9 23 4 16 -6 17 -9 5 -16 -13 -8 -13 -10 2
-10 9 0 18 5 20 11 2 6 31 -2 72 -20 37 -17 74 -31 82 -31 8 0 19 -9 26 -20 7
-11 20 -20 29 -20 16 0 34 -26 31 -42 -1 -5 1 -7 6 -7 20 3 32 -2 32 -15 0 -8
7 -17 16 -20 9 -4 14 -13 10 -21 -4 -10 1 -15 15 -15 16 0 20 -5 16 -20 -3
-11 -1 -18 3 -15 9 6 23 -12 27 -35 3 -15 8 -66 19 -175 3 -33 8 -63 11 -67 2
-5 -6 -12 -18 -16 -18 -7 -29 -1 -60 29 -22 21 -39 35 -39 31 1 -12 29 -58 30
-48 0 15 50 -36 50 -52 0 -8 6 -12 15 -8 8 3 15 3 15 0 0 -2 -11 -9 -25 -14
-14 -5 -25 -16 -25 -25 0 -8 -6 -15 -14 -15 -8 0 -18 -9 -21 -21 -8 -25 2 -39
11 -15 3 9 11 16 18 16 16 1 61 42 70 65 7 19 19 99 18 120 0 6 -3 45 -5 89
-3 48 -9 81 -17 86 -7 4 -10 12 -6 18 7 12 -19 66 -56 115 -17 20 -27 37 -23
37 19 0 -43 63 -75 76 -21 9 -41 22 -44 30 -3 8 -17 14 -30 14 -14 0 -29 6
-33 13 -11 17 -177 44 -228 37z"/>
<path d="M1110 3310 c-11 -7 -12 -12 -3 -21 16 -16 44 -4 37 16 -7 17 -13 18
-34 5z"/>
<path d="M1105 3258 c-12 -34 -13 -68 -2 -68 7 0 13 17 14 40 2 39 -3 52 -12
28z"/>
<path d="M1320 3220 c0 -12 50 -34 58 -25 8 8 -9 22 -35 30 -14 4 -23 2 -23
-5z"/>
<path d="M1138 3168 c-18 -15 -31 -48 -19 -48 10 0 26 19 34 43 8 20 6 21 -15
5z"/>
<path d="M1409 3148 c18 -34 39 -40 33 -10 -5 23 -22 42 -38 42 -11 0 -9 -7 5
-32z"/>
<path d="M1263 3150 c-36 -15 -27 -23 17 -16 25 4 40 2 40 -4 0 -5 19 -10 42
-10 39 0 41 1 26 16 -19 19 -94 28 -125 14z"/>
<path d="M1584 3136 c-59 -26 -50 -43 29 -56 40 -6 86 -18 104 -26 40 -18 40
-18 46 6 3 13 0 20 -10 20 -8 0 -11 -5 -7 -11 3 -6 -5 -4 -18 5 -14 9 -53 18
-87 21 -33 2 -61 7 -62 11 0 5 26 14 57 21 32 8 60 16 63 18 11 11 -86 3 -115
-9z"/>
<path d="M1419 3098 c-6 -24 -5 -70 2 -74 5 -3 9 3 10 13 0 10 2 28 5 41 2 12
-1 22 -6 22 -6 0 -10 -1 -11 -2z"/>
<path d="M1856 3083 c-9 -10 -7 -55 3 -49 12 8 21 45 11 51 -4 2 -10 2 -14 -2z"/>
<path d="M1522 3060 c-8 -13 -9 -27 -3 -42 5 -13 12 -36 16 -51 3 -15 9 -25
14 -22 5 2 12 -5 15 -18 3 -12 17 -35 31 -52 25 -29 26 -29 19 -5 -4 14 -10
27 -15 30 -4 3 -11 18 -14 33 -4 15 -11 27 -15 27 -13 0 -33 69 -27 96 5 29
-4 31 -21 4z"/>
<path d="M1100 3031 c0 -31 13 -47 30 -36 6 4 4 17 -5 36 -19 37 -25 37 -25 0z"/>
<path d="M1327 2941 c-49 -51 -55 -62 -34 -60 17 1 90 86 85 99 -2 6 -25 -11
-51 -39z"/>
<path d="M1060 2919 c-30 -22 -67 -45 -82 -50 -16 -6 -28 -15 -28 -20 0 -5 -5
-9 -11 -9 -10 0 -96 -38 -151 -66 -14 -8 -31 -14 -38 -14 -32 0 -182 -85 -233
-133 -31 -29 -57 -56 -57 -61 0 -4 -9 -20 -19 -34 -33 -46 -65 -213 -69 -357
-3 -111 7 -318 24 -460 3 -22 7 -67 10 -100 4 -56 19 -147 44 -270 18 -92 21
-100 29 -86 5 7 5 29 0 48 -4 20 -5 42 -2 49 3 8 0 21 -7 29 -6 8 -9 19 -6 24
4 5 2 12 -3 16 -6 3 -8 12 -4 20 3 8 0 15 -7 15 -8 0 -11 11 -8 30 3 17 0 30
-6 30 -6 0 -3 7 6 14 23 17 23 26 -1 26 -16 0 -17 5 -11 40 4 24 3 41 -3 43
-5 1 -11 33 -12 70 -1 36 2 64 7 61 4 -3 8 0 8 5 0 6 -4 11 -9 11 -13 0 -20
73 -8 88 7 8 5 12 -8 12 -12 0 -15 5 -10 18 4 9 7 26 7 37 -1 11 4 23 11 28 8
6 6 7 -6 3 -15 -5 -17 0 -14 32 3 20 0 48 -5 61 -5 13 -5 27 -1 30 4 3 9 17
10 31 1 14 4 37 7 53 2 15 0 27 -5 27 -14 0 -11 58 4 63 9 4 8 6 -2 6 -11 1
-10 6 4 21 10 11 19 35 20 52 4 61 18 138 24 138 4 0 15 17 24 38 21 48 71
100 102 108 14 3 25 12 25 18 0 7 16 19 35 26 20 8 41 20 47 27 5 7 14 10 19
7 5 -3 16 2 25 10 10 10 24 14 40 10 16 -4 26 -1 30 10 3 8 21 18 40 22 19 3
37 10 40 15 3 5 14 9 25 9 10 0 19 3 19 8 0 7 48 32 63 32 5 0 22 11 39 25 16
14 35 25 41 25 7 0 18 9 25 20 7 11 18 20 26 20 7 0 16 9 19 20 8 29 -11 24
-73 -21z"/>
<path d="M1377 2924 c-10 -11 3 -24 23 -24 10 0 20 -7 24 -15 8 -23 91 -20
117 4 12 11 18 25 14 31 -5 8 -13 6 -27 -6 -23 -21 -84 -20 -109 1 -17 16 -32
19 -42 9z"/>
<path d="M1880 2911 c0 -14 10 -21 38 -27 20 -4 40 -7 45 -6 4 1 7 -2 7 -8 0
-5 19 -10 43 -10 33 0 39 -3 27 -11 -12 -9 -12 -10 4 -5 23 8 94 -12 121 -33
11 -9 42 -27 68 -41 72 -37 135 -101 161 -164 10 -25 11 -37 3 -45 -8 -8 -5
-11 12 -11 14 0 20 -4 15 -11 -4 -7 -7 -25 -6 -40 0 -16 -3 -29 -8 -29 -5 0
-8 -9 -7 -20 1 -11 6 -20 12 -20 8 0 11 -37 11 -112 -1 -74 3 -120 11 -134 15
-24 6 -39 -14 -23 -10 9 -13 8 -13 -5 0 -9 6 -16 13 -16 15 0 40 -83 26 -88
-11 -5 -12 -32 0 -32 5 0 8 -20 7 -45 -1 -43 -2 -45 -26 -40 l-25 5 24 -20
c21 -18 23 -25 18 -86 -3 -36 -11 -72 -17 -79 -8 -10 -8 -15 1 -20 8 -6 7 -10
-2 -16 -12 -7 -12 -9 0 -9 10 0 12 -9 7 -34 -4 -20 -2 -37 4 -41 6 -4 10 8 11
29 1 20 3 48 4 64 5 51 16 197 20 267 2 38 -3 112 -11 165 -8 54 -14 162 -14
253 0 86 -4 157 -9 157 -5 0 -12 12 -16 27 -11 44 -53 109 -99 151 -80 74
-271 152 -371 152 -18 0 -40 7 -49 15 -19 20 -26 19 -26 -4z"/>
<path d="M1840 2857 c0 -8 7 -21 16 -28 13 -11 17 -10 25 3 11 19 49 13 49 -8
0 -8 3 -14 8 -14 4 0 7 11 7 25 0 19 -5 25 -21 25 -12 0 -36 3 -53 6 -24 5
-31 3 -31 -9z"/>
<path d="M1992 2808 c5 -32 28 -35 28 -4 0 17 -5 26 -16 26 -10 0 -14 -7 -12
-22z"/>
<path d="M2108 2799 c2 -16 8 -29 13 -29 14 0 10 47 -4 53 -10 4 -12 -3 -9
-24z"/>
<path d="M1313 2814 c-22 -10 -14 -25 10 -19 12 3 43 1 67 -6 25 -6 66 -12 92
-13 25 -1 50 -4 54 -8 4 -5 22 -8 40 -8 20 0 37 -7 44 -17 11 -17 11 -17 6 0
-3 10 -6 21 -6 23 0 10 -60 26 -130 35 -148 17 -165 18 -177 13z"/>
<path d="M1950 2763 c0 -23 5 -45 10 -48 13 -8 13 55 0 75 -7 11 -10 4 -10
-27z"/>
<path d="M2050 2749 c0 -20 4 -29 9 -23 15 15 17 47 4 51 -9 3 -13 -6 -13 -28z"/>
<path d="M1870 2719 c0 -75 11 -134 21 -117 5 7 6 22 4 33 -3 11 -7 44 -9 73
-6 72 -16 79 -16 11z"/>
<path d="M962 2713 c-50 -25 -52 -29 -47 -57 8 -38 176 -379 183 -371 3 3 0
11 -6 17 -7 7 -12 22 -12 34 0 13 -4 25 -9 28 -4 3 -14 26 -21 51 -7 25 -21
50 -31 56 -11 5 -16 16 -13 24 4 8 2 15 -4 15 -16 0 -64 133 -56 155 11 29 44
39 65 19 10 -9 19 -21 19 -26 0 -4 11 -32 25 -60 14 -29 23 -59 20 -67 -3 -9
-3 -12 1 -8 10 9 33 -46 40 -93 3 -19 9 -46 14 -60 6 -14 12 -38 14 -55 6 -49
27 -158 37 -191 5 -17 9 -42 9 -57 0 -15 4 -27 9 -27 16 0 18 43 4 84 -7 22
-11 48 -7 58 3 10 -2 33 -11 51 -9 17 -18 53 -20 79 -2 26 -11 58 -20 72 -13
20 -14 28 -4 45 11 17 10 23 -5 40 -11 12 -15 21 -10 21 5 0 1 7 -10 15 -10 7
-15 18 -12 23 3 5 -5 31 -18 58 -44 91 -56 122 -56 138 0 22 -7 20 -68 -11z"/>
<path d="M1410 2719 c-30 -8 -19 -13 61 -27 55 -11 99 -7 99 8 0 4 -12 7 -27
8 -16 0 -46 4 -68 9 -22 5 -51 6 -65 2z"/>
<path d="M1987 2703 c-3 -16 -3 -30 -1 -33 7 -7 24 23 24 43 0 27 -17 20 -23
-10z"/>
<path d="M2097 2723 c-4 -3 -7 -17 -7 -30 0 -33 24 -24 28 10 3 26 -7 35 -21
20z"/>
<path d="M1210 2665 c0 -8 6 -15 14 -15 7 0 63 -25 123 -55 107 -53 153 -65
191 -47 9 5 38 19 65 32 26 13 45 25 43 27 -5 5 -87 -22 -125 -42 -31 -15 -63
-14 -69 3 -2 7 -12 12 -22 12 -9 0 -23 6 -29 14 -6 7 -27 16 -46 19 -19 3 -48
14 -63 24 -15 11 -39 24 -54 31 -23 10 -28 9 -28 -3z"/>
<path d="M1700 2663 c0 -11 -7 -26 -15 -33 -19 -16 -19 -30 -1 -30 19 0 40 60
26 74 -7 7 -10 3 -10 -11z"/>
<path d="M865 2648 c4 -13 11 -27 16 -32 15 -17 23 3 11 29 -15 32 -36 34 -27
3z"/>
<path d="M2026 2648 c-9 -34 -8 -38 9 -38 8 0 15 6 15 14 0 8 3 21 6 30 4 10
1 16 -9 16 -8 0 -17 -10 -21 -22z"/>
<path d="M1961 2608 c0 -29 -1 -73 -1 -98 -3 -63 -1 -80 8 -80 9 0 17 130 12
213 -1 9 -5 17 -10 17 -5 0 -9 -24 -9 -52z"/>
<path d="M2062 2578 c-5 -19 -5 -34 0 -37 13 -5 17 1 24 37 9 43 -13 42 -24 0z"/>
<path d="M2283 2599 c-12 -15 -32 -62 -38 -89 -13 -58 -31 -116 -38 -121 -5
-4 -4 -9 1 -13 12 -7 32 23 32 47 0 8 7 28 15 43 8 16 15 41 15 56 0 15 7 34
16 42 8 9 14 23 12 33 -3 14 -5 14 -15 2z"/>
<path d="M818 2564 c-9 -8 19 -64 32 -64 6 0 10 6 10 13 -1 18 -35 59 -42 51z"/>
<path d="M917 2528 c13 -26 18 -29 21 -15 4 19 -14 47 -29 47 -5 0 -2 -15 8
-32z"/>
<path d="M890 2508 c0 -14 23 -58 32 -58 4 0 8 4 8 9 0 11 -39 59 -40 49z"/>
<path d="M1649 2488 c-47 -46 -213 -58 -303 -22 -14 5 -17 4 -12 -5 5 -7 19
-17 33 -22 36 -13 170 -14 218 0 40 11 92 47 83 57 -3 3 -12 -1 -19 -8z"/>
<path d="M1797 2493 c-4 -3 -7 -17 -7 -30 0 -33 22 -24 27 10 4 26 -6 35 -20
20z"/>
<path d="M2036 2468 c-9 -34 -7 -58 4 -58 6 0 10 11 10 24 0 14 5 28 10 31 6
4 8 11 5 16 -10 16 -22 10 -29 -13z"/>
<path d="M957 2464 c-9 -9 19 -61 37 -67 12 -5 11 3 -5 33 -23 43 -23 43 -32
34z"/>
<path d="M840 2448 c0 -6 12 -22 26 -35 14 -13 24 -27 21 -30 -4 -3 1 -19 9
-35 9 -17 18 -28 21 -25 2 3 0 14 -6 25 -8 15 -8 21 1 24 21 7 -6 54 -41 71
-19 9 -31 11 -31 5z"/>
<path d="M1837 2433 c-7 -37 8 -53 17 -17 4 15 3 31 -2 36 -6 6 -12 -2 -15
-19z"/>
<path d="M1565 2414 c-60 -16 -133 -20 -159 -9 -14 6 -17 5 -12 -4 10 -16 48
-30 61 -23 5 3 25 7 45 9 57 5 130 24 130 34 0 11 -2 11 -65 -7z"/>
<path d="M1737 2403 c-10 -54 14 -54 27 0 5 20 3 27 -8 27 -7 0 -16 -12 -19
-27z"/>
<path d="M1970 2408 c0 -7 -7 -25 -14 -40 -8 -16 -15 -45 -15 -65 0 -44 -4
-64 -13 -79 -4 -6 -8 -40 -9 -75 -1 -35 -6 -69 -11 -76 -6 -7 -5 -14 2 -18 17
-11 19 -4 26 81 3 43 10 87 15 97 6 9 7 22 4 27 -3 5 -1 12 5 15 8 5 8 11 1
19 -7 8 -6 20 3 38 21 39 30 88 17 88 -6 0 -11 -6 -11 -12z"/>
<path d="M1182 2389 c1 -12 9 -24 16 -27 9 -3 13 3 10 19 -1 12 -9 24 -16 27
-9 3 -13 -3 -10 -19z"/>
<path d="M1876 2395 c-3 -9 -6 -33 -6 -53 0 -46 17 -30 21 20 4 40 -5 59 -15
33z"/>
<path d="M2320 2402 c0 -7 -38 -66 -130 -201 -19 -28 -40 -49 -47 -46 -7 2
-19 -16 -29 -41 -10 -25 -25 -56 -35 -69 -11 -13 -25 -62 -35 -116 -9 -52 -20
-101 -25 -111 -5 -9 -9 -25 -9 -35 0 -10 -7 -31 -15 -47 -17 -31 -19 -62 -7
-70 15 -9 46 67 48 116 0 26 6 54 13 62 6 7 11 18 9 22 -1 5 4 40 11 78 12 69
17 80 80 175 20 29 41 61 46 70 6 9 13 18 16 21 10 9 129 187 129 194 0 3 -4
6 -10 6 -5 0 -10 -4 -10 -8z"/>
<path d="M950 2381 c0 -5 9 -19 20 -32 22 -28 28 -6 6 24 -14 18 -26 22 -26 8z"/>
<path d="M1240 2368 c0 -39 12 -68 26 -68 18 0 18 12 0 55 -17 40 -26 45 -26
13z"/>
<path d="M1787 2383 c-11 -10 -8 -53 3 -53 6 0 10 14 10 30 0 31 -2 35 -13 23z"/>
<path d="M2079 2373 c-18 -21 -39 -69 -39 -86 1 -19 30 25 30 45 0 10 4 18 9
18 9 0 24 30 18 36 -2 2 -10 -4 -18 -13z"/>
<path d="M2205 2345 c-3 -11 -16 -41 -27 -67 -27 -61 -19 -70 16 -18 30 45 51
94 37 86 -5 -4 -11 0 -14 6 -3 8 -7 6 -12 -7z"/>
<path d="M2006 2334 c-3 -9 -6 -25 -6 -37 0 -27 16 -11 25 26 8 29 -8 39 -19
11z"/>
<path d="M841 2279 c17 -34 33 -58 36 -55 8 7 -17 66 -28 66 -5 0 -9 9 -9 19
0 10 -7 21 -15 25 -10 4 -6 -13 16 -55z"/>
<path d="M1020 2331 c0 -11 39 -59 40 -49 0 14 -23 58 -32 58 -4 0 -8 -4 -8
-9z"/>
<path d="M1830 2330 c0 -8 -3 -25 -6 -37 -4 -14 -2 -23 5 -23 16 0 26 49 12
63 -8 8 -11 7 -11 -3z"/>
<path d="M940 2302 c0 -21 33 -56 43 -46 8 8 -24 64 -35 64 -4 0 -8 -8 -8 -18z"/>
<path d="M1722 2288 c2 -18 8 -33 13 -33 6 0 11 15 13 33 3 24 -1 32 -13 32
-12 0 -16 -8 -13 -32z"/>
<path d="M770 2304 c0 -5 21 -46 38 -73 1 -2 4 -2 7 1 3 3 -4 22 -16 42 -20
34 -29 43 -29 30z"/>
<path d="M630 2289 c0 -5 9 -9 20 -9 11 0 20 -4 20 -9 0 -5 9 -12 19 -16 11
-3 23 -14 26 -25 3 -10 12 -21 20 -24 26 -9 16 14 -17 44 -34 32 -88 56 -88
39z"/>
<path d="M1205 2279 c12 -39 27 -48 23 -15 -2 16 -9 31 -17 34 -10 3 -11 -2
-6 -19z"/>
<path d="M2108 2275 c-9 -15 -30 -95 -38 -142 -7 -44 4 -61 13 -20 2 12 12 50
22 85 15 58 17 99 3 77z"/>
<path d="M1776 2244 c-6 -24 -2 -44 8 -33 9 11 15 59 7 59 -5 0 -12 -12 -15
-26z"/>
<path d="M947 2243 c8 -19 35 -57 76 -106 l18 -22 -6 30 c-8 35 -22 55 -41 55
-7 0 -15 9 -19 19 -3 11 -12 25 -21 31 -12 11 -13 10 -7 -7z"/>
<path d="M1274 2220 c7 -39 11 -44 24 -36 14 8 -1 59 -18 64 -10 4 -11 -3 -6
-28z"/>
<path d="M1074 2208 c3 -13 6 -26 6 -30 0 -4 9 -10 20 -13 11 -3 20 -13 20
-21 0 -8 5 -14 10 -14 7 0 7 6 0 20 -6 11 -16 20 -22 20 -5 0 -8 8 -6 18 3 10
-1 23 -8 30 -20 18 -27 15 -20 -10z"/>
<path d="M1975 2189 c-7 -30 -1 -48 12 -36 3 4 7 15 8 25 0 9 4 23 9 30 4 7 2
12 -8 12 -8 0 -17 -13 -21 -31z"/>
<path d="M1808 2180 c-5 -32 6 -41 16 -14 9 23 7 44 -3 44 -5 0 -11 -13 -13
-30z"/>
<path d="M1720 2180 c0 -11 0 -23 -1 -27 0 -4 4 -9 10 -11 6 -2 11 10 11 27 0
17 -4 31 -10 31 -5 0 -10 -9 -10 -20z"/>
<path d="M1227 2168 c10 -46 13 -52 24 -41 6 6 6 19 0 36 -13 33 -31 36 -24 5z"/>
<path d="M750 2165 c0 -8 5 -15 10 -15 6 0 10 -8 10 -19 0 -10 7 -24 15 -31 8
-6 17 -22 21 -33 4 -12 19 -38 34 -57 69 -90 109 -205 130 -380 9 -75 17 -100
34 -100 6 0 12 -19 13 -46 1 -26 6 -51 12 -57 17 -17 23 15 12 65 -9 39 -7 54
14 113 31 86 33 129 2 58 -13 -29 -26 -55 -30 -59 -4 -4 -7 -19 -7 -33 0 -36
-18 -14 -24 29 -17 131 -66 297 -109 370 -15 25 -32 57 -38 73 -6 15 -15 27
-21 27 -5 0 -7 4 -4 9 3 5 -1 14 -9 21 -8 7 -15 18 -15 25 0 13 -33 55 -44 55
-3 0 -6 -7 -6 -15z"/>
<path d="M850 2174 c0 -3 11 -25 25 -50 14 -25 25 -52 25 -61 0 -9 9 -35 19
-57 66 -140 85 -210 89 -324 1 -24 6 -41 11 -38 14 9 8 343 -6 357 -23 23 -26
-1 -9 -74 10 -41 16 -87 14 -103 -3 -25 -6 -21 -22 31 -10 33 -22 65 -26 70
-4 6 -21 55 -36 110 -16 55 -35 106 -44 112 -13 11 -13 14 0 23 12 8 9 10 -12
10 -16 0 -28 -3 -28 -6z"/>
<path d="M1847 2164 c-4 -11 -6 -50 -7 -89 -1 -110 -18 -293 -28 -310 -4 -5
-8 -21 -9 -35 -2 -14 -8 -41 -14 -61 -6 -20 -10 -55 -7 -78 2 -22 0 -42 -5
-44 -5 -1 -11 -15 -12 -30 -3 -26 -2 -27 51 -28 30 -1 60 -2 67 -3 7 -1 11 9
9 26 -2 21 1 26 13 22 11 -5 15 1 15 25 0 17 -4 31 -10 31 -6 0 -10 29 -10 66
0 40 -4 63 -10 59 -5 -3 -8 -45 -7 -93 2 -85 2 -87 -24 -96 -51 -18 -62 -4
-55 72 6 70 14 121 21 132 10 17 27 155 31 255 3 61 6 125 7 143 4 38 -8 64
-16 36z"/>
<path d="M1762 2119 c0 -18 3 -28 8 -23 13 14 16 47 4 51 -6 2 -11 -10 -12
-28z"/>
<path d="M1295 2130 c-9 -15 4 -72 16 -65 9 6 7 61 -3 71 -3 3 -9 0 -13 -6z"/>
<path d="M1797 2093 c-12 -12 -7 -63 6 -63 7 0 12 13 12 29 0 31 -7 45 -18 34z"/>
<path d="M1967 2094 c-10 -11 -9 -74 2 -74 12 0 23 62 13 72 -5 5 -11 5 -15 2z"/>
<path d="M1052 2058 c6 -18 13 -39 15 -47 2 -10 7 -11 14 -4 12 12 -2 53 -24
72 -14 11 -15 9 -5 -21z"/>
<path d="M1712 2078 c-16 -16 -15 -48 2 -48 7 0 16 11 18 25 6 29 -4 39 -20
23z"/>
<path d="M1246 2062 c-3 -6 -1 -23 6 -39 l12 -28 4 29 c4 30 -11 56 -22 38z"/>
<path d="M1912 2015 c3 -14 1 -25 -3 -25 -5 0 -9 -9 -9 -21 0 -12 5 -19 13
-17 16 6 22 88 6 88 -7 0 -9 -10 -7 -25z"/>
<path d="M1737 2003 c-6 -32 -3 -38 12 -28 13 8 15 55 2 55 -5 0 -11 -12 -14
-27z"/>
<path d="M1300 1991 c0 -26 10 -51 21 -51 5 0 9 16 9 35 0 24 -5 35 -15 35 -8
0 -15 -9 -15 -19z"/>
<path d="M1205 1990 c4 -6 7 -28 7 -48 0 -31 2 -34 12 -20 19 26 14 72 -8 76
-12 3 -16 0 -11 -8z"/>
<path d="M1676 1948 c-9 -34 -8 -38 9 -38 8 0 15 6 15 14 0 8 3 21 6 30 4 10
1 16 -9 16 -8 0 -17 -10 -21 -22z"/>
<path d="M1790 1958 c0 -9 -3 -23 -6 -32 -4 -11 -1 -16 10 -16 18 0 21 27 6
50 -8 13 -10 13 -10 -2z"/>
<path d="M1954 1946 c-8 -20 -1 -49 11 -53 6 -1 11 13 12 32 3 35 -13 48 -23
21z"/>
<path d="M1094 1928 c3 -13 6 -29 6 -35 0 -7 5 -13 10 -13 11 0 13 30 4 54 -9
25 -27 19 -20 -6z"/>
<path d="M2320 1931 c-9 -18 -8 -18 20 -8 16 6 27 15 24 19 -9 14 -33 8 -44
-11z"/>
<path d="M1905 1913 c2 -16 4 -38 4 -50 1 -13 5 -23 10 -23 5 0 7 17 4 38 -3
20 -5 43 -6 50 0 6 -4 12 -8 12 -4 0 -6 -12 -4 -27z"/>
<path d="M1260 1911 c0 -19 17 -38 25 -29 7 7 -7 48 -16 48 -5 0 -9 -9 -9 -19z"/>
<path d="M1730 1880 c0 -16 5 -30 10 -30 6 0 10 14 10 30 0 17 -4 30 -10 30
-5 0 -10 -13 -10 -30z"/>
<path d="M1310 1878 c0 -25 12 -58 21 -58 5 0 9 16 9 35 0 24 -5 35 -15 35 -8
0 -15 -6 -15 -12z"/>
<path d="M2397 1883 c-12 -11 -8 -55 4 -48 6 4 8 10 5 13 -3 3 1 14 11 24 14
15 14 18 1 18 -8 0 -18 -3 -21 -7z"/>
<path d="M1130 1847 c0 -13 -4 -27 -9 -32 -5 -6 -5 -32 2 -63 10 -48 9 -55 -6
-63 -9 -6 -17 -19 -17 -31 0 -17 2 -18 15 -8 8 7 15 17 15 23 0 6 7 18 16 28
13 15 14 21 0 52 -9 22 -12 51 -9 76 3 23 3 41 -1 41 -3 0 -6 -10 -6 -23z"/>
<path d="M1228 1834 c-4 -35 7 -41 26 -12 7 11 5 20 -6 32 -14 14 -16 12 -20
-20z"/>
<path d="M1670 1815 c0 -19 5 -35 10 -35 6 0 10 16 10 35 0 19 -4 35 -10 35
-5 0 -10 -16 -10 -35z"/>
<path d="M2227 1830 c-71 -38 -187 -129 -187 -146 0 -4 -15 -21 -34 -40 -19
-19 -37 -46 -41 -61 -3 -16 -14 -36 -22 -46 -9 -9 -14 -20 -10 -23 10 -10 26
6 42 39 44 94 85 142 165 195 30 20 57 39 60 42 11 11 72 40 86 40 8 0 14 5
14 10 0 16 -32 12 -73 -10z"/>
<path d="M1777 1818 c-8 -28 4 -47 14 -22 11 27 11 44 0 44 -5 0 -11 -10 -14
-22z"/>
<path d="M1955 1808 c7 -35 12 -44 21 -35 9 8 -6 67 -17 67 -5 0 -7 -14 -4
-32z"/>
<path d="M1278 1815 c-7 -8 3 -54 13 -61 5 -3 9 11 9 30 0 33 -8 44 -22 31z"/>
<path d="M1716 1774 c-10 -25 -7 -46 6 -42 18 6 30 58 13 58 -7 0 -16 -7 -19
-16z"/>
<path d="M1337 1774 c-14 -14 -8 -64 8 -64 16 0 18 23 6 53 -3 10 -10 15 -14
11z"/>
<path d="M1916 1753 c8 -32 24 -55 24 -32 0 26 -12 59 -21 59 -5 0 -6 -12 -3
-27z"/>
<path d="M1248 1710 c5 -35 22 -30 22 6 0 13 -6 24 -13 24 -9 0 -12 -10 -9
-30z"/>
<path d="M1673 1691 c3 -26 0 -47 -10 -61 -12 -17 -13 -32 -4 -90 6 -38 11
-71 11 -74 0 -11 35 -5 53 8 25 19 22 38 -7 30 -22 -5 -23 -2 -29 53 -5 45 -3
61 8 69 17 13 19 42 5 78 -15 41 -33 32 -27 -13z"/>
<path d="M1756 1704 c-4 -15 -2 -32 3 -37 8 -8 11 -7 11 4 0 7 3 24 6 37 4 12
2 22 -4 22 -5 0 -13 -12 -16 -26z"/>
<path d="M2240 1678 c0 -19 -61 -41 -86 -31 -8 3 -14 1 -14 -5 0 -13 62 -22
75 -11 5 5 17 9 26 9 9 0 22 7 29 15 7 8 16 13 20 10 4 -3 10 2 14 10 7 19
-30 21 -37 3 -4 -10 -8 -9 -16 2 -9 13 -11 13 -11 -2z"/>
<path d="M1347 1652 c-10 -15 6 -62 20 -62 10 0 13 6 9 16 -3 9 -6 24 -6 35 0
19 -14 26 -23 11z"/>
<path d="M1940 1630 c0 -16 5 -30 10 -30 6 0 10 14 10 30 0 17 -4 30 -10 30
-5 0 -10 -13 -10 -30z"/>
<path d="M1117 1613 c-7 -40 -4 -49 12 -38 13 7 15 62 2 69 -5 3 -11 -11 -14
-31z"/>
<path d="M1250 1637 c0 -9 5 -19 11 -22 6 -4 8 -13 6 -19 -3 -7 1 -13 9 -13
20 0 17 20 -6 47 -15 18 -20 19 -20 7z"/>
<path d="M606 1622 c-3 -5 8 -24 24 -43 16 -19 29 -28 30 -20 0 18 -47 73 -54
63z"/>
<path d="M1165 1589 c-11 -17 -7 -117 5 -139 19 -36 57 -43 102 -20 21 11 45
20 53 20 8 0 15 5 15 10 0 6 -9 10 -20 10 -13 0 -20 7 -20 19 0 10 -7 25 -17
32 -15 13 -16 11 -10 -12 5 -18 1 -32 -14 -47 -45 -49 -76 -14 -81 91 -2 50
-3 53 -13 36z"/>
<path d="M2058 1582 c-50 -6 -30 -20 39 -27 36 -4 72 -9 80 -12 7 -3 13 0 13
6 0 6 -9 11 -19 11 -11 0 -22 4 -25 9 -7 11 -51 17 -88 13z"/>
<path d="M1074 1569 c-18 -23 -24 -48 -14 -54 6 -4 15 6 20 21 13 32 9 52 -6
33z"/>
<path d="M1363 1520 c-6 -14 -7 -29 -2 -34 13 -15 21 -1 17 31 l-4 28 -11 -25z"/>
<path d="M2232 1501 c25 -17 66 -52 89 -76 29 -30 52 -45 69 -45 l24 0 -22 16
c-12 8 -22 22 -22 30 0 8 -7 14 -15 14 -7 0 -18 6 -22 13 -10 16 -88 62 -123
72 -17 5 -9 -4 22 -24z"/>
<path d="M1092 1495 c-9 -20 -8 -26 6 -35 13 -7 14 -12 5 -18 -13 -8 -7 -52 7
-52 11 0 19 64 9 68 -4 2 -6 17 -2 33 7 35 -9 38 -25 4z"/>
<path d="M2978 1490 c-5 -19 -6 -52 -4 -72 2 -20 0 -42 -5 -49 -4 -8 -3 -19 3
-27 7 -8 8 -16 2 -20 -5 -4 -9 -19 -9 -35 1 -15 -2 -32 -6 -39 -4 -6 -1 -28 6
-49 10 -29 11 -39 2 -42 -9 -3 -9 -8 -1 -18 5 -8 9 -25 8 -39 -10 -96 -18
-342 -25 -827 -2 -90 -3 -92 -28 -101 -34 -12 -248 -9 -260 4 -15 15 -33 116
-22 127 10 10 -8 77 -22 77 -5 0 -7 -25 -3 -62 4 -35 7 -91 8 -125 l1 -63 143
-2 c79 -1 161 -2 181 -3 l37 0 4 538 c4 448 2 537 -9 537 -11 0 -11 2 -1 8 9
7 12 46 10 163 -2 99 -6 142 -10 119z"/>
<path d="M1160 1412 c0 -20 -39 -62 -58 -62 -6 0 -31 -13 -55 -30 -45 -30 -90
-39 -102 -20 -3 6 -14 10 -25 10 -10 0 -21 7 -24 16 -4 10 -14 14 -26 11 -11
-3 -18 -1 -14 4 3 5 -8 9 -24 9 -18 0 -32 -6 -36 -16 -4 -10 -14 -14 -26 -11
-15 4 -20 0 -20 -14 0 -12 -5 -16 -14 -13 -9 3 -19 -6 -27 -25 -8 -17 -18 -31
-22 -31 -5 0 -5 -4 -2 -10 3 -5 0 -10 -7 -10 -10 0 -10 -2 1 -9 9 -6 10 -11 2
-15 -6 -4 -9 -12 -5 -17 3 -5 21 14 40 43 20 29 47 61 61 72 34 25 93 24 129
-2 16 -11 52 -22 80 -25 50 -6 52 -5 95 39 24 25 66 57 93 71 l48 25 -27 14
c-35 18 -35 18 -35 -4z"/>
<path d="M1041 1383 c-8 -18 -9 -29 -1 -37 13 -13 26 1 35 37 9 36 -17 37 -34
0z"/>
<path d="M2280 1374 c0 -3 7 -12 15 -20 8 -8 19 -33 25 -54 6 -22 15 -40 20
-40 10 0 -1 42 -25 88 -14 28 -35 43 -35 26z"/>
<path d="M450 1160 c0 -67 -5 -91 -29 -144 -16 -35 -33 -66 -39 -70 -36 -22
-53 -219 -31 -356 6 -36 15 -103 20 -150 14 -135 19 -162 42 -217 11 -29 18
-55 15 -58 -7 -8 -99 15 -117 29 -10 7 -16 6 -25 -6 -10 -14 -22 -15 -69 -9
-45 6 -57 5 -57 -6 0 -21 -16 -15 -17 7 -1 12 4 20 13 20 23 0 11 24 -13 28
-18 3 -20 8 -15 50 2 26 11 55 20 65 8 9 12 20 9 24 -4 3 -7 1 -7 -5 0 -7 -7
-12 -16 -12 -11 0 -14 6 -9 23 11 35 11 39 -2 44 -10 4 -13 -21 -14 -104 0
-59 -2 -120 -3 -135 l-2 -28 101 0 c55 0 308 -3 561 -7 l462 -6 -9 54 c-5 30
-13 97 -19 150 -13 132 -13 132 -69 124 -46 -6 -46 -6 -96 47 -49 53 -51 60
-40 115 7 32 77 96 127 115 24 9 65 19 93 23 40 6 46 9 31 17 -17 9 -17 11 2
31 11 12 32 48 47 80 15 32 33 61 41 64 8 3 14 9 14 15 0 24 -52 -35 -86 -99
-38 -71 -64 -94 -116 -107 -36 -8 -37 10 -3 64 14 22 25 46 25 54 0 7 7 19 15
26 8 7 15 19 15 26 0 8 4 14 8 14 5 0 16 16 25 35 9 19 15 35 12 35 -8 0 -81
-113 -122 -190 -27 -50 -50 -80 -69 -89 -16 -8 -32 -18 -35 -24 -4 -5 -18 -10
-33 -10 -27 -2 -33 -21 -17 -62 5 -12 2 -29 -8 -46 -13 -23 -13 -30 -2 -43 7
-9 20 -16 27 -16 19 0 18 -54 -1 -70 -19 -16 -19 -30 -1 -30 7 0 42 -9 77 -21
35 -11 75 -21 87 -21 20 0 23 -5 19 -24 -2 -13 0 -24 6 -24 13 0 1 -88 -16
-108 -10 -13 -9 -15 3 -10 12 4 16 -1 15 -21 l0 -26 -354 1 c-326 0 -354 2
-366 18 -19 26 -47 160 -52 246 -2 41 -6 87 -9 103 -4 15 -2 27 3 27 14 0 63
-57 56 -64 -4 -3 -2 -6 4 -6 12 0 139 -122 136 -131 -1 -4 14 -10 34 -14 19
-3 43 -10 52 -15 25 -15 110 -40 129 -39 9 0 -5 8 -33 18 -87 31 -147 61 -187
92 -58 46 -118 106 -118 118 0 5 -7 14 -14 18 -8 5 -33 44 -56 87 -31 61 -37
82 -29 92 8 10 9 18 0 27 -6 8 -9 16 -7 18 4 4 13 67 15 107 1 6 8 12 16 12 8
0 15 7 15 16 0 9 7 28 15 42 8 15 19 46 25 70 8 31 16 42 30 42 11 0 20 5 20
10 0 6 -3 10 -7 10 -5 0 -8 12 -9 28 -3 81 -10 122 -21 122 -9 0 -13 -23 -13
-80z"/>
<path d="M1665 1180 c-3 -5 -15 -10 -25 -10 -20 0 -80 -52 -80 -69 0 -11 -61
-89 -119 -150 -22 -24 -41 -49 -41 -55 0 -15 -45 -63 -89 -96 l-33 -25 129 -2
c114 -1 126 0 108 13 -15 11 -37 13 -94 8 l-74 -6 22 28 c12 16 37 52 56 79
19 28 57 74 85 104 27 30 50 59 50 64 0 6 16 30 36 53 29 37 41 44 70 44 20 0
44 -5 55 -11 29 -15 229 -25 229 -11 0 6 -12 9 -27 8 -16 -2 -37 1 -48 7 -11
6 -47 12 -80 14 -90 6 -99 7 -112 16 -6 4 -14 3 -18 -3z"/>
<path d="M984 1138 c-5 -13 -8 -25 -9 -28 -2 -20 -38 -50 -75 -63 -25 -9 -38
-16 -29 -17 9 0 19 -7 22 -15 5 -11 12 -12 37 -4 36 13 108 128 87 141 -19 12
-25 10 -33 -14z"/>
<path d="M1963 1118 c-6 -7 -14 -20 -18 -28 -7 -12 -6 -13 7 -2 10 8 34 10 75
6 41 -5 63 -3 67 5 6 8 0 10 -18 5 -16 -4 -32 -1 -41 6 -8 7 -15 9 -15 4 0 -4
-5 -3 -12 4 -15 15 -33 15 -45 0z"/>
<path d="M2310 1120 c-14 -5 -19 -9 -10 -11 28 -4 35 -5 121 -18 l87 -13 7
-46 c10 -70 13 -91 26 -162 6 -36 13 -93 15 -127 1 -35 9 -72 17 -84 15 -20
15 -19 10 17 -10 78 -11 158 -3 179 5 13 5 26 -1 32 -5 5 -10 27 -12 49 -1 21
-5 41 -8 44 -4 3 -9 23 -10 44 -5 52 -38 86 -84 86 -18 0 -36 6 -38 13 -4 9
-6 9 -6 0 -1 -7 -7 -11 -13 -9 -33 10 -75 13 -98 6z"/>
<path d="M1123 1109 c-7 -7 -13 -22 -13 -32 0 -11 -16 -46 -36 -78 -19 -33
-45 -85 -55 -117 -11 -31 -27 -62 -36 -69 -14 -11 -11 -53 5 -53 4 0 20 40 36
88 16 48 34 94 41 102 30 37 76 132 73 151 -2 16 -5 18 -15 8z"/>
<path d="M1618 1083 c-8 -16 -13 -34 -11 -40 3 -7 1 -13 -4 -13 -10 0 -28 -41
-43 -97 -6 -24 -15 -43 -20 -43 -14 0 -12 -26 3 -38 11 -9 18 4 36 61 13 40
27 75 32 78 5 3 10 18 11 35 1 16 9 34 18 41 12 10 12 12 1 13 -11 0 -11 3 -1
15 7 8 8 15 3 15 -5 0 -16 -12 -25 -27z"/>
<path d="M2136 1091 c-4 -5 10 -17 29 -27 31 -15 40 -15 72 -3 20 8 38 20 41
27 3 10 -3 10 -27 -2 -17 -9 -31 -14 -31 -10 0 4 -7 1 -15 -6 -13 -11 -20 -9
-39 9 -14 14 -26 18 -30 12z"/>
<path d="M2220 1027 c0 -11 46 -53 112 -104 77 -59 102 -85 152 -160 16 -24
33 -43 37 -43 14 0 11 8 -25 64 -38 60 -119 143 -168 174 -18 12 -45 33 -60
47 -23 21 -48 33 -48 22z"/>
<path d="M1615 849 c-5 -7 8 -8 41 -3 64 9 68 14 11 14 -25 0 -49 -5 -52 -11z"/>
<path d="M1967 770 c-29 -41 -61 -52 -85 -28 -9 9 -12 9 -12 -1 0 -10 -22 -12
-102 -8 -124 6 -116 5 -98 18 11 7 1 8 -34 3 -42 -6 -48 -4 -43 9 8 21 -2 28
-25 16 -15 -8 -17 -13 -8 -24 12 -15 106 -38 120 -30 4 2 21 -2 37 -10 44 -22
153 -35 153 -19 0 10 5 10 25 0 29 -15 103 -74 124 -99 29 -34 91 -59 91 -37
0 6 -9 10 -19 10 -25 0 -114 90 -132 131 -11 29 -11 34 7 48 22 20 48 61 37
61 -5 0 -21 -18 -36 -40z"/>
<path d="M660 781 c0 -15 73 -39 139 -47 42 -4 61 -11 61 -20 0 -16 16 -19 25
-4 3 6 34 10 68 10 95 0 55 17 -56 24 -54 3 -104 9 -110 13 -6 4 -30 9 -52 11
-22 2 -44 8 -49 13 -13 11 -26 12 -26 0z"/>
<path d="M2430 661 c0 -27 10 -54 35 -91 18 -27 36 -84 39 -121 2 -19 11 -47
21 -62 18 -29 55 -37 55 -12 0 9 -6 12 -15 9 -10 -4 -15 0 -15 11 0 12 7 16
27 13 21 -2 29 2 31 16 3 15 0 17 -14 11 -11 -4 -31 -10 -46 -12 -21 -4 -27
-1 -26 13 3 34 -24 126 -48 168 -13 22 -24 51 -24 64 0 12 -4 22 -10 22 -5 0
-10 -13 -10 -29z"/>
<path d="M765 653 c31 -20 65 -35 65 -29 0 7 -46 33 -70 40 -22 7 -22 6 5 -11z"/>
<path d="M861 656 c-14 -17 -9 -58 8 -64 9 -3 11 2 7 16 -4 11 -2 23 4 27 12
8 13 35 1 35 -5 0 -14 -6 -20 -14z"/>
<path d="M2310 605 c0 -3 9 -23 20 -45 24 -47 26 -96 5 -104 -24 -9 -20 -83 4
-91 50 -16 108 35 127 112 l7 28 -35 -30 c-20 -17 -38 -39 -40 -49 -3 -22 -33
-44 -44 -33 -4 4 -1 24 6 46 11 33 10 47 -6 102 -11 34 -25 64 -32 67 -6 2
-12 1 -12 -3z"/>
<path d="M896 564 c-8 -29 -1 -43 13 -28 14 14 17 47 5 51 -7 2 -15 -8 -18
-23z"/>
<path d="M110 512 c0 -46 4 -62 14 -62 9 0 12 10 9 33 -2 17 -6 42 -7 55 -7
48 -16 33 -16 -26z"/>
<path d="M2200 561 c0 -6 4 -12 9 -15 4 -3 8 -22 7 -43 l-1 -38 -46 1 c-35 0
-46 -3 -42 -13 3 -8 21 -13 45 -13 21 0 52 -7 69 -15 24 -13 33 -13 52 -3 21
12 20 13 -15 16 -38 3 -38 3 -38 48 0 47 -13 84 -30 84 -6 0 -10 -4 -10 -9z"/>
<path d="M821 538 c-5 -14 -5 -24 1 -27 15 -5 41 25 34 38 -11 18 -26 13 -35
-11z"/>
<path d="M930 500 c-14 -27 -3 -45 16 -26 16 17 18 32 5 41 -6 3 -15 -4 -21
-15z"/>
<path d="M1816 345 c3 -33 10 -79 16 -102 6 -23 8 -56 6 -73 l-5 -30 96 2 96
2 -82 3 c-76 4 -83 6 -87 26 -9 44 -17 93 -23 136 -9 75 -22 102 -17 36z"/>
<path d="M834 301 c4 -6 18 -11 31 -11 13 0 35 -4 49 -10 16 -6 26 -6 26 0 0
5 -17 12 -37 15 -21 4 -46 9 -57 12 -12 3 -16 1 -12 -6z"/>
<path d="M2424 183 l1 -53 48 0 c51 0 66 16 16 18 -38 1 -41 4 -55 50 l-12 37
2 -52z"/>
<path d="M2304 142 c7 -12 66 -14 66 -2 0 5 -16 10 -36 10 -19 0 -33 -4 -30
-8z"/>
</g>
</svg>
