<?xml version="1.0" encoding="UTF-8"?>
<svg enable-background="new" viewBox="0 0 128 128" xmlns="http://www.w3.org/2000/svg" xmlns:xlink="http://www.w3.org/1999/xlink">
 <defs>
  <filter id="x">
   <feBlend in2="BackgroundImage" mode="multiply"/>
  </filter>
  <linearGradient id="a">
   <stop stop-color="#fff" offset="0"/>
   <stop stop-color="#fff" stop-opacity="0" offset="1"/>
  </linearGradient>
  <linearGradient id="h">
   <stop stop-color="#c5c3c2" offset="0"/>
   <stop stop-color="#c5c3c2" stop-opacity="0" offset="1"/>
  </linearGradient>
  <linearGradient id="d">
   <stop stop-color="#333" offset="0"/>
   <stop stop-color="#4d4d4d" stop-opacity="0" offset="1"/>
  </linearGradient>
  <linearGradient id="g">
   <stop stop-color="#666" offset="0"/>
   <stop stop-color="#6d6a68" stop-opacity=".498" offset=".438"/>
   <stop stop-color="#666" stop-opacity="0" offset="1"/>
  </linearGradient>
  <linearGradient id="r" x1="115.57" x2="115.28" y1="-27.871" y2="-42.697" gradientUnits="userSpaceOnUse">
   <stop stop-color="#7e7a7a" stop-opacity=".846" offset="0"/>
   <stop stop-color="#7f7b7a" stop-opacity="0" offset="1"/>
  </linearGradient>
  <linearGradient id="q" x2="0" y1="-16.027" y2="-46.695" gradientUnits="userSpaceOnUse">
   <stop stop-color="#858281" offset="0"/>
   <stop stop-color="#858281" stop-opacity=".846" offset=".3"/>
   <stop stop-color="#858281" stop-opacity="0" offset="1"/>
  </linearGradient>
  <linearGradient id="f" x1="116.58" x2="109.49" y1="75.032" y2="77.216" gradientTransform="matrix(-1.0099 0 0 .99874 137.02 -209.63)" gradientUnits="userSpaceOnUse">
   <stop stop-color="#625f5e" offset="0"/>
   <stop stop-color="#625f5e" stop-opacity=".498" offset=".263"/>
   <stop stop-color="#625f5e" stop-opacity=".247" offset=".477"/>
   <stop stop-color="#625f5e" stop-opacity="0" offset="1"/>
  </linearGradient>
  <linearGradient id="e" x1="69.623" x2="85.186" y1="122.27" y2="116.26" gradientTransform="matrix(-1.0099 0 0 .99874 108.41 -246.73)" gradientUnits="userSpaceOnUse">
   <stop stop-color="#625f5e" offset="0"/>
   <stop stop-color="#625f5e" stop-opacity=".498" offset=".473"/>
   <stop stop-color="#625f5e" stop-opacity=".247" offset=".68"/>
   <stop stop-color="#625f5e" stop-opacity="0" offset="1"/>
  </linearGradient>
  <linearGradient id="w" x2="0" y1="7.5338" y2="10.791" gradientUnits="userSpaceOnUse" xlink:href="#a"/>
  <linearGradient id="v" x2="0" y1="56.683" y2="58.41" gradientUnits="userSpaceOnUse" xlink:href="#a"/>
  <linearGradient id="u" x2="0" y1="56.136" y2="59.389" gradientUnits="userSpaceOnUse" xlink:href="#a"/>
  <linearGradient id="t" x2="0" y1="45.774" y2="49.027" gradientUnits="userSpaceOnUse" xlink:href="#a"/>
  <linearGradient id="s" x2="0" y1="35.405" y2="38.658" gradientUnits="userSpaceOnUse" xlink:href="#a"/>
  <radialGradient id="o" cx="63.446" cy="58.218" r="13" gradientTransform="matrix(.72537 0 0 .58864 70.056 -49.161)" gradientUnits="userSpaceOnUse">
   <stop stop-color="#d4d3d2" offset="0"/>
   <stop stop-color="#d4d3d2" stop-opacity="0" offset="1"/>
  </radialGradient>
  <radialGradient id="b" cx="-11.619" cy="52.009" r="19.804" gradientTransform="matrix(-1.1298 -.52151 -.79765 1.6901 42.468 -195.94)" gradientUnits="userSpaceOnUse">
   <stop stop-color="#d8d7d6" offset="0"/>
   <stop stop-color="#d8d7d6" stop-opacity="0" offset="1"/>
  </radialGradient>
  <radialGradient id="c" cx="44.746" cy="81.441" r="8.7843" gradientTransform="matrix(-1.5161 2.6155e-7 -1.1911e-6 -1.6402 116.86 193.02)" gradientUnits="userSpaceOnUse">
   <stop stop-color="#d6d6d6" offset="0"/>
   <stop stop-color="#b9bdbe" stop-opacity=".498" offset=".396"/>
   <stop stop-color="#b9bdbe" stop-opacity=".247" offset=".596"/>
   <stop stop-color="#b9bdbe" stop-opacity="0" offset="1"/>
  </radialGradient>
  <radialGradient id="p" cx="29.836" cy="50.154" r="14.343" gradientUnits="userSpaceOnUse">
   <stop stop-color="#333" offset="0"/>
   <stop stop-color="#333" stop-opacity="0" offset="1"/>
  </radialGradient>
  <radialGradient id="n" cx="97.676" cy="41.353" r="12.146" gradientTransform="matrix(8.6764 -4.7503e-5 -3.8579e-7 .73207 -698.36 -77.899)" gradientUnits="userSpaceOnUse" xlink:href="#g"/>
  <radialGradient id="m" cx="97.676" cy="41.353" r="12.146" gradientTransform="matrix(-8.6764 -4.7503e-5 3.8579e-7 .73207 929.94 -77.899)" gradientUnits="userSpaceOnUse" xlink:href="#g"/>
  <radialGradient id="l" cx="-111.8" cy="53.624" r="9.354" gradientTransform="matrix(.52666 -.51507 .69157 .69162 126.64 -114.06)" gradientUnits="userSpaceOnUse" xlink:href="#d"/>
  <radialGradient id="k" cx="-111.8" cy="53.624" r="9.354" gradientTransform="matrix(-.52666 -.51507 -.69157 .69162 105 -114.06)" gradientUnits="userSpaceOnUse" xlink:href="#d"/>
  <radialGradient id="j" cx="75.514" cy="70.141" r="10.055" gradientTransform="matrix(0 .9513 -.94117 -1.1655e-7 198.83 -80.639)" gradientUnits="userSpaceOnUse" xlink:href="#h"/>
  <radialGradient id="i" cx="75.514" cy="70.141" r="10.055" gradientTransform="matrix(0 .9513 .94117 -1.1655e-7 32.745 -80.639)" gradientUnits="userSpaceOnUse" xlink:href="#h"/>
 </defs>
 <path transform="translate(164,6.4914)" d="m-138.4063,17.1875c-3.2277-.0324-6.2591,1.6457-7.875,3.9375-1.2788,1.8136-1.8446,3.8227-2.2188,5.8438-5.4498,4.2108-9.0625,10.6484-9.0625,17.9375 0,.4432.008.7788.0312,1.125-1.8478,8.9698-5.1407,24.2738-5.8125,34.875-.1286,2.0314.1647,4.1948.7188,6.3125 .668,2.5532 2.1016,4.4608 3.4688,5.875 2.7092,2.8025 6.3766,4.5619 10.3438,4.7188 4.1333.1634 8.0745-1.2718 11.2813-3.7813 3.6346-2.8443 5.9794-7.037 7.0313-8.9063a3.9076,3.9076 0 0,0 .0625-.0938l4.375-8.3125c2.5128,2.1989 5.6871,3.625 9.25,3.625 5.7535,0 10.703-3.5169 12.9688-8.5625h2.7813 2.125 2.7813c2.2658,5.0456 7.2153,8.5625 12.9688,8.5625 .6419,0 1.0383-.0524 1.1563-.0625 .2606-.0223.6367-.0674 1.1563-.1563 2.6644-.4555 5.0257-1.6713 6.9688-3.375l4.3438,8.2813a3.9076,3.9076 0 0,0 .0625.0938c1.0519,1.8693 3.3966,6.0619 7.0313,8.9063 2.8003,2.1914 6.1629,3.599 9.75,3.7813 .5519.028 1.0563.0188 1.5313,0 3.9671-.1569 7.6346-1.9162 10.3438-4.7188 1.3671-1.4142 2.8007-3.3218 3.4688-5.875 .5541-2.1176.8475-4.2808.7188-6.3125-.6725-10.6119-3.966-25.9402-5.8125-34.9063 .0223-.3392.0313-.663.0313-1.0938 0-7.2891-3.6127-13.7267-9.0625-17.9375-.3742-2.021-.94-4.0302-2.2188-5.8438-1.6159-2.2918-4.6473-3.9699-7.875-3.9375l-9.625.0938c-2.8788.0289-5.9772.9532-8.5938,3.375-2.2326,2.0664-2.9403,4.9831-3.1563,7.8438h-15.9688-2.125-16l-.0625-.0625c-.2306-2.8955-.8383-5.7226-3.0625-7.7813-2.6165-2.4218-5.7149-3.3461-8.5938-3.375l-9.625-.0938z"/>
 <g transform="translate(-16.433 91.74)">
  <path d="m27.31-43.996c0.9748 0.5785 32.767 15.868 32.767 15.868l-13.886 26.061c-0.9359 1.6448-3.4613 5.7242-6.0918 7.76-2.6121 2.0215-5.5677 3.0434-8.7916 2.9173-2.9966-0.1172-5.6532-1.3552-7.7702-3.5209-1.0857-1.1107-2.0816-2.4815-2.5204-4.14-0.4339-1.6401-0.701-3.8381-0.6223-5.0667 0.8012-12.504 5.8175-33.693 6.9151-39.879z" fill="#d6d5d4"/>
  <path d="m133.56-43.996c-0.9748 0.5785-32.767 15.868-32.767 15.868l13.886 26.061c0.9359 1.6448 3.4613 5.7242 6.0918 7.76 2.6121 2.0215 5.5677 3.0434 8.7916 2.9173 2.9966-0.1172 5.6532-1.3552 7.7702-3.5209 1.0857-1.1107 2.0816-2.4815 2.5204-4.14 0.4339-1.6401 0.701-3.8381 0.6223-5.0667-0.8012-12.504-5.8175-33.693-6.9151-39.879z" fill="#d6d5d4"/>
  <path d="m40.008-52.815v29.307h80.854v-29.307h-80.854z" fill="#efeeee"/>
  <path d="m109.5388-64.0052 9.7223-.0964c4.7739-.0473 6.2878,4.2192 6.7225,9.2996-18.9987,0-13.4235.0482-24.5322.0482 .0558-3.3044.471-5.4658 2.0526-6.9134 1.6989-1.5551 4.2101-2.3199 6.0348-2.338z" fill="#f8f8f8"/>
  <path d="m51.328-64.0052-9.7224-.0964c-4.7739-.0473-6.2878,4.2192-6.7225,9.2996 18.9987,0 13.4235.0482 24.5322.0482-.0558-3.3044-.471-5.4658-2.0526-6.9134-1.6989-1.5551-4.21-2.3199-6.0348-2.338z" fill="#f8f8f8"/>
  <path d="m67.306-25.224v7.8339h26.257v-7.8339h-26.257z" fill="#746362"/>
  <path d="m87.0324-25.2704c.005,1.4023.01,6.5232.01,8.05 .9253,4.7577 5.3602,8.3814 10.3597,8.3814 4.521,0 8.5627-3.0837 9.9394-7.167v-9.3297c-8.5846.004-16.7226.0657-20.3091.0652z" fill="#6a6867"/>
  <path d="m73.8344-25.2704c-.005,1.4023-.0101,6.5232-.0101,8.05-.9253,4.7577-5.3602,8.3814-10.3597,8.3814-4.521,0-8.5627-3.0837-9.9395-7.167v-9.3297c8.5846.004 16.7226.0657 20.3091.0652z" fill="#6a6867"/>
  <path d="m46.381-59.458c-11.127 0-20.134 8.5729-20.134 19.132s9.0077 19.132 20.134 19.132c2.536 0 4.9602-0.4992 7.1954-1.3108 1.1564 4.3316 5.1666 7.5217 9.941 7.5217 5.6777 0 10.288-4.5065 10.288-10.081 0-4.8434-3.4753-8.8844-8.1106-9.8625 0.5331-1.7166 0.8521-3.519 0.8521-5.3994 0-10.559-9.0393-19.132-20.166-19.132zm68.104 0c-11.127 0-20.166 8.5729-20.166 19.132 0 1.8804 0.319 3.6829 0.8521 5.3994-4.6353 0.9782-8.1106 5.0191-8.1106 9.8625 0 5.5745 4.6105 10.081 10.288 10.081 4.7745 0 8.7846-3.1901 9.941-7.5217 2.2352 0.8116 4.6595 1.3108 7.1954 1.3108 11.127 0 20.134-8.5729 20.134-19.132s-9.0077-19.132-20.134-19.132z" fill="#f9f9f9" stroke="#7d7d7d" stroke-opacity=".328" stroke-width=".5021"/>
 </g>
 <g opacity=".729">
  <g transform="translate(-51.789 82.901)">
   <path d="m109.1948-16.3855c-.005,1.3976-.0002,6.2194 0,7.8437h5.5313 2.125 5.5313c.0002-1.6244.005-6.4462 0-7.8437h-5.5313-2.125-5.5313zm-.7188,3.75c-.0957.2438-.1984.4845-.3125.7188 .1132-.2347.2177-.4745.3125-.7188zm-.3125.7188c-.1589.3262-.3388.6318-.5313.9375 .19-.305.3744-.6123.5313-.9375zm-.5313.9375c-.1925.3057-.4014.6232-.625.9063 .2306-.2924.4277-.5896.625-.9063zm-.625.9063c-.2236.283-.4665.5544-.7188.8125 .2557-.261.4926-.5257.7188-.8125zm-.7188.8125c-.2522.2581-.5028.4877-.7813.7188 .2693-.2239.5367-.4691.7813-.7188z" fill="url(#o)"/>
   <path d="m96.976-43.979c3.0561 3.354 4.9375 7.7233 4.9375 12.5 0 1.8804-0.3419 3.6897-0.875 5.4063 4.6353 0.9782 8.125 5.0004 8.125 9.8438 0 0.5341-0.0747 1.0511-0.1563 1.5625h0.1875c3e-4 -0.5654-1e-3 -1.4125 0-1.7188h13.188c1e-3 0.3062-3e-4 1.1533 0 1.7188h0.1875c-0.0815-0.5114-0.1563-1.0284-0.1563-1.5625 0-4.8434 3.4897-8.8656 8.125-9.8438-0.5331-1.7166-0.875-3.5258-0.875-5.4063 0-4.7767 1.8814-9.146 4.9375-12.5h-37.625z" fill="url(#r)"/>
   <path d="m154.6011-55.2616-9.7188.0937c-1.8247.0181-4.3323.7887-6.0313,2.3438-1.5503,1.4191-1.9623,3.5236-2.0313,6.7188 3.5137-2.8206 8.0742-4.5 13.0313-4.5 4.2136,0 8.112,1.2114 11.3438,3.3125-.5877-4.467-2.2475-8.0118-6.5938-7.9688z" fill="url(#n)"/>
   <path d="m76.976-55.262c-4.3463-0.0431-6.006 3.5018-6.5938 7.9688 3.2317-2.1011 7.1301-3.3125 11.344-3.3125 4.9571 0 9.5175 1.6794 13.031 4.5-0.0689-3.1952-0.4809-5.2996-2.0313-6.7188-1.6989-1.5551-4.2065-2.3257-6.0313-2.3438l-9.7188-0.0937z" fill="url(#m)"/>
   <path d="m101.6948-34.0429c.1187.839.2188,1.6929.2188,2.5625 0,1.8804-.3419,3.6897-.875,5.4063 4.5854.9677 8.0513,4.9136 8.125,9.6875h5.3125v-17.6563h-12.7813z" fill="url(#l)"/>
   <path d="m117.1636-34.0429v17.6563h5.25c.0737-4.7739 3.5396-8.7198 8.125-9.6875-.5331-1.7166-.875-3.5258-.875-5.4063 0-.8696.1-1.7235.2188-2.5625h-12.7188z" fill="url(#k)"/>
   <path d="m122.3823-16.4179c.005,1.4023 0,6.5044 0,8.0313 .9253,4.7577 5.3755,8.375 10.375,8.375 4.521,0 8.5608-3.073 9.9375-7.1562v-6.4687l-.0625-.0313c-1.1564,4.3316-5.163,7.5312-9.9375,7.5312-5.6777,0-10.2813-4.5192-10.2813-10.0938 0-.0626-.001-.1252 0-.1875h-.0312z" fill="url(#j)"/>
   <path d="m81.737-50.62c-11.127 0-20.134 8.5729-20.134 19.132s9.0077 19.132 20.134 19.132c2.536 0 4.9602-0.4992 7.1954-1.3108 1.1564 4.3316 5.1666 7.5217 9.941 7.5217 5.6777 0 10.288-4.5065 10.288-10.081 0-4.8434-3.4753-8.8844-8.1106-9.8625 0.5331-1.7166 0.8521-3.519 0.8521-5.3994 0-10.559-9.0393-19.132-20.166-19.132zm68.104 0c-11.127 0-20.166 8.5729-20.166 19.132 0 1.8804 0.319 3.6829 0.8521 5.3994-4.6353 0.9782-8.1106 5.0191-8.1106 9.8625 0 5.5745 4.6105 10.081 10.288 10.081 4.7745 0 8.7846-3.1901 9.941-7.5217 2.2352 0.8116 4.6595 1.3108 7.1954 1.3108 11.127 0 20.134-8.5729 20.134-19.132s-9.0077-19.132-20.134-19.132z" fill="url(#q)"/>
   <g transform="translate(44.363 126.39)">
    <path d="m17.2926-156.5621c-1.8511,8.9117-5.2541,24.6973-5.9063,34.875-.0787,1.2286.1911,3.4536.625,5.0938 .4388,1.6585 1.4143,3.0143 2.5,4.125 2.117,2.1658 4.7847,3.4141 7.7813,3.5313 3.2239.1261 6.1692-.916 8.7813-2.9375 2.6305-2.0358 5.1579-6.1052 6.0938-7.75l7.375-13.8438-.0313-.0937v-6.4688c-2.2178.7979-4.6446,1.2813-7.1563,1.2813-10.6555,0-19.3436-7.8731-20.0625-17.8125z" fill="url(#f)"/>
    <path d="m17.2926-156.5621c-1.8511,8.9117-5.2541,24.6973-5.9063,34.875-.0787,1.2286.1911,3.4536.625,5.0938 .4388,1.6585 1.4143,3.0143 2.5,4.125 2.117,2.1658 4.7847,3.4141 7.7813,3.5313 3.2239.1261 6.1692-.916 8.7813-2.9375 2.6305-2.0358 5.1579-6.1052 6.0938-7.75l7.375-13.8438-.0313-.0937v-6.4688c-2.2178.7979-4.6446,1.2813-7.1563,1.2813-10.6555,0-19.3436-7.8731-20.0625-17.8125z" fill="url(#e)"/>
    <path d="m17.2926-156.5621c-1.8511,8.9117-5.2541,24.6973-5.9063,34.875-.0787,1.2286.1911,3.4536.625,5.0938 .4388,1.6585 1.4143,3.0143 2.5,4.125 2.117,2.1658 4.7847,3.4141 7.7813,3.5313 3.2239.1261 6.1692-.916 8.7813-2.9375 2.6305-2.0358 5.1579-6.1052 6.0938-7.75l7.375-13.8438-.0313-.0937v-6.4688c-2.2178.7979-4.6446,1.2813-7.1563,1.2813-10.6555,0-19.3436-7.8731-20.0625-17.8125z" fill="url(#b)"/>
   </g>
   <path d="m109.1636-16.4179c.001.0623 0,.1249 0,.1875 0,5.5745-4.6036,10.0938-10.2812,10.0938-4.7745,0-8.7811-3.1996-9.9375-7.5312l-.0625.0313v6.4687c1.3767,4.0833 5.4165,7.1562 9.9375,7.1562 4.9995,0 9.4497-3.6173 10.375-8.375 0-1.5268-.005-6.6289 0-8.0313h-.0312z" fill="url(#i)"/>
   <g transform="matrix(-1 0 0 1 187.21 126.39)">
    <path d="m17.2926-156.5621c-1.8511,8.9117-5.2541,24.6973-5.9063,34.875-.0787,1.2286.1911,3.4536.625,5.0938 .4388,1.6585 1.4143,3.0143 2.5,4.125 2.117,2.1658 4.7847,3.4141 7.7813,3.5313 3.2239.1261 6.1692-.916 8.7813-2.9375 2.6305-2.0358 5.1579-6.1052 6.0938-7.75l7.375-13.8438-.0313-.0937v-6.4688c-2.2178.7979-4.6446,1.2813-7.1563,1.2813-10.6555,0-19.3436-7.8731-20.0625-17.8125z" fill="url(#f)"/>
    <path d="m17.2926-156.5621c-1.8511,8.9117-5.2541,24.6973-5.9063,34.875-.0787,1.2286.1911,3.4536.625,5.0938 .4388,1.6585 1.4143,3.0143 2.5,4.125 2.117,2.1658 4.7847,3.4141 7.7813,3.5313 3.2239.1261 6.1692-.916 8.7813-2.9375 2.6305-2.0358 5.1579-6.1052 6.0938-7.75l7.375-13.8438-.0313-.0937v-6.4688c-2.2178.7979-4.6446,1.2813-7.1563,1.2813-10.6555,0-19.3436-7.8731-20.0625-17.8125z" fill="url(#e)"/>
    <path d="m17.2926-156.5621c-1.8511,8.9117-5.2541,24.6973-5.9063,34.875-.0787,1.2286.1911,3.4536.625,5.0938 .4388,1.6585 1.4143,3.0143 2.5,4.125 2.117,2.1658 4.7847,3.4141 7.7813,3.5313 3.2239.1261 6.1692-.916 8.7813-2.9375 2.6305-2.0358 5.1579-6.1052 6.0938-7.75l7.375-13.8438-.0313-.0937v-6.4688c-2.2178.7979-4.6446,1.2813-7.1563,1.2813-10.6555,0-19.3436-7.8731-20.0625-17.8125z" fill="url(#b)"/>
   </g>
  </g>
 </g>
 <g filter="url(#x)">
  <path d="m25.1875,27.6356c-4.3491-.0431-6.007,3.5289-6.5938,8-5.3022,3.4473-8.7812,9.2208-8.7812,15.7813 0,.4685.0276.9462.0625,1.4063-1.8549,8.9265-5.256,24.6644-5.9062,34.8125-.0787,1.2286.1911,3.4224.625,5.0625 .4388,1.6585 1.4143,3.0455 2.5,4.1563 2.117,2.1658 4.7847,3.3828 7.7812,3.5 3.2239.1261 6.1692-.8847 8.7813-2.9063 2.6305-2.0358 5.1578-6.1052 6.0938-7.75l7.375-13.8438c1.4068,4.0364 5.4201,7.0625 9.9063,7.0625 4.9995,0 9.4497-3.6173 10.375-8.375 0-.0355-5e-006-.1482 0-.1875h5.5313 2.125 5.5625c5e-006,.0393 0,.152 0,.1875 .9253,4.7577 5.3442,8.375 10.3438,8.375 4.4861,0 8.4995-3.0261 9.9063-7.0625l7.375,13.8438c.9359,1.6448 3.4632,5.7142 6.0938,7.75 2.6121,2.0215 5.5573,3.0323 8.7813,2.9063 2.9966-.1172 5.6642-1.3342 7.7813-3.5 1.0857-1.1107 2.0612-2.4978 2.5-4.1563 .4339-1.6401.7037-3.8339.625-5.0625-.6518-10.1719-4.0544-25.9603-5.9063-34.875 .0318-.4396.0625-.8965.0625-1.3438 0-6.5605-3.479-12.334-8.7813-15.7813-.5867-4.4711-2.2134-8.0431-6.5625-8l-9.75.125c-1.8247.0181-4.3323.7574-6.0313,2.3125-1.5503,1.4191-1.9623,3.5548-2.0313,6.75-.8065.6478-1.5282,1.3663-2.2188,2.125h-17.75-2.125-17.7188c-.6943-.764-1.4383-1.4732-2.25-2.125-.0689-3.1952-.4809-5.3309-2.0313-6.75-1.6989-1.5551-4.2065-2.2944-6.0313-2.3125l-9.7188-.125z" fill="#0fc"/>
 </g>
 <path d="m88.371 66.668c0 4.0513-3.345 7.3355-7.4712 7.3355s-7.4712-3.2842-7.4712-7.3355 3.345-7.3355 7.4712-7.3355 7.4712 3.2842 7.4712 7.3355z"/>
 <path transform="matrix(.85285 0 0 .76635 39.16 12.227)" d="m57.726 68.73a8.7843 9.267 0 1 1 -17.569 0 8.7843 9.267 0 1 1 17.569 0z" fill="#2c333b"/>
 <path transform="matrix(.85285 0 0 .76635 39.16 12.227)" d="m57.726 68.73a8.7843 9.267 0 1 1 -17.569 0 8.7843 9.267 0 1 1 17.569 0z" fill="url(#c)"/>
 <path d="m39.629 66.668c0 4.0513 3.345 7.3355 7.4712 7.3355s7.4712-3.2842 7.4712-7.3355-3.345-7.3355-7.4712-7.3355-7.4712 3.2842-7.4712 7.3355z"/>
 <path transform="matrix(-.85285 0 0 .76635 88.84 12.227)" d="m57.726 68.73a8.7843 9.267 0 1 1 -17.569 0 8.7843 9.267 0 1 1 17.569 0z" fill="#2c333b"/>
 <path transform="matrix(-.85285 0 0 .76635 88.84 12.227)" d="m57.726 68.73a8.7843 9.267 0 1 1 -17.569 0 8.7843 9.267 0 1 1 17.569 0z" fill="url(#c)"/>
 <path d="m25.6976,34.5455c-.6533,0-1.1992.4822-1.1992,1.0947v9.7928h-10.4144c-.6533,0-1.1677.4822-1.1677,1.0947v8.0177c0,.6124.5144,1.0947 1.1677,1.0947h10.4144v9.7632c0,.6124.546,1.1242 1.1992,1.1242h8.5209c.6533,0 1.1677-.5118 1.1677-1.1242v-9.7632h10.446c.6533,0 1.1677-.4822 1.1677-1.0947v-8.0177c0-.6124-.5144-1.0947-1.1677-1.0947h-10.446v-9.7928c0-.6124-.5144-1.0947-1.1677-1.0947h-8.5209z" fill="none" stroke="#000" stroke-width=".0502"/>
 <path d="m93.7802,34.5457c-.6535,0-1.1996.4822-1.1996,1.0946v9.7927h-10.4177c-.6535,0-1.168.4822-1.168,1.0946v8.0176c0,.6124.5146,1.0946 1.168,1.0946h10.4177v9.7631c0,.6124.5461,1.1242 1.1996,1.1242h8.5236c.6535,0 1.1681-.5118 1.1681-1.1242v-9.7631h10.4493c.6535,0 1.168-.4822 1.168-1.0946v-8.0176c0-.6124-.5146-1.0946-1.168-1.0946h-10.4493v-9.7927c0-.6124-.5146-1.0946-1.1681-1.0946h-8.5236z" fill="none" stroke="#000" stroke-width=".0502"/>
 <path d="m25.6976,34.4831c-.6533,0-1.1992.4799-1.1992,1.0924v.2497c0-.6124.546-1.0924 1.1992-1.0924h8.5209c.6533,0 1.1677.4799 1.1677,1.0924v-.2497c0-.6124-.5144-1.0924-1.1677-1.0924h-8.5209zm-11.6136,10.8925c-.6533,0-1.1677.4799-1.1677,1.0924v.2497c0-.6124.5144-1.0924 1.1677-1.0924h10.4144v-.2497h-10.4144zm21.3022,0v.2497h10.446c.6533,0 1.1677.4799 1.1677,1.0924v-.2497c0-.6124-.5144-1.0924-1.1677-1.0924h-10.446z"/>
 <path d="m93.7815,34.4833c-.6533,0-1.1992.4799-1.1992,1.0924v.2497c0-.6124.546-1.0924 1.1992-1.0924h8.5209c.6533,0 1.1677.4799 1.1677,1.0924v-.2497c0-.6124-.5144-1.0924-1.1677-1.0924h-8.5209zm-11.6136,10.8925c-.6533,0-1.1677.4799-1.1677,1.0924v.2497c0-.6124.5144-1.0924 1.1677-1.0924h10.4144v-.2497h-10.4144zm21.3022,0v.2497h10.446c.6533,0 1.1677.4799 1.1677,1.0924v-.2497c0-.6124-.5144-1.0924-1.1677-1.0924h-10.446z"/>
 <path d="m27.1121,39.7075c-.3462,0-.6312.2687-.6312.593v5.7427l2.7141,2.5593c.5169.4843 1.3766.4843 1.8935,0l2.7141-2.5593v-5.7427c0-.3243-.285-.593-.6312-.593zm-8.2053,7.6778c-.3462,0-.6312.2687-.6312.593v5.6803c0,.3243.285.593.6312.593h6.154l2.7141-2.5593c.2237-.2096.317-.4713.3471-.7491l.0315-1.8102h-1.2308l-1.862-1.7478zm16.3159,0-1.862,1.7478h-1.2624c-.0205.5795.0134,1.2899.0315,1.8102 .0301.2778.155.5395.3787.7491l2.714,2.5593h6.154c.3462,0 .6312-.2687.6312-.593v-5.6803c0-.3243-.285-.593-.6312-.593zm-5.081,5.3058c-.3394,0-.6883.1012-.9468.3433l-2.7141,2.5281v5.8052c0,.3243.285.5618.6312.5618h6.0593c.3462,0 .6312-.2375.6312-.5618v-5.8052l-2.7141-2.5281c-.2585-.2422-.6074-.3433-.9468-.3433z" fill="#4d4d4d" stroke="#4d4d4d" stroke-width=".1004"/>
 <path d="m27.1018,38.0842c-.3462,0-.6312.267-.6312.5914v5.7659l2.7141,2.5429c.5169.4843 1.3766.4843 1.8935,0l2.7141-2.5429v-5.7659c0-.3243-.285-.5914-.6312-.5914h-6.0593zm-8.2053,7.6879c-.3462,0-.6312.267-.6312.5914v5.6772c0,.3243.285.5914.6312.5914h6.154l2.7141-2.5429c.5169-.4843.5169-1.2898 0-1.7741l-2.7141-2.5429h-6.154zm16.3159,0-2.714,2.5429c-.5169.4843-.5169,1.2898 0,1.7741l2.714,2.5429h6.154c.3462,0 .6312-.267.6312-.5914v-5.6772c0-.3243-.285-.5914-.6312-.5914h-6.154zm-5.081,5.2928c-.3394,0-.6883.1127-.9468.3548l-2.7141,2.5429v5.7955c0,.3243.285.5618.6312.5618h6.0593c.3462,0 .6312-.2375.6312-.5618v-5.7955l-2.7141-2.5429c-.2585-.2422-.6074-.3548-.9468-.3548z" fill="#808080"/>
 <path d="m27.1018,38.0842c-.3462,0-.6312.267-.6312.5914v5.7659l2.7141,2.5429c.5169.4843 1.3766.4843 1.8935,0l2.7141-2.5429v-5.7659c0-.3243-.285-.5914-.6312-.5914h-6.0593zm-8.2053,7.6879c-.3462,0-.6312.267-.6312.5914v5.6772c0,.3243.285.5914.6312.5914h6.154l2.7141-2.5429c.5169-.4843.5169-1.2898 0-1.7741l-2.7141-2.5429h-6.154zm16.3159,0-2.714,2.5429c-.5169.4843-.5169,1.2898 0,1.7741l2.714,2.5429h6.154c.3462,0 .6312-.267.6312-.5914v-5.6772c0-.3243-.285-.5914-.6312-.5914h-6.154zm-5.081,5.2928c-.3394,0-.6883.1127-.9468.3548l-2.7141,2.5429v5.7955c0,.3243.285.5618.6312.5618h6.0593c.3462,0 .6312-.2375.6312-.5618v-5.7955l-2.7141-2.5429c-.2585-.2422-.6074-.3548-.9468-.3548z" fill="url(#p)" opacity=".96" stroke="#525252" stroke-width=".1004"/>
 <path d="m98.0394,36.4469c-1.9,0-3.4747,1.1542-4.0395,2.7465h-.2525v1.2484c0,2.2064 1.9216,3.995 4.292,3.995s4.292-1.7886 4.292-3.995v-1.2484h-.2525c-.5648-1.5924-2.1395-2.7465-4.0395-2.7465z" fill="#1a1a1a"/>
 <path d="m102.34 39.194c0 2.2064-1.9216 3.995-4.292 3.995s-4.292-1.7886-4.292-3.995 1.9216-3.995 4.292-3.995 4.292 1.7886 4.292 3.995z" fill="#4d4d4d"/>
 <path d="m98.0394,57.1776c-1.9,0-3.4747,1.1542-4.0395,2.7465h-.2525v1.2484c0,2.2064 1.9216,3.995 4.292,3.995s4.292-1.7886 4.292-3.995v-1.2484h-.2525c-.5648-1.5924-2.1395-2.7465-4.0395-2.7465z" fill="#1a1a1a"/>
 <path d="m102.34 59.925c0 2.2064-1.9216 3.995-4.292 3.995s-4.292-1.7886-4.292-3.995 1.9216-3.995 4.292-3.995 4.292 1.7886 4.292 3.995z" fill="#4d4d4d"/>
 <path d="m87.1494,46.8153c-1.9,0-3.4747,1.1542-4.0395,2.7465h-.2525v1.2484c0,2.2064 1.9216,3.995 4.292,3.995s4.292-1.7886 4.292-3.995v-1.2484h-.2525c-.5648-1.5924-2.1395-2.7465-4.0395-2.7465z" fill="#1a1a1a"/>
 <path d="m91.446 49.562c0 2.2064-1.9216 3.995-4.292 3.995s-4.292-1.7886-4.292-3.995 1.9216-3.995 4.292-3.995 4.292 1.7886 4.292 3.995z" fill="#4d4d4d"/>
 <path d="m102.34 39.194c0 2.2064-1.9216 3.995-4.292 3.995s-4.292-1.7886-4.292-3.995 1.9216-3.9949 4.292-3.9949 4.292 1.7886 4.292 3.9949z"/>
 <path transform="matrix(.40018 0 0 .42798 155.42 40.113)" d="m-136.79 2.2193-6.5759 2e-7 -6.5759-2e-7 3.2879-5.6949 3.2879-5.6949 3.2879 5.6949z" fill="none" stroke="#5dd1af" stroke-width=".9998"/>
 <path d="m98.0606,35.4322c-1.0762,0-2.0994.3088-2.8087.9675-.1639.1522-.1578.4071-.1578.6242 0,1.0186 1.3282,1.8414 2.9665,1.8414s2.9665-.8228 2.9665-1.8414c0-.2172.006-.472-.1578-.6242-.7093-.6587-1.7326-.9675-2.8087-.9675z" fill="url(#s)"/>
 <path d="m91.446 49.562c0 2.2064-1.9216 3.995-4.292 3.995s-4.292-1.7886-4.292-3.995 1.9216-3.9949 4.292-3.9949 4.292 1.7886 4.292 3.9949z"/>
 <path d="m84.692 47.276h4.9251v4.5722h-4.9251z" fill="none" stroke="#ca8aab" stroke-width=".4138"/>
 <path d="m87.1705,45.8005c-1.0762,0-2.0994.3088-2.8087.9675-.1639.1522-.1578.4071-.1578.6242 0,1.0186 1.3282,1.8414 2.9665,1.8414s2.9665-.8228 2.9665-1.8414c0-.2172.0062-.472-.1578-.6242-.7093-.6587-1.7326-.9675-2.8087-.9675z" fill="url(#t)"/>
 <g transform="matrix(1.0099 0 0 .99874 139.99 49.368)">
  <path d="m-37.29 10.57c0 2.2091-1.9028 4-4.25 4s-4.25-1.7909-4.25-4 1.9028-4 4.25-4 4.25 1.7909 4.25 4z"/>
 </g>
 <g fill="#97c0d2">
  <path transform="matrix(.71409 .64589 -.71409 .64589 162.38 109.99)" d="m-87.453 6.0816h7.304v0.412h-7.304z"/>
  <path transform="matrix(-.71409 .64589 -.71409 -.64589 162.38 109.99)" d="m2.6356 83.595h7.304v0.412h-7.304z"/>
 </g>
 <path d="m98.0606,56.1629c-1.0762,0-2.0994.3088-2.8087.9675-.1639.1522-.1578.4071-.1578.6242 0,1.0186 1.3282,1.8414 2.9665,1.8414s2.9665-.8228 2.9665-1.8414c0-.2172.006-.472-.1578-.6242-.7093-.6587-1.7326-.9675-2.8087-.9675z" fill="url(#u)"/>
 <g transform="translate(2.4817 96.866)">
  <path d="m106.45-50.051c-1.9 0-3.4747 1.1542-4.0395 2.7465h-0.2525v1.2484c0 2.2064 1.9216 3.995 4.292 3.995s4.292-1.7886 4.292-3.995v-1.2484h-0.2525c-0.5648-1.5924-2.1395-2.7465-4.0395-2.7465z" fill="#1a1a1a"/>
  <path d="m110.74-47.304c0 2.2064-1.9216 3.995-4.292 3.995s-4.292-1.7886-4.292-3.995 1.9216-3.995 4.292-3.995 4.292 1.7886 4.292 3.995z" fill="#4d4d4d"/>
  <g transform="matrix(.73114 0 0 .72307 136.82 -54.947)" fill="none" stroke="#fd2a40">
   <g transform="matrix(1.3812 0 0 1.3812 15.837 -4.0298)">
    <path d="m-37.29 10.57c0 2.2091-1.9028 4-4.25 4s-4.25-1.7909-4.25-4 1.9028-4 4.25-4 4.25 1.7909 4.25 4z" fill="#000" stroke="none"/>
   </g>
   <path transform="matrix(1.3812 0 0 1.3812 91.533 -5.0755)" d="m-96.3273,7.5607c-1.0656,0-2.0789.3092-2.7813.9688-.1623.1524-.1563.4076-.1563.625 0,1.0199 1.3152,1.8437 2.9375,1.8437s2.9375-.8238 2.9375-1.8437c0-.2174.0061-.4726-.1563-.625-.7024-.6595-1.7156-.9688-2.7813-.9688z" fill="url(#w)" stroke="none"/>
   <path d="m-37.29 10.57c0 2.2091-1.9028 4-4.25 4s-4.25-1.7909-4.25-4 1.9028-4 4.25-4 4.25 1.7909 4.25 4z" fill="none" stroke="#fd2a40" stroke-width=".5691"/>
  </g>
 </g>
 <g transform="translate(.0219,-.5625)">
  <g transform="matrix(1.0099 0 0 .99874 162.81 6.4557)">
   <path transform="translate(-1.7066,7.2941)" d="m-108.2188,35.7813a.2881,.2881 0 0,0 -.0312.0313 .2881,.2881 0 0,0 -.0937.0625 .2881,.2881 0 0,0 -.0625.125 .2881,.2881 0 0,0 0,.0625v2.125a.2881,.2881 0 0,0 .0312.125 .2881,.2881 0 0,0 .0625.0938 .2881,.2881 0 0,0 .125.0625 .2881,.2881 0 0,0 .0625,0h4.4375a.2881,.2881 0 0,0 .125-.0313 .2881,.2881 0 0,0 .0937-.0625 .2881,.2881 0 0,0 .0625-.125 .2881,.2881 0 0,0 0-.0625v-2.125a.2881,.2881 0 0,0 -.0312-.125 .2881,.2881 0 0,0 -.0625-.0938 .2881,.2881 0 0,0 -.125-.0625 .2881,.2881 0 0,0 -.0625,0h-4.4375a.2881,.2881 0 0,0 -.0937,0z"/>
   <path d="m-109.82 43.357h4.4194v2.1213h-4.4194z" fill="#999"/>
   <path d="m-109.83 42.578h4.4194v2.1213h-4.4194z" fill="#ccc"/>
  </g>
  <path transform="matrix(.75695 0 0 .31485 149.75 38.21)" d="m-103.2813,36.375a.4851,.4851 0 0,0 -.5.5v3.3438 3.375a.4851,.4851 0 0,0 .75.4063l2.9063-1.6875 2.9375-1.6875a.4851,.4851 0 0,0 0-.8125l-2.9375-1.6875-2.9063-1.6563a.4851,.4851 0 0,0 -.25-.0938z"/>
  <g transform="matrix(1.0099 0 0 .99874 175.75 8.2019)" fill="#999">
   <path transform="matrix(.75695 0 0 .31485 -25.099 30.039)" d="m-97.448 40.23-2.917 1.6841-2.917 1.6841v-6.7366l2.917 1.6841z"/>
   <path d="m-103.28 41.911h4.4194v0.7926h-4.4194z"/>
  </g>
  <path transform="matrix(.76443 0 0 .31445 150.4 37.408)" d="m-97.448 40.23-2.917 1.6841-2.917 1.6841v-6.7366l2.917 1.6841z" fill="#ccc"/>
 </g>
 <g transform="matrix(1.2286 0 0 1.2286 -14.633 -13.532)">
  <g stroke="#fd2a40">
   <path transform="matrix(.54669 0 0 .53807 86.705 53.825)" d="m-41.531 6.3125c-2.4818 0-4.5 1.8889-4.5 4.25s2.0182 4.25 4.5 4.25 4.5-1.8889 4.5-4.25-2.0182-4.25-4.5-4.25z" stroke="none"/>
  </g>
  <path d="m64,57.2363c-1.0085,0-1.8444.6126-2.1442,1.4578h-.134v.6627c0,1.1711 1.02,2.1205 2.2782,2.1205s2.2782-.9494 2.2782-2.1205v-.6627h-.134c-.2998-.8452-1.1356-1.4578-2.1442-1.4578z" fill="#808080"/>
  <g transform="matrix(.53604 0 0 .53013 86.27 53.091)" fill="#b3b3b3">
   <path d="m-37.29 10.57c0 2.2091-1.9028 4-4.25 4s-4.25-1.7909-4.25-4 1.9028-4 4.25-4 4.25 1.7909 4.25 4z" fill="#b3b3b3"/>
  </g>
  <path d="m64.0112,56.6977c-.5712,0-1.1144.1639-1.4909.5136-.087.0808-.0838.2161-.0838.3313 0,.5407.705.9774 1.5746.9774s1.5746-.4367 1.5746-.9774c0-.1153.0033-.2505-.0838-.3313-.3765-.3496-.9196-.5136-1.4909-.5136z" fill="url(#v)"/>
 </g>
</svg>
