<?xml version='1.0' encoding='utf-8'?>
<svg xmlns="http://www.w3.org/2000/svg" enable-background="new 0 0 5000 4813.8228" version="1.1" viewBox="0 0 5e3 4813.8"> <path d="m1937.4 2345.3c5.7678-2.2749 11.265-2.0146 17.35-2.0564l4.7372 4.5549-9.3389 20.302c-5.5752-7.2307-9.0266-14.492-12.749-22.8z" fill="#171453"/> <path d="m1601.5 2125.9c3.446 6.3926 5.5701 11.952 11.489 16.418-13.3 23.774-24.414 43.509-22.79 71.656 2.2539 3.1235 5.7678 6.8091 6.6787 10.526-4.8048-2.28-11.312-5.4399-14.076-10.297-10.609-18.61 10.635-69.688 18.699-88.303z" fill="#020203"/> <linearGradient id="i" x1="2435.1" x2="2488.4" y1="3769.5" y2="3761.2" gradientTransform="matrix(1.2246 0 0 -1.2246 -274.18 5525.9)" gradientUnits="userSpaceOnUse"> <stop stop-color="#141314" offset="0"/> <stop stop-color="#1C241C" offset="1"/> </linearGradient> <path d="m2789.6 854.37c-2.5508 27.47-10.339 59.204-18.36 85.794-4.6802 6.3405-4.6021 14.112-5.7266 21.786-6.9893 0.8821 5.1562-1.0716-77.788 12.879l2.8215-6.3976 99.053-114.06z" fill="url(#i)"/> <path d="m8.5716 474.25-8.5716-10.703 2.596-2.9359 367.39 100.54c-13.439 3.6411-10.341 1.8846-24.672 0.6923-6.215 5.4659-11.925 8.178-13.544 16.445l2.4159 5.19c-176.74-62.592-166.47-63.394-183.96-61.765-53.989-13.601-125.78-51.406-141.66-47.465z" fill="#472F8E"/> <path d="m2931.2 3790.1-48.152 576.51c-3.7898-17.6-0.2603-33.191 0.2236-50.598 0.4919-111.29 2.5188-31.917-12.774-399.64-0.2166-24.954-10.96-37.318 60.703-126.27z" fill="#374E6F"/> <path d="m3731.9 1659.8c15.398 131.62 31.02 268.87 23.68 401.46-19.595-37.076-43.045-124.85-90.432-285.77l-6.1375-8.2249 1.801-2.7487c15.551-5.9109 57.379-93.561 71.088-104.72z" fill="#9F834F"/> <path d="m3651.1 908.23 181.96-3.3264c-87.09 193.73-90.798 199.02-98.574 228.01-3.0159-22.611-11.068-18.908-83.389-224.68z" fill="#BC1729"/> <path d="m3590.2 142.47c56.223 21.307 87.46 39.156 261.05 124.35 13.154 6.5799 27.897 12.311 39.776 20.958-10.102 4.5031 0.9922 2.9272-208.01 8.7559-29.714 0.8797-63.701 6.7985-92.749 2.6705 16.175-72.688-4.4478-125.08-4.8567-147.22-0.0781-4.2052 2.1031-6.6305 4.7891-9.515z" fill="#5DB283"/> <path d="m3665.1 1775.5c61.049 207.31 73.415 253.57 90.432 285.77l-3.0505 5.1589-1.593-3.217c-37.611-12.197-80.271-18.24-119.15-26.08-31.239-6.2987-65.2-16.299-97.085-17.085 27.584-42.301 49.521-88.449 73.394-132.9 19.131-35.628 44.055-73.316 57.048-111.64z" fill="#388F77"/> <path d="m2190.2 4231.8 5.2004-1.7075c13.242 13.991 0.8462 1.6567 132.06 173.46 11.354 15.237 21.161 32.509 33.909 46.533l5.8616-0.3647c1.1948 9.0166 0.5942 9.3608 4.1489 16.934l12.577 333.21-3.6907-0.9683-190.07-567.09z" fill="#833C21"/> <path d="m2176 4185.3 4.3623 1.3013-0.5205 12.312c-31.598 59.072-80.498 125.6-273.12 399.01-125.73 178.4-126.25 180.86-146.54 204.17-3.6544-23.332 32.941-94.456 43.482-119.34 23.186-54.716 43.41-110.94 70.781-163.76 71.555-96.921 204.31-262.75 301.56-333.7z" fill="#731A4E"/> <path d="m3653.5 1764.8 5.4766 2.4727 6.1375 8.2249c-12.993 38.324-37.918 76.012-57.048 111.64-23.873 44.456-45.81 90.604-73.394 132.9l-2.6758 0.1769-3.1545-2.3945c-9.9763-17.91-6.2661-11.936-16.21-26.45-65.784-97.874-66.458-100.59-118.95-166.77-8.2351-10.385-15.534-23.228-25.742-31.63l3.0767-6.9131c37.871-1.6034 264.9-10.271 282.48-21.26z" fill="#8ECA8F"/> <path d="m2129.9 4023.7c6.8687 35.303 33.388 117.12 38.709 128.38 3.0037 10.52 7.6316 22.223 7.4233 33.196-97.322 71.002-230.16 236.98-301.56 333.7-1.0637-10.7-0.4841-9.6074 29.87-128.53 9.3551-11.928 104.97-202.57 192.73-321.71 10.442-14.175 25.476-29.266 32.822-45.029z" fill="#AD62A5"/> <path d="m2898.4 503.23 136.8 169.09c-5.6118 4.1385-13.259 8.6362-17.876 13.712-9.8179 8.1937-21.374 15.107-23.134 28.678-28.306 22.52-29.297 24.661-37.449 25.044l-69.495 70.687c-33.894 43.691-79.287 79.287-111.25 124.46-2.1968 3.0974-1.2598 1.8324-4.7734 5.2525 8.0215-26.59 15.809-58.324 18.36-85.794 14.633-29.917 21.036-66.856 30.109-99.011 72.857-255.25 61.717-229.51 78.709-252.12z" fill="#5DB283"/> <path d="m2898.4 503.23 136.8 169.09c-5.6118 4.1385-13.259 8.6362-17.876 13.712-9.8179 8.1937-21.374 15.107-23.134 28.678-28.306 22.52-29.297 24.661-37.449 25.044l-69.495 70.687c3.2188-35.2 23.198-64.031 32.925-96.112 12.39-41.66-0.1885-87.837-9.469-133.18-4.9453-24.128-7.647-46.981-18.72-69.386l6.4133-8.5375z" fill="#22C293"/> <path d="m2902.1 499.23 269.75-275.46 3.8364 1.1265c11.203 7.4128 17.632 34.825 23.124 47.251 16.31 36.868 62.808 128.59 98.881 145.85-7.5117 4.4196-25.07 1.7856-34.805 3.4669-114.81 4.6913-303.22 83.542-360.78 77.767z" fill="#1DDCCD"/> <path d="m2902.1 499.23 269.75-275.46 3.8364 1.1265c-4.8323 18.975-12.915 25.318-23.56 42.108-30.608 48.273-100.57 150.9-138.7 180.36 54.162-20.706 44.119-16.642 132.68-22.712 25.518-1.7491 52.515-6.304 77.928-3.014 6.7725 0.8745 13.691 0.6194 20.51 0.5778-123.17 13.969-287.95 82.485-342.44 77.017z" fill="#22C293"/> <path d="m3947.2 547.14c9.5264-4.6746 22.733-6.5695 33.124-9.1619 20.442-5.1016 43.977-14.498 65.086-10.526-96.154 81.358-109.25 134.41-179.92 299.93-10.26 24.487-19.022 54.951-32.436 77.522l-181.96 3.3264-1.4468-0.4164-2.9307-4.2269 0.01-4.8672 1.8481-1.5305 298.63-350.05z" fill="#79283B"/> <path d="m1918 3480.2c3.4202-26.377 14.945-55.529 22.145-81.265l45.227-164.27c157.3-611.9 191.92-695.35 208.26-778.39 4.3601 52.294 0.2683 61.81-27.626 358.48-6.783 57.673-18.381 115.89-20.146 173.9l-1.5825 6.8142c-19.86 21.015-34.617 51.364-49.86 76.028-25.914 41.936-51.723 83.842-71.895 128.95-37.013 82.763-87.932 250.53-101.38 282.23l-3.1338-2.4776z" fill="#46423E"/> <path d="m2617.5 4155.4 6.6787 7.0376c-192.04 508.19-144.36 380.6-217.57 580.12-6.0698 16.601-11.999 44.107-22.639 57.387l-12.577-333.21c20.385-11.837 224.22-277.48 246.11-311.33z" fill="#9A6539"/> <path d="m3040.4 2694.2 2.124 0.7861c9.0007 9.7344 40.068 17.798 53.847 23.17 183.44 76.106 184.54 74.629 194.84 85.351l2.4932 1.6399c-42.172 46.004-22.64 18.055-199.45 198.28-18.662 19.047-40.916 37.554-57.054 58.673l-6.3716-0.6926-71.025-158.67c6.158-33.28 22.951-69.084 35.591-100.49 14.508-36.059 27.934-73.155 45.008-108.05z" fill="#04210F"/> <path d="m3040.4 2694.2 2.124 0.7861c9.0007 9.7344 40.068 17.798 53.847 23.17 183.44 76.106 184.54 74.629 194.84 85.351l-331.41 99.23c6.158-33.28 22.951-69.084 35.591-100.49 14.508-36.059 27.934-73.155 45.008-108.05z" fill="#178553"/> <path d="m3518.4 638.6c165.64-1.181 251.87-91.706 318.1-121.39-1.3325 9.8802-2.9048 18.834-5.9968 28.324l3.4199 1.5981c28.127-11.738 39.786-8.1008 113.24 0.0052l-298.63 350.05-130.13-258.59z" fill="#EE937A"/> <path d="m3646.7 903.59 2.9307 4.2269 1.4468 0.4164c72.13 205.23 80.346 201.87 83.389 224.68-55.453 352.05-46.288 293.72-54.841 348.51l-1.6604-0.104-129.84-281.61-12.01-12.426c-1.6907-3.3948-9.9856-11.718-14.659-16.575l-24.779-19.042 11.14-41.395c27.649-61.726 18.699-52.768 89.126-146.98 15.028-20.104 30.177-44.014 49.761-59.698z" fill="#731A4E"/> <path d="m3646.7 903.59 2.9307 4.2269-101.51 291.89-12.01-12.426c-1.6907-3.3948-9.9856-11.718-14.659-16.575l-24.779-19.042 11.14-41.395c27.649-61.726 18.699-52.768 89.126-146.98 15.028-20.104 30.177-44.014 49.761-59.698z" fill="#C0426A"/> <path d="m3507.8 1110.3c7.1787 18.287 8.5266 40.916 13.639 60.437l-24.779-19.042 11.14-41.395z" fill="#CE238F"/> <path d="m3659.2 931.5 55.804 149.22c6.0596 16.377 17.148 35.247 19.407 52.186l-48.818 309.93c-1.8584-3.0037-5.9084-7.8553-6.8403-11.046-5.2943-18.154-2.5484-331.51-19.552-500.29z" fill="#CE238F"/> <path d="m3298 422.68c9.2349-7.8344 21.807-11.822 33.056-15.752-7.699 8.4124-18.766 18.449-23.686 28.699-15.31 31.91-11.135 79.287-12.431 114.5-0.5449 14.875-3.0679 32.65-2.0718 46.34-3.3054 10.687-3.0037 10.463-12.592 15.56-54.008 28.694-115.57 50.562-172.5 73.217-21.072 8.3863-43.925 20.927-66.091 25.211l-5.4243-1.1661-7.054-14.138-11.811-9.1099c4.6174-5.0754 12.264-9.5732 17.876-13.712l-136.8-169.09 3.6074-4.0031c29.868 2.9971 68.348-10.02 170.68-38.204 122.64-33.945 153.12-40.844 225.24-38.345z" fill="#374E6F"/> <path d="m3298 422.68c9.2349-7.8344 21.807-11.822 33.056-15.752-7.699 8.4124-18.766 18.449-23.686 28.699-15.31 31.91-11.135 79.287-12.431 114.5-0.5449 14.875-3.0679 32.65-2.0718 46.34-3.3054 10.687-3.0037 10.463-12.592 15.56-54.008 28.694-115.57 50.562-172.5 73.217-21.072 8.3863-43.925 20.927-66.091 25.211l-5.4243-1.1661-7.054-14.138c0.6196-2.3737 0.4792-5.0963 1.8584-7.1213 4.4146-6.4498 17.928-14.836 24.123-20.396 76.931-73.233 27.683-24.111 242.81-244.95z" fill="#F6C248"/> <path d="m3178.3 219.77c31.422-11.458 65.989-16.915 328.56-66.107 73.531-12.549 72.719-14.007 83.347-11.194-2.686 2.8844-4.8672 5.3097-4.7891 9.5148 0.3232 17.498 23.407 91.261 1.749 156.6l5.1846 3.0661-7.98 0.4945c-242.09 86.909-193.94 68.48-253.29 94.784-11.249 3.9303-23.821 7.9178-33.056 15.752l-35.143-1.2181c9.7346-1.6814 27.293 0.9526 34.805-3.4669-36.064-17.261-82.554-108.95-98.881-145.85-5.4919-12.426-11.921-39.838-23.124-47.251l-3.8364-1.1265 6.4554-3.9963z" fill="#178553"/> <path d="m3195.4 226.02c56.389 7.6472 74.743 13.42 328.84 69.238 26.631 6.153 33.05 4.485 60.031 16.887l-82.77 29.714c-66.988-3.8688-191.42-61.68-239.25-82.686-20.583-9.037-50.739-17.864-66.861-33.153z" fill="#8ECA8F"/> <path d="m3178.3 219.77c5.5386 4.4696 14.013 3.3082 17.194 6.2483 16.122 15.29 46.278 24.116 66.861 33.153 55.218 24.252 173.01 78.861 239.25 82.686-150.42 54.068-110.41 38.428-170.52 65.07-11.249 3.9303-23.821 7.9178-33.056 15.752l-35.143-1.2181c9.7346-1.6814 27.293 0.9526 34.805-3.4669-36.064-17.261-82.554-108.95-98.881-145.85-5.4919-12.426-11.921-39.838-23.124-47.251l-3.8364-1.1265 6.4554-3.9963z" fill="#5DB283"/> <path d="m3529 1178.5c1.9678 2.3218 5.7837 6.0646 7.1111 8.7299l12.01 12.426 129.84 281.61 1.6604 0.104 52.254 178.41c-11.151 9.0735-16.023 22.155-23.009 34.414-5.5193 9.6836-37.357 66.226-48.079 70.302l-1.801 2.7487-5.4766-2.4727-325.86-479.85c14.032-10.97-12.804 3.3103 149.29-78.964 14.706-6.8247 41.525-15.3 52.056-27.46z" fill="#9A6539"/> <path d="m3536.1 1187.3 12.01 12.426 129.84 281.61 1.6604 0.104 52.254 178.41c-15.144 12.323-26.462 47.624-59.297 92.629-3.5813 4.5861-6.2988 10-11.791 12.087-2.0553-3.8967 8.4991 42.847-124.68-577.27z" fill="#E08E59"/> <path d="m3678 1481.3 1.6604 0.104 52.254 178.41c-15.144 12.323-26.462 47.624-59.297 92.629-8.7454-21.046-5.4241-50.406-5.4917-73.139-0.198-65.56-1.9837-133.61 10.874-198.01z" fill="#A98043"/> <path d="m3017.4 686.04 11.811 9.1099 7.054 14.138 5.4243 1.1661 0.1768 5.8094 7.6523-5.19c20.469 15.514 18.044 14.137 215.15 215.42l-1.6814 2.9412c-364.67 178.08-336.43 165.57-345.23 166.39l-2.4568 1.1193c-41.723-24.219-92.942-88.878-157.42-123.2l2.8162-11.187 4.8672-0.6143c1.1245-7.6731 1.0464-15.445 5.7266-21.786 3.5137-3.4201 2.5767-2.1552 4.7734-5.2525 31.968-45.174 77.361-80.77 111.25-124.46l69.495-70.687c8.2976-0.3898 9.2214-2.5869 37.449-25.044 1.7595-13.571 13.316-20.484 23.134-28.678z" fill="#BC1729"/> <path d="m3017.4 686.04 11.811 9.1099 7.054 14.138 5.4243 1.1661 0.1768 5.8094-91.327 278.29c-10.339 32.598-26.544 68.131-32.78 101.27l-2.4568 1.1193c-41.723-24.219-92.942-88.878-157.42-123.2l2.8162-11.187 4.8672-0.6143c1.1245-7.6731 1.0464-15.445 5.7266-21.786 3.5137-3.4201 2.5767-2.1552 4.7734-5.2525 31.968-45.174 77.361-80.77 111.25-124.46l69.495-70.687c8.2976-0.3898 9.2214-2.5869 37.449-25.044 1.7594-13.571 13.316-20.484 23.134-28.678z" fill="#22C293"/> <path d="m3017.4 686.04 11.811 9.1099 7.054 14.138c-0.073 10.39-1.2026 13.321-8.5061 20.489l-262.19 232.17c1.1245-7.6731 1.0464-15.445 5.7266-21.786 3.5137-3.4201 2.5767-2.1552 4.7734-5.2525 31.968-45.174 77.361-80.77 111.25-124.46l69.495-70.687c8.2976-0.3898 9.2214-2.5869 37.449-25.044 1.7594-13.571 13.316-20.484 23.134-28.678z" fill="#113717"/> <path d="m4981.8 77.468 18.215-3.3488c-18.714 23.988-729.58 336.83-821.56 377.22-54.709 27.019-49.362 25.927-52.993 26.544-81.505 49.839-78.505 49.719-80.062 49.568-21.109-3.9719-44.644 5.4243-65.086 10.526-10.391 2.5924-23.597 4.4872-33.124 9.1619-74.269-8.1961-85.625-11.529-113.24-0.0052l-3.4199-1.5981c3.092-9.4899 4.6643-18.444 5.9968-28.324 2.936-2.6705 6.7986-16.689 9.136-21.302l29.963-53.129 10.005-11.947c7.5879-15.258-15.347-41.684-13.748-139.56 7.418-0.2342 12.197-0.406 19.11-3.4878 43.774 22.077 98.36 41.562 148.18 40.458 12.186-0.0938 24.935 0.5414 36.824-2.4467 214.34-52.635 856.88-247.29 905.79-248.33z" fill="#BBBBB7"/> <path d="m3891 287.78c43.774 22.077 98.36 41.562 148.18 40.458l15.997 4.0448c-127.62 66.733-148.19 74.366-167.45 102.55l-2.0876-3.9979c7.7886-15.662-15.358-41.031-13.748-139.56 7.4179-0.2341 12.197-0.4059 19.11-3.4877z" fill="#388F77"/> <path d="m4981.8 77.468 18.215-3.3488c-18.714 23.988-729.58 336.83-821.56 377.22-54.709 27.019-49.362 25.927-52.993 26.544-81.505 49.839-78.505 49.719-80.062 49.568-21.109-3.9719-44.644 5.4243-65.086 10.526-10.391 2.5924-23.597 4.4872-33.124 9.1619-74.269-8.1961-85.625-11.529-113.24-0.0052l-3.4199-1.5981c3.092-9.4899 4.6643-18.444 5.9968-28.324 2.936-2.6705 6.7986-16.689 9.136-21.302l29.963-53.129 10.005-11.947 2.0876 3.9979c-14.794 18.303-26.028 39.126-37.824 59.417 60.879-13.516 41.3-9.6299 553.35-204.07 602.91-218.27 560.21-199.67 578.55-212.72z" fill="#020203"/> <path d="m3894.3 541.3c16.616-12.686 54.909-12.644 76.94-17.532 37.158-8.2405 74.617-22.546 110.95-34.217 14.456-4.6434 27.725-13.519 43.264-11.671-81.505 49.839-78.505 49.719-80.062 49.568-21.109-3.9719-44.644 5.4243-65.086 10.526-10.391 2.5924-23.597 4.4872-33.124 9.1619l-52.879-5.8355z" fill="#48151F"/> <path d="m1197.1 250.66c-24.796-18.839-51.31-33.002-75.409-51.366-97.793-74.525-162.69-156.68-166.66-179.52l0.0469-13.014c71.904-74.821 963.05 490.68 1444.1 781.07 309.22 193.6 282.85 178.97 291.38 180.61l-2.8215 6.3976-6.3196 6.0906c-46.096-18.238-39.411-15.516-187.66-103.92-346.24-204.14-227.99-138.68-522.08-291.36-784.49-346.89-762.27-336.24-774.56-334.98z" fill="#472F8E"/> <path d="m1863 4021.7c49.434-67.959 113.18-192.76 229.76-408.9 60.558-123.82 61.376-126.91 71.291-140.11-4.9355 22.51 0.156 4.5535-96.898 329.1-152.79 534.91-152.54 514.68-162.81 588.68-30.27 118.59-30.925 117.91-29.87 128.53-27.371 52.822-47.595 109.04-70.781 163.76-10.541 24.883-47.137 96.007-43.482 119.34-2.9517 4.9717-4.6851 8.7666-9.8075 11.775-2.7719-24.468-25.754-438.21-30.489-528.03-0.9891-20.531-3.8418-42.848-0.3698-63.149 27.684-21.023 82.441-131.78 141.42-195.41l2.0353-5.5754z" fill="#CE238F"/> <path d="m1860.9 4027.2-111.71 776.48c-33.916-588.19-33.011-561.79-29.714-581.07 27.684-21.024 82.441-131.78 141.42-195.41z" fill="#79283B"/> <path d="m3590.2 299.21c29.048 4.1281 63.035-1.7907 92.749-2.6705l188.9-5.2681c-1.6064 98.298 21.488 124 13.748 139.56l-10.005 11.947-29.963 53.129c-2.3374 4.6122-6.2 18.631-9.136 21.302-67.13 30.091-151.96 120.21-318.1 121.39l-2.4155-1.8793-12.29-12.66-16.783-1.5305c-21.059 4.309-48.552 0.8765-124.98-4.1592-12.808-12.954-23.97-12.317-69.11-21.905-0.9961-13.69 1.5269-31.466 2.0718-46.34 1.2961-35.211-2.8787-82.587 12.431-114.5 4.9194-10.25 15.987-20.286 23.686-28.699 58.936-26.121 10.262-7.5385 253.29-94.784l7.98-0.4945-5.1846-3.0661 3.1077-9.3756z" fill="#635642"/> <path d="m3590.2 299.21c29.048 4.1281 63.035-1.7907 92.749-2.6705l188.9-5.2681c-1.6064 98.298 21.488 124 13.748 139.56l-10.005 11.947-1.166-4.3675 2.53-4.6747c-49.646-18.182-169.72-85.717-284.68-122.09l-5.1846-3.0661 3.1077-9.3754z" fill="#00A391"/> <path d="m3863.2 428.68 13.816 5.0599-2.53 4.6747 1.166 4.3675-29.963 53.129c-2.3374 4.6122-6.2 18.631-9.136 21.302-68.419 30.669-152.87 120.21-318.1 121.39l-2.4155-1.8793-12.29-12.66-16.783-1.5305c3.9199-2.4102 7.1318-4.7423 11.666-5.7209 19.214-4.1489 40.094-15.305 58.142-23.363 11.802-5.2682 27.218-19.326 28.131-21.593 0.8291-2.0516-0.7559 3.8771 1.01-54.971l0.77 55.487c1.2703 0.2602 248.95-129.46 276.51-143.69z" fill="#F5DFA9"/> <linearGradient id="h" x1="3260.7" x2="3216.3" y1="4048.1" y2="4096.8" gradientTransform="matrix(1.2246 0 0 -1.2246 -274.18 5525.9)" gradientUnits="userSpaceOnUse"> <stop stop-color="#07391F" offset="0"/> <stop stop-color="#1D2D3B" offset="1"/> </linearGradient> <path d="m3863.2 428.68 13.816 5.0599-2.53 4.6747c-83.67 51.598-171.64 92.301-260.2 134.62-35.726 17.069-73.014 39.1-110.54 51.026l-16.783-1.5305c3.9199-2.4102 7.1318-4.7423 11.666-5.7209 19.214-4.1489 40.094-15.305 58.142-23.363 6.2153-2.7745 10.75-5.5127 15.846-10.062 16.287-14.566 12.233-7.3361 12.093-26.424l1.2026-40.078 0.77 55.487c1.2702 0.2602 248.95-129.46 276.51-143.69z" fill="url(#h)"/> <path d="m3584.3 312.15c3.7634 33.717 2.4622 69.152 2.9568 103.1 0.375 26.091 3.4045 57.548-2.1501 82.967 0.9443 23.514 0.991 10.643-0.4526 58.751 0.0208 2.8006 1.0256 12.832 0.1926 14.893-0.9524 2.3647-16.391 16.352-28.131 21.593-18.048 8.0583-38.928 19.214-58.142 23.363-4.5339 0.9786-7.7458 3.3108-11.666 5.7209-21.059 4.309-48.552 0.8765-124.98-4.1592-12.808-12.954-23.97-12.317-69.11-21.905-0.9961-13.69 1.5269-31.466 2.0718-46.34 1.2961-35.211-2.8787-82.587 12.431-114.5 4.9194-10.25 15.987-20.286 23.686-28.699 60.967-27.022 8.7963-7.0125 253.29-94.784z" fill="#020203"/> <path d="m3510.4 463.57c4.6704 28.618 2.8823 34.526-1.2913 59.604-3.4451 18.667-18.163 37.354-17.98 39.266 0.1509 1.6971 1.5669 3.0245 2.3477 4.5394-14.321 11.739-25.825 18.99-43.857 23.769-11.109-5.5909-25.19-4.6382-37.418-4.9661l0.1145-4.9141c67.331-0.7984 100.1-26.655 94.992-110.03l3.0923-7.2724z" fill="#212A3D"/> <path d="m3451.6 396.27c16.309 5.8095 32.915 12.436 44.685 25.622-0.2915 14.316 8.105 29.006 14.154 41.671l-3.0923 7.2723c-16.064-40.506-40.407-50.563-83.758-66.122 10.374-0.0379-4.9051 1.6247 28.011-8.4436z" fill="#0D0F2E"/> <path d="m3397.9 387.55c15.737 3.1911 39.651 3.0089 53.717 8.7246-20.918 6.3983-13.849 3.8644-19.74 6.6892-11.861 5.6872-33.213-6.8955-59.922 13.805-8.4695 6.5695-16.637 16.372-21.661 25.721-3.7688-3.3473-2.1863-1.3118-4.5237-6.2728 3.4358-7.7096 3.7742-11.333 3.0662-19.75l0.3435-1.5304c11.726-12.451 32.7-21.017 48.719-27.387z" fill="#171453"/> <path d="m3397 442.93c9.1777 0.3592 22.759 1.9157 28.761 9.7814 4.1907 5.4867 4.8569 10.859 2.6445 17.34-2.7122 7.9594-11.124 11.4-18.043 14.852-12.868 0.8121-21.208 0.5779-31.838-7.0432-3.8625-8.1833-3.7634-11.832-2.7119-20.822 5.8043-8.6934 11.598-10.531 21.187-14.107z" fill="#FEFEFE"/> <path d="m3369.9 588.95c-10.593-4.8464-20.068-9.8959-28.506-18.084-40.561-39.383-31.768-113.63 7.4182-154.4 0.708 8.4175 0.3696 12.041-3.0662 19.75 2.3374 4.961 0.7549 2.9255 4.5237 6.2728-11.343 22.52-29.146 59.448-19.958 84.826 7.2825 20.125 24.196 38.064 43.649 46.814 11.733 5.2786 25.591 6.9755 38.386 6.7361l-0.1145 4.9141c-11.656-0.2187-23.56 0.1769-35.018-2.124l-4.2532 4.5757-3.0609 0.7239z" fill="#0D0F2E"/> <path d="m3331 406.93 45.102-19.99 12.218 4.3987c-13.988 6.5539-28.418 12.16-39.188 23.597l-0.3435 1.5304c-39.169 40.758-47.994 115.01-7.4182 154.4 8.4385 8.1885 17.913 13.238 28.506 18.084-13.242 14.214-26.326 13.04-52.067 12.822l-24.997-5.3098c-0.9961-13.69 1.5269-31.466 2.0718-46.34 1.2961-35.211-2.8787-82.587 12.431-114.5 4.9194-10.25 15.987-20.286 23.686-28.699z" fill="#8D3D7C"/> <path d="m3584.3 312.15c3.7634 33.717 2.4622 69.152 2.9568 103.1 0.375 26.091 3.4045 57.548-2.1501 82.967 0.9443 23.514 0.991 10.643-0.4526 58.751 0.0208 2.8006 1.0256 12.832 0.1926 14.893-0.9524 2.3647-16.391 16.352-28.131 21.593-18.048 8.0583-38.928 19.214-58.142 23.363-4.5339 0.9786-7.7458 3.3108-11.666 5.7209-21.059 4.309-48.552 0.8765-124.98-4.1592-12.29-12.431-27.683-13.446-44.112-16.596 24.783 0.2104 38.684 1.5439 52.067-12.822l3.061-0.7236 4.2532-4.5757c23.499 4.7191 55.377-1.4955 72.436 7.0901 18.032-4.7787 29.537-12.03 43.857-23.769-3.3237-6.4498-4.019-1.2181 4.1282-15.877 11.387-20.682 11.062-25.269 13.847-42.004 3.0403-16.288 1.6138-29.198-1.0513-45.528-6.0493-12.665-14.446-27.356-14.154-41.671-11.77-13.186-28.376-19.813-44.685-25.622-14.065-5.7157-37.98-5.5335-53.717-8.7246l-9.5312 3.7897-12.218-4.3987c150.25-54.005 103.58-37.24 208.19-74.794z" fill="#731A4E"/> <path d="m3373 588.23 4.2532-4.5757c23.499 4.7191 55.377-1.4955 72.436 7.0901-25.408 8.3967-51.879 6.5695-76.689-2.5144z" fill="#020203"/> <path d="m3496.3 421.9c45.772 42.826 40.69 102.64 9.6875 134.05l-12.457 11.031c-0.7808-1.5148-2.1968-2.8423-2.3477-4.5394-0.1462-1.5306 14.737-21.69 17.98-39.266 4.1633-25.017 5.9709-30.929 1.2913-59.604-6.0493-12.665-14.446-27.356-14.154-41.671z" fill="#041116"/> <path d="m3584.3 312.15c3.7634 33.717 2.4622 69.152 2.9568 103.1 0.375 26.091 3.4045 57.548-2.1501 82.967-14.248-32.114-32.754-62.488-62.384-82.556-35.445-23.998-82.514-36.72-124.86-28.105l-9.5312 3.7897-12.218-4.3987c150.25-54.005 103.58-37.24 208.19-74.794z" fill="#E08E59"/> <path d="m3292.8 596.47c44.395 9.4301 56.311 8.9597 69.11 21.905 66.486 4.3807 102.52 8.7538 124.98 4.1592l16.783 1.5305 12.29 12.66 2.4155 1.8793 130.13 258.59-1.8481 1.5305-0.01 4.8672c-19.584 15.685-34.732 39.594-49.761 59.698-70.427 94.213-61.715 85.787-89.126 146.98l-11.14 41.395c-69.235-51.47-118.87-108.99-226.09-219.72l-0.9944 0.3227-6.6162-2.8267 1.6814-2.9412c-200.46-204.71-194.64-199.87-215.15-215.42l-7.6523 5.19-0.1768-5.8094c22.166-4.2842 45.018-16.825 66.091-25.211 56.928-22.655 118.49-44.524 172.5-73.217 9.5885-5.0961 9.2867-4.8723 12.592-15.559z" fill="#E2693D"/> <path d="m3486.9 622.53 16.783 1.5305 12.29 12.66c-12.337 7.5947-7.1096 3.1507-124.61 149.57-114.66 137.54-108.48 127.24-115.06 141.03l-5.7627 4.6174-0.9944 0.3227-6.6162-2.8267c17.623-30.826 7.3369-27.155 114.8-195.05 24.227-37.85 46.091-76.924 76.861-109.91 10.974 0.021 21.494 0.2656 32.306-1.9468z" fill="#EE937A"/> <path d="m3276.3 927.33 370.36-28.605-0.01 4.8672c-19.584 15.685-34.732 39.594-49.761 59.698-70.427 94.213-61.715 85.787-89.126 146.98l-11.14 41.395c-69.235-51.47-118.87-108.99-226.09-219.72l5.7627-4.6175z" fill="#BC1729"/> <path d="m3292.8 596.47c44.395 9.4301 56.311 8.9597 69.11 21.905l92.671 6.1061c-30.77 32.988-52.634 72.062-76.861 109.91-39.823 62.218-81.026 125.6-113.12 192.11-200.46-204.71-194.64-199.87-215.15-215.42l-7.6523 5.19-0.1768-5.8094c22.166-4.2842 45.018-16.825 66.091-25.211 56.928-22.655 118.49-44.524 172.5-73.217 9.5886-5.0962 9.2868-4.8724 12.592-15.56z" fill="#E2693D"/> <path d="m3292.8 596.47c44.395 9.4301 56.311 8.9597 69.11 21.905l-201.77 59.329c-35.971 11.223-73.566 27.225-110.69 33.373l-7.6523 5.19-0.1768-5.8094c22.166-4.2842 45.018-16.825 66.091-25.211 56.928-22.655 118.49-44.524 172.5-73.217 9.5887-5.0963 9.2869-4.8725 12.592-15.56z" fill="#113717"/> <path d="m2917.7 1095.8c9.2471-0.8567-20.876 12.393 345.23-166.39l6.6162 2.8267 0.9944-0.3227c132.32 136.65 144.15 156.75 250.87 238.76l7.5481 7.8448c-10.531 12.16-37.35 20.635-52.056 27.46-162 82.226-135.14 67.903-149.29 78.964l-1.3486-1.447c-344.26 102.61-234.26 69.494-489.41 147.15l-2.3164-3.925-5.3931 0.9786c1.1504-21.359 13.826-48.246 19.641-69.308l40.755-165.53c7.085-27.965 21.926-62.749 22.614-91.078l3.0923-4.8619 2.4569-1.1194z" fill="#9F834F"/> <path d="m3293 955.12c95.623 96.332 107.39 122.57 228.42 215.58l7.5481 7.8448c-10.531 12.16-37.35 20.635-52.056 27.46-162 82.226-135.14 67.903-149.29 78.964l-1.3486-1.447c-40.072-312.77-40.46-306.77-33.274-328.4z" fill="#A98043"/> <path d="m2917.7 1095.8c9.2471-0.8567-20.876 12.393 345.23-166.39l6.6162 2.8267c-25.836 46.106-392.11 448.06-435.01 494.48l-5.3931 0.9786c1.1504-21.359 13.826-48.246 19.641-69.308l40.755-165.53c7.085-27.965 21.926-62.749 22.614-91.078l3.0923-4.8619 2.4568-1.1193z" fill="#E9B48A"/> <path d="m3326.3 1283.5 1.3486 1.447 325.86 479.85c-17.584 10.989-244.61 19.656-282.48 21.26l-8.7871-6.9182-78.355-15.56c-30.229-6.8401-199-52.884-212.23-47.803l-0.5571-5.3359-3.5137-7.3451c-30.217-358.14-27.884-330.04-28.111-334.1l286.82-85.492z" fill="#E9B48A"/> <path d="m3039.6 1371.7c20.426 26.055 300.56 384.7 322.61 407.43l-78.355-15.56c-30.229-6.8401-199-52.884-212.23-47.803l-0.5571-5.3359-3.5137-7.3451-27.959-331.39z" fill="#5DB283"/> <linearGradient id="g" x1="1489" x2="2110.1" y1="1444.4" y2="1693.3" gradientTransform="matrix(1.2246 0 0 -1.2246 -274.18 5525.9)" gradientUnits="userSpaceOnUse"> <stop stop-color="#884E35" offset="0"/> <stop stop-color="#956C38" offset="1"/> </linearGradient> <path d="m2381.1 2907.7 2.9307 0.9475 1.572 6.2883 3.2014 34.748 0.1821 0.0361c-0.8276 5.0496-4.0913 31.104-6.7463 33.129l-6.1687 1.2754 3.7065-73.217c-14.592 20.651-25.643 42.207-36.95 64.758-3.7168 7.4285-10.458 17.455-12.124 25.466-4.9507 33.43-25.175 65.794-38.064 97.08-49.44 130.01-27.401 66.782-98.605 285.69-5.9446 18.833-22.192 81.601-30.031 88.735-9.9109 13.2-11.159 17.168-71.291 140.11-127.63 236.63-182.73 344.26-229.76 408.9l-2.0353 5.5752c-57.999 62.575-114.23 174.76-141.42 195.41l198.47-742.48 3.1338 2.4775c11.869-27.97 19.615-58.704 29.927-87.428 58.977-164.21 54.337-179.7 143.35-323.75 15.242-24.664 30-55.013 49.86-76.028l1.5825-6.8142 6.8662-7.0225c32.16-12.723 65.929-21.27 98.709-32.259 40.656-13.623 87.278-38.256 129.7-41.624z" fill="url(#g)"/> <path d="m2381.1 2907.7 2.9307 0.9475 1.572 6.2883 3.2014 34.748 0.1821 0.0361c-0.8276 5.0496-4.0913 31.104-6.7463 33.129l-6.1687 1.2754 3.7065-73.217c-14.592 20.651-25.643 42.207-36.95 64.758-3.7168 7.4285-10.458 17.455-12.124 25.466-4.9507 33.43-25.175 65.794-38.064 97.08-49.44 130.01-27.401 66.782-98.605 285.69-5.9446 18.833-22.192 81.601-30.031 88.735-9.9109 13.2-11.159 17.168-71.291 140.11-127.63 236.63-182.73 344.26-229.76 408.9 9.0034-34.839 5.3175-21.917 144.56-363.93l41.739-94.831c-7.0248-14.787 92.882-558.38 96.575-574.28l6.8662-7.0225c32.16-12.723 65.929-21.27 98.709-32.259 40.656-13.623 87.278-38.256 129.7-41.624z" fill="#2C6661"/> <path d="m2330.7 3001.1c-4.9507 33.43-25.175 65.794-38.064 97.08-49.44 130.01-27.401 66.782-98.605 285.69-5.9446 18.833-22.192 81.601-30.031 88.735-10.338 13.769-17.72 30.953-25.445 46.377-60.61 123.92-18.264 42.6-201.28 381.91-23.675 40.734-46.585 82.592-74.326 120.73 11.057-42.785 31.041-83.946 47.283-125 151.57-372.31 79.668-215.32 420.46-895.52z" fill="#EE937A"/> <path d="m3631.8 2037.2c38.876 7.8398 81.536 13.884 119.15 26.08l1.593 3.217c-17.658 44.821-40.349 87.928-61.567 131.15-6.5122 13.258-14.852 37.101-24.68 47.522l-102.55 175.64c-78.332 137.26-16.736 51.251-270.01 384.39l-2.4932-1.6399c-10.307-10.737-11.516-9.2947-194.84-85.351-13.779-5.3721-44.846-13.436-53.847-23.17l-2.124-0.7861-0.2861-1.8013c6.8088-9.7183-4.8242 11.03 130.09-249.61 11.681-23.743 21.65-53.295 36.569-74.8l-0.7808-1.7856 8.0583-6.7881c5.3564-9.063 13.264-13.774 20.781-20.895 38.328-39.926 3.5884-3.0896 189.61-202.05 98.224-101.39 100.08-102.19 107.56-116.23 24.209-1.6009 75.631 12.043 99.761 16.908z" fill="#388F77"/> <path d="m3482.8 2532.7 2.145 5.4763c-5.6267 12.742-65.396 89.461-98.126 135.83l6.4187 0.2395-99.548 130.94-2.4932-1.6399c-10.307-10.737-11.516-9.2947-194.84-85.351-13.779-5.3721-44.846-13.436-53.847-23.17 163.68-59.577 423.53-154.51 432.63-156.63 4.7425-1.0983 4.5916-2.1184 7.6521-5.6894z" fill="#10643D"/> <path d="m3666.3 2245.1c-218.31 373.92-126.6 234.62-273.01 429.09l-6.4187-0.2395c37.168-52.651 38.338-49.177 49.641-67.715 3.269-5.3723 7.6055-9.7554 11.114-14.992 13.308-17.928 11.186-16.359 14.898-20.817 11.174-14.23 17.577-21.214 22.473-32.301l-2.145-5.4763-83.623-47.309c-186-119.62-177.93-115.94-192.41-117.37l-0.7808-1.7856 8.0583-6.7881c482.37-122.24 445.88-113.14 452.2-114.3z" fill="#0F553E"/> <path d="m3631.8 2037.2c38.876 7.8398 81.536 13.884 119.15 26.08l1.593 3.217c-17.658 44.821-40.349 87.928-61.567 131.15-6.5122 13.258-14.852 37.101-24.68 47.522-6.3193 1.1577 27.938-7.3748-452.2 114.29 5.3564-9.063 13.264-13.774 20.781-20.895 38.328-39.926 3.5884-3.0896 189.61-202.05 98.224-101.39 100.08-102.19 107.56-116.23 24.209-1.601 75.631 12.043 99.76 16.908z" fill="#5DB283"/> <path d="m3534.7 2020.1c31.884 0.786 65.846 10.786 97.085 17.085 38.876 7.8398 81.536 13.884 119.15 26.08l1.593 3.217c-17.658 44.821-40.349 87.928-61.567 131.15-6.5122 13.258-14.852 37.101-24.68 47.522l-4.2063 0.7705c-22.655-25.086-38.626-66.039-54.623-96.236l-72.748-129.59z" fill="#178553"/> <path d="m2043.2 1752.5 2.7018 2.3582 2.9829 0.2343c2.811 16.476 70.562 72.405 83.842 90.49l0.7703 0.0885c27.752 24.569 41.036 31.757 42.926 36.892l48.756 35.039c-15.936 16.691-29.848 30.178-37.439 46.309 16.033 24.815 26.731 54.112 40.51 80.37 8.3916 15.997 19.297 30.031 28.251 45.56l2.5613 1.6501c29.995 27.96 68.121 39.828 99.443 64.607-1.0725 31.739-36.388 64.394-53.498 90.552-42.94 53.317-55.888 74.243-103.35 114.02-59.535 32.183-56.698 33.392-76.445 31.026-17.226-10.526-26.934-30.307-35.898-47.788-34.523 18.076-63.625 33.91-101.21 35.992l-1.6348 1.1348c-15.117-1.4834-23.508-4.4819-36.34-12.951l9.3389-20.302-4.7372-4.5549c-6.0853 0.0417-11.582-0.2185-17.35 2.0564-11.249-27.967-7.0671-72.59-16.814-85.716l-27.882 12.02-0.307 0.5051c-39.694 20.041-113.65 70.074-137.19 17.782-13.821-30.682-2.9254-61.525 8.631-90.75-12.415-2.6914-27.085 5.6064-39.318 9.2659-30.802 9.2139-98.803 30.922-127.56 16.039-0.9109-3.7168-4.4248-7.4023-6.6787-10.526-1.6243-28.147 9.4897-47.881 22.79-71.656-5.9188-4.4663-8.0428-10.026-11.489-16.418l11.744-22.311c-53.472 13.404-113.01 29.126-168.4 25.226-4.7684-5.7417-2.6394-9.8489-2.0459-17.002 9.6774-42.457 45.581-75.648 75.784-105 20.234-10.338 45.429-15.731 67.012-23.686l103.37-42.39c3.6013-6.0968 21.389-11.572 30.989-15.945 213.72-100.6 186.28-97.358 229.75-114.4 52.962-35.594 31.34-22.356 93.451-57.814z" fill="#745E85"/> <path d="m2043.2 1752.5 2.7018 2.3582c-47.533 52.16-104.96 95.888-159.84 140-262.85 217.02-242.49 198.61-273.02 247.39-5.9188-4.4663-8.0428-10.026-11.489-16.418l11.744-22.311c-53.472 13.404-113.01 29.126-168.4 25.226-4.7684-5.7417-2.6394-9.8489-2.0459-17.002 9.6774-42.457 45.581-75.648 75.784-105 20.234-10.338 45.429-15.731 67.012-23.686l103.37-42.39c3.2507-5.5032-2.7867-0.0455 92.077-44.701 172.92-87.267 145.54-76.582 168.66-85.648 52.962-35.594 31.34-22.356 93.451-57.814z" fill="#731A4E"/> <path d="m1689 1940.7c-16.179 13.561-37.949 21.322-57.387 29.209-21.343 8.6672-43.071 18.433-64.945 25.534-11.208 3.6438-27.699 6.1426-37.835 11.614-9.2875 5.0055-71.219 102.59-83.998 107.56l-1.999-2.8423c9.6774-42.457 45.581-75.648 75.784-105 20.234-10.338 45.429-15.731 67.012-23.686l103.37-42.39z" fill="#0D0F2E"/> <linearGradient id="f" x1="1711.9" x2="1586" y1="3117.3" y2="2735.3" gradientTransform="matrix(1.2246 0 0 -1.2246 -274.18 5525.9)" gradientUnits="userSpaceOnUse"> <stop stop-color="#04010B" offset="0"/> <stop stop-color="#1A061E" offset="1"/> </linearGradient> <path d="m2043.2 1752.5 2.7018 2.3582c-47.533 52.16-104.96 95.888-159.84 140-262.85 217.02-242.49 198.61-273.02 247.39-5.9188-4.4663-8.0428-10.026-11.489-16.418l11.744-22.311c-53.472 13.404-113.01 29.126-168.4 25.226 0.4789-0.7651 0.7913-1.676 1.447-2.3059 6.7153-6.4133 45.325-11.374 55.581-14.763 24.316-8.0271 47.564-21.124 69.932-33.472 111.82-61.728 211.02-133.76 310.44-213.51 22.259-17.855 48.121-33.54 67.455-54.373 52.962-35.594 31.34-22.356 93.451-57.814z" fill="url(#f)"/> <path d="m2132.7 1845.6 0.7703 0.0885c27.752 24.569 41.036 31.757 42.926 36.892l48.756 35.039c-15.936 16.691-29.848 30.178-37.439 46.309l-25.372 38.188c-19.146 1.645-33.42 23.639-45.018 37.413-148.1 188.43-162.98 200.55-177.63 240.24-2.4414 6.6216-6.0802 12.249-11.083 17.241-1.2805-9.3079-2.6183-30.094-8.0686-37.434l-27.882 12.02-0.307 0.5051c-39.694 20.041-113.65 70.074-137.19 17.782-13.821-30.682-2.9254-61.525 8.631-90.75 1.7346-22.089-13.478 18.758 318.15-309.73 16.388-15.284 34.685-28.339 50.76-43.81z" fill="#370829"/> <path d="m2176.4 1882.6 48.756 35.039c-15.936 16.691-29.848 30.178-37.439 46.309l-25.372 38.188c-20.781 1.7855-25.701 12.836-137.36 154.89-28.621 36.695-69.068 78.814-85.294 122.76-2.4414 6.6216-6.0802 12.249-11.083 17.241-1.2805-9.3079-2.6183-30.094-8.0686-37.434l-27.882 12.02c5.3566-17.23 22.577-27.746 35.357-39.698 93.571-95.6 93.081-111.21 175.85-226.31 21.265-29.573 42.53-58.74 61.473-89.88 3.0869-5.0756 10.594-13.753 11.905-18.839 0.8381-3.2589-0.6351-10.651-0.8484-14.295z" fill="#020203"/> <path d="m2187.7 1963.9c16.033 24.815 26.731 54.112 40.51 80.37 8.3916 15.997 19.297 30.031 28.251 45.56l2.5613 1.6501c29.995 27.96 68.121 39.828 99.443 64.607-1.0725 31.739-36.388 64.394-53.498 90.552-42.94 53.317-55.888 74.243-103.35 114.02-59.535 32.183-56.698 33.392-76.445 31.026-17.226-10.526-26.934-30.307-35.898-47.788-34.523 18.076-63.625 33.91-101.21 35.992l-1.6348 1.1348c-15.117-1.4834-23.508-4.4819-36.34-12.951l9.3389-20.302-4.7372-4.5549c-6.0853 0.0417-11.582-0.2185-17.35 2.0564-5.9552-14.805-7.5688-32.488-8.7455-48.282 5.0027-4.9924 8.6415-10.62 11.083-17.241 16.226-43.951 56.674-86.07 85.294-122.76 109.89-139.81 116.64-153.11 137.36-154.89l25.372-38.189z" fill="#C0426A"/> <path d="m1928.6 2297c5.0027-4.9924 8.6415-10.62 11.083-17.241 16.226-43.951 56.674-86.07 85.294-122.76 109.89-139.81 116.64-153.11 137.36-154.89l-202.9 345.68-4.7372-4.5549c-6.0853 0.0417-11.582-0.2185-17.35 2.0564-5.9552-14.805-7.5689-32.489-8.7455-48.282z" fill="#370829"/> <path d="m2256.5 2089.9 2.5613 1.6501c-3.1755 12.186-4.7632 25.377-8.626 37.241-13.998 42.993-34.019 85.429-50.359 127.69l-44.227 129.01c-11.02 7.1265-18.037 7.772-30.635 6.2625-17.226-10.526-26.934-30.307-35.898-47.788-34.523 18.076-63.625 33.91-101.21 35.992 27.449-10.5 52.811-15.341 79.089-30.411 2.2644-1.2961 10.848-5.4556 12.108-7.189 3.1494-4.3311 4.7893-19.693 7.1006-25.737 24.711-64.546 137.11-189.11 170.1-226.72z" fill="#731A4E"/> <path d="m2259 2091.5c29.995 27.96 68.121 39.828 99.443 64.607-1.0725 31.739-36.388 64.394-53.498 90.552-42.94 53.317-55.888 74.243-103.35 114.02l-45.81 24.763 44.227-129.01c16.34-42.26 36.361-84.696 50.359-127.69 3.8628-11.864 5.4504-25.055 8.626-37.241z" fill="#8D3D7C"/> <path d="m2187.7 1963.9c5.6638-12.035 13.483-20.687 22.275-30.427 14.435 7.2515 39.053 5.0026 55.279 7.8918l56.481 12.28 51.332 17.002c58.683 120.7 49.237 100.1 55.591 117.39 7.4114 8.916 5.9314 6.1899 88.449 61.078 8.6936 6.2886 24.191 20.073 34.248 23.295 65.04 46.924 30.132 20.062 141.94 110.78 7.387 6.6736 15.305 15.487 24.336 19.74l-11.936 8.3916-49.912 27.616c-25.243 37.104-83.628 84.517-90.25 100.41 16.574 12.041 35.898 17.85 54.498 25.94l79.568 36.085c13.165 5.9966 34.399 20.156 48.189 20.578l3.5293 2.9045c-11.499 21.406-81.436 174.42-96.455 197.82l-0.2136 2.9829-5.0181 7.5061 0.1562 7.4546c-3.969 1.5581-251.83 163.34-258.25 169.32l-5.5283-1.8374-1.9729 0.5154-2.9307-0.9475c-42.421 3.3679-89.042 28.001-129.7 41.624-32.78 10.989-66.549 19.537-98.709 32.259l-6.8662 7.0225c1.7646-58.006 13.363-116.23 20.146-173.9 28.7-305.23 32.039-305.55 27.626-358.48l8.0115-95.534c46.443-38.924 57.258-56.791 103.35-114.02 17.111-26.158 52.426-58.813 53.498-90.552-31.322-24.779-69.448-36.648-99.443-64.607l-2.5613-1.6501c-8.9536-15.528-19.859-29.562-28.251-45.56-13.779-26.257-24.477-55.554-40.51-80.369z" fill="#041116"/> <path d="m2349.4 2519c10.016 14.448 6.7585 9.8645 16.143 29.292 5.6843 50.682 32.374 336.43 20.068 354.37-24.342-69.636-43.384-141.82-60.38-213.58-17.58-74.193-19.579-36.018 24.17-170.08z" fill="#5DB283"/> <linearGradient id="e" x1="2285.2" x2="2171.8" y1="2198.3" y2="2430.7" gradientTransform="matrix(1.2246 0 0 -1.2246 -274.18 5525.9)" gradientUnits="userSpaceOnUse"> <stop stop-color="#3C857C" offset="0"/> <stop stop-color="#417882" offset="1"/> </linearGradient> <path d="m2365.6 2548.3 3.3159 0.6143c284.18 189.46 272.98 182.39 280.78 184.27l0.1562 7.4546c-7.0525 2.7686 16.567-11.963-213.63 139.1-14.383 9.3911-32.145 18.605-44.612 30.219l-5.5283-1.8374-0.406-5.4558c12.306-17.933-14.383-303.69-20.068-354.37z" fill="url(#e)"/> <path d="m2553.8 2438.7 11.801 0.708c16.574 12.041 35.898 17.85 54.498 25.94l79.568 36.085c13.165 5.9966 34.399 20.156 48.189 20.578l3.5293 2.9045c-11.499 21.406-81.436 174.42-96.455 197.82l-0.2136 2.9829-5.0181 7.5061c-7.8037-1.8855 2.6917 4.7117-280.78-184.27l184.5-107.99 0.3747-2.2592z" fill="#212A3D"/> <path d="m2553.8 2438.7 11.801 0.708c16.574 12.041 35.898 17.85 54.498 25.94l79.568 36.085c13.165 5.9966 34.399 20.156 48.189 20.578l3.5293 2.9045c-11.499 21.406-81.436 174.42-96.455 197.82-19.818-26.304-29.532-69.454-40.5-100.31-21.52-60.546-44.3-119.27-61.005-181.47l0.3747-2.2592z" fill="#385459"/> <path d="m2205.3 2357.7c9.1567 3.1077 16.388 4.1904 20.89 13.456 9.594 19.75 12.764 44.378 18.548 65.674 29.913 104.14 19.242 60.409 65.284 253.87l-3.769 0.4114c-9.448-17.226-14.446-35.356-20.838-53.831-15.46-44.669-12.856-34.699-25.065-77.377-4.8049-17.241-7.1267-41.551-15.935-57.017 5.1731 56.845 44.446 158.4 13.795 200.72l122.95 204.14c-42.421 3.3679-89.042 28.001-129.7 41.624-32.78 10.989-66.549 19.537-98.709 32.259l-6.8662 7.0225c1.7646-58.006 13.363-116.23 20.146-173.9 28.7-305.23 32.039-305.55 27.626-358.48l8.0115-95.534 3.6335-3.0452z" fill="#0F3533"/> <path d="m2258.2 2703.6 122.95 204.14c-42.421 3.3679-89.042 28.001-129.7 41.624-32.78 10.989-66.549 19.537-98.709 32.259 91.324-250.11 92.882-256.72 105.46-278.02z" fill="#0F553E"/> <linearGradient id="d" x1="2056.6" x2="2268" y1="2494.8" y2="2837.6" gradientTransform="matrix(1.2246 0 0 -1.2246 -274.18 5525.9)" gradientUnits="userSpaceOnUse"> <stop stop-color="#000F1A" offset="0"/> <stop stop-color="#441126" offset="1"/> </linearGradient> <path d="m2187.7 1963.9c5.6638-12.035 13.483-20.687 22.275-30.427 14.435 7.2515 39.053 5.0026 55.279 7.8918l56.481 12.28 51.332 17.002c58.683 120.7 49.237 100.1 55.591 117.39 7.4114 8.916 5.9314 6.1899 88.449 61.078 8.6936 6.2886 24.191 20.073 34.248 23.295 65.04 46.924 30.132 20.062 141.94 110.78 7.387 6.6736 15.305 15.487 24.336 19.74l-11.936 8.3916-49.912 27.616c-25.243 37.104-83.628 84.517-90.25 100.41l-11.801-0.708-0.3748 2.2593-184.5 107.99-3.3159-0.6143c-9.2183-19.084-6.0308-14.706-16.143-29.292 6.1687-15.216-13.836-43.56-16.824-61.151-9.0605-26.198-12.659-34.644-16.361-59.979-3.7273-12.166-1.4785-25.648-3.0869-38.199-2.1343-16.658-5.1069-32.129-6.0073-49.178-1.1245-21.28-0.0312-42.608-2.1499-63.832 17.111-26.158 52.426-58.813 53.498-90.552-31.322-24.779-69.448-36.648-99.443-64.607l-2.5613-1.6501c-8.9536-15.528-19.859-29.562-28.251-45.56-13.779-26.257-24.477-55.554-40.51-80.369z" fill="url(#d)"/> <path d="m2332.6 2457.9c26.573-1.1946 46.182-20.163 63.16-39.932 2.2434 22.67-12.619 51.66-19.308 73.196-4.6853 15.091-7.2046 33.946-15.627 47.361-2.686-7.2932-7.012-13.144-11.4-19.474 6.1686-15.216-13.836-43.56-16.824-61.151z" fill="#0E3B4A"/> <path d="m2557.9 2299c30.26 16.424 63.66 34.633 97.944 40-25.243 37.104-83.628 84.517-90.25 100.41l-11.801-0.708c-6.96-22.608-10.219-44.383-11.702-67.96 11.112-46.598 7.421-30.026 15.81-71.739z" fill="#46423E"/> <path d="m2459.8 2243.7 2.8059-6.9131c11.395 4.4092 21.681 14.846 31.786 21.853l55.008 36.388c4.2788 10.396 1.853 27.278 1.468 38.652l-8.8237 37.002c-10.37 19.802-22.567 49.529-56.366 57.429-58.834-15.382-27.444-140.56-25.877-184.41z" fill="#8D3D7C"/> <path d="m2358.5 2156.1 5.8979 2.3633 87.73 59.912c-8.0244 88.948-15.252 118.17-56.361 199.53-16.947 19.733-36.471 38.732-63.16 39.932-9.0605-26.198-12.659-34.644-16.361-59.979-3.7273-12.166-1.4785-25.648-3.0869-38.199-2.1343-16.658-5.1069-32.129-6.0073-49.178-1.1245-21.28-0.0312-42.608-2.1499-63.832 17.111-26.158 52.426-58.813 53.498-90.552z" fill="#8D3D7C"/> <path d="m2358.5 2156.1 5.8979 2.3633c-2.124 21.317-1.4524 44.446-6.2832 65.195-10.25 43.993-35.289 87.684-41.171 132.1-1.8013 13.602-0.7705 28.376-0.6975 42.103-3.7273-12.166-1.4785-25.648-3.0869-38.199-2.1343-16.658-5.1069-32.129-6.0073-49.178-1.1245-21.28-0.0312-42.608-2.1499-63.832 17.111-26.158 52.426-58.813 53.498-90.552z" fill="#731A4E"/> <path d="m1328.3 301.14c771.96 341.34 565.54 244.08 877.01 405.77 468.75 276.37 420.36 251.94 476.14 274.01-33.598 53.414-184.3 214.96-219.92 263.87 2.4832 4.3363 6.2051 9.3285 7.4751 14.118l-79.615-31.635c3.2483-6.0177 4.1072-9.9011 4.5601-16.715-14.763-38.178-42.311-94.16-75.487-118.93-16.632-12.421-31.458-31.437-49.797-40.843-50.01-49.343-39.382-39.314-53.706-51.614-38.856-45.575-31.829-54.054-49.552-64.097l3.2795-5.3201c-53.795-16.84-114.15-22.405-169.67-33.561l-358.76-72.592c-19.188-3.7116-89.797-23.498-101.85-19.87-11.796-10.76-28.693-19.636-41.874-29.126-10.984-4.1802-23.654-15.544-33.644-22.618-57.861-40.963-133.15-96.075-162.86-161.85-6.5695-14.539-11.145-31.26-4.5393-46.731 3.7429-8.7767 12.301-17.142 21.057-20.724 4.9297-1.8689 10.864-2.8943 14.128-7.0797-58.808-51.235-51.532-44.699-55.294-48.652l-2.8528-0.5466c-39.781-36.054-137.52-120.23-139.52-175.17-0.7007-18.974 14.1-37.832 49.027-37.897 27.446-4.8374 6.378-9.627 146.27 47.814z" fill="#171453"/> <path d="m1960.5 626.14c16.004-5.3956 18.717-1.6131 30.479 9.3649 197.19 184.2 149.46 170.77 417.97 535.73 17.636 23.524 39.016 47.528 52.53 73.55 2.4832 4.3363 6.2051 9.3285 7.4751 14.118l-79.615-31.635c3.2483-6.0177 4.1072-9.9011 4.5601-16.715-14.763-38.178-42.311-94.16-75.487-118.93-16.632-12.421-31.458-31.437-49.797-40.843-50.01-49.343-39.382-39.314-53.706-51.614-38.856-45.575-31.829-54.054-49.552-64.097l3.2795-5.3201 2.28 0.5466c12.754 13.717 24.492 27.902 42.894 33.826l3.1597-1.9417c-33.782-43.271-22.638-28.067-49.422-66.887-14.768-28.954-29.88-52.447-54.873-73.582l-20.135-9.7032c0.5637-5.2242 0.4287-3.1386 0.5413-9.1984 3.1284-3.1702 2.0457-1.1608 2.5454-6.3613l9.4536-1.5929c-8.1523-4.6289-33.296-46.286-57.069-71.504-73.172-92.918-67.56-89.476-87.507-97.205z" fill="#020203"/> <path d="m2105.1 794.85c7.1992 8.3186 6.8401 16.221 7.595 26.856l-20.135-9.7032c0.5637-5.2242 0.4287-3.1386 0.5413-9.1984 3.1284-3.1702 2.0457-1.1608 2.5454-6.3613l9.4536-1.5929z" fill="#212A3D"/> <path d="m2168.7 929.75 2.28 0.5466c12.754 13.717 24.492 27.902 42.894 33.826l3.1597-1.9417c13.092 11.281 23.233 25.554 34.165 38.85 8.3965 10.208 18.173 20.026 24.269 31.822-13.379-9.797-27.767-25.528-43.483-28.881l-6.2571 4.4299-10.755-9.2348c-38.856-45.575-31.829-54.054-49.552-64.097l3.2796-5.3201z" fill="#171453"/> <linearGradient id="c" x1="1248.7" x2="1777" y1="4375.1" y2="3823.4" gradientTransform="matrix(1.2246 0 0 -1.2246 -274.18 5525.9)" gradientUnits="userSpaceOnUse"> <stop stop-color="#963B9A" offset="0"/> <stop stop-color="#746CBE" offset="1"/> </linearGradient> <path d="m1275.4 466.94-2.8528-0.5466c-39.781-36.054-137.52-120.23-139.52-175.17-0.7007-18.974 14.1-37.832 49.027-37.897 268.53 132.87 769.67 370.92 778.53 372.82 20.219 7.834 14.703 4.7542 87.507 97.205-14.136 2.0115-13.176 0.8445-257.4-81.224-657.34-202.3-418.32-127.34-515.29-175.18z" fill="url(#c)"/> <path d="m1275.4 466.94c97.72 48.214-143.5-27.559 515.29 175.18 243.94 81.972 243.23 83.24 257.4 81.224 23.403 24.826 48.963 66.902 57.069 71.504l-9.4536 1.5929c-0.4998 5.2004 0.583 3.1911-2.5454 6.3613-0.1125 6.0604 0.0225 3.9738-0.5413 9.1984l20.135 9.7032c24.992 21.135 40.104 44.628 54.873 73.582 26.784 38.82 15.64 23.616 49.422 66.887l-3.1597 1.9417c-18.402-5.924-30.141-20.109-42.894-33.826l-2.28-0.5466c-53.795-16.84-114.15-22.405-169.67-33.561l-358.76-72.592c-19.188-3.7116-89.797-23.498-101.85-19.87-11.796-10.76-28.693-19.636-41.874-29.126-10.984-4.1802-23.654-15.544-33.644-22.618-57.861-40.963-133.15-96.075-162.86-161.85-6.5695-14.539-11.145-31.26-4.5393-46.731 3.7429-8.7767 12.301-17.142 21.057-20.724 4.9297-1.8689 10.864-2.8943 14.128-7.0797-58.808-51.235-51.533-44.699-55.294-48.652z" fill="#675EBD"/> <path d="m1496.5 774.6c11.281 0.7288 16.559 6.6267 26.007 12.431 19.799 12.16-4.6799-27.617 578.71 98.251 27.181 5.4088 40.051 9.4283 66.351 10.01 26.784 38.82 15.64 23.616 49.422 66.887l-3.1597 1.9417c-18.402-5.924-30.141-20.109-42.894-33.826l-2.28-0.5466c-53.795-16.84-114.15-22.405-169.67-33.561l-358.76-72.592c-19.188-3.7116-89.797-23.498-101.85-19.87-11.796-10.76-28.693-19.636-41.874-29.126z" fill="#472F8E"/> <path d="m1275.4 466.94c97.72 48.214-143.5-27.559 515.29 175.18 243.94 81.972 243.23 83.24 257.4 81.224 23.403 24.826 48.963 66.902 57.069 71.504l-9.4536 1.5929c-0.4998 5.2004 0.583 3.1911-2.5454 6.3613-0.1125 6.0604 0.0225 3.9738-0.5413 9.1984l-752.91-287.23-23.144-2.103c4.9297-1.8689 10.864-2.8943 14.128-7.0797-58.808-51.235-51.532-44.699-55.294-48.652z" fill="#472F8E"/> <path d="m1339.7 524.77c11.642-0.543 5.1346-1.016 120.27 39.339 415.42 143.55 302.91 103.08 513.04 183.42 113.76 42.239 113.06 41.394 120.65 46.929l2.0405 1.9833c-0.4998 5.2004 0.583 3.1911-2.5454 6.3613-0.1125 6.0604 0.0225 3.9738-0.5413 9.1984l-752.91-287.23z" fill="#0D0F2E"/> <path d="m793.47 1357.4c15.331 12.97 13.93 9.6294 224.92 28.006l125.33 8.4487 0.6611 0.9266c108.41 7.2777 79.508 5.3434 143.26 9.594l0.1667 0.2446c36.565 1.3503 17.759 0.3071 85.424 4.8984l0.2394 0.3645c303.66 13.608 297.93 12.195 340.41 13.93l4.4562-5.1379c26.668 25.851 50.494 57.361 79.323 80.677 7.7565 12.764 19.381 22.785 29.953 33.222l7.6886-0.1561c1.6746 11.429-4.5139 1.524 59.365 70.526l9.5106 7.6106 4.7632 8.3081c3.6752 3.67 11.124 13.019 15.419 15.128 111.35 113.32 27.837 27.221 118.82 118.52-62.114 35.459-40.489 22.22-93.451 57.814-23.108 9.0624-1.8187 1.4502-168.66 85.648-95.117 44.774-88.755 39.076-92.077 44.701l-103.37 42.39c-21.582 7.9542-46.778 13.347-67.012 23.686-44.67-0.8695-89.428-6.1478-133.92-9.9167-25.039-2.1188-56.757-1.822-80.411-9.9116l-42.806-8.8702c16.127-40.802 40.906-65.268 71.947-95.169-40.271-3.269-87.142-3.3992-125.9-13.639-34.003-0.5259-99.539-12.318-99.001-45.482 0.3905-23.425 34.456-47.174 50.422-62.103l12.025-18.855-1.7439-5.2056c-28.693-8.9797-62.837-7.8917-92.634-12.9-2.7817 1.3042-113.1-12.757-147.77-62.816-7.0309-10.142-4.7833-19.66-2.8267-27.095 0.8953-3.5345 1.1712-5.7732 2.7329-9.1099 6.9495-14.878 22.436-25.482 37.756-29.724l0.9578-3.1132c-15.321-26.321-88.592-45.984-129.76-75.83-10.109-3.0402-16.861-8.3706-25.612-14.034-19.297-12.493-39.079-23.186-53.628-41.593-10.135-12.821-17.054-28.99-14.217-45.539 3.3056-19.302 20.255-32.421 35.273-42.879 5.9035-3.7431 9.7816-10.068 13.967-15.56z" fill="#D6A2B3"/> <path d="m793.47 1357.4c11.223 9.4951 20.375 9.6669 34.862 11.452 2.7798 2.962 8.8235 7.6573 9.2244 11.567-19.552-0.1716-38.844-4.1436-58.053-7.4595 5.9033-3.743 9.7814-10.068 13.967-15.56z" fill="#020203"/> <path d="m1641.7 1421.9 11.801-0.5569c8.8964 2.6185 11.624 4.4403 18.824 9.5887 4.6849 3.3523 12.582 5.1588 17.949 7.6835 13.868 6.5331 38.36 24.326 42.186 40.24 0.7131 2.9568 0.4998 4.8101 0.4164 7.694l-58.162-46.398c-20.263-15.042-9.5447-10.899-39.828-11.088-21.241-0.1272-37.964 0.0713-57.97-2.0822l62.874-1.5096 1.9106-3.5712z" fill="#370829"/> <path d="m1373.5 1409.9 268.21 12.02-1.9105 3.5712c-83.796 2.012-28.492 2.8821-273.36-6.8923l7.0587-8.6986z" fill="#0D0F2E"/> <path d="m1718.3 1418.7c26.668 25.851 50.494 57.361 79.323 80.677 7.7565 12.764 19.381 22.785 29.953 33.222-18.392-4.2321-23.774-27.215-43.951-27.751-10.427-0.2759-11.676-0.1926-19.146 6.934-11.353-7.064-22.681-15.263-31.656-25.206 0.0834-2.8839 0.2968-4.7372-0.4164-7.694-3.8262-15.914-28.319-33.706-42.186-40.24-5.3671-2.5247-13.264-4.3312-17.949-7.6835-7.1995-5.1484-9.9272-6.9702-18.824-9.5887l60.396 2.4674 4.4562-5.138z" fill="#731A4E"/> <path d="m828.33 1368.9c236.57 20.604 158.01 14.393 315.39 25.003l0.6611 0.9266c108.41 7.2777 79.508 5.3434 143.26 9.594l0.1667 0.2446c36.565 1.3503 17.759 0.3071 85.424 4.8984l0.2394 0.3645-7.0587 8.6985c-167.98-11.258 7.48 1.0194-153.81-9.9791-23.485 1.1973 0.5723-0.1958-221.29-15.648-21.302 1.8115-47.205-2.405-68.652-4.1854-27.72-2.306-57.965-2.7382-85.107-8.3499-0.4009-3.9094-6.4446-8.6047-9.2243-11.567z" fill="#171453"/> <linearGradient id="b" x1="1371.8" x2="1321.8" y1="3111.2" y2="3308.1" gradientTransform="matrix(1.2246 0 0 -1.2246 -274.18 5525.9)" gradientUnits="userSpaceOnUse"> <stop stop-color="#74295C" offset="0"/> <stop stop-color="#64318B" offset="1"/> </linearGradient> <path d="m1764.5 1511.8c7.4701-7.1266 8.7194-7.2098 19.146-6.934 20.177 0.5363 25.56 23.519 43.951 27.751l7.6886-0.1561c1.6746 11.429-4.5139 1.524 59.365 70.526-16.439 0.5934-41.338-4.2478-54.998 4.9973-18.673-12.306-32.8-28.282-47.293-45.055-7.8022-2.1848 0.2924-1.4463-110.22 10.068-197.16 16.673-73.194 9.6438-533.45 27.517-186.14-2.9437-161.98-4.9553-176.91-2.9619-3.4462 0.4581-1.3795 0.7913-5.3045-1.5616l0.9578-3.1132c-15.321-26.321-88.592-45.984-129.76-75.83 9.7551-2.8267 85.103 45.318 109.38 52.067 2.3886 0.6633-0.3331 0.3164 60.224-4.8829 487.06-47.788 721.34-40.367 757.23-52.431z" fill="url(#b)"/> <path d="m966.48 1596c3.925 2.3529 1.8583 2.0198 5.3045 1.5616 17.08-2.28 35.544 0.6454 52.822 0.9995 165.37 2.6154 60.059 4.4489 508.81-12.978 275.53-23.3 249.01-25.429 258.95-22.644 14.493 16.773 28.62 32.749 47.293 45.055 13.66-9.2451 38.558-4.4039 54.998-4.9973l9.5106 7.6106 4.7632 8.3081c-59.766 14.295-120.57 20.011-180.77 31.702-67.907 13.186-550.7 121.28-567.38 112.39l-1.8429-1.3014 12.025-18.855-1.7439-5.2056c-28.693-8.9797-62.837-7.8917-92.634-12.9-2.7817 1.3042-113.1-12.757-147.77-62.816-4.3415-6.2622-5.8928-14.638-4.1541-22.051 2.6217-9.9623 2.5063-10.834 4.0604-14.154 6.9497-14.878 22.436-25.481 37.757-29.724z" fill="#B48DD4"/> <path d="m1894.7 1603 9.5106 7.6106 4.7632 8.3081c-59.766 14.295-120.57 20.011-180.77 31.702-67.907 13.186-550.7 121.28-567.38 112.39l-1.8429-1.3014 12.025-18.855-1.7439-5.2056c-28.693-8.9797-62.837-7.8917-92.634-12.9 11.541-0.7445 24.727-0.1354 36.106 2.1343 21.452 4.2842 43.743 2.4935 65.471 7.8396 17.119 4.2048-38.919 9.4187 624.27-117.87 14.84-2.5593 29.54-1.2039 37.22-8.86 13.66-9.2451 38.558-4.4039 54.998-4.9973z" fill="#8D3D7C"/> <path d="m1908.9 1618.9c3.6752 3.67 11.124 13.019 15.419 15.128 111.35 113.32 27.837 27.221 118.82 118.52-62.114 35.459-40.489 22.22-93.451 57.814-23.108 9.0624-1.8187 1.4502-168.66 85.648-95.117 44.774-88.755 39.076-92.077 44.701l-103.37 42.39c-21.582 7.9542-46.778 13.347-67.012 23.686-44.67-0.8695-89.428-6.1478-133.92-9.9167-25.039-2.1188-56.757-1.822-80.411-9.9116l-42.806-8.8702c16.127-40.802 40.906-65.268 71.947-95.169-40.271-3.269-87.142-3.3992-125.9-13.639-34.003-0.5259-99.539-12.318-99.001-45.482 0.3905-23.425 34.456-47.174 50.422-62.103l1.8429 1.3014c16.679 8.886 499.47-99.204 567.38-112.39 60.203-11.692 121.01-17.408 180.77-31.703z" fill="#370829"/> <path d="m1304.3 1986.9c-9.3181-6.8557-19.24-10.224-30.188-13.691 92.055-50.41 313.31-86.863 637.84-231.87l81.921 39.308-44.128 29.657c-23.108 9.0624-1.8187 1.4502-168.66 85.648-95.117 44.774-88.755 39.076-92.077 44.701l-103.37 42.39c-21.582 7.9542-46.778 13.347-67.012 23.686-44.67-0.8695-89.428-6.1478-133.92-9.9167-25.039-2.1188-56.757-1.822-80.411-9.9116z" fill="#8D3D7C"/> <path d="m1207.5 1869.3c-9.4454-6.4036-56.488-9.765-78.251-24.93-9.5212-6.6318-9.745-11.645-10.776-22.124 16.053-36.499 67.744-39.502 285.1-73.446 471.1-79.807 421.89-80.418 432.71-77.704 9.7345 2.4364 22.192 10.854 31.796 14.956l66.466 24.623c-40.547 6.4342-80.708 21.603-119.82 33.878-254.22 75.504-225.8 66.558-231.3 69.604l-0.3539 4.1958-2.6028-0.0105-5.7834 2.6809-30.906 9.4741c-224.08 60.12-196 42.064-210.37 52.442-40.27-3.269-87.142-3.3991-125.9-13.639z" fill="#8D3D7C"/> <path d="m2863.8 1801.2c15.086-15.221 29.818-31.067 42.733-47.986 7.7563-10.161 18.131-18.266 26.044-28.631 8.5281-11.176 19.628-16.948 27.069-29.682l10.401-1.3066c92.511 18.232 90.631 19.448 101 16.845l0.5571 5.3359c13.233-5.0808 182 40.963 212.23 47.803l78.355 15.56 8.7871 6.9182-3.0767 6.9131c10.208 8.402 17.507 21.244 25.742 31.63 67.453 85.052 60.554 81.546 126.85 178.3l8.3135 14.925 3.1545 2.3945c-8.2068 15.413-13.8 19.454-107.56 116.23-188.81 201.94-153.75 164.7-189.61 202.05-7.5166 7.1211-15.424 11.832-20.781 20.895l-8.0583 6.7881 0.7808 1.7856c-14.919 21.504-24.888 51.057-36.569 74.8-135.64 262.03-123.34 239.98-130.09 249.61l-10.109-3.3992-280.36-160.95 1.6919-3.1497-3.5293-2.9045c-13.79-0.4216-35.024-14.581-48.189-20.578l-79.568-36.085c-18.6-8.0898-37.923-13.899-54.498-25.94 6.4626-15.507 65.526-64.065 90.25-100.41l49.912-27.616 11.936-8.3916c-9.0315-4.2529-16.949-13.066-24.336-19.74-111.78-90.697-76.624-63.657-141.94-110.78-10.057-3.2222-25.554-17.007-34.248-23.295 89.529-146.96 247.99-285.6 279.12-319.51 19.438-13.071 35.466-28.954 51.619-45.778 13.605 14.286 10.132 10.492 15.987 17.355z" fill="#79A4A5"/> <path d="m3367.9 1793c10.208 8.402 17.507 21.244 25.742 31.63 25.419 32.051 51.119 64.82 73.457 99.089 62.358 92.777 50.541 74.096 61.702 94.133-51.812 9.5084-458.58 116.04-488.67 124.01-19.651 5.3828-48.256 16.549-68.407 16.091 3.2339-6.4975-33.173 29.65 396.17-364.95z" fill="#5DB283"/> <path d="m2863.8 1801.2c15.086-15.221 29.818-31.067 42.733-47.986 7.7563-10.161 18.131-18.266 26.044-28.631 8.5281-11.176 19.628-16.948 27.069-29.682l10.401-1.3066c92.511 18.232 90.631 19.448 101 16.845l0.5571 5.3359c13.233-5.0808 182 40.963 212.23 47.803l78.355 15.56 8.7871 6.9182-3.0767 6.9131c-429.14 394.41-392.94 358.46-396.17 364.95l-1.395 0.0574-1.8792 4.1853-6.356-3.7898c0.4893-100.53-28.584-191.23-52.056-287.99 1.6138-10.651 8.1313-15.711 14.987-23.654-11.27-0.036-14.87 8.4683-30.328 0.0938-4.0813-9.3442-10.13-17.996-15.508-26.642l-15.388-18.985z" fill="#B7D2A1"/> <path d="m2863.8 1801.2c15.086-15.221 29.818-31.067 42.733-47.986 7.7563-10.161 18.131-18.266 26.044-28.631 8.5281-11.176 19.628-16.948 27.069-29.682l10.401-1.3066c92.511 18.232 90.631 19.448 101 16.845l0.5571 5.3359c-1.29 28.667-4.3992 36.924-34.883 171.72-49.731 213.03-50.723 222.74-62.541 254.22-1.8635 4.9661-3.9458 10.953-3.8521 16.268l-1.8792 4.1853-6.356-3.7898c0.4893-100.53-28.584-191.23-52.056-287.99 1.6138-10.651 8.1313-15.711 14.987-23.654-11.27-0.036-14.87 8.4683-30.328 0.0938-4.0813-9.3442-10.13-17.996-15.508-26.642l-15.387-18.985z" fill="#8ECA8F"/> <path d="m2863.8 1801.2c15.086-15.221 29.818-31.067 42.733-47.986 7.7563-10.161 18.131-18.266 26.044-28.631 8.5281-11.176 19.628-16.948 27.069-29.682l10.401-1.3066c92.511 18.232 90.631 19.448 101 16.845l0.5571 5.3359c-74.614 37.709-133.09 124.78-146.58 130.96-11.27-0.036-14.87 8.4683-30.328 0.0938-4.0813-9.3442-10.13-17.996-15.508-26.642l-15.388-18.985z" fill="#0F3533"/> <path d="m2962.1 2158.4 6.356 3.7898c240.18 202.9 225.68 189.73 232.68 198.7-22.195 12.528 33.935-13.573-444.12 156.29l-5.7263 7.7146-3.5293-2.9045c-13.79-0.4216-35.024-14.581-48.189-20.578l-79.568-36.085c-18.6-8.0898-37.923-13.899-54.498-25.94 6.4626-15.507 65.526-64.065 90.25-100.41l49.912-27.616 11.936-8.3916 15.82-15.341 38.772-27.179c62.707-34.154 119.55-74.258 187.01-99.407l2.8944-2.6499z" fill="#388F77"/> <path d="m2772.2 2260.5c62.707-34.154 119.55-74.258 187.01-99.407-8.353 24.766 3.667 1.2317-202.19 356.13l-5.7263 7.7146-3.5293-2.9045c-13.79-0.4216-35.024-14.581-48.189-20.578l-79.568-36.085c-18.6-8.0898-37.923-13.899-54.498-25.94 6.4626-15.507 65.526-64.065 90.25-100.41l49.912-27.616 11.936-8.3916 15.82-15.341 38.771-27.179z" fill="#2C6661"/> <path d="m2705.7 2311.4 42.093 210.62c-13.79-0.4216-35.024-14.581-48.189-20.578l-79.568-36.085c-18.6-8.0898-37.923-13.899-54.498-25.94 6.4626-15.507 65.526-64.065 90.25-100.41l49.912-27.616z" fill="#635642"/> <path d="m2847.9 1783.9c15.136 15.893 9.8843 9.8268 31.374 36.34 5.3774 8.6465 11.426 17.298 15.508 26.642 15.515 8.4056 19.031-0.1299 30.328-0.0938-6.8555 7.9437-13.373 13.004-14.987 23.654 23.472 96.752 52.546 187.46 52.056 287.99l-2.8945 2.6497c-67.46 25.148-124.3 65.253-187.01 99.407l-38.772 27.179-15.82 15.341c-9.0315-4.2529-16.949-13.066-24.336-19.74-113.31-91.94-77.076-63.983-141.94-110.78-10.057-3.2222-25.554-17.007-34.248-23.295 90.13-147.95 254.55-292.75 279.12-319.51 19.438-13.071 35.466-28.954 51.619-45.778z" fill="#8C421A"/> <path d="m2894.7 1846.9c15.515 8.4056 19.031-0.1299 30.328-0.0938-6.8555 7.9437-13.373 13.004-14.987 23.654-15.279 30.01-21.713 69.875-31.504 102.44-103.08 308.19-91.722 240.22-106.34 287.6l-38.772 27.179c25.732-46.466 41.791-104.07 59.834-154.09l92.723-251.26c4.8982-8.7506 9.0681-15.987 10.728-25.955l-2.0093-9.4742z" fill="#020203"/> <path d="m2638.8 2239c57.031-96.692 13.882-29.059 219.37-338.23 7.366-10.505 20.224-35.877 30.573-42.556 2.3059-1.4939 5.3564-1.2493 8.032-1.8739-1.6604 9.9686-5.8303 17.205-10.728 25.955-15.613 10.348 9.9277-37.925-192.71 400.95l-54.534-44.248z" fill="#9A6539"/> <path d="m2910.1 1870.4c23.472 96.752 52.546 187.46 52.056 287.99l-2.8945 2.6497c-67.46 25.148-124.3 65.253-187.01 99.407 14.612-47.354 3.0903 21.099 106.34-287.6 9.7917-32.566 16.226-72.431 31.504-102.44z" fill="#0F3533"/> <path d="m2847.9 1783.9c15.136 15.893 9.8843 9.8268 31.374 36.34 5.3774 8.6465 11.426 17.298 15.508 26.642l2.0093 9.4742c-15.352 3.5841 11.279-30.624-215.16 310.07l-42.816 72.592c-46.575-37.975-26.897-22.877-87.408-66.533-10.057-3.2222-25.554-17.007-34.248-23.295 89.529-146.96 247.99-285.6 279.12-319.51 19.438-13.071 35.466-28.954 51.619-45.778z" fill="#A98043"/> <path d="m2847.9 1783.9 11.338 11.905c-99.153 116.88-32.926 36.049-307.83 376.68-10.057-3.2222-25.554-17.007-34.248-23.295 89.529-146.96 247.99-285.6 279.12-319.51 19.438-13.071 35.466-28.954 51.619-45.778z" fill="#8C421A"/> <path d="m2879.2 1820.2c5.3774 8.6465 11.426 17.298 15.508 26.642l2.0093 9.4742c-2.6755 0.6246-5.7261 0.38-8.032 1.8739-10.349 6.679-23.207 32.051-30.573 42.556-204.91 308.3-162.41 241.66-219.37 338.23l-36.986-30.156c20.036-39.318 47.595-76.32 72.088-113.01 63.727-95.487 128.59-189.96 205.36-275.61z" fill="#8C421A"/> <path d="m8.5716 474.25c16.375-4.063 85.893 33.416 141.66 47.465 12.643-1.1784-36.756-18.473 545.33 193.14-9.0114 1.1553-9.8965 1.4882-18.532-1.7439-16.736-6.2571-34.831-10.114-51.052-17.527-4.9661-2.2697-2.582-1.5929-8.1572-2.0354l-2.103 3.6023c5.0338 5.0338 9.2816 7.7408 15.456 11.062l3.9042-0.6403c5.8606 4.1439 36.793 15.221 46.195 19.922 5.6846 2.8371 0.8278 0.6039 8.4487 2.1396 4.2166 0.8538 6.0177 2.5976 10.437 2.0145 9.8358-1.2894 40.827 8.1231 46.611 16.944l540.76 218.5-6.2883 6.2363c104.65 49.222 108.55 49.306 117.85 60.838l1.2389-3.951c200.04 242.4-16.909-19.67 175.99 212.58l7.1003 13.899c29.176 29.916 21.984 22.769 33.373 33.535l58.236 74.737 1.1295 0.9474c11.104 17.444 26.174 35.003 41.64 48.735l0.5361 4.0604-4.4562 5.1379c-433.4-17.707 283.71 14.039-340.41-13.93l-0.2394-0.3645c-67.668-4.5914-48.862-3.5481-85.424-4.8984l-0.1667-0.2446c-63.75-4.2506-30.897-2.051-143.26-9.594l-0.6611-0.9266c-158.29-10.671-87.443-5.1493-315.39-25.003-14.487-1.7856-23.639-1.9574-34.862-11.452-7.9879-9.9496-6.3176-7.0903-100.99-56.767-11.623-2.0253-24.059-11.625-36.57-18.948-33.988-19.912-79.953-45.107-101.82-79.011-33.727-52.313 12.009-62.37 26.486-75.044 5.3722-4.7162 6.2675-5.0026 6.8662-12.108l-20.068-14.971c-16.179-5.4449-32.369-18.074-46.814-27.366-76.32-49.134-138.65-90.926-187.13-161.11-22.476-32.55-52.197-85.308-15.885-101.46 8.9464-5.6064 18.731-8.3759 28.691-11.645l-44.583-34.883-1.4915 0.0989c-94.73-62.865-200.63-169.02-222.23-201.22-12.813-8.6514-57.077-70.079-69.357-88.74z" fill="#B48DD4"/> <path d="m525.4 858.87c18.709-1.6241 32.311 3.3055 50.312 4.8256l-0.4008-4.7944c110.32 30.622 103.7 28.072 107.02 30.848 4.6174 8.8444 11.577 4.1282 15.216 13.03 7.3998 3.1362 16.605 2.085 37.871 11.369 5.5909 2.4414-1.3535-0.6299 7.2618 1.8323l4.3207 1.7803c51.365 13.834-6.3792-1.7771 74.185 21.281 9.6647 3.2216 9.913 0.697 20.12 6.71l-0.7704 3.3108c-33.519-5.6585-68.694-19.297-101.62-28.594l-213.51-61.598z" fill="#370829"/> <linearGradient id="a" x1="577.86" x2="585.33" y1="3829.5" y2="3861.6" gradientTransform="matrix(1.2246 0 0 -1.2246 -274.18 5525.9)" gradientUnits="userSpaceOnUse"> <stop stop-color="#320927" offset="0"/> <stop stop-color="#3D215C" offset="1"/> </linearGradient> <path d="m301.65 764.11c19.849 8.2189 22.592 14.044 36.57 20.411 20.321 9.266 48.53 11.999 70.524 17.132l1.5565 6.7673c16.695 6.8414-10.11-1.6921 165.01 50.484l0.4008 4.7944c-18.001-1.5201-31.603-6.4498-50.312-4.8256-223.37-66.923-167.02-52.54-207.86-48.235 8.9464-5.6064 18.731-8.3759 28.691-11.645l-44.582-34.883z" fill="url(#a)"/> <path d="m682.33 889.75 703.72 202.48c24.513 3.1755 51.036 16.419 75.503 12.166 2.4966 3.186 5.6346 9.8414 20.729 25.7 9.7911 10.89 89.001 106.63 94.034 112.69l7.1003 13.899-21.385-5.0391c-13.54-14.414-23.43-22.79-41.26-31.806-45.414-45.778-89.787-84.685-146.17-116.8l-534.07-153.98 0.7704-3.3108c-10.043-5.9166-11.115-3.7085-20.12-6.71-74.531-21.331-26.686-8.4875-74.185-21.281l-4.3207-1.7803c-8.6153-2.4622-1.671 0.6091-7.2618-1.8323-21.483-9.3791-30.346-8.18-37.871-11.369-3.6389-8.9017-10.599-4.1854-15.216-13.03z" fill="#171453"/> <path d="m408.74 801.65c54.107 6.9078 107.75 20.614 161.21 31.338 265.94 53.345 582 146.17 843.55 221.62-4.2739-5.9708-11.593-13.831-14.414-20.448l1.2389-3.951 61.224 74.185c-24.467 4.2529-50.989-8.9901-75.503-12.166l-703.72-202.48c-4.6251-3.8765-228.46-63.476-272.03-81.333l-1.5565-6.7673z" fill="#472F8E"/> <path d="m8.5716 474.25c16.375-4.063 85.893 33.416 141.66 47.465 12.643-1.1784-36.756-18.473 545.33 193.14-9.0114 1.1553-9.8965 1.4882-18.532-1.7439-16.736-6.2571-34.831-10.114-51.052-17.527-4.9661-2.2697-2.582-1.5929-8.1572-2.0354l-2.103 3.6023c5.0338 5.0338 9.2816 7.7408 15.456 11.062l3.9042-0.6403c5.8606 4.1439 36.793 15.221 46.195 19.922 5.6846 2.8371 0.8278 0.6039 8.4487 2.1396 4.2166 0.8538 6.0177 2.5976 10.437 2.0145 9.8358-1.2894 40.827 8.1231 46.611 16.944l540.76 218.5-6.2883 6.2363c104.65 49.222 108.55 49.306 117.85 60.838 2.8215 6.6163 10.14 14.477 14.414 20.448-261.05-75.304-577.58-168.27-843.55-221.62-53.462-10.724-107.1-24.43-161.21-31.338-21.994-5.1327-50.203-7.8657-70.524-17.132-13.476-6.1393-17.406-12.476-36.57-20.411l-1.4915 0.0989c-94.73-62.865-200.63-169.02-222.23-201.22-12.813-8.6514-57.077-70.079-69.357-88.74z" fill="#CE238F"/> <path d="m150.23 521.71c12.643-1.1784-36.756-18.473 545.33 193.14-9.0114 1.1553-9.8965 1.4882-18.532-1.7439-16.736-6.2571-34.831-10.114-51.052-17.527-4.9661-2.2697-2.582-1.5929-8.1572-2.0354l-2.103 3.6023c5.0338 5.0338 9.2816 7.7408 15.456 11.062l3.9042-0.6403c6.4095 4.532 35.094 14.371 46.195 19.922 5.6846 2.8371 0.8278 0.6039 8.4487 2.1396 4.2166 0.8538 6.0177 2.5976 10.437 2.0145 9.8358-1.2894 40.827 8.1231 46.611 16.944l540.76 218.5-6.2883 6.2363c-834.79-336.59-782.61-315.85-794.45-319.12l-336.56-132.49z" fill="#370829"/> <path d="m8.5716 474.25c16.375-4.063 85.893 33.416 141.66 47.465l336.56 132.49c-3.2014 1.5825-6.7881 3.6908-10.484 3.722-18.683 0.1509-46.283-12.041-65.07-17.324-204.02-58.601-149.38-41.748-249.6-76.158-10.316-2.988-19.58-2.3737-29.457-4.7007-13.531-3.191-27.076-8.2457-40.947-9.0266l-2.505 2.6132c-2.5133 12.551 3.2587 9.9479 8.7954 19.75 2.4503 4.3428-0.3836 0.624 7.2207 10.193l-1.9391 1.3638c-11.428-11.935-13.219-14.346-24.876-21.65-12.813-8.6513-57.076-70.079-69.356-88.74z" fill="#FD1FE6"/> <path d="m567.37 1100.6 19.99 7.8658c164.76 5.6139 697.13 77.517 860.05 102.54 22.488 3.6074 50.843 11.468 73.358 8.8599 17.829 9.0161 27.72 17.392 41.26 31.806l21.385 5.0391c29.176 29.916 21.984 22.769 33.373 33.535l58.236 74.737 1.1295 0.9474c11.104 17.444 26.174 35.003 41.64 48.735l0.5361 4.0604-4.4562 5.1379c-433.4-17.707 283.71 14.039-340.41-13.93l-0.2394-0.3645c-67.668-4.5914-48.862-3.5481-85.424-4.8984l-0.1667-0.2446c-63.75-4.2506-30.897-2.051-143.26-9.594l-0.6611-0.9266c-158.29-10.671-87.443-5.1493-315.39-25.003-14.487-1.7856-23.639-1.9574-34.862-11.452-7.9879-9.9496-6.3176-7.0903-100.99-56.767-11.623-2.0253-24.059-11.625-36.57-18.948-33.988-19.912-79.953-45.107-101.82-79.011-33.727-52.313 12.009-62.37 26.486-75.044 5.3722-4.7162 6.2675-5.0026 6.8662-12.108l-20.068-14.972z" fill="#B48DD4"/> <path d="m1562 1251.7 21.385 5.0391c29.176 29.916 21.984 22.769 33.373 33.535l58.236 74.737-20.505 2.4467c-23.108-21.182-49.719-42.03-69.886-65.867 1.1505-7.1213-2.4778-12.566-5.4918-18.766l-1.0931-0.9214c-1.1404-11.744-9.4015-20.812-16.018-30.203z" fill="#401B64"/> <path d="m567.37 1100.6 19.99 7.8658c3.1599 6.3456 6.6268 16.7 13.884 18.974 16.121 5.0603 798.08 110.89 976.81 154.44l1.0931 0.9214c3.014 6.2 6.6423 11.645 5.4918 18.766-46.073-27.752 2.3788-11.548-926.66-152.64-30.302-4.6434-60.359-11.14-91.046-12.316 4.7735-2.6758 9.5054-5.2994 13.644-8.9226 5.3722-4.7162 6.2675-5.0026 6.8662-12.108l-20.068-14.971z" fill="#171453"/> <path d="m587.36 1108.4c126.33 4.3042 241.53 20.8 725.77 81.916 195.92 30.092 187.76 31.788 207.64 29.485 17.829 9.0161 27.72 17.392 41.26 31.806 6.6166 9.391 14.878 18.459 16.018 30.203-145.51-35.456-276.54-50.236-944.27-149.26-39.187-6.024-34.781-0.7783-46.419-24.149z" fill="#472F8E"/> <path d="m692.47 1300.7c10.308 0.0544 8.7406 1.2593 75.456 34.81 7.5585 3.6439 16.398 9.1931 24.623 10.307 26.273 3.5763 58.933-0.1301 85.799-0.1823 343.13 1.9479 488.4 9.2188 776.17 21.812l20.505-2.4467 1.1295 0.9474c11.104 17.444 26.174 35.003 41.64 48.735l0.5361 4.0604-4.4562 5.1379c-433.4-17.707 283.71 14.039-340.41-13.93l-0.2394-0.3645c-67.668-4.5914-48.862-3.5481-85.424-4.8984l-0.1667-0.2446c-63.75-4.2506-30.897-2.051-143.26-9.594l-0.6611-0.9266c-158.29-10.671-87.443-5.1493-315.39-25.003-14.487-1.7856-23.639-1.9574-34.862-11.452-7.988-9.9494-6.3178-7.0902-100.99-56.767z" fill="#472F8E"/> <linearGradient id="n" x1="1599" x2="1687.2" y1="3546.4" y2="3744.2" gradientTransform="matrix(1.2246 0 0 -1.2246 -274.18 5525.9)" gradientUnits="userSpaceOnUse"> <stop stop-color="#3F5C8A" offset="0"/> <stop stop-color="#A6DCC9" offset="1"/> </linearGradient> <path d="m369.99 561.15 1065.8 316.6c2.0042-11.541 3.3264-22.16 10.354-31.9 18.282-25.331 59.709-37.022 89.058-40.979 16.377-5.8299 73.877 12.692 105.07 18.725l358.76 72.592c55.523 11.156 115.88 16.72 169.67 33.561l-3.2795 5.3201c17.376 9.8467 11.139 19.04 49.552 64.097 14.242 12.229 3.7883 2.3611 53.706 51.614 18.339 9.4066 33.165 28.423 49.797 40.843 33.176 24.773 60.724 80.755 75.487 118.93-0.4529 6.8141-1.3118 10.698-4.5601 16.715l79.615 31.635c-1.27-4.7892-4.9919-9.7814-7.4751-14.118 35.329-48.503 186.79-211.19 219.92-263.87l6.3196-6.0906 72.92-12.264-2.8162 11.187c64.255 34.201 116.03 99.17 157.42 123.2l-3.0923 4.8619c-0.6873 28.329-15.529 63.113-22.614 91.078l-40.755 165.53c-5.8147 21.062-18.49 47.949-19.641 69.308l5.3931-0.9786 2.3164 3.925 202.59-61.655c0.2295 4.129-2.1064-24.04 28.111 334.1l3.5137 7.3451c-9.3923 2.3579-5.1033 2.054-101-16.845l-10.401 1.3066c-7.3921 12.65-18.746 18.774-27.069 29.682-7.9124 10.364-18.287 18.47-26.044 28.631-12.915 16.918-27.647 32.764-42.733 47.986-6.2-7.2689-2.4058-3.095-15.987-17.356-16.153 16.825-32.181 32.707-51.619 45.778-31.782 34.622-189.71 172.75-279.12 319.51-82.898-55.141-81.124-52.266-88.449-61.078-6.4443-17.533 2.8533 2.824-55.591-117.39l-51.332-17.002-56.481-12.28c-16.226-2.8893-40.843-0.6404-55.279-7.8918l15.164-15.882-48.756-35.039c-1.8899-5.1353-15.206-12.351-42.926-36.892l-0.7703-0.0885c-13.28-18.084-81.031-74.014-83.842-90.49l-2.9829-0.2343c-3.8481-3.3588 2.7822 3.1445-44.055-43.852-22.064-20.032-6.6359-4.9353-77.47-77.023-4.2948-2.1083-11.744-11.458-15.419-15.128l-4.7632-8.3081-9.5106-7.6106-43.816-47.33c-10.426-10.754-13.808-11.309-15.549-23.196l-7.6886 0.1561c-10.573-10.437-22.197-20.458-29.953-33.222-28.829-23.316-52.655-54.826-79.323-80.677l-0.5361-4.0604c-15.466-13.732-30.536-31.291-41.64-48.735l-1.1295-0.9474-58.236-74.737c-10.772-10.182-3.5376-2.9424-33.373-33.535l-7.1003-13.899c-193.83-233.37 21.614 26.859-175.99-212.58l-1.2389 3.951c-9.6042-11.904-15.038-12.48-117.85-60.838l6.2883-6.2363-540.76-218.5c-5.8572-8.9326-36.994-18.205-46.611-16.944-4.4196 0.5831-6.2207-1.1608-10.437-2.0145-7.621-1.5356-2.7642 0.6975-8.4487-2.1396-10.515-5.2573-39.81-15.407-46.195-19.922l-3.9042 0.6403c-6.174-3.3212-10.422-6.0281-15.456-11.062l2.103-3.6023c5.5753 0.4425 3.1911-0.2343 8.1572 2.0354 16.221 7.4128 34.316 11.27 51.052 17.527 8.6476 3.2366 9.5339 2.8975 18.532 1.7439l-361.38-131.37-2.4159-5.19c1.6189-8.2666 7.329-10.979 13.544-16.445 15.403 1.2814 11.558 2.8609 24.672-0.6923z" fill="url(#n)"/> <path d="m2142.1 1133.6 2.6809-3.2067c42.482 13.636 26.173 8.1472 34.472 12.103 12.062 5.7521 39.886 3.3992 53.956 4.0031 25.664 1.0984 52.306 4.7684 77.819 4.5914 8.9114 19.118 22.696 33.135 32.8 51.166-4.4558 1.338-8.6257 1.7856-13.253 2.2073l-188.48-70.864z" fill="#472F8E"/> <path d="m3039.5 1369c0.2295 4.129-2.1064-24.04 28.111 334.1l-115.59-130.71c-0.0784-1.4762 1.3152 0.3663-91.942-90.578-13.55-12.9-28.99-24.815-40.208-39.808l4.6121-7.6367c18.386-5.4973-17.146 5.2847 215.02-65.372z" fill="#BBBBB7"/> <path d="m1838.4 1012.6c28.517-15.509 403.73 29.231 411.68 31.733 2.8994 0.913 3.375 1.1647 13.967 8.631l4.5549-2.2175c18.339 9.4066 33.165 28.423 49.797 40.843 33.176 24.773 60.724 80.755 75.487 118.93-0.4529 6.8141-1.3118 10.698-4.5601 16.715l-58.798-22.842c4.6277-0.4216 8.7976-0.8693 13.253-2.2073-10.059-17.95-23.912-32.098-32.8-51.166-25.513 0.177-52.155-3.493-77.819-4.5914-14.071-0.6039-41.895 1.749-53.956-4.0031-8.415-4.0115 6.7678 1.1337-34.472-12.103l-2.6809 3.2067-294.23-107.6 2.509-1.5253-2.3842-2.5663c-4.6225-3.8419-6.5641-3.5555-9.5419-9.2453z" fill="#675EBD"/> <path d="m1838.4 1012.6c28.517-15.509 403.73 29.231 411.68 31.733 2.8994 0.913 3.375 1.1647 13.967 8.631l4.5549-2.2175c18.339 9.4066 33.165 28.423 49.797 40.843 33.176 24.773 60.724 80.755 75.487 118.93-0.4529 6.8141-1.3118 10.698-4.5601 16.715l-58.798-22.842c4.6277-0.4216 8.7976-0.8693 13.253-2.2073-9.5886-17.111-23.358-31.765-31.905-49.245-1.2795-2.7454 5.5371 9.1694-58.917-101.96-32.702-7.6991-68.844-7.418-102.3-10.739l-176.96-18.964c-44.24-3.4583-92.043-2.8156-135.29-8.683z" fill="#212A3D"/> <path d="m1640.2 823.59 358.76 72.592c55.523 11.156 115.88 16.72 169.67 33.561l-3.2795 5.3201c17.376 9.8467 11.139 19.04 49.552 64.097 14.242 12.229 3.7883 2.3611 53.706 51.614l-4.5549 2.2175c-18.509-13.048-3.0142-8.8115-138.42-23.337-28.412-2.8656-262.42-30.519-287.23-17.028 2.9778 5.6898 4.9194 5.4034 9.542 9.2452l2.3842 2.5663-2.509 1.5253-305.17-110.62c-14.102-2.2396-58.318-15.608-67.34-21.416-0.2863-3.2639-2.3684-3.8157-4.7787-5.8616-12.363-1.8063-21.983-8.5997-34.815-10.323 2.0042-11.541 3.3264-22.16 10.354-31.9 18.282-25.331 59.709-37.022 89.058-40.979 16.377-5.8296 73.877 12.692 105.06 18.725z" fill="#675EBD"/> <path d="m1640.2 823.59 358.76 72.592c55.523 11.156 115.88 16.72 169.67 33.561l-3.2795 5.3201c-501.16-88.511-605.56-127.59-629.74-126.46l-0.484-3.7429c16.377-5.8298 73.877 12.692 105.07 18.725z" fill="#0D0F2E"/> <path d="m1542.7 915.35c11.738-2.4628 4.2292-3.6363 34.607 5.4763 147.44 49.138 144.24 55.078 162.56 53.665 120.45-9.3466 443.75 28.229 475.09 24.675 14.242 12.229 3.7883 2.3611 53.706 51.614l-4.5549 2.2175c-18.965-13.368-15.646-9.2561-49.178-13.764-65.596-7.0366-349.56-41.232-376.47-26.601 2.9778 5.6898 4.9194 5.4034 9.542 9.2452l2.3842 2.5663-2.509 1.5253-305.18-110.62z" fill="#472F8E"/> <path d="m2687.8 974.83 72.92-12.264-2.8162 11.187c64.255 34.201 116.03 99.17 157.42 123.2l-3.0923 4.8619c-0.6873 28.329-15.529 63.113-22.614 91.078l-40.755 165.53c-5.8147 21.062-18.49 47.949-19.641 69.308l5.3931-0.9786 2.3164 3.925-12.431 3.7168-4.6121 7.6367-2.8735 0.6194c-9.6169-2.8411-13.467-6.9934-91.812-70.833-11.577-8.5631-28.095-28.485-41.504-32.124-57.597-12.824-172.94-57.937-214.66-80.786-1.27-4.7892-4.9919-9.7814-7.4751-14.118 29.018-39.839 190.09-216.43 219.92-263.87l6.3196-6.0905z" fill="#5DB283"/> <path d="m2824.5 1434.4c-3.8237-21.324-9.4885-33.973-79.475-215.49l167.21-117.1c-0.6873 28.329-15.529 63.113-22.614 91.078l-40.755 165.53c-5.8147 21.062-18.49 47.949-19.641 69.308l5.3931-0.9786 2.3164 3.925-12.431 3.7168z" fill="#E08E59"/> <path d="m2687.8 974.83 72.92-12.264-2.8162 11.187c-9.2107 22.365-9.5449 41.72-12.067 67.819-5.6636 58.61-7.8813 114.6-4.2322 173.47l-263.69 40.63-3.7429 6.0491-5.1433-2.8163c-1.27-4.7892-4.9919-9.7814-7.4751-14.118 35.329-48.503 186.79-211.19 219.92-263.87l6.3197-6.0905z" fill="#119832"/> <linearGradient id="m" x1="1844" x2="1560.8" y1="3758.4" y2="3355.7" gradientTransform="matrix(1.2246 0 0 -1.2246 -274.18 5525.9)" gradientUnits="userSpaceOnUse"> <stop stop-color="#1C664B" offset="0"/> <stop stop-color="#391F6C" offset="1"/> </linearGradient> <path d="m746.77 748.59c-5.8572-8.9326-36.994-18.205-46.611-16.944-4.4196 0.5831-6.2207-1.1608-10.437-2.0145-7.621-1.5356-2.7642 0.6975-8.4487-2.1396-9.5342-4.767-40.032-15.564-46.195-19.922l-3.9042 0.6403c-6.174-3.3212-10.422-6.0281-15.456-11.062l2.103-3.6023c5.5753 0.4425 3.1911-0.2343 8.1572 2.0354 16.221 7.4128 34.316 11.27 51.052 17.527 8.6476 3.2366 9.5339 2.8975 18.532 1.7439 786.89 229.22 730.79 212.86 738.27 213.35 426.68 131.64 307.5 93.23 540.96 173.24 714.57 294.39 644.13 264.7 648.66 267.06 18.297 9.5305 20.531 12.379 202.32 163.08 7.3662 6.6685 66.278 65.174 68.574 65.653 54.674 64.179 68.566 78.811 75.747 96.388l-10.401 1.3066c-7.3921 12.65-18.746 18.774-27.069 29.682-7.9124 10.364-18.287 18.47-26.044 28.631-12.915 16.918-27.647 32.764-42.733 47.986-6.2-7.2689-2.4058-3.095-15.987-17.356-27.345-36.112-51.885-69.584-89.282-96.018-34.347-27.855-72.582-51.078-106.06-80.052l-153.36-141.35c-61.738-57.717-57.772-61.658-112.44-85.419-28.829 14.669-780.75-240.65-858.4-255.92-19.724-8.3967-44.987-14.295-65.919-19.63-1.3181-1.682 6.5731 7.9102-62.072-75.268l-1.2389 3.951c-9.6042-11.904-15.038-12.48-117.85-60.838l6.2883-6.2363-540.76-218.5z" fill="url(#m)"/> <path d="m1287.5 967.09c361.2 129.89 347.26 114.55 375.02 128.96l-1.6555 4.0291c-92.065-23.885-222-76.31-265.79-84.524l-2.0822 2.3841 7.3086 12.27-1.2389 3.951c-9.6042-11.904-15.038-12.48-117.85-60.838l6.2884-6.2363z" fill="#171453"/> <path d="m1400.3 1030.2-7.3086-12.27 2.0822-2.3841c44.255 8.2993 172.02 60.196 265.79 84.524l725.83 280.95c-8.116 4.1296 3.7625 7.071-85.346-19.214-387.04-108.26-680.82-218.57-773.06-236.71-19.724-8.3967-44.987-14.295-65.919-19.63-1.3182-1.682 6.573 7.9102-62.072-75.268z" fill="#F5DFA9"/> <linearGradient id="l" x1="2041.5" x2="1842.4" y1="3450" y2="3045.5" gradientTransform="matrix(1.2246 0 0 -1.2246 -274.18 5525.9)" gradientUnits="userSpaceOnUse"> <stop stop-color="#E17149" offset="0"/> <stop stop-color="#D5F2BF" offset="1"/> </linearGradient> <path d="m1462.4 1105.5c20.932 5.3358 46.195 11.234 65.919 19.63 67.782 13.326 136.92 39.984 202.83 61.176 26.646 8.603 623.51 200.94 650.27 197.45 1.9675-0.2552 3.5344-1.8065 5.3044-2.707 55.589 24.164 52.078 28.993 112.44 85.419l153.36 141.35c33.483 28.975 71.718 52.197 106.06 80.052 37.397 26.434 61.937 59.906 89.282 96.018-16.153 16.825-32.181 32.707-51.619 45.778-23.764 25.887-189.3 172.07-279.12 319.51-82.898-55.141-81.124-52.266-88.449-61.078-6.4443-17.533 2.8533 2.824-55.591-117.39l-51.332-17.002-56.481-12.28c-16.226-2.8893-40.843-0.6404-55.279-7.8918l15.164-15.882-48.756-35.039c-1.8899-5.1353-15.206-12.351-42.926-36.892l-0.7703-0.0885c-13.28-18.084-81.031-74.014-83.842-90.49l-2.9829-0.2343c-0.4335-0.3783-51.184-49.289-121.53-120.87-4.2948-2.1083-11.744-11.458-15.419-15.128l-4.7632-8.3081-9.5106-7.6106c-63.884-69.008-57.689-59.084-59.365-70.526l-7.6886 0.1561c-10.573-10.437-22.197-20.458-29.953-33.222-28.829-23.316-52.655-54.826-79.323-80.677l-0.5361-4.0604c-15.466-13.732-30.536-31.291-41.64-48.735l-1.1295-0.9474-58.236-74.737c-10.772-10.182-3.5376-2.9424-33.373-33.535l-7.1003-13.899c-122.97-148.06-107.13-126.58-113.91-137.31z" fill="url(#l)"/> <path d="m1462.4 1105.5c20.932 5.3358 46.195 11.234 65.919 19.63 56.395 11.087 38.457 8.1073 491.74 154.46-4.6953 1.0724-7.319 1.718-12.087 0.2968-7.1643-2.5601-20.638-7.272-28.069-8.5529l7.3138 8.2145c5.0466 0.048 18.769 5.5298 27.054 7.1578-17.282 3.8521-144.27-32.108-168.01-39.995-26.507-3.1909-54.185-13.519-80.208-19.958-276.57-73.353-228.4-60.037-255.66-69.391l-2.9724 2.4987c-13.942-20.108-32.719-34.914-45.018-54.357z" fill="#8D3D7C"/> <path d="m1510.4 1157.3-2.0667-3.0245c35.005-5.0857 96.166 16.979 340.52 88.881l-2.5873 3.4929c-26.507-3.1909-54.185-13.519-80.208-19.958-276.57-73.353-228.4-60.037-255.66-69.391z" fill="#731A4E"/> <path d="m1576.3 1242.8 675.82 174.58c-41.538 1.9163-560.14-111.1-635.34-127.14-10.772-10.182-3.5376-2.9424-33.373-33.535l-7.1004-13.899z" fill="#79283B"/> <path d="m2565.5 1741.7c46.798-8.001 96.596-21.869 143.82-23.269 16.569-0.4894 33.478-7.9698 49.912-4.5392-95.193 28.943-72.822 22.2-105.49 31.895-215.21 78.867-479.67 108.27-504.86 113.5l-15.388-13.623c35.854-13.312 73.368-20.963 432-103.96z" fill="#79283B"/> <path d="m1904.2 1610.6 463.93-6.9027c4.8701 0.7201 7.363 1.0165 253.72 33.233-137.09 6.2562-130.31 7.322-139.61 5.1379-26.585 2.3529-57.793 0.5103-83.623 5.3409-327.23-0.1769-399.57 1.8787-474.23-13.373-4.2948-2.1083-11.744-11.458-15.419-15.128l-4.7632-8.308z" fill="#79283B"/> <path d="m1949.7 1639.2 1.2701-4.0032c549.78 7.5739 516.66 0.308 531.28 6.8662-26.585 2.3529-57.793 0.5103-83.623 5.3409-299.7-0.162-369.01 1.2339-448.92-8.2039z" fill="#48151F"/> <path d="m1676.2 1365.9c346.55 54.671 207.8 30.916 612.14 105.9l121 33.93c-60.262 4.5222-123.58-7.8698-691.5-91.098-15.466-13.732-30.536-31.291-41.64-48.735z" fill="#79283B"/> <path d="m1924.4 1634c74.128 15.143 146.44 13.196 474.23 13.373l17.923 1.9938-7.6157 2.9933c34.72 20.409 106.99 4.7076 129.7 21.161l-536.77 37.501c-22.064-20.032-6.6359-4.9353-77.47-77.023z" fill="#F5DFA9"/> <linearGradient id="k" x1="2156.2" x2="2115.8" y1="3069.4" y2="3192.6" gradientTransform="matrix(1.2246 0 0 -1.2246 -274.18 5525.9)" gradientUnits="userSpaceOnUse"> <stop stop-color="#79342A" offset="0"/> <stop stop-color="#994851" offset="1"/> </linearGradient> <path d="m2538.6 1673.5c51.719 9.8507 97.708 0.3593 145.65 7.7095l-136.38 29.459-499 44.42-2.9829-0.2343c-3.8481-3.3588 2.7822 3.1445-44.055-43.852l536.77-37.501z" fill="url(#k)"/> <path d="m2670 1772.5c30.094-10.198 74.519-32.993 105.23-32.504l-2.1965 6.3562 5.4502 6.4965c5.8042-1.5824 10.926-4.6797 16.351-1.749-5.4172 2.5234 9.6216-5.2269-124.9 64.904-100.74 43.465-254.73 136.96-282.69 142.66-5.5959 3.6804-10.874 6.1011-14.175 12.077l-51.332-17.002-56.481-12.28c-16.226-2.8893-40.843-0.6404-55.279-7.8918l15.164-15.882 9.3545 3.6597c28.98 11.223 382.34-130.93 435.51-148.84z" fill="#833C21"/> <path d="m2321.8 1953.7c10.88-7.34 20.994-4.9192 33.79-2.6913 10.989 1.9158 22.155 1.5774 31.718 7.6158-5.5959 3.6804-10.874 6.1011-14.175 12.077l-51.333-17.002z" fill="#9A6539"/> <path d="m1797.7 1499.4 357.16 24.472c32.473 2.5819 70.677 0.6246 102.22 7.4908 63.379 7.7407 134.88 8.808 195.05 31.822 14.982 5.7314 31.452 7.2723 47.272 9.3545-153.9 10.93-83.562 6.3594-134.9 6.0593 8.5227 1.9022 15.604 3.0128 26.507 3.3057-0.562 6.6892-0.9319 13.18-2.4309 19.74-29.149 2.9341 39.942 1.158-484.36 8.9589l-9.5106-7.6106c-63.884-69.008-57.689-59.084-59.365-70.526l-7.6886 0.1561c-10.573-10.437-22.197-20.458-29.953-33.222z" fill="#79283B"/> <path d="m1835.8 1535.7c16.935 4.8823 1.2972 2.3167 230.23 22.52 99.099 7.4232 199.06 19.1 298.45 20.344 8.5227 1.9022 15.604 3.0128 26.507 3.3057-0.562 6.6892-0.9319 13.18-2.4309 19.74-29.149 2.9341 39.942 1.158-484.36 8.9589l-9.5106-7.6106c-59.126-63.868-58.003-60.19-58.886-67.257z" fill="#F5DFA9"/> <path d="m2830.3 1765.2c-9.5784 11.864-20.911 21.947-32.041 32.316 14.764-4.1012 22.894-12.705 32.275-26.059 3.769 4.3988 5.9346 7.5275 7.8191 13.024-2.3428 8.1261-10.052 13.535-16.929 18.11-5.3257 3.5424-4.0972 4.1908-14.331 14.425l-3.8887 0.0104c-3.8154 4.7162-5.8508 6.533-6.9963 12.629-23.764 25.887-189.3 172.07-279.12 319.51-82.898-55.141-81.124-52.266-88.449-61.078-6.4443-17.533 2.8533 2.824-55.591-117.39 3.3005-5.9761 8.5791-8.3967 14.175-12.077 27.577-5.6207 182.53-99.444 282.69-142.66 11.552 0.7607 6.6758 1.7262 90.76-41.463l1.9209 4.2634-8.8391 9.6305 6.5176 3.8937c-1.9424 6.7325-5.8711 8.1472-14.326 12.363-42.194 25.022-18.255 10.62-31.234 17.58-18.484 13.877-32.259 17.07-37.402 28.34l0.6401 1.3014c13.453-0.4277 104.04-70.863 152.35-86.674z" fill="#9F834F"/> <path d="m2748.5 1809.9c25.695-16.694 52.55-35.102 81.853-44.69-9.5784 11.864-20.911 21.947-32.041 32.316-105.6 85.846-104.36 85.498-109.64 86.762l-3.2117-2.2853 1.9519-3.7844c10.278-3.8732 14.556-14.042 28.631-23.425l0.5413-6.5331c5.3638-8.1204 10.644-11.472 18.98-16.892 2.8532-8.4357 4.0461-4.1697 12.931-21.468z" fill="#833C21"/> <path d="m2678 1851.9c7.5378-0.2396 58.964-35.451 70.5-41.983-8.9204 17.368-10.029 12.888-12.931 21.468-8.3757 5.4465-13.631 8.7952-18.98 16.892l-0.5413 6.5331c-14.103 9.4019-18.345 19.549-28.631 23.425l-1.9519 3.7844 3.2117 2.2853c-14.77 13.352 10.954-8.8535-208.97 168.77-15.497 11.655-33.04 27.985-51.015 35.039l-4.5862-12.478c64.414-96.044 161.5-157.73 253.89-223.74z" fill="#8C421A"/> <path d="m2669.9 1816c11.552 0.7607 6.6758 1.7262 90.76-41.463l1.9209 4.2634-8.8391 9.6305 6.5176 3.8937c-1.9424 6.7325-5.8711 8.1472-14.326 12.363-42.194 25.022-18.255 10.62-31.234 17.58-18.484 13.877-32.259 17.07-37.402 28.34l0.6401 1.3014c-92.389 66.007-189.48 127.69-253.89 223.74l-51.005-104.91c3.3005-5.9761 8.5791-8.3967 14.175-12.077 27.577-5.6207 182.53-99.444 282.69-142.66z" fill="#B7D2A1"/> <path d="m2749.6 2528 280.36 160.95 10.109 3.3992 0.2861 1.8013c-17.074 34.893-30.5 71.988-45.008 108.05-12.639 31.406-29.433 67.21-35.591 100.49l71.025 158.67 6.3716 0.6926c-17.371 37.881-27.095 81.057-37.475 121.42 9.0122 36.367 130.56 292.68 143 335.98 24.888 391.9 26.312 354.99 24.321 377.38l-2.0559-0.1353c-23.67-6.6008-50.484-27.439-72.218-39.932-141.37-81.397-139.52-78.996-158.84-93.02-0.7183 8.678-0.9473 17.809-2.7432 26.309-20.89 25.929-48.886 61.525-59.526 93.181-6.2603 18.608 12.447 240.71 11.598 432.73-0.4839 17.407-4.0134 32.998-0.2236 50.598-0.1824 11.843 1.2961 32.686-4.2842 42.936l-3.0244 0.4014c-30.263-22.693-257.74-254.12-258.18-254.58-26.635 41.174-228.25 300.96-246.11 311.33-3.4624-7.3765-2.8799-7.3555-4.1489-16.934l-5.8616 0.3647c-12.748-14.024-22.556-31.296-33.909-46.533-131.35-171.97-118.72-159.36-132.06-173.46l-5.2004 1.7075-10.39-32.972 0.5205-12.312-4.3623-1.3013c0.2083-10.974-4.4197-22.676-7.4233-33.196-5.3232-11.259-31.842-93.085-38.709-128.38-17.531 37.622-32.272 13.814-205.03 330.23-6.2885 12.02-12.155 25.841-20.521 36.507 10.897-78.58 16.366-76 162.81-588.68 97.564-326.25 91.944-306.51 96.898-329.1 7.7812-7.082 24.172-70.174 30.031-88.735 71.204-218.9 49.233-155.85 98.605-285.69 12.889-31.286 33.113-63.649 38.064-97.08 1.6655-8.0115 8.407-18.038 12.124-25.466 11.307-22.55 22.358-44.107 36.95-64.758l-3.7065 73.217 6.1687-1.2754c2.655-2.0249 5.9187-28.079 6.7463-33.129l-0.1821-0.0361-3.2014-34.748-1.572-6.2883 1.9729-0.5154 5.5283 1.8374c12.468-11.614 30.229-20.828 44.612-30.219 227.08-149.01 206.76-136.4 213.63-139.1l-0.1562-7.4546 5.0181-7.5061 0.2136-2.9829c11.33-17.655 7.5862-12.241 94.763-194.67z" fill="#9A6539"/> <path d="m2344.2 3210.4 3.0503 2.6028 4.6018-23.597 3.6909-1.9783c-0.1719 6.1531-0.021 9.3496-3.8782 14.316 3.3213 17.723 2.6653 14.283 3.1284 16.528-177.66 1004.9-142.33 811.77-174.41 968.32l-4.3623-1.3013c0.2083-10.974-4.4197-22.676-7.4233-33.196l25.721-128.28c3.7478-46.752 15.435-95.784 23.378-142.27l36.32-215.2c25.073-125.92 25.414-116.72 24.295-131.45l65.893-324.5z" fill="#0D0F2E"/> <path d="m2194.3 4023.8c0.6558 11.4 1.5461 20.51-1.4836 31.661-1.7908 6.6006-2.7954 12.764-1.9158 19.532l1.9521-10.401 3.6648-0.6768c-0.8694 12.228-4.6384 24.43-6.1428 36.684-1.2312 10.044-0.3889 10.742-1.8894 46.356l-8.1208 39.625-4.3623-1.3013c0.2083-10.974-4.4197-22.676-7.4233-33.196l25.721-128.28z" fill="#171453"/> <path d="m2278.3 3534.9c1.1199 14.736 0.8206 5.3108-24.295 131.45l-36.32 215.2c-7.9438 46.486-19.631 95.518-23.378 142.27l-25.721 128.28c-5.3232-11.259-31.842-93.085-38.709-128.38 20.863-61.465 68.163-313.08 148.42-488.82z" fill="#8D3D7C"/> <path d="m2202.9 4077.1 3.3994 5.6951c20.815-4.9202-10.244 2.9382 167.38-57.022-0.1665 28.75-3.5137 62.035 0.4688 90.245l-3.5662 349.01c-2.5298-4.7681-2.6494-9.9321-3.3523-15.237l-5.8616 0.3647c-12.748-14.024-22.556-31.296-33.909-46.533-131.35-171.97-118.72-159.36-132.06-173.46l-5.2004 1.7075-10.39-32.972 0.5205-12.312c10.171-49.627 4.9877-24.478 22.572-109.49z" fill="#8C421A"/> <path d="m2330.7 3001.1c1.6655-8.0115 8.407-18.038 12.124-25.466 11.307-22.55 22.358-44.107 36.95-64.758l-3.7065 73.217 6.1687-1.2754c-16.79 195.45-10.497 144.09-27.475 235.38-0.4727-2.2905-0.0281 0.0159-3.1284-16.528 3.8572-4.9661 3.7063-8.1626 3.8782-14.316l-3.6909 1.9783-4.6018 23.597-3.0503-2.6028-65.893 324.5c-79.757 174.64-128.14 429.06-148.42 488.82-7.3452 15.763-22.379 30.854-32.822 45.029-90.838 123.32-180.73 306.41-192.73 321.71 11.739-84.649 43.248-171.45 67.064-253.49 198.97-696.59 179.23-603.13 192.64-664.29 7.7812-7.082 24.172-70.174 30.031-88.735 71.204-218.9 49.233-155.85 98.605-285.69 12.889-31.286 33.113-63.649 38.064-97.079z" fill="#D6A2B3"/> <path d="m2376.1 2984.1 6.1687-1.2754c-16.79 195.45-10.497 144.09-27.475 235.38-0.4727-2.2905-0.0281 0.0159-3.1284-16.528 3.8572-4.9661 3.7063-8.1626 3.8782-14.316l-3.6909 1.9783-4.6018 23.597-3.0503-2.6028 31.9-226.23z" fill="#020203"/> <path d="m2389 2949.7c12.686 24.555 8.7561 55.534 11.728 82.78 3.5032-14.581-2.4988-36.648 2.9619-48.787 6.2363 8.1365 7.4597 13.462 8.6465 23.659 2.7434 3.6597 7.8191 8.7615 9.5732 12.78 2.863 6.5537-1.6086 8.1208 4.1904 15.07l2.1553-2.4934-0.1042-3.3994c-0.531-11.208-5.3618-22.738-3.6492-33.784l3.1287 0.5308c-0.073 17.658-1.2834 20.96 5.3411 35.466 38.508 118.57 46.215 139.29 47.1 157.63 2.8069 45.439 92.395 542.68 87.98 598.16-0.3748 4.7058-3.3994 9.344-5.4971 13.462-15.492-21.494-27.658-47.85-41.234-70.89 35.435 292.79 34.818 304.28 46.97 348.76 15.591 26.299 30.359 52.54 49.235 76.684-26.635 41.174-228.25 300.96-246.11 311.33l-0.7966-1.6973c4.189-409.97 3.0195-318.12 5.2163-442.3-8.8037-1019.3-12.237-822.67 6.4185-1039.8 2.6548-2.0251 5.9185-28.079 6.7462-33.129z" fill="#E9B48A"/> <path d="m2428.3 3032.7-0.1042-3.3994c-0.531-11.208-5.3618-22.738-3.6492-33.784l3.1287 0.5308c-0.073 17.658-1.2834 20.96 5.3411 35.466 38.508 118.57 46.215 139.29 47.1 157.63 2.8069 45.439 92.395 542.68 87.98 598.16-0.3748 4.7058-3.3994 9.344-5.4971 13.462-15.492-21.494-27.658-47.85-41.234-70.89-0.1053-0.4257-83.022-662.24-93.066-697.17z" fill="#5DB283"/> <path d="m2489.5 3191.7c-1.4004-7.9648-5.2578-20.104-2.3635-27.762 12.749 13.717 18.902 36.918 26.237 54.123 41.691 90.002 13.311 32.393 121.14 243.22l0.4163-0.0049c8.2065 20.817 187.72 364.5 190.24 368.57l5.0027-9.6772c9.2085 23.014 19.203 54.878 37.002 72.551 0.7131 8.0063 0.9629 15.877 3.2639 23.607 15.25 366.68 13.266 288.49 12.774 399.64-0.4839 17.407-4.0134 32.998-0.2236 50.598-0.1824 11.843 1.2961 32.686-4.2842 42.936l-3.0244 0.4014c-33.17-24.873-63.629-60.433-93.207-89.735-189.11-188.53-161.46-152.55-214.21-241.53-11.973-43.822-11.228-53.435-46.97-348.76 13.576 23.04 25.742 49.396 41.234 70.89 8.3433-16.378 5.8318-11.408 3.6125-43.738-14.258-122.84-2.0557-37.48-63.748-427.76-7.4026-45.752-19.505-94.112-22.348-140.12l9.4535 2.5509z" fill="#1DDCCD"/> <path d="m2521.3 3729.9c13.576 23.04 25.742 49.396 41.234 70.89 116.86 218.42 265.94 507.37 274.45 519.83l3.6541-2.1968c7.3296 14.612 6.7466 31.114 19.906 42.28 3.1494 12.978 8.7976 31.078 17.564 41.067l0.5986 7.7563-3.0244 0.4014c-33.17-24.873-63.629-60.433-93.207-89.735-189.11-188.53-161.46-152.55-214.21-241.53-11.973-43.822-11.228-53.435-46.971-348.76z" fill="#374E6F"/> <linearGradient id="j" x1="2513.2" x2="2375.7" y1="1442.4" y2="1411.4" gradientTransform="matrix(1.2246 0 0 -1.2246 -274.18 5525.9)" gradientUnits="userSpaceOnUse"> <stop stop-color="#895C98" offset="0"/> <stop stop-color="#A531A0" offset="1"/> </linearGradient> <path d="m2487.2 3164c12.749 13.717 18.902 36.918 26.237 54.123 41.691 90.002 13.311 32.393 121.14 243.22l0.4163-0.0049c8.2065 20.817 187.72 364.5 190.24 368.57l5.0027-9.6772c9.2085 23.014 19.203 54.878 37.002 72.551 0.7131 8.0063 0.9629 15.877 3.2639 23.607 15.25 366.68 13.266 288.49 12.774 399.64-0.4839 17.407-4.0134 32.998-0.2236 50.598-0.1824 11.843 1.2961 32.686-4.2842 42.936l-0.5986-7.7563c-8.7664-9.9893-14.415-28.089-17.564-41.067-13.16-11.166-12.577-27.668-19.906-42.28l-139.45-435.83c0.2639-1.1575 1.0681 2.6489-16.616-62.155-115.76-399.89-77.23-275.96-170.44-553.33-11.334-35.349-32.816-87.754-26.997-103.15z" fill="url(#j)"/> <path d="m2830.2 3820.2c9.2085 23.014 19.203 54.878 37.002 72.551 0.7131 8.0063 0.9629 15.877 3.2639 23.607 15.25 366.68 13.266 288.49 12.774 399.64-0.4839 17.407-4.0134 32.998-0.2236 50.598-0.1824 11.843 1.2961 32.686-4.2842 42.936l-0.5986-7.7563c-8.7664-9.9893-14.415-28.089-17.564-41.067-0.0403-0.709-27.776-495.82-35.372-530.83l5.0027-9.6772z" fill="#79A4A5"/> <path d="m2386 2908.1 5.5283 1.8374c77.465 79.521 140.86 171.02 205.93 260.56l0.7024 10.068c18.882 0.7791 39.611 12.24 57.21 20.406 164.96 76.59 172.92 121.74 206.86 127.53 21.521-18.156 108.03-106.48 135.11-144.11l2.353-0.9165c8.7957 35.494 130.07 290.98 143 335.98 24.722 389.28 26.243 355.76 24.321 377.38l-2.0559-0.1353c-23.67-6.6008-50.484-27.439-72.218-39.932-141.37-81.397-139.52-78.996-158.84-93.02-0.7183 8.678-0.9473 17.809-2.7432 26.309-71.892 89.233-60.917 101.6-60.703 126.27-2.301-7.7302-2.5508-15.601-3.2639-23.607-17.798-17.673-27.793-49.537-37.002-72.551l-5.0027 9.6772c-4.0137-6.4958-182.03-347.75-190.24-368.57l-0.4163 0.0049c-107.83-210.84-79.439-153.2-121.14-243.22-7.3347-17.205-13.488-40.406-26.237-54.123-2.8943 7.6575 0.9631 19.797 2.3635 27.762l-9.4536-2.5508c-0.8979-18.594-9.0479-40.455-47.1-157.63-6.6741-14.615-5.4126-18.168-5.3411-35.466l-3.1287-0.5308c-1.7126 11.046 3.1182 22.577 3.6492 33.784l0.1042 3.3994-2.1553 2.4934c-5.7991-6.9495-1.3274-8.5166-4.1904-15.07-1.7542-4.0186-6.8298-9.1204-9.5732-12.78-1.1868-10.198-2.4102-15.523-8.6465-23.659-5.4607 12.139 0.5413 34.206-2.9619 48.787-2.9724-27.246 0.9578-58.225-11.728-82.78l-0.1821-0.0361-3.2014-34.748-1.572-6.2883 1.973-0.5152z" fill="#E2693D"/> <path d="m2659.4 3319.3c15.063 10.985 449.72 513.1 483.59 545.73 5.5911 7.8916 19.678 23.181 21.978 31.681-23.67-6.6008-50.484-27.439-72.218-39.932-141.37-81.397-139.52-78.996-158.84-93.02-175.82-250.07-133.35-185.16-197.38-298.11-10.25-18.694-19.625-42.639-33.212-58.844-10.859-29.813-29.313-59.282-43.92-87.507z" fill="#020203"/> <path d="m2999.7 3183.5c9.0122 36.367 130.56 292.68 143 335.98 24.888 391.9 26.312 354.99 24.321 377.38l-2.0559-0.1353c-2.301-8.5007-16.388-23.79-21.978-31.681-0.6614-32.319-45.607-97.239-90.666-131.94l78.444-218.05c-4.9963-5.7649 20.12 13.866-283.45-172.24 43.906-42.037 10.26-6.2415 79.932-79.006 24.472-25.56 49.376-50.594 70.099-79.391l2.3531-0.9165z" fill="#472F8E"/> <path d="m2386 2908.1 5.5283 1.8374c77.465 79.521 140.86 171.02 205.93 260.56l0.7024 10.068c18.882 0.7791 39.611 12.24 57.21 20.406 164.96 76.59 172.92 121.74 206.86 127.53l-14.92 14.284c-219.25-129.98-213.73-130.07-241.72-139.72l53.795 116.22c14.607 28.225 33.061 57.694 43.92 87.507 13.587 16.205 22.962 40.151 33.212 58.844 67.798 119.61 21.703 48.253 197.38 298.11-0.7183 8.678-0.9473 17.809-2.7432 26.309-71.892 89.233-60.917 101.6-60.703 126.27-2.301-7.7302-2.5508-15.601-3.2639-23.607-17.798-17.673-27.793-49.537-37.002-72.551l-5.0027 9.6772c-3.114-5.04-181.68-346.87-190.24-368.57l-0.4163 0.0049c-107.83-210.84-79.439-153.2-121.14-243.22-7.3347-17.205-13.488-40.406-26.237-54.123-2.8943 7.6575 0.9631 19.797 2.3635 27.762l-9.4536-2.5508c-0.8979-18.594-9.0479-40.455-47.1-157.63-6.614-14.483-5.4146-17.689-5.3411-35.466l-3.1287-0.5308c-1.7126 11.046 3.1182 22.577 3.6492 33.784l0.1042 3.3994-2.1553 2.4934c-5.7991-6.9495-1.3274-8.5166-4.1904-15.07-1.7542-4.0186-6.8298-9.1204-9.5732-12.78-1.1868-10.198-2.4102-15.523-8.6465-23.659-5.4607 12.139 0.5413 34.206-2.9619 48.787-2.9724-27.246 0.9578-58.225-11.728-82.78l-0.1821-0.0361-3.2014-34.748-1.572-6.2883 1.973-0.5152z" fill="#C2B392"/> <path d="m2386 2908.1 5.5283 1.8374c77.465 79.521 140.86 171.02 205.93 260.56l0.7024 10.068c18.882 0.7791 39.611 12.24 57.21 20.406 164.96 76.59 172.92 121.74 206.86 127.53l-14.92 14.284c-219.25-129.98-213.73-130.07-241.72-139.72-22.128-42.358-36.986-33.695-219.99-288.16l-1.572-6.2883 1.9729-0.5154z" fill="#020203"/> <path d="m2787.4 3555.4 146.53 208.41c-0.7183 8.678-0.9473 17.809-2.7432 26.309-71.892 89.233-60.917 101.6-60.703 126.27-2.301-7.7302-2.5508-15.601-3.2639-23.607-17.798-17.673-27.793-49.537-37.002-72.551-11.4-41.973-14.473-69.868-42.822-264.83z" fill="#7A92B1"/> <path d="m2749.6 2528 280.36 160.95 10.109 3.3992 0.2861 1.8013c-17.074 34.893-30.5 71.988-45.008 108.05-12.639 31.406-29.433 67.21-35.591 100.49l71.025 158.67 6.3716 0.6926c-17.371 37.881-27.095 81.057-37.475 121.42l-2.353 0.9165c-26.929 37.42-113.68 126.03-135.11 144.11-34.524-5.8901-41.951-50.965-206.86-127.53-17.723-8.2236-38.377-19.629-57.21-20.406l-0.7024-10.068c-65.065-89.542-128.46-181.04-205.93-260.56 12.468-11.614 30.229-20.828 44.612-30.219 227.08-149.01 206.76-136.4 213.63-139.1l-0.1562-7.4546 5.0181-7.5061 0.2136-2.9829c11.33-17.655 7.5861-12.241 94.763-194.67z" fill="#6876A4"/> <path d="m2391.6 2910c6.7622-6.2991 217.34-143.18 222-146.22 11.884-7.6418 23.087-17.933 36.242-23.097l-52.316 429.88c-65.065-89.542-128.46-181.04-205.93-260.56z" fill="#472F8E"/> <path d="m2749.6 2528 280.36 160.95 10.109 3.3992 0.2861 1.8013c-17.074 34.893-30.5 71.988-45.008 108.05-12.639 31.406-29.433 67.21-35.591 100.49l-2.5403-0.1821c-19.76-13.849 2.9087-0.5693-307.46-161.9l-0.1562-7.4546 5.0181-7.5061 0.2136-2.9829c11.33-17.655 7.5862-12.241 94.763-194.67z" fill="#7A92B1"/> <path d="m2749.6 2528 280.36 160.95-371.16 41.697-4.1804-4.9971 0.2136-2.9829c11.33-17.655 7.5861-12.241 94.763-194.67z" fill="#9BB5C3"/> <path d="m2957.3 2902.6 2.5403 0.1821 71.025 158.67 6.3716 0.6926c-17.371 37.881-27.095 81.057-37.475 121.42l-2.353 0.9165c-26.929 37.42-113.68 126.03-135.11 144.11-34.524-5.8901-41.951-50.965-206.86-127.53-17.723-8.2236-38.377-19.629-57.21-20.406l-0.7024-10.068 2.3162 0.3279c9.0812-6.5987 99.636-74.685 357.46-268.31z" fill="#178553"/> <path d="m3030.8 3061.4 6.3716 0.6926c-17.371 37.881-27.095 81.057-37.475 121.42l-2.353 0.9165c-20.198-10.802-60.948-6.9551-84.326-7.7617-242.8-4.8977-182.21-4.374-275.23-3.4517-12.494 0.0889-26.039 1.6191-38.007-2.3528l5.8462-4.2478c34.815-4.6018 69.688-17.298 103.52-26.798 324.53-85.428 279.45-62.181 321.65-78.413z" fill="#113717"/> <path d="m2597.5 3170.5 2.3162 0.3279c11.968 3.9719 25.513 2.4417 38.007 2.3528 93.027-0.9226 32.589-1.4429 275.23 3.4517 23.378 0.8066 64.128-3.04 84.326 7.7617-26.929 37.42-113.68 126.03-135.11 144.11-34.524-5.8901-41.951-50.965-206.86-127.53-17.723-8.2236-38.377-19.629-57.21-20.406l-0.7024-10.068z" fill="#0E3B4A"/> </svg>