<?xml version='1.0' encoding='utf-8'?>
<svg xmlns="http://www.w3.org/2000/svg" width="154.4mm" height="239.58mm" version="1.1" viewBox="0 0 154.4 239.58"><g transform="translate(-22.202 -22.731)"><g transform="matrix(-.95611 .29299 .29299 .95611 164.69 -29.928)"><path d="m121.79 219.13c2.3298 0 4.2054 1.866 4.2054 4.1838v17.333c0 2.3178-1.8756 24.681-4.2054 24.681-2.3298 0-4.2053-22.363-4.2053-24.681v-17.333c0-2.3178 1.8756-4.1838 4.2053-4.1838z" fill="#800080" stroke="#000" stroke-linecap="round"/><g transform="matrix(2.8926 0 0 2.8777 -211.42 -55.037)" stroke="#000" stroke-linecap="round"><path d="m89.197 75.9c0.53258 10.78 21.317 19.789 25.966 19.742 4.5726 0 22.653-9.9421 26.04-20.24z" fill="#a00" stroke-width=".3466"/><path d="m94.922 67.688c-3.8618 1.7376-5.3229 4.9255-5.725 8.0128 2.5876 4.8722 11.685 10.082 25.956 10.137 12.991 0.05035 21.883-5.0879 26.112-10.664-0.37073-4.6233-3.1607-6.2872-6.6666-7.6259z" fill="#4a0" stroke-width=".3466"/><path d="m101.1 61.713c-3.0483 0.77646-5.2653 2.611-5.9783 5.8915 2.5358 4.2965 10.036 8.8764 19.884 8.7748 9.6421 0.10689 16.517-4.3484 19.728-8.671-0.86719-3.0249-2.3505-4.6145-5.3757-5.7877z" fill="#d40000" stroke-width=".3466"/><path d="m104.35 57.377c-2.2295 0.75943-3.2292 3.3186-3.5728 4.2563 0.27337 2.4345 6.0448 7.6303 14.251 7.269 7.0691 0.10689 14.307-4.6599 14.305-7.1652-0.84659-1.4136-1.4477-3.3138-4.2216-4.3831z" fill="#ff7f2a" stroke-width=".3466"/><path d="m115.2 46.566c0.39563 0.18152 0.80426 0.40124 1.22 0.65288 3.8292 2.3178 8.2589 7.3429 8.653 10.156-6.2317 4.565-15.071 4.7684-20.753 0-0.32269-2.4518 5.1711-7.7555 9.4868-10.131 0.48224-0.26542 0.94976-0.49427 1.3928-0.6785z" fill="#fd5" stroke-width=".34661"/><path d="m94.97 85.675c8.666 9.534 13.78 10.052 18.8 11.718 3.4544-0.69475 11.156-0.91094 19.933-11.935-12.453 8.7296-27.938 6.6438-38.734 0.21729z" fill="#00aad4" stroke-width=".3466"/><path d="m113.92 101.79c0.89076 0.46684 1.763 0.45241 2.6192 0.0194 1.556-1.2721 2.7242-2.6308 8.2148-8.1022-7.2176 4.3017-13.643 2.919-20.037 0.22256z" fill="#ff7f2a" stroke-width=".3466"/></g><path d="m121.79 59.004c2.3298 0 4.2054 1.866 4.2054 4.1838v17.333c0 2.084-1.3143 3.2484-3.6441 3.2484-2.3298 0-4.7666-0.93053-4.7666-3.2484v-17.333c0-2.3178 1.8756-4.1838 4.2053-4.1838z" fill="#800080" stroke="#000" stroke-linecap="round"/><g transform="matrix(2.8926 0 0 2.8777 -211.03 -63.21)" stroke-width=".3466"><path d="m118.2 44.964a3.1377 3.1721 0 0 1-1.5689 2.7471 3.1377 3.1721 0 0 1-3.1377 0 3.1377 3.1721 0 0 1-1.5689-2.7471h3.1377z" fill="#08a" stroke="#000" stroke-linecap="round" stroke-width=".3466"/><ellipse cx="115.07" cy="44.456" rx="6.0244" ry="1.1419" fill="#006680" stroke="#000" stroke-linecap="round" stroke-width=".3466"/><g transform="translate(.25977 -.66087)" stroke-width=".3466"><path d="m110.27 30.651c2.8894-1.6303 5.9205-1.9117 9.2036 0l-2.9582 13.533c-1.1766 0.73612-2.2779 0.78612-3.2872 0z" fill="#00aad4" stroke="#000" stroke-linecap="round" stroke-width=".3466"/><path d="m111.19 30.885c1.3777-0.45419 4.1108-0.71365 7.154-0.01588 0 0-2.2179-0.94332-3.4515-0.95162-1.2336-0.0083-3.7025 0.96747-3.7025 0.96747z" fill="#00b8e7"/></g><path d="m113.1 46.599c0.54228 0.43604 2.6739 0.9098 3.9882-0.0079-0.61684 0.59199-1.3312 0.81644-1.9756 0.82473 0 0-0.98911 0.0449-2.0126-0.81683z" fill="#00b8e7"/><path d="m111.48 30.637 2.6486 12.459c0.10803 0.21751 0.35046 0.26651 0.62308 0.25385l-0.40055-11.942c-1.0449-0.04903-1.9351-0.24969-2.8712-0.77101z" fill="#00b8e7"/><path d="m118.79 30.637-2.6486 12.459c-0.10803 0.21751-0.35046 0.26651-0.62308 0.25385l0.36161-11.955c1.0449-0.04903 1.9481-0.22373 2.9101-0.75803z" fill="#00a1c9"/></g><ellipse cx="59.646" cy="156.25" rx="6.523" ry="6.4896" fill="#f0f" stroke="#000" stroke-linecap="round"/><ellipse cx="97.822" cy="177.03" rx="6.523" ry="6.4896" fill="#f0f" stroke="#000" stroke-linecap="round"/><ellipse cx="122.95" cy="179.49" rx="6.523" ry="6.4896" fill="#fc0" stroke="#000" stroke-linecap="round"/><ellipse cx="146.77" cy="176.79" rx="6.523" ry="6.4896" fill="#f0f" stroke="#000" stroke-linecap="round"/><ellipse cx="184.61" cy="154.76" rx="6.523" ry="6.4896" fill="#f0f" stroke="#000" stroke-linecap="round"/><path d="m82.9 132.65-15.751 5.8793 11.114 10.095z" fill="#00a1c9" stroke="#000" stroke-linecap="round"/><path d="m93.656 157.78 12.729-12.742-15.454-4.9778z" fill="#00a1c9" stroke="#000" stroke-linecap="round"/><ellipse cx="76.858" cy="168.6" rx="6.523" ry="6.4896" fill="#fc0" stroke="#000" stroke-linecap="round"/><ellipse cx="167.72" cy="168.56" rx="6.523" ry="6.4896" fill="#fc0" stroke="#000" stroke-linecap="round"/><path d="m122.35 146.6-7.1627 15.211 15.005-0.5416z" fill="#00a1c9" stroke="#000" stroke-linecap="round"/><path d="m149.21 157.79 2.208-17.875-15.249 5.5732z" fill="#00a1c9" stroke="#000" stroke-linecap="round"/><path d="m159.05 133.8 4.3686 16.235 11.097-10.113z" fill="#00a1c9" stroke="#000" stroke-linecap="round"/><path d="m166.63 124.97-3.5996 4.3851 11.805 2.679c-1.767-3.3226-4.4976-5.6816-8.2049-7.064z" fill="#00a1c9" stroke="#000" stroke-linecap="round"/><path d="m76.281 124.17 2.2592 2.7523-9.9602 2.6648c1.5404-1.949 3.9936-4.3084 7.701-5.417z" fill="#00a1c9" stroke="#000" stroke-linecap="round"/><path d="m162.34 124.4c-1.4586-1.983-8.1328-12.545-13.006-13.602-3.8359-10.341-14.004-20.889-21.899-27.17-0.46493-0.24925-1.1358 2.7956-4.8916 2.6158 2.5067 11.826 3.7898 23.381 3e-3 33.809 2.371 7.7329 4.3953 15.466-0.1524 23.199 1.8957 7.4052 6.2168 14.81 0.15001 22.216 2.7437 8.7695 6.1048 17.634-0.0397 25.036 43.249-0.90137 68.914-22.348 73.074-30.045-0.31415-5.9638-5.5512-15.735-17.837-19.618-3.3861-11.759-13.386-15.306-15.402-16.441z" opacity=".084746"/><path d="m123.28 193.21c13.261 0.88782 50.049-3.5352 70.908-27.423-4.4159 8.6127-12.147 18.698-23.707 28.278-7.5749 9.8014-18.424 17.429-26.834 23.687-7.4434 8.731-17.473 19.103-20.086 20.111 3.5901-6.0204 2.8791-11.379 0-16.404 3.1999-2.8077 2.7808-7.7265 0-14.023 4.1159-4.742 1.9378-9.484-0.28063-14.226z" opacity=".30024" stroke-linecap="round" stroke-opacity=".99608"/><path d="m121.74 240.01c1.448-0.028 2.7676-0.37376 3.3208-0.90036 0.58889 3.8305-3.1688 25.432-3.1688 24.871z" opacity=".30024" stroke-linecap="round" stroke-opacity=".99608"/></g><path d="m76.95 219.96-2.0897 1.0999-1.9802 1.1075-1.8643 1.1112-1.7468 1.1133-1.6261 1.1107-1.5022 1.1066-1.375 1.0993-1.2479 1.0896-1.1175 1.0752-0.98629 1.06-0.85426 1.0416-0.72223 1.0209-0.59016 0.99778-0.45645 0.9715-0.32592 0.94439-0.19456 0.91415-0.06636 0.88223 0.06186 0.84794 0.18772 0.81286 0.31203 0.77453 0.43157 0.737 0.55031 0.69627 0.66517 0.65463 0.776 0.61228 0.88367 0.56901 0.98663 0.52413 1.0864 0.47916 1.1814 0.4342 1.2716 0.38759 1.3579 0.34089 1.4379 0.29416 1.5138 0.24822 1.5842 0.20051 1.6499 0.15525 1.7091 0.10907 1.7629 0.0629c0.074 1e-3 0.14634 2e-3 0.21831 5e-3 0.07189 1e-3 0.14395 3e-3 0.21515 4e-3 0.07113 1e-3 0.1411 2e-3 0.21037 3e-3 0.06982 3.7e-4 0.13869 2e-3 0.20647 2e-3 0.06817-5.5e-4 0.13538 9.6e-4 0.20243 2e-3 0.06704 5.1e-4 0.13353 1e-3 0.19853 1.8e-4 0.06503 6.2e-4 0.13073 2e-4 0.19375 2.3e-4 0.06432 6.6e-4 0.12663 4.2e-4 0.18898 1.8e-4 0.06283-1e-3 0.12553-2e-3 0.18581-6.6e-4 0.06087 8.3e-4 0.1209-2.9e-4 0.18105-1e-3 0.05948-9e-5 0.1181-1e-3 0.17626-1e-3 0.05744-2e-3 0.11484-2e-3 0.17154-3e-3 0.05621-2e-3 0.1128-2e-3 0.16761-3e-3 0.05551-8.8e-4 0.10926-2e-3 0.16282-3e-3 0.05405-8.1e-4 0.1067-2e-3 0.15883-3e-3 0.0515-2e-3 0.10265-1e-3 0.1533-3e-3 0.05004-3e-3 0.1-4e-3 0.14927-5e-3 0.04867-2e-3 0.09632-4e-3 0.14379-4e-3 0.04676-1e-3 0.09374-4e-3 0.13983-4e-3 0.04525-2e-3 0.09029-4e-3 0.13504-4e-3 0.04391-2e-3 0.08672-4e-3 0.12949-5e-3 0.04196-1e-3 0.08399-4e-3 0.12468-4e-3 0.04147-1e-3 0.08149-4e-3 0.12075-4e-3 0.03872-1e-3 0.07793-4e-3 0.11605-5e-3 0.03744-2e-3 0.07374-4e-3 0.10965-5e-3 0.03538-1e-3 0.07156-4e-3 0.10569-5e-3 0.03489-2e-3 0.06821-4e-3 0.10081-5e-3 0.03274-9.6e-4 0.06476-4e-3 0.09623-5e-3 0.03136-2e-3 0.06194-4e-3 0.09152-5e-3 0.02939-3e-3 0.05816-5e-3 0.08564-5e-3 0.02813-2e-3 0.05422-4e-3 0.08026-5e-3 0.02682-3e-3 0.05224-4e-3 0.0771-5e-3 0.02392-6e-4 0.04693-2e-3 0.06979-4e-3 0.02283-2e-3 0.04417-3e-3 0.06517-4e-3 0.02126-2e-3 0.04018-3e-3 0.06036-4e-3 0.01897-3e-3 0.03792-3e-3 0.05484-4e-3 0.01705-2e-3 0.03175-2e-3 0.04854-5e-3 0.01479-1e-3 0.03055-4e-3 0.04304-4e-3 0.01371-1e-3 0.02498-2e-3 0.03737-5e-3 0.01111 1e-3 0.02341-2e-3 0.03194-2e-3 0.01054-3e-3 0.01773-2e-3 0.02537-2e-3 0.0084-1e-3 0.01263-2e-3 0.02086-3e-3 0.0064-1e-3 0.01038-1e-3 0.01447-3e-3 3e-3 2.3e-4 0.0051-5e-5 0.0086-2e-3 0.0021-2.8e-4 0.0043-1e-3 0.0037-3e-3 -1e-3 -9e-5 -9.99e-4 6e-5 -0.0038-8e-4 -3e-3 -2.1e-4 -0.0038-2e-3 -0.0087-3e-3 -0.0051 7e-5 -0.01036-1e-3 -0.01592-2e-3 -7e-3 -5e-4 -0.01197-2.1e-4 -0.0213-2e-3 -0.0079-5.8e-4 -0.01852-3e-5 -0.02778-5.5e-4 -0.0079-5.9e-4 -0.01756-1e-3 -0.03098-3.9e-4 -0.01353 5.1e-4 -0.02715 4.1e-4 -0.04062-8.9e-4 -0.01353 5e-4 -0.02724 4.1e-4 -0.04436-7e-4 -0.01707-1e-3 -0.03383 7.6e-4 -0.05168-3.1e-4 -0.01658-7e-5 -0.03578-1.4e-4 -0.05647-7e-5 -0.0205 2.2e-4 -0.04178 1.7e-4 -0.06431 1e-3 -0.0251 3.6e-4 -0.04745 4.6e-4 -0.07139 7.1e-4 -0.02559 3.3e-4 -0.05031 6.1e-4 -0.07545 9.2e-4 -0.02903-4.9e-4 -0.05523-1.3e-4 -0.08432 1e-3 -0.02903-5e-4 -0.05832 1e-3 -0.08823 5.8e-4 -0.02913-4.8e-4 -0.0623 2.4e-4 -0.09521 9.5e-4 -0.03307-1e-3 -0.06991 6.4e-4 -0.10238 1e-3 -0.03442-2.1e-4 -0.07095 6.9e-4 -0.10801 6.1e-4 -0.03632-1e-3 -0.07309 8e-4 -0.11359 9.1e-4l0.0016 2e-3c-0.03832 2e-3 -0.07882 1e-3 -0.11919 1e-3 -0.04058 2e-3 -0.08026 2e-3 -0.12386 1e-3 -0.04236 1e-3 -0.08487 2e-3 -0.12782 2e-3 -0.04372 2e-3 -0.08642 2e-3 -0.13346 2e-3 -0.04493 2e-3 -0.09023 2e-3 -0.1366 1e-3 -0.04637 1e-3 -0.09574 9.8e-4 -0.14134 1e-3 -0.04765-5.2e-4 -0.09551-4e-5 -0.14453 5.1e-4 -0.04964-4.2e-4 -0.10101-7.5e-4 -0.1501-2e-4 -0.05061-3.7e-4 -0.10006 2.1e-4 -0.15249-7e-5 -0.05168-3.1e-4 -0.10466-5.6e-4 -0.15645 1.3e-4 -0.05297-2.4e-4 -0.10457-5.6e-4 -0.15959 3e-4 -0.05375-2.1e-4 -0.10918-3.3e-4 -0.16354 5e-4 -0.05493-1e-3 -0.11019-2.7e-4 -0.16595-1e-3 -0.05637-7e-5 -0.11226-1e-3 -0.16994-1e-3 -0.05647-7e-5 -0.11449-1e-3 -0.17224-2e-3 -0.05781 0-0.11616-9.7e-4 -0.17469-2e-3 -0.05907 7e-5 -0.11879-8.2e-4 -0.17862-2e-3 -0.05992-8.9e-4 -0.11962-2e-3 -0.18022-3e-3 -0.06053-8.6e-4 -0.12197-3e-3 -0.1826-4e-3 -0.06115-8.2e-4 -0.12301-3e-3 -0.18496-4e-3 -0.06188-7.8e-4 -0.12451-3e-3 -0.18659-4e-3 -0.0626-3e-3 -0.12556-2e-3 -0.18889-5e-3 -0.0627-3e-3 -0.12727-3e-3 -0.19131-5e-3 -0.06406-6.7e-4 -0.12803-4e-3 -0.19211-5e-3 -0.06474-3e-3 -0.12961-5e-3 -0.19447-7e-3 -0.06535-4e-3 -0.13053-5e-3 -0.19606-7e-3 -0.06482-4e-3 -0.13037-7e-3 -0.19603-8e-3 -0.06618-5e-3 -0.13292-7e-3 -0.1992-8e-3 -0.06642-3e-3 -0.13222-7e-3 -0.19923-8e-3 -0.06647-4e-3 -0.13357-6e-3 -0.19997-0.0103-0.06717-4e-3 -0.13439-7e-3 -0.20158-0.0102-0.06713-3e-3 -0.13439-7e-3 -0.2016-0.0102-0.06729-4e-3 -0.13528-7e-3 -0.20314-0.0113-0.06737-4e-3 -0.1352-8e-3 -0.20315-0.0112-0.0679-5e-3 -0.13505-0.01-0.20312-0.0131-0.06791-3e-3 -0.13596-0.01-0.20389-0.0131-0.06809-3e-3 -0.13585-7e-3 -0.2039-0.013-0.0674-6e-3 -0.13637-0.01-0.2039-0.0146-0.06809-3e-3 -0.13566-0.01-0.20389-0.0146-0.0683-5e-3 -0.13625-0.0104-0.20392-0.016-0.0683-5e-3 -0.13625-0.0105-0.20391-0.016-0.06768-5e-3 -0.13532-0.0125-0.20308-0.0178-0.06769-5e-3 -0.13523-0.0124-0.20228-0.0177-0.06775-7e-3 -0.13447-0.0124-0.20227-0.019-0.06713-7e-3 -0.13432-0.0122-0.20147-0.019-0.06666-6e-3 -0.13327-0.0123-0.19984-0.0199-0.06654-7e-3 -0.13391-0.0138-0.19986-0.0205-0.06613-7e-3 -0.13296-0.0139-0.19909-0.0212-0.06602-8e-3 -0.13285-0.0137-0.1983-0.0212-0.06552-7e-3 -0.13034-0.0153-0.1959-0.0219-0.0653-9e-3 -0.13103-0.0155-0.19589-0.0229-0.0641-9e-3 -0.12945-0.0152-0.1943-0.0235-0.06428-7e-3 -0.12905-0.0151-0.19267-0.0244-0.06367-9e-3 -0.12747-0.0148-0.19109-0.0245-0.06367-9e-3 -0.12647-0.0166-0.18948-0.0252-0.06296-9e-3 -0.12557-0.0175-0.18788-0.0262-0.06181-9e-3 -0.12454-0.0173-0.18633-0.0259-0.06119-8e-3 -0.1227-0.0179-0.18394-0.0265-0.06059-8e-3 -0.1223-0.0179-0.18236-0.0272-0.06136-0.01-0.12017-0.0186-0.18069-0.0268-0.0601-9e-3 -0.11992-0.0185-0.17909-0.0286-0.05859-0.01-0.11799-0.0181-0.17602-0.028-0.05871-0.0101-0.1164-0.0189-0.17442-0.0288-0.05741-0.01-0.11537-0.0186-0.17189-0.0293 0 0-0.02261-5e-3 -0.06477-0.0119-0.04198-7e-3 -0.10466-0.0177-0.18782-0.0323-0.08313-0.0147-0.18596-0.034-0.30746-0.0558-0.12078-0.0227-0.26094-0.0487-0.41757-0.0794-0.15666-0.0315-0.32944-0.0671-0.51886-0.10679-0.18825-0.0405-0.3923-0.0854-0.61068-0.13546-0.21606-0.0511-0.44659-0.10733-0.68972-0.16896-0.24022-0.0632-0.49322-0.13178-0.75675-0.20629-0.2599-0.077-0.5303-0.15972-0.80872-0.24894-0.27476-0.0916-0.55747-0.18854-0.8463-0.29381-0.28424-0.10782-0.57389-0.22296-0.86716-0.34571-0.28739-0.12571-0.57704-0.26034-0.86971-0.40206-0.28433-0.14569-0.56858-0.29953-0.85313-0.46225-0.27493-0.16683-0.54876-0.34275-0.81824-0.52778-0.25866-0.18962-0.51278-0.38901-0.76028-0.59777-0.23604-0.21332-0.46414-0.43649-0.68322-0.66997-0.20514-0.23863-0.40009-0.48748-0.58311-0.74667-0.16714-0.2646-0.32176-0.54007-0.46152-0.82549-0.12266-0.2913-0.22908-0.59317-0.31849-0.90562-0.0703-0.31824-0.12246-0.64655-0.15479-0.98559-0.01135-0.34504-0.0019-0.70036 0.02954-1.0661 0.05443-0.37162 0.1316-0.75345 0.2329-1.1448 0.12571-0.39711 0.27634-0.804 0.45366-1.2201 0.2019-0.42146 0.43083-0.85191 0.68797-1.2913 0.28315-0.44403 0.59487-0.8964 0.93564-1.3568 0.36755-0.46473 0.76507-0.9374 1.192-1.4166 0.45522-0.48284 0.9404-0.97161 1.4562-1.4668 0.54334-0.49837 1.1178-1.002 1.7227-1.5098 0.63262-0.51052 1.2949-1.0251 1.9875-1.5426 0.72063-0.51921 1.4704-1.0409 2.249-1.5642 0.80625-0.52404 1.6409-1.0494 2.5032-1.5748 0.88821-0.52498 1.8035-1.0494 2.7438-1.5729 0.96644-0.52217 1.9566-1.0418 2.9699-1.5593m65.343-16.275c0.77785-0.0256 1.5224-0.0452 2.2327-0.0597 0.70611-0.0103 1.3786-0.0157 2.0163-0.0178 0.5047 6.7e-4 0.9707 6e-3 1.4316 0.0112l-1.0797-0.0182-2.7659 0.0226-2.8334 0.0902-2.8937 0.15662m9.5727-0.25057 0.78595 0.0139c-0.1444-4e-3 -0.27074-8e-3 -0.41996-0.0109-0.11496-1e-3 -0.24819-8e-4 -0.366-2e-3zm0.78595 0.0139c0.39834 0.01 0.79837 0.018 1.159 0.0289l-0.33492-0.0146zm1.2288 0.0314 1.8825 0.0825c-0.19655-0.0101-0.37601-0.0207-0.5912-0.0312-0.39695-0.0183-0.83136-0.0347-1.2913-0.0512zm1.8825 0.0825c0.15677 8e-3 0.32668 0.0175 0.47138 0.0252l-0.15231-0.0107zm0.47138 0.0252 2.3604 0.17131c-0.0474-4e-3 -0.078-7e-3 -0.14597-0.0125-0.12885-0.0104-0.29333-0.0245-0.49424-0.0405-0.20149-0.0162-0.43929-0.0335-0.71167-0.0532-0.2739-0.0188-0.58321-0.0395-0.92753-0.0606-0.0244-2e-3 -0.0562-2e-3 -0.081-4e-3zm-10.478 0.40313 2.5552-0.0616 2.4973-6e-3 2.4347 0.0521 2.365 0.11098 2.2881 0.1688 2.2056 0.22824 2.1168 0.28679 2.0217 0.34683 1.9202 0.40527 1.8139 0.4652 1.7005 0.52264 1.5823 0.5817 1.4594 0.63901 1.3309 0.69476 1.1977 0.75122 1.0604 0.80527 0.91854 0.85842 0.77265 0.90995 0.62278 0.95992 0.47138 1.0082 0.31519 1.0549 0.15752 1.1-2e-3 1.1418-0.16427 1.1813-0.3283 1.2191-0.49214 1.2546-0.65774 1.2869-0.82245 1.3168-0.98869 1.3426-1.1518 1.367-1.3163 1.3874-1.4785 1.4054-1.6383 1.4194-1.7965 1.4304-1.9513 1.4374-2.1031 1.442-2.2524 1.4427-2.3968 1.4395-2.5365 1.4331-2.6722 1.4229-2.8022 1.4087-2.9267 1.3922-3.0456 1.3702-3.1573 1.3467-3.2634 1.3177-3.3614 1.2864-3.4532 1.2504-3.5361 1.2122-3.6119 1.1708-3.6796 1.1248-3.7378 1.0757-3.788 1.0243c-0.15629 0.0409-0.31253 0.0814-0.46512 0.12104-0.1527 0.0395-0.30481 0.079-0.45631 0.11788-0.15085 0.039-0.29879 0.0771-0.44596 0.11483-0.14718 0.0375-0.29294 0.0745-0.43639 0.11114-0.14414 0.0365-0.28743 0.0731-0.4284 0.10871-0.14104 0.0357-0.2808 0.0704-0.41809 0.10487-0.13792 0.0345-0.27289 0.0689-0.40851 0.10258-0.13416 0.0333-0.26764 0.0662-0.39891 0.0988-0.13111 0.0324-0.26276 0.0642-0.39019 0.0956-0.12818 0.0314-0.25407 0.0618-0.3798 0.0926-0.12507 0.0305-0.24978 0.0608-0.37105 0.0903-0.1214 0.0294-0.24234 0.0588-0.36066 0.0873-0.11958 0.0288-0.23607 0.0572-0.35193 0.085-0.11589 0.0277-0.22974 0.0542-0.34239 0.0811-0.1127 0.0268-0.22387 0.053-0.3328 0.0787-0.10888 0.0257-0.216 0.0515-0.32244 0.0766-0.10592 0.0248-0.21031 0.0492-0.3137 0.0734-0.10271 0.0241-0.20366 0.0478-0.30332 0.0713-0.099 0.0232-0.19718 0.0457-0.29378 0.0681-0.0959 0.0218-0.19084 0.0443-0.285 0.0659-0.0934 0.0214-0.18501 0.0422-0.27467 0.0629-0.0902 0.0211-0.17792 0.0415-0.2651 0.0614-0.0873 0.0197-0.17287 0.0392-0.25634 0.0582-0.0841 0.0193-0.1658 0.0375-0.2468 0.0559-0.08 0.0177-0.15847 0.0363-0.23564 0.0537-0.0766 0.0172-0.15355 0.0339-0.22768 0.0507-0.0734 0.0168-0.14558 0.0332-0.21652 0.0492-0.0709 0.0165-0.14085 0.0316-0.2086 0.0468-0.068 0.0151-0.13417 0.0292-0.1982 0.0438-0.0647 0.0147-0.12775 0.0292-0.18864 0.0424-0.0616 0.0132-0.12135 0.0262-0.17915 0.0393-0.0583 0.0131-0.11426 0.0261-0.16959 0.0377-0.0546 0.0109-0.1079 0.0233-0.15997 0.0356-0.0517 0.0117-0.10036 0.0233-0.14884 0.0332-0.0478 0.0105-0.0907 0.02-0.1385 0.0302-0.0439 0.0103-0.0879 0.0198-0.12737 0.0287-0.0414 8e-3 -0.0784 0.0164-0.11783 0.0257-0.0371 9e-3 -0.0744 0.0159-0.10589 0.023-0.0339 8e-3 -0.0647 0.0124-0.0957 0.0208-0.0293 8e-3 -0.0617 0.0142-0.0843 0.0193-0.0264 5e-3 -0.0509 0.01-0.0741 0.0169-0.0219 6e-3 -0.0387 8e-3 -0.0621 0.0152-0.0183 5e-3 -0.0371 9e-3 -0.051 0.0117-0.0154 3e-3 -0.0259 5e-3 -0.0397 8e-3 -0.0106 3e-3 -0.0218 6e-3 -0.028 7e-3 -6e-3 2e-3 -0.0106 3e-3 -0.0178 4e-3 -2e-3 3e-3 -8e-3 1e-3 -7e-3 2e-3 3e-3 2.2e-4 5e-3 -6e-5 5e-3 -6e-5 7e-3 -1e-3 8e-3 -1e-3 0.0174-2e-3 0.0106-3e-3 0.0186-5e-3 0.0293-6e-3 9e-3 -2e-3 0.0199-4e-3 0.0372-8e-3 0.0179-3e-3 0.0355-8e-3 0.0534-0.01 0.0184-3e-3 0.0361-6e-3 0.0621-0.0112 0.0261-5e-3 0.0499-9e-3 0.077-0.0152 0.0242-5e-3 0.0537-0.0118 0.0859-0.0174 0.0315-6e-3 0.0649-0.0124 0.10103-0.0205 0.041-8e-3 0.0763-0.0152 0.11608-0.0246 0.0416-8e-3 0.0832-0.0171 0.1249-0.0256 0.0491-0.0106 0.0908-0.0181 0.14017-0.0286 0.0491-0.0106 0.0988-0.0211 0.148-0.0308 0.0491-0.0106 0.10666-0.0223 0.16393-0.034 0.0568-0.012 0.12241-0.0263 0.17906-0.0376 0.0588-0.0131 0.1238-0.0269 0.1887-0.0399 0.064-0.0135 0.12848-0.0275 0.20057-0.0431l8e-4 1e-5c0.0677-0.015 0.14036-0.0297 0.21249-0.0452 0.0717-0.0156 0.14284-0.0313 0.22211-0.0482 0.0769-0.0162 0.15383-0.0327 0.23322-0.0498 0.0786-0.0175 0.15587-0.0339 0.24198-0.0529 0.0825-0.018 0.16609-0.0365 0.25155-0.055 0.085-0.0184 0.17618-0.0387 0.2611-0.0574 0.0886-0.0198 0.17829-0.04 0.27065-0.0604 0.0918-0.0203 0.18857-0.0415 0.2802-0.062 0.0949-0.0216 0.18895-0.0427 0.28819-0.065 0.0981-0.022 0.19834-0.0443 0.29694-0.0665 0.10038-0.0224 0.19969-0.0453 0.30568-0.0696 0.10285-0.0237 0.20687-0.0475 0.31286-0.0719 0.10542-0.0243 0.21301-0.0485 0.32084-0.0734 0.10909-0.0254 0.21849-0.0509 0.3288-0.0765 0.11099-0.0256 0.224-0.0525 0.33678-0.0789 0.11276-0.0264 0.22789-0.0532 0.34315-0.0802 0.11649-0.0275 0.23278-0.0555 0.35111-0.0834 0.11766-0.0279 0.23669-0.056 0.35748-0.0849 0.12017-0.0288 0.24264-0.0578 0.36467-0.0872s0.24513-0.0593 0.37024-0.0896c0.12448-0.0304 0.25028-0.0609 0.37663-0.0917 0.12636-0.0309 0.25401-0.0619 0.3822-0.0934 0.12806-0.0316 0.25807-0.0641 0.38858-0.0964 0.13052-0.0326 0.2618-0.0652 0.39415-0.098 0.1324-0.0331 0.26613-0.066 0.39975-0.0995 0.13359-0.0336 0.26847-0.0682 0.40455-0.10266 0.13543-0.0344 0.27217-0.069 0.40932-0.10412 0.13714-0.0352 0.27572-0.0701 0.41411-0.10567 0.13899-0.0357 0.27863-0.0719 0.41887-0.10802 0.14025-0.0364 0.28158-0.0735 0.4229-0.11033 0.14194-0.0372 0.28368-0.0744 0.42685-0.11193 0.14253-0.0374 0.28628-0.0755 0.43008-0.11341 0.14363-0.0381 0.28937-0.0762 0.43486-0.11496 0.14492-0.0388 0.29053-0.0789 0.43727-0.11809 0.1467-0.0396 0.29249-0.0788 0.44046-0.11886 0.1478-0.0401 0.296-0.0801 0.44444-0.12056 0.14841-0.0406 0.29698-0.0817 0.44605-0.12275 0.14889-0.041 0.29911-0.0828 0.44925-0.12433 0.1501-0.0419 0.30026-0.0829 0.45162-0.12514 0.1514-0.0423 0.30202-0.0849 0.45327-0.12748 0.1518-0.0429 0.30379-0.086 0.45564-0.129 0.15107-0.043 0.30356-0.0861 0.45648-0.1299 0.15167-0.0435 0.30515-0.0874 0.45805-0.13144 0.15291-0.0441 0.30487-0.0883 0.45885-0.13296 0.15338-0.0448 0.30772-0.0898 0.46049-0.13458 0.15343-0.045 0.30664-0.09 0.46049-0.1354 0.15326-0.0453 0.30743-0.0904 0.4613-0.13611 0.15401-0.0457 0.30772-0.0915 0.46212-0.13762 0.1536-0.046 0.30871-0.0931 0.46214-0.13935 0.15421-0.0466 0.30672-0.0932 0.46131-0.14014 0.15368-0.0468 0.30859-0.0939 0.46215-0.14085 0.15356-0.0469 0.30654-0.0942 0.46059-0.14166 0.15384-0.0475 0.3076-0.0948 0.46056-0.14246 0.153-0.0478 0.306-0.0953 0.45898-0.14327 0.15142-0.0476 0.30458-0.0963 0.45662-0.14405 0.15251-0.0482 0.30503-0.0959 0.45661-0.14406 0.15051-0.0479 0.30297-0.0974 0.45426-0.14577 0.15082-0.0483 0.30121-0.0962 0.45264-0.14504 0.14976-0.0483 0.30085-0.098 0.45029-0.14655 0.14944-0.0488 0.2988-0.0969 0.44873-0.14584 0.14973-0.0492 0.29742-0.098 0.44549-0.14661 0.14788-0.0488 0.29539-0.0976 0.44316-0.14662 0.14808-0.0492 0.29411-0.0984 0.44078-0.1474 0.1459-0.049 0.29276-0.098 0.4376-0.14669 0 0 0.0554-0.0195 0.1642-0.0561 0.10912-0.0367 0.27154-0.0914 0.48624-0.16443 0.214-0.0729 0.47904-0.16398 0.79315-0.27209 0.31357-0.10845 0.67607-0.23458 1.085-0.3776 0.40807-0.14369 0.86156-0.30442 1.3601-0.4825 0.49624-0.17869 1.0366-0.37499 1.617-0.58755 0.57791-0.21363 1.1958-0.44407 1.8516-0.69129 0.6523-0.24853 1.3412-0.51428 2.0648-0.7961 0.7189-0.28334 1.4706-0.58341 2.2534-0.89956 0.77663-0.31781 1.5829-0.65156 2.4157-1.0017 0.82538-0.35194 1.6767-0.71991 2.5502-1.1035 0.86441-0.38541 1.7497-0.78696 2.6538-1.2031 0.89316-0.41797 1.803-0.85087 2.7272-1.2984 0.91116-0.44919 1.8348-0.91263 2.7679-1.39 0.91806-0.47878 1.8437-0.97123 2.7744-1.4765 0.91357-0.5064 1.8306-1.0253 2.7475-1.5562 0.89759-0.53158 1.7932-1.0747 2.6848-1.6284 0.87005-0.55389 1.7339-1.118 2.5887-1.6914 0.83107-0.57299 1.6512-1.1547 2.4582-1.7445 0.78101-0.58856 1.5467-1.1847 2.2952-1.7868 0.72047-0.60014 1.4217-1.2055 2.1017-1.816 0.64993-0.60763 1.2767-1.2199 1.8789-1.8344 0.57043-0.6107 1.115-1.2232 1.6311-1.8372 0.48277-0.60934 0.93594-1.2193 1.3586-1.8284 0.3883-0.6032 0.74507-1.2051 1.0686-1.8047 0.28812-0.59259 0.54194-1.1816 0.76165-1.7669 0.18359-0.57769 0.33165-1.1503 0.44423-1.7173 0.0762-0.55802 0.11738-1.1099 0.12031-1.6542-0.0328-0.53446-0.10158-1.0608-0.20724-1.5784-0.14118-0.50715-0.31796-1.0049-0.53098-1.4925-0.24831-0.47667-0.53234-0.94228-0.85051-1.3968-0.35229-0.44271-0.73814-0.8742-1.1577-1.2928-0.45213-0.40668-0.93651-0.8008-1.4516-1.1821-0.54631-0.36863-1.1224-0.72428-1.7269-1.0661-0.63382-0.3292-1.2944-0.64431-1.9808-0.94589-0.71374-0.2888-1.4515-0.56367-2.2116-0.82468-0.78519-0.24868-1.5915-0.48262-2.4162-0.70303-0.84776-0.20774-1.7122-0.40175-2.5923-0.58201-0.90065-0.16845-1.8149-0.32319-2.7405-0.46459-0.94402-0.1298-1.8981-0.24662-2.8594-0.35078-0.9773-0.0927-1.96-0.17384-2.9471-0.24299-1.0009-0.058-2.0039-0.10436-3.0071-0.14033-1.0147-0.0253-2.0286-0.0419-3.0383-0.0467-1.0194 4e-3 -2.0336 0.0169-3.0408 0.0386-1.015 0.0304-2.0217 0.069-3.0179 0.11502m-63.608 16.837 2.8088-1.4253m63.826-15.213 3.6568-0.0165 3.5164 0.1073 3.3546 0.2333 3.1745 0.35989 2.9738 0.48782 2.7539 0.61323 2.5175 0.73917 2.2636 0.86329 1.9938 0.98416 1.7098 1.1024 1.4116 1.2174 1.1022 1.3266 0.78102 1.4318 0.45198 1.5305 0.11511 1.6227-0.22738 1.7086-0.57453 1.7864-0.92305 1.8563-1.2723 1.9175-1.6207 1.97-1.965 2.0121-2.3044 2.0448-2.6366 2.0672-2.9599 2.0794-3.272 2.0807-3.572 2.071-3.8568 2.0502-4.1265 2.0194-4.3769 1.9761-4.6089 1.9226-4.8195 1.8591-5.0076 1.7831-5.1718 1.6979-5.3112 1.6026-5.4244 1.4973-5.5104 1.3828-5.5686 1.2599-5.5989 1.1285-5.5989 0.98873-5.5702 0.84297-5.5113 0.6904-5.423 0.53258-5.3044 0.36952-5.1572 0.20294-4.9798 0.0326-4.7738-0.13902c-0.19055-0.0101-0.38077-0.0197-0.56741-0.0296-0.18671-0.0101-0.37189-0.0203-0.5547-0.0301-0.18225-0.0109-0.36203-0.0219-0.54036-0.0331-0.17835-0.011-0.35462-0.0234-0.52843-0.0346-0.17258-0.0108-0.34474-0.0224-0.51335-0.0353-0.16869-0.0127-0.33728-0.0249-0.50141-0.0375-0.16555-0.0126-0.32845-0.0263-0.4887-0.0388-0.16032-0.0127-0.31908-0.0254-0.47678-0.0395-0.15644-0.0141-0.3101-0.027-0.46325-0.0411-0.15253-0.0141-0.30276-0.0278-0.45135-0.0417-0.14795-0.014-0.29476-0.0285-0.43943-0.0422-0.14406-0.0139-0.28667-0.0297-0.4267-0.0437-0.1401-0.0153-0.27934-0.0297-0.41479-0.0437-0.13618-0.0153-0.26987-0.0288-0.40208-0.0442-0.13214-0.0157-0.26286-0.0297-0.39175-0.045-0.12836-0.015-0.25411-0.0296-0.37902-0.0449-0.12494-0.0153-0.24779-0.0295-0.36873-0.0447-0.1211-0.0146-0.23903-0.0301-0.35604-0.0453-0.11642-0.0148-0.23189-0.03-0.34491-0.0451-0.113-0.0151-0.22488-0.0301-0.33458-0.0451-0.10977-0.0145-0.21716-0.029-0.32348-0.044-0.10575-0.0148-0.20918-0.0302-0.31154-0.0449-0.10236-0.0152-0.20288-0.029-0.30126-0.0438-0.09827-0.0154-0.1954-0.0276-0.29094-0.0429-0.09507-0.0149-0.18822-0.0294-0.27986-0.0425-0.09163-0.0131-0.18121-0.029-0.26956-0.0415-0.08752-0.0134-0.17358-0.0276-0.25832-0.0414-0.08425-0.0128-0.16814-0.0266-0.24895-0.0397-0.08146-0.0133-0.16048-0.0261-0.23848-0.0398-0.07736-0.0136-0.15361-0.0258-0.2283-0.0389-0.07405-0.0131-0.14729-0.0257-0.21803-0.0369-0.07194-0.0115-0.14114-0.0245-0.20835-0.0361-0.06779-0.0117-0.13372-0.0231-0.19805-0.0353-0.06439-0.0118-0.12751-0.023-0.18869-0.0334-0.06038-0.0115-0.11915-0.0214-0.17674-0.0313-0.05758-0.01-0.1131-0.0206-0.16723-0.0304-0.05422-9e-3 -0.1061-0.019-0.15611-0.0288-0.05078-9e-3 -0.09917-0.0189-0.14575-0.0271-0.04742-8e-3 -0.09183-0.0171-0.13553-0.0253-0.04399-8e-3 -0.08557-0.0151-0.12523-0.0236-0.04088-7e-3 -0.07813-0.0148-0.1149-0.0212-0.03661-7e-3 -0.07192-0.0132-0.1046-0.0194-0.03311-7e-3 -0.06457-0.0128-0.09435-0.0178-0.02907-6e-3 -0.05751-0.01-0.08315-0.0147-0.02639-6e-3 -0.05024-9e-3 -0.07298-0.0131-0.02269-5e-3 -0.04413-8e-3 -0.06266-0.0112-0.01928-4e-3 -0.03692-6e-3 -0.05224-9e-3 -0.01607-3e-3 -0.02936-5e-3 -0.04114-7e-3 -0.01265-2e-3 -0.02252-3e-3 -0.03103-5e-3 -0.0087 3.9e-4 -0.01529-1e-3 -0.02061-2e-3 -0.0041-4.4e-4 -0.0092-2e-3 -0.0092 3e-4 -8.55e-4 2e-3 0.0015 2e-3 0.0015 2e-3 0.0028 2e-3 0.0076 3e-3 0.01317 5e-3 0.0069 4e-3 0.01294 5e-3 0.02363 9e-3 0.01043 2e-3 0.02428 6e-3 0.03476 0.01 0.01418 4e-3 0.03054 7e-3 0.04667 0.0129 0.01776 4e-3 0.03576 0.01 0.05761 0.0149 0.02031 7e-3 0.04207 0.01 0.06952 0.0172 0.02618 6e-3 0.05329 0.013 0.08075 0.0192 0.02735 6e-3 0.06063 0.0125 0.09351 0.0217 0.03281 9e-3 0.06582 0.0164 0.10468 0.0238 0.03374 8e-3 0.07707 0.0175 0.11568 0.0258 0.0443 9e-3 0.08686 0.0194 0.13238 0.029 0.04623 0.01 0.0945 0.0198 0.14414 0.0312l0.0031-5e-3c0.04994 0.0104 0.10049 0.0209 0.15368 0.0319 0.04958 0.01 0.10458 0.0217 0.16391 0.0349 0.05946 0.0112 0.11822 0.0243 0.17738 0.0364 0.05996 0.0113 0.12452 0.0245 0.18862 0.0375 0.06486 0.0129 0.1284 0.0262 0.19799 0.0393 0.0654 0.0131 0.14026 0.0274 0.20919 0.0404 0.07163 0.0131 0.14516 0.0283 0.21946 0.0414 0.07479 0.0151 0.15078 0.0284 0.23057 0.0432 0.0778 0.0147 0.15635 0.0284 0.24089 0.0432 0.08246 0.0147 0.16668 0.0304 0.25114 0.0452 0.08516 0.015 0.17222 0.0304 0.26152 0.0452 0.08919 0.0148 0.17789 0.0304 0.27271 0.0462 0.09335 0.0145 0.18829 0.0313 0.28297 0.0461 0.09595 0.016 0.19329 0.0303 0.29324 0.047 0.09925 0.0167 0.20083 0.0317 0.30356 0.048 0.10329 0.0163 0.20884 0.0302 0.31472 0.0471 0.10657 0.017 0.21352 0.031 0.32346 0.0479 0.10991 0.0166 0.22125 0.0309 0.33454 0.0474 0.11314 0.0172 0.22828 0.0316 0.34486 0.0483 0.11662 0.0149 0.23452 0.0318 0.3544 0.0469 0.11914 0.0153 0.24077 0.0326 0.36395 0.0478 0.12318 0.015 0.24844 0.031 0.37426 0.0463 0.12633 0.0157 0.25406 0.0312 0.3838 0.0464 0.12966 0.0153 0.26119 0.0306 0.39414 0.0458 0.13298 0.0148 0.26745 0.0296 0.40366 0.045 0.13552 0.0154 0.27361 0.0289 0.41241 0.0442 0.13937 0.0139 0.27992 0.029 0.42192 0.0429 0.14265 0.0139 0.28559 0.0282 0.43149 0.0421 0.14588 0.0139 0.29334 0.0269 0.44182 0.0409 0.14844 0.0139 0.2987 0.026 0.44976 0.04 0.1523 0.0125 0.30524 0.026 0.46011 0.0384 0.15483 0.0126 0.3113 0.0246 0.46807 0.0371 0.15735 0.0125 0.31544 0.0244 0.47602 0.0354 0.16057 0.0108 0.32181 0.023 0.48557 0.0341 0.1631 0.0108 0.32869 0.0208 0.49434 0.0316 0.16628 0.0109 0.33349 0.0214 0.50226 0.0311 0.16877 0.01 0.33958 0.0193 0.51025 0.0288 0.17188 0.01 0.34444 0.0177 0.51822 0.0264 0.17443 8e-3 0.35005 0.0162 0.52696 0.0249 0.17754 8e-3 0.35473 0.0163 0.53414 0.0228 0.17936 8e-3 0.3594 0.0148 0.5413 0.0216 0.18249 7e-3 0.3649 0.0133 0.54926 0.0185 0.18432 7e-3 0.36961 0.0123 0.55644 0.0171 0.18678 5e-3 0.3734 0.0102 0.56202 0.0144 0.1892 4e-3 0.37953 7e-3 0.56999 0.0115 0.19165 4e-3 0.38351 6e-3 0.57636 0.01 0.19284 3e-3 0.38743 5e-3 0.58276 7e-3 0.19532 2e-3 0.39187 4e-3 0.58833 5e-3 0.19769 1.3e-4 0.39568 2e-3 0.59392 2e-3 0.19886-3.3e-4 0.39883-5.3e-4 0.59953-1e-3 0.20123-4.6e-4 0.40347-3e-3 0.60588-4e-3 0.20242-5.2e-4 0.405-3e-3 0.60989-5e-3 0.20417-3e-3 0.40948-4e-3 0.6155-8e-3 0.2059-4e-3 0.41238-8e-3 0.61948-0.0113 0.20705-6e-3 0.41394-8e-3 0.62347-0.0135 0.20818-6e-3 0.4167-0.0114 0.62669-0.0167 0.20994-7e-3 0.42025-0.0119 0.63068-0.0191 0.21232-7e-3 0.42376-0.015 0.6347-0.0214 0.21214-8e-3 0.42458-0.0161 0.63792-0.0242 0.21392-8e-3 0.42732-0.0172 0.64106-0.0274 0.21434-0.0102 0.42867-0.0193 0.6435-0.0295 0.21615-0.0102 0.42848-0.0213 0.64512-0.0326 0.2146-0.0113 0.43017-0.0234 0.64597-0.0346 0.21574-0.0114 0.43147-0.0245 0.64839-0.0368 0 0 0.08307-4e-3 0.24632-0.0148 0.16324-0.0105 0.4077-0.0252 0.73264-0.0451 0.32475-0.0219 0.72792-0.0493 1.2087-0.0831 0.4824-0.0352 1.0405-0.0775 1.6769-0.12783 0.63658-0.0527 1.3491-0.11318 2.1349-0.18392 0.78896-0.0742 1.6509-0.15943 2.5875-0.25577 0.93814-0.1008 1.9493-0.21434 3.0308-0.34127 1.0846-0.13306 2.2395-0.28076 3.4631-0.44437 1.2258-0.17058 2.5209-0.35932 3.8805-0.5651 1.3621-0.21466 2.7893-0.44815 4.2783-0.70196 1.4899-0.26389 3.0408-0.5488 4.6493-0.85577 1.6077-0.3182 3.2709-0.65944 4.9871-1.0242 1.7126-0.37692 3.476-0.77893 5.2845-1.2051 1.802-0.43911 3.6478-0.90404 5.532-1.3945 1.8736-0.50379 3.783-1.0338 5.7232-1.59 1.9244-0.56955 3.876-1.1651 5.8493-1.7871 1.9526-0.63507 3.9226-1.2963 5.9047-1.9826 1.9552-0.69859 3.9178-1.4227 5.8822-2.1703 1.9314-0.75879 3.8594-1.5404 5.7786-2.3446 1.8794-0.81371 3.7451-1.6487 5.5906-2.5031 1.7987-0.8619 3.5722-1.7419 5.3158-2.6388 1.6903-0.90209 3.345-1.8191 4.959-2.7492 1.5545-0.93267 3.0631-1.8766 4.5216-2.8296 1.3927-0.95244 2.7311-1.9122 4.0099-2.8767 1.2079-0.9608 2.3528-1.924 3.4312-2.888 1.0032-0.95712 1.9367-1.9129 2.7973-2.8642 0.78186-0.94106 1.4884-1.8758 2.1177-2.802 0.54843-0.91262 1.0176-1.8145 1.4067-2.7037 0.30723-0.87234 0.53373-1.7298 0.67861-2.5706 0.0631-0.82116 0.0453-1.6236-0.0537-2.4058-0.17908-0.75966-0.43795-1.4974-0.77535-2.2115-0.41488-0.68958-0.90665-1.3538-1.4727-1.9922-0.63965-0.61228-1.3506-1.1975-2.1312-1.7543-0.84937-0.52916-1.7648-1.0297-2.7423-1.5008-1.0408-0.44255-2.1394-0.85524-3.2932-1.2379-1.2105-0.35403-2.4715-0.67801-3.7782-0.9718-1.3568-0.26548-2.7546-0.50072-4.1893-0.70648-1.4778-0.17785-2.9871-0.32615-4.5242-0.44663-1.5728-0.0935-3.1682-0.16001-4.7811-0.19947-1.6417-0.0136-3.297-2e-3 -4.96 0.0336-1.6853 0.06-3.3739 0.14357-5.0625 0.24838m3.6626 0.58456c0.11097-4e-3 0.22234-7e-3 0.3336-0.0104 0.11063-4e-3 0.22138-6e-3 0.33203-8e-3 0.11082-2e-3 0.22148-6e-3 0.33201-7e-3 0.10985-4e-3 0.2202-5e-3 0.3304-7e-3 0.10969-2e-3 0.22001-3e-3 0.3296-5e-3 0.10955-2e-3 0.21857-2e-3 0.32798-4e-3 0.10926-2e-3 0.21842-3e-3 0.32721-4e-3 0.1083-6.3e-4 0.21739-2e-3 0.32558-2e-3 0.10819-2e-3 0.21567-2e-3 0.32321-2e-3 0.1076-6e-4 0.21463-6.6e-4 0.3216-1e-3 0.10684-5.6e-4 0.21383 3.8e-4 0.31998 5.7e-4 0.10644-5.4e-4 0.21222 4.7e-4 0.31762 5.9e-4 0.10536 5.2e-4 0.21026 1e-3 0.3152 2e-3 0.10439 5.7e-4 0.20742 2e-3 0.31206 3e-3 0.10338 2e-3 0.20776 2e-3 0.30964 4e-3 0.10281 2e-3 0.20448 3e-3 0.30726 6e-3 0.10186 2e-3 0.20515 3e-3 0.30483 5e-3 0.10094 3e-3 0.20039 4e-3 0.30088 6e-3 0.0999 3e-3 0.20092 5e-3 0.29849 8e-3 0.0988 3e-3 0.19744 5e-3 0.29527 8e-3 0.0978 4e-3 0.1959 7e-3 0.29128 9e-3 0.0962 3e-3 0.19152 5e-3 0.28737 9e-3 0.0953 4e-3 0.19202 7e-3 0.28495 0.0112 0.0939 4e-3 0.18693 7e-3 0.28019 0.0113 0.0933 4e-3 0.18664 8e-3 0.27696 0.0121 0.0916 4e-3 0.18225 8e-3 0.27298 0.0121 0.0895 6e-3 0.18026 0.01 0.26822 0.014 0.0879 4e-3 0.17595 0.01 0.26423 0.0138 0.0881 4e-3 0.17667 0.01 0.26187 0.0137 0.085 4e-3 0.16987 8e-3 0.25556 0.0137 0.0822 6e-3 0.16815 0.01 0.25076 0.0152 0.0858 6e-3 0.16669 0.01 0.24837 0.0151 0.0813 6e-3 0.16296 0.0108 0.2428 0.0165l1.9096 0.15097 1.8535 0.19488 1.7926 0.23942 1.727 0.28396 1.6558 0.32998 1.5823 0.37445 1.5023 0.42119 1.4176 0.46628 1.3306 0.51138 1.238 0.5571 1.1414 0.60212 1.0408 0.6462 0.9363 0.6903 0.8278 0.73354 0.71626 0.77668 0.60138 0.81754 0.48259 0.85905 0.36223 0.89818 0.23715 0.93729 0.11132 0.97475-0.0174 1.0098-0.14843 1.0441-0.28136 1.0767-0.41622 1.1077-0.5512 1.1364-0.6881 1.1634-0.82417 1.1889-0.9626 1.2119-1.1002 1.2318-1.237 1.2501-1.3737 1.2661-1.5097 1.2788-1.644 1.29-1.7767 1.298-1.9085 1.3037-2.0364 1.3054-2.1619 1.3056-2.2857 1.3026-2.4056 1.2964-2.5214 1.2872-2.6332 1.2756-2.741 1.2601-2.8448 1.2414-2.9423 1.2213-3.0349 1.1964-3.1227 1.1692-3.2042 1.1397-3.2784 1.1056-3.3479 1.0698-3.4102 1.031-3.4637 0.98828-3.5124 0.94407-3.5524 0.89676-3.5852 0.8464-3.61 0.79368-3.626 0.73792-3.6349 0.68065-3.635 0.62109-3.6264 0.55843-3.609 0.49358-3.5836 0.42797-3.5495 0.36002-3.5058 0.29067-3.4542 0.21894c-0.14133 7e-3 -0.28076 0.0138-0.4195 0.0215-0.13619 6e-3 -0.27348 0.0146-0.40837 0.0207-0.1349 6e-3 -0.26926 0.012-0.39962 0.0188-0.13101 6e-3 -0.26016 0.0105-0.38926 0.0183-0.12517 5e-3 -0.25431 0.0112-0.37891 0.0167-0.12401 6e-3 -0.24742 0.01-0.37017 0.0153-0.12016 4e-3 -0.24173 0.01-0.35989 0.0137-0.11963 4e-3 -0.23324 8e-3 -0.34952 0.0132-0.11692 4e-3 -0.22889 8e-3 -0.34 0.0117-0.11175 5e-3 -0.21999 8e-3 -0.33047 0.0112-0.10798 4e-3 -0.21491 6e-3 -0.3201 0.0106-0.10467 3e-3 -0.20721 6e-3 -0.31056 9e-3 -0.10209 3e-3 -0.20214 7e-3 -0.30026 9e-3 -0.09871 2e-3 -0.19388 6e-3 -0.29071 7e-3 -0.09493 2e-3 -0.18957 4e-3 -0.28116 6e-3 -0.09164 2e-3 -0.18055 4e-3 -0.27081 6e-3 -0.08839 2e-3 -0.17608 3e-3 -0.26051 5e-3 -0.08505 2e-3 -0.1679 3e-3 -0.25097 5e-3 -0.08188 1e-3 -0.16277 3e-3 -0.24065 4e-3 -0.07853 1e-3 -0.1558 3e-3 -0.23112 3e-3 -0.07586 2e-3 -0.14974 3e-3 -0.22241 4e-3 -0.07124 2e-3 -0.1419 1e-3 -0.21124 3e-3 -0.0687 2e-3 -0.13631 1e-3 -0.20171 2e-3 -0.06597 1e-3 -0.13084 2e-3 -0.193 3e-3 -0.06215 1e-3 -0.12298 1e-3 -0.1819 2e-3 -0.05947-9.1e-4 -0.11697 1e-3 -0.17315 1e-3 -0.05558 8.9e-4 -0.10914 6.7e-4 -0.16198 1e-3 -0.05217 2e-3 -0.10433 4.2e-4 -0.1533 9.7e-4 -0.04903 2e-3 -0.09727 1e-3 -0.14297 1e-3 -0.04639 1e-3 -0.09054 2e-3 -0.13339 2e-3 -0.04309 2e-3 -0.08408 2e-3 -0.12385 1e-3 -0.03897 2e-5 -0.07635-3e-5 -0.11271 8.6e-4 -0.03562-1.5e-4 -0.07081 6.8e-4 -0.10326 3.7e-4 -0.03386-2.4e-4 -0.06479 3.6e-4 -0.09444 9.1e-4 -0.02911-4.9e-4 -0.05685 9.5e-4 -0.08335 1e-3 -0.02651 3.8e-4 -0.05078 6.4e-4 -0.07397 8.5e-4 -0.02296 1.9e-4 -0.04508 3.4e-4 -0.06433 1e-3 -0.01958-9.8e-4 -0.03755 1e-3 -0.05412 8.2e-4 -0.01651 9.6e-4 -0.03116 6.2e-4 -0.04355 1e-3 -0.01284-3.3e-4 -0.0244 5e-4 -0.03416 2e-3 -0.0094-5.1e-4 -0.01713-1.1e-4 -0.02361 2e-3 -0.0067 7.9e-4 -0.01071 1e-5 -0.01267 2e-3 -0.0031-2.5e-4 -0.0054 0-0.0054 0 7.65e-4 4.4e-4 0.0031 2.5e-4 0.0068 2e-3 0.0041 4.4e-4 0.01123 2e-3 0.01654 2e-3 0.0086-4.1e-4 0.01666 8e-5 0.02925 1e-3 0.01116 1e-3 0.02381 2e-3 0.03727 1e-3 0.01491 1e-3 0.02858 2e-3 0.04842 3e-3 0.01819 5e-5 0.03871 9.9e-4 0.05947 9.1e-4 0.02169 2e-3 0.04326 7.5e-4 0.07062 1e-3 0.02521 6.9e-4 0.05317 1e-3 0.08169 2e-3 0.02858 2e-3 0.05612 1e-3 0.09129 1e-3 0.03178 1e-3 0.06708 5.1e-4 0.10248 6.7e-4 0.03668 1e-4 0.07178 1e-3 0.11435 2e-3 0.03994-7e-5 0.08146 7.7e-4 0.12466 2e-3 0.04249 7.9e-4 0.08604 2e-3 0.13573 2e-3 0.04721 5.5e-4 0.09703-4e-5 0.14693 3.7e-4 0.05174 3.1e-4 0.10168 7.1e-4 0.158 7.9e-4 0.05714 1e-3 0.11382 1e-3 0.17149 1e-3 0.05714 1e-3 0.11508 2e-5 0.17944-3.2e-4 0.06371 6.9e-4 0.12783 3.5e-4 0.19217 1.1e-4 0.07023-2e-3 0.13474-2e-3 0.20565-6.9e-4 0.0656-1e-3 0.14025-2.9e-4 0.21439-5.5e-4 0.0742 1e-3 0.15054 1.8e-4 0.22868-2.8e-4 0.07874-1e-3 0.15843-1e-3 0.23982-2e-3 0.08335-1e-3 0.16761-2e-3 0.25095-2e-3 0.08337-2e-3 0.16652-3e-3 0.25568-3e-3 0.08914-6.4e-4 0.17751-3e-3 0.26602-3e-3 0.09509-2e-3 0.18279-2e-3 0.2772-4e-3 0.09437-2e-3 0.1884-3e-3 0.28276-5e-3 0.09821-1e-3 0.19246-3e-3 0.29145-5e-3 0.09622-2e-3 0.20134-3e-3 0.30021-6e-3 0.09895-2e-3 0.20403-6e-3 0.30817-7e-3 0.10414-1e-3 0.21205-6e-3 0.3161-7e-3 0.10663-4e-3 0.21417-5e-3 0.32405-9e-3 0.10986-4e-3 0.22199-7e-3 0.33122-0.0102 0.11183-4e-3 0.22471-7e-3 0.33919-0.01 0.11437-4e-3 0.23262-8e-3 0.34638-0.011 0.11694-5e-3 0.23411-8e-3 0.3543-0.0124 0.11881-4e-3 0.24185-8e-3 0.36064-0.0138 0.12209-4e-3 0.24317-0.01 0.36779-0.0151 0.12464-4e-3 0.2512-9e-3 0.37575-0.0166 0.12593-7e-3 0.25079-0.0111 0.38055-0.0168 0.1284-7e-3 0.25676-0.0125 0.38769-0.0192 0.1303-7e-3 0.26106-0.0131 0.39326-0.0195 0.13225-7e-3 0.26634-0.0141 0.40044-0.0218 0.13475-7e-3 0.26939-0.0138 0.40599-0.0215 0.13592-7e-3 0.27373-0.0163 0.41154-0.0244 0.13848-7e-3 0.2774-0.0154 0.41715-0.0247 0.14034-9e-3 0.28052-0.0176 0.42275-0.027 0.14166-8e-3 0.28402-0.0178 0.42747-0.0273 0.14345-9e-3 0.28841-0.02 0.43308-0.0296 0.14537-0.0106 0.2905-0.0201 0.43706-0.0308 0.14656-0.0106 0.29326-0.0213 0.44103-0.032 0.14903-0.0108 0.29779-0.0235 0.44744-0.0338 0.14895-0.0108 0.29911-0.0226 0.45062-0.0346 0.1502-0.0118 0.30255-0.0248 0.45461-0.037 0.15206-0.0119 0.30531-0.0259 0.45859-0.0377 0.1533-0.013 0.30728-0.026 0.46179-0.0392 0.15448-0.0131 0.30933-0.027 0.46498-0.0408 0.1557-0.0131 0.31129-0.0274 0.46815-0.0416 0.15748-0.0152 0.31474-0.0291 0.47217-0.0438 0.15738-0.0152 0.31514-0.0302 0.47376-0.0456 0.15862-0.0153 0.31778-0.0306 0.47696-0.0462 0.15905-0.0163 0.319-0.0313 0.47934-0.0478 0.15972-0.0163 0.32075-0.0324 0.48097-0.0494 0.16095-0.0164 0.3219-0.0336 0.48335-0.051 0.1608-0.0174 0.3222-0.0346 0.48418-0.0524 0.16136-0.0174 0.32324-0.0348 0.48575-0.0532 0.16182-0.0184 0.32534-0.0371 0.48664-0.0545 0.16316-0.0185 0.32535-0.0371 0.48894-0.0567 0.16305-0.0187 0.32664-0.0382 0.48823-0.0577 0.1629-0.0195 0.3255-0.0391 0.48899-0.0588 0.16346-0.0196 0.32836-0.0394 0.48978-0.0599 0.16324-0.0207 0.32659-0.0403 0.48986-0.0609 0.16322-0.0208 0.32708-0.0424 0.48902-0.0628 0.16253-0.0208 0.32516-0.0423 0.48824-0.0637 0.16245-0.0214 0.32722-0.0429 0.48828-0.0644 0.16234-0.0219 0.32444-0.0439 0.48675-0.0655 0.16219-0.0221 0.3255-0.044 0.48506-0.0663 0.16214-0.0225 0.32292-0.0448 0.48438-0.0673 0.16087-0.0223 0.3233-0.0469 0.48279-0.0691 0.15936-0.023 0.31958-0.0454 0.47956-0.0686 0.16059-0.0232 0.32162-0.0477 0.47962-0.0706 0.15802-0.0229 0.3165-0.047 0.47562-0.0711 0.15588-0.0236 0.31597-0.0469 0.47248-0.0707 0.16036-0.0243 0.31593-0.048 0.47166-0.0726 0.15649-0.0237 0.3118-0.0484 0.46691-0.0724l3.7565-0.62132 3.7604-0.68638 3.7564-0.74835 3.742-0.80887 3.718-0.86553 3.6868-0.91986 3.6461-0.97194 3.5975-1.0201 3.5416-1.066 3.4761-1.1088 3.4044-1.1478 3.3254-1.1844 3.2392-1.2164 3.1458-1.2468 3.0469-1.2725 2.9415-1.2952 2.8313-1.3154 2.7148-1.3311 2.5942-1.3435 2.4689-1.3537 2.3396-1.3599 2.2054-1.3622 2.0696-1.363 1.9298-1.359 1.7876-1.3527 1.643-1.3432 1.4967-1.3306 1.3489-1.3148 1.201-1.2974 1.0506-1.276 0.90115-1.2523 0.75155-1.227 0.60273-1.1977 0.45388-1.1677 0.30666-1.1344 0.16091-1.0995 0.017-1.063-0.12497-1.0234-0.26518-0.98363-0.40146-0.94153-0.53536-0.89776-0.66684-0.85322-0.79361-0.80702-0.91726-0.76077-1.0369-0.71207-1.1526-0.66336-1.2635-0.61381-1.3697-0.56423-1.4719-0.51374-1.5693-0.46322-1.6612-0.41191-1.7484-0.36123-1.8308-0.31131-1.9067-0.25977-1.9788-0.20979-2.0436-0.15971-2.1054-0.11115-2.1599-0.0617-2.2096-0.0142-2.2539 0.0332-2.2925 0.0789m1.9888 0.58787 1.2446-0.0248 1.2404-0.0106 1.2363 5e-3 1.2306 0.02 1.2232 0.0362 1.2135 0.0533 1.203 0.07 1.1908 0.0882 1.1764 0.10531 1.1611 0.12435 1.1434 0.1431 1.1241 0.16288 1.1025 0.18242 1.08 0.20218 1.0551 0.22236 1.0279 0.2443 0.9999 0.26466 0.96947 0.28566 0.93663 0.3084 0.90238 0.33 0.86548 0.35202 0.82793 0.37389 0.78715 0.39717 0.74483 0.41977 0.70089 0.44226 0.65378 0.46555 0.60669 0.48809 0.55639 0.5113 0.50372 0.53376 0.45109 0.55694 0.39438 0.57939 0.33701 0.60251 0.27801 0.62409 0.21737 0.64723 0.15443 0.66795 0.0895 0.6903 0.0238 0.71094-0.0432 0.73244-0.11173 0.75227-0.18254 0.77216-0.25386 0.7913-0.32684 0.811-0.40082 0.82843-0.47567 0.84582-0.5521 0.86242-0.6285 0.87903-0.70648 0.89326-0.7853 0.90825-0.86322 0.92165-0.94361 0.9342-1.0223 0.94525-1.1026 0.95548-1.1821 0.96567-1.2624 0.97273-1.3419 0.98053-1.4222 0.9868-1.5 0.99066c-0.0632 0.0408-0.12602 0.0813-0.18561 0.11939-0.0599 0.0384-0.1192 0.0761-0.17837 0.1138-0.0593 0.0377-0.11492 0.0732-0.17036 0.1084-0.0555 0.0353-0.11067 0.0702-0.16235 0.10298-0.0526 0.0334-0.1034 0.0661-0.15432 0.0983-0.0502 0.0318-0.10005 0.0624-0.14718 0.092-0.048 0.0299-0.0929 0.0583-0.13912 0.0875-0.0449 0.0284-0.0879 0.0563-0.13021 0.0828-0.0424 0.0262-0.0847 0.0523-0.12323 0.0762-0.0396 0.025-0.0781 0.049-0.11581 0.0726-0.0375 0.0231-0.0736 0.046-0.10724 0.0671-0.034 0.0214-0.068 0.0426-0.1 0.0624-0.0325 0.02-0.0631 0.0392-0.0925 0.0577-0.0295 0.0186-0.0582 0.036-0.0857 0.0529-0.0276 0.0169-0.053 0.0329-0.0776 0.0483-0.0243 0.0154-0.048 0.0313-0.0704 0.0445-0.0222 0.0134-0.0429 0.0267-0.0624 0.0388-0.02 0.0115-0.0389 0.0245-0.056 0.0351-0.0173 0.01-0.0326 0.0213-0.0482 0.0301-0.0158 9e-3 -0.0296 0.0187-0.0415 0.0266-0.0128 9e-3 -0.0243 0.0166-0.0354 0.0225-0.0105 8e-3 -0.0199 0.0114-0.0273 0.0179-9e-3 4e-3 -0.0157 9e-3 -0.0212 0.0138-7e-3 6e-3 -0.01 9e-3 -0.0137 0.0111-4e-3 4e-3 -7e-3 6e-3 -9e-3 6e-3 -7.2e-4 2e-3 -2e-3 3e-3 -7.9e-4 4e-3 1e-5 3.3e-4 2e-3 -2.6e-4 6e-3 -2e-3 3e-3 2.3e-4 5e-3 -1e-3 0.0111-4e-3 5e-3 -2e-3 0.0105-8e-3 0.0179-8e-3 8e-3 -1e-3 0.0142-8e-3 0.0234-0.0118 7e-3 -5e-3 0.0171-9e-3 0.0276-0.0156 0.0105-8e-3 0.0226-0.0137 0.035-0.0196 0.0117-8e-3 0.0259-0.0153 0.04-0.0226 0.0137-8e-3 0.0313-0.0176 0.0479-0.0264 0.0166-0.01 0.0363-0.0193 0.0535-0.0303 0.0192-0.011 0.0382-0.0224 0.06-0.0342 0.0207-0.012 0.045-0.0269 0.0673-0.0388 0.0236-0.0131 0.0464-0.0265 0.0727-0.0421 0.0257-0.0152 0.0528-0.0301 0.08-0.0461 0.028-0.016 0.0544-0.0322 0.0855-0.0505 0.0297-0.0176 0.0608-0.0351 0.0925-0.0538 0.0312-0.0187 0.0658-0.0397 0.0976-0.0584 0.0342-0.0202 0.0687-0.0401 0.10477-0.0615 0.0359-0.0217 0.0738-0.0443 0.11026-0.0662 0.0378-0.0221 0.0764-0.0451 0.11657-0.0694 0.0411-0.025 0.0816-0.0494 0.12239-0.0741 0.0424-0.0262 0.0833-0.0501 0.12787-0.0772 0.045-0.0273 0.0902-0.0538 0.13507-0.0809 0.0464-0.0284 0.0914-0.0563 0.1399-0.0857 0.0483-0.0295 0.097-0.0591 0.14561-0.0889 0.0483-0.0297 0.097-0.0597 0.14944-0.0921 0.0522-0.0319 0.10421-0.0649 0.15671-0.0976 0.0524-0.0325 0.1039-0.0649 0.15994-0.0999 0.0559-0.0349 0.11106-0.069 0.16791-0.10457 0.0547-0.0344 0.11189-0.0706 0.17035-0.1076 0.0586-0.0369 0.11761-0.0743 0.17759-0.11227 0.0626-0.0397 0.12305-0.0784 0.18475-0.11781 0.0624-0.04 0.12397-0.0795 0.18636-0.11941 0.0658-0.0422 0.12832-0.0826 0.19363-0.1249 0.0653-0.0422 0.13007-0.0848 0.19521-0.12713 0.065-0.0424 0.13346-0.0864 0.20155-0.13113 0.0681-0.0448 0.1395-0.0918 0.20723-0.13653 0.0683-0.0452 0.1389-0.0927 0.20961-0.13977 0.07-0.0467 0.14085-0.0937 0.21444-0.14293l-4e-3 5e-3c0.0718-0.0482 0.14446-0.0974 0.2168-0.146 0.072-0.0488 0.14339-0.097 0.21762-0.14771 0.0727-0.0496 0.14616-0.0999 0.21925-0.14995 0.0728-0.0501 0.14417-0.0989 0.21929-0.1507 0.0737-0.0508 0.14714-0.10248 0.22093-0.15391 0.0731-0.0511 0.14852-0.10306 0.22091-0.1539 0.0734-0.0515 0.14653-0.10376 0.2209-0.15633 0.0739-0.0523 0.14873-0.10588 0.22174-0.15788 0.074-0.0529 0.14718-0.10549 0.22173-0.15951 0.074-0.0533 0.14783-0.10693 0.22097-0.16029 0.0742-0.0537 0.147-0.10699 0.22179-0.16184 0.0733-0.0542 0.14672-0.10917 0.22018-0.1635 0.0737-0.0545 0.14701-0.10888 0.22017-0.16349 0.0732-0.0554 0.14621-0.10973 0.21942-0.16508 0.0729-0.0553 0.14601-0.11065 0.21865-0.16589 0.0726-0.055 0.14464-0.11099 0.2171-0.16663 0.0724-0.056 0.14436-0.11172 0.21627-0.16751 0.0719-0.0556 0.14385-0.11146 0.2155-0.16748 0.0712-0.0563 0.14237-0.11206 0.21311-0.16829 0.0708-0.056 0.14112-0.11271 0.21153-0.16914 0.0702-0.0567 0.14021-0.11256 0.20991-0.16918 0.07-0.0565 0.13888-0.11356 0.20839-0.16996 0.0684-0.0565 0.13836-0.11303 0.20678-0.16995 0.0684-0.0566 0.13688-0.11309 0.2044-0.16999 0.0675-0.0571 0.13452-0.11361 0.20171-0.17037 0.0669-0.0566 0.13327-0.11253 0.19933-0.16958 0.0657-0.0568 0.13255-0.11316 0.19821-0.16992 0.0657-0.0567 0.13003-0.11353 0.19514-0.16982 0.0646-0.0572 0.12879-0.11251 0.19275-0.16903 0.0636-0.0565 0.12713-0.11228 0.1904-0.16822 0.0626-0.056 0.12536-0.11247 0.18774-0.16862 0.0616-0.056 0.12347-0.11198 0.18452-0.16783 0.0607-0.0556 0.12105-0.11225 0.18122-0.16801 0.06-0.0556 0.11969-0.11103 0.17912-0.16614 0.0591-0.0561 0.11694-0.10987 0.17606-0.16604 0.0579-0.0552 0.11564-0.10999 0.17285-0.16448 0.0567-0.0552 0.11289-0.10893 0.16938-0.16407 0.0557-0.0545 0.11234-0.10977 0.16702-0.16326 0.0553-0.054 0.10896-0.10801 0.16307-0.1625 0.0539-0.0541 0.10756-0.10816 0.15984-0.16096 0.053-0.0534 0.10441-0.10661 0.15668-0.15938 0.0513-0.0531 0.10211-0.10455 0.15349-0.15787 0.0504-0.0524 0.10089-0.10519 0.15019-0.15709 0.0495-0.0515 0.0975-0.1032 0.14636-0.15556 0.0482-0.0518 0.096-0.10252 0.14314-0.15322 0.0465-0.0503 0.0933-0.10149 0.13978-0.15253 0.0451-0.0503 0.0923-0.10134 0.13663-0.15088 0.0442-0.0495 0.0885-0.0982 0.13273-0.14785 0.0433-0.0487 0.0874-0.099 0.12945-0.147 0.0418-0.0487 0.0836-0.0964 0.12552-0.14469 0.0414-0.0483 0.0833-0.0973 0.12314-0.14392 0.0399-0.0469 0.0789-0.0937 0.11828-0.14085 0.0395-0.0466 0.079-0.0938 0.11667-0.13927 0.037-0.0456 0.0744-0.0908 0.11108-0.1361 0.0371-0.0457 0.0738-0.0902 0.10959-0.13459 0.0355-0.0442 0.0703-0.0883 0.1047-0.13141 0.0331-0.0422 0.0673-0.0857 0.10074-0.1282 0.0331-0.0421 0.0657-0.0844 0.0982-0.12674 0.0313-0.0405 0.0634-0.0825 0.0944-0.12277 0.0303-0.0408 0.0613-0.0816 0.092-0.12203 0.0302-0.0408 0.0586-0.0791 0.0871-0.1181 0.0283-0.0391 0.0564-0.0761 0.0846-0.1151 0.0279-0.0387 0.054-0.0762 0.0807-0.11345 0.0263-0.0373 0.0532-0.0737 0.0782-0.10943 0 0 0.01-0.0134 0.0266-0.0387 0.0179-0.0256 0.044-0.063 0.0789-0.11344 0.0341-0.0503 0.0764-0.11271 0.12596-0.18596 0.049-0.0737 0.10469-0.15789 0.16725-0.2538 0.0616-0.0955 0.12964-0.20229 0.20297-0.31928 0.0718-0.11654 0.14817-0.24271 0.22903-0.37933 0.0789-0.13601 0.16229-0.28229 0.24793-0.43709 0.0831-0.15424 0.16827-0.31701 0.25572-0.48862 0.0842-0.17062 0.16987-0.34948 0.25535-0.53626 0.0818-0.18564 0.16275-0.37929 0.24316-0.57929 0.0764-0.19871 0.15093-0.40416 0.22254-0.6162 0.0668-0.21028 0.13069-0.42629 0.19084-0.64812 0.0544-0.2202 0.10502-0.44562 0.15053-0.67564 0.0389-0.22825 0.0723-0.46115 0.0999-0.69761 0.0205-0.23432 0.034-0.47227 0.0414-0.71339-3e-4 -0.23864-8e-3 -0.47978-0.0244-0.72365-0.024-0.24109-0.0562-0.48422-0.0972-0.72925-0.0494-0.24193-0.10779-0.48569-0.17598-0.73012-0.0766-0.24108-0.16365-0.48274-0.26017-0.72474-0.10525-0.23855-0.22093-0.4774-0.34685-0.71539-0.1349-0.23449-0.27976-0.46756-0.43593-0.70052-0.16489-0.22886-0.34107-0.45651-0.52747-0.68249-0.19539-0.22191-0.40075-0.44222-0.61745-0.66048-0.22516-0.21381-0.46117-0.42544-0.70748-0.63447-0.25466-0.20483-0.5193-0.40691-0.79433-0.60612-0.28303-0.19464-0.57564-0.38636-0.87807-0.57451-0.31015-0.18385-0.62947-0.36446-0.95783-0.54125-0.33559-0.17221-0.67976-0.34014-1.0321-0.50477-0.35925-0.1604-0.72652-0.31664-1.1008-0.469-0.38078-0.14766-0.76815-0.29233-1.1622-0.43204-0.3998-0.13567-0.80604-0.26716-1.2176-0.39404-0.41645-0.12273-0.83784-0.2413-1.264-0.3558-0.4306-0.11042-0.86529-0.21684-1.3034-0.31883-0.44216-0.0981-0.88725-0.19198-1.3347-0.28188-0.45096-0.0859-0.90353-0.16797-1.3575-0.24626-0.45704-0.0748-0.91537-0.14579-1.3737-0.21249-0.4605-0.0637-0.92009-0.12377-1.3796-0.18001-0.46137-0.0533-0.92241-0.10265-1.3808-0.14901-0.45985-0.0435-0.91736-0.0838-1.3723-0.1211-0.4558-0.0344-0.90839-0.0656-1.3576-0.0941-0.44954-0.026-0.89538-0.0491-1.3364-0.0699-0.44131-0.0187-0.87746-0.034-1.3088-0.0482-0.431-0.0109-0.85644-0.0205-1.2757-0.0282-0.41891-5e-3 -0.83198-0.0101-1.2378-0.011-0.40528-2e-3 -0.80337 2e-3 -1.1943 5e-3 -0.39018 5e-3 -0.77313 0.0107-1.1476 0.0171-0.37377 8e-3 -0.73906 0.0184-1.0961 0.0282-0.35617 0.0115-0.70382 0.0236-1.0422 0.0366m-65.6 16.379-2.306 1.3412-2.1202 1.341-1.9288 1.3352-1.7341 1.3223-1.5354 1.3055-1.3358 1.2815-1.1362 1.2545-0.93571 1.2218-0.73599 1.1843-0.53859 1.1429-0.34433 1.0982-0.15322 1.0496 0.03158 0.99768 0.21325 0.94335 0.38858 0.8858 0.556 0.82732 0.71788 0.76565 0.87026 0.70383 1.0163 0.6404 1.1528 0.5768 1.2806 0.51161 1.3988 0.44698 1.5075 0.38237 1.6067 0.31911 1.6963 0.25509 1.7757 0.19399 1.8463 0.13289 1.9057 0.074 1.9556 0.0161 1.9967-0.0393 2.0282-0.0922 2.0495-0.14273 2.0635-0.19181 2.0672-0.23703 2.0645-0.27975 2.0531-0.3206 2.0336-0.35736 2.0078-0.39256 1.9748-0.42311 1.937-0.45214 1.892-0.47644 1.8423-0.50005 1.7885-0.51891 1.7299-0.53624 1.6674-0.54889 1.6024-0.56072 1.5342-0.56786 1.4636-0.57421 1.3913-0.57739 1.3183-0.57824 1.2444-0.57669 1.169-0.57276c0.0458-0.0232 0.091-0.0467 0.13416-0.0684 0.0432-0.0223 0.0856-0.0434 0.12622-0.0643 0.0405-0.0209 0.0795-0.0416 0.11744-0.0615 0.0374-0.0196 0.0746-0.0384 0.10938-0.0568 0.0347-0.0179 0.069-0.0365 0.10065-0.0536 0.0318-0.0166 0.0635-0.0342 0.0926-0.05 0.0303-0.0166 0.059-0.0316 0.0855-0.0466 0.0271-0.015 0.0516-0.0277 0.0776-0.0428 0.025-0.0133 0.0482-0.0262 0.0711-0.0398 0.0222-0.0121 0.0428-0.0239 0.0631-0.0358 0.0202-0.0116 0.0392-0.022 0.0569-0.0327 0.0177-0.0109 0.0343-0.0202 0.0495-0.0295 0.0157-9e-3 0.0301-0.019 0.0425-0.0264 0.0117-8e-3 0.0258-0.0153 0.0369-0.0225 0.0115-7e-3 0.0206-0.0133 0.0292-0.0197 9e-3 -5e-3 0.0169-0.0125 0.0233-0.0169 7e-3 -6e-3 0.0127-9e-3 0.0176-0.0133l0.0111-0.0106c2e-3 -3e-3 5e-3 -5e-3 5e-3 -8e-3 7.3e-4 -2e-3 7.9e-4 -4e-3 -6e-5 -5e-3 -2e-3 -7.3e-4 -4e-3 -8e-4 -5e-3 -2e-3 -3e-3 -2.3e-4 -7e-3 6.5e-4 -0.0125 2e-3 -6e-3 2e-3 -0.0106 3e-3 -0.0179 4e-3 -7e-3 2e-3 -0.0139 4e-3 -0.0216 6e-3 -8e-3 1e-3 -0.0183 6e-3 -0.0279 8e-3 -0.01 5e-3 -0.0205 8e-3 -0.0327 0.0123-0.0122 4e-3 -0.0237 9e-3 -0.0375 0.0154-0.014 5e-3 -0.0276 0.0104-0.043 0.017-0.0156 6e-3 -0.0307 0.0121-0.0471 0.0193-0.0164 8e-3 -0.0338 0.0136-0.0519 0.0216-0.0184 7e-3 -0.037 0.0151-0.0567 0.0238-0.0192 8e-3 -0.0393 0.0174-0.0606 0.0264-0.0213 8e-3 -0.0435 0.0181-0.0662 0.0286-0.0232 0.0102-0.0466 0.0205-0.0711 0.031-0.0247 0.0103-0.0504 0.0221-0.0766 0.0341-0.0264 0.0118-0.0533 0.0245-0.0814 0.0364-0.0281 0.0118-0.0578 0.025-0.0878 0.0386-0.03 0.0131-0.0602 0.026-0.0919 0.041s-0.0647 0.0292-0.0983 0.0442c-0.0336 0.0152-0.0676 0.0307-0.10295 0.0463-0.0349 0.0157-0.0713 0.0322-0.10859 0.0487-0.0371 0.0168-0.0745 0.0328-0.11335 0.0504-0.0389 0.0175-0.0793 0.0355-0.1197 0.0534-0.0405 0.0181-0.0822 0.0375-0.12443 0.0564-0.0424 0.0189-0.0858 0.0375-0.13007 0.0573-0.0443 0.0198-0.0898 0.0406-0.13575 0.0611-0.0461 0.0203-0.0926 0.0405-0.14052 0.0619-0.0478 0.0214-0.0972 0.0431-0.14687 0.065-0.0497 0.0221-0.1001 0.0448-0.15169 0.0674-0.0516 0.0231-0.10394 0.0457-0.15719 0.0691-0.0532 0.0234-0.10714 0.047-0.16274 0.0714-0.0553 0.0241-0.1117 0.049-0.1684 0.0735-0.0573 0.0249-0.11585 0.0505-0.17474 0.0758-0.0588 0.0257-0.11876 0.0508-0.17954 0.0773-0.0607 0.026-0.123 0.0531-0.18513 0.0796-0.0631 0.0267-0.12616 0.0541-0.19071 0.0812-0.0647 0.0275-0.13048 0.0553-0.19708 0.0836-0.0664 0.0282-0.13366 0.056-0.20268 0.0849-0.0687 0.0289-0.13834 0.0584-0.20825 0.0872-0.07 0.0291-0.1417 0.0592-0.21383 0.0888-0.0726 0.03-0.14484 0.0598-0.21942 0.0905-0.0737 0.03-0.14929 0.061-0.22499 0.0919-0.077 0.0311-0.15404 0.0625-0.23217 0.0941-0.0784 0.0316-0.15759 0.0636-0.23774 0.0958l-5e-3 2e-3c-0.0803 0.032-0.16067 0.064-0.2417 0.0965-0.0799 0.0318-0.16146 0.0638-0.24406 0.0965-0.0827 0.0325-0.16468 0.0656-0.24727 0.0981-0.0826 0.0322-0.16679 0.0648-0.25041 0.0973-0.0839 0.0327-0.16794 0.0653-0.25282 0.098-0.084 0.0323-0.17035 0.0647-0.25521 0.0972-0.0855 0.0328-0.17181 0.0653-0.2576 0.0979-0.086 0.0322-0.17293 0.0652-0.25997 0.0978-0.0865 0.0324-0.1734 0.0652-0.26155 0.0978-0.0876 0.0326-0.17582 0.0646-0.26394 0.0971-0.0881 0.0322-0.17601 0.0652-0.26469 0.0978-0.0894 0.0325-0.17784 0.0642-0.26792 0.097-0.0895 0.0323-0.17922 0.0648-0.26871 0.097-0.0901 0.0323-0.18021 0.0637-0.27106 0.0961-0.0903 0.0319-0.18101 0.0641-0.27184 0.0963-0.0909 0.0319-0.18183 0.0634-0.27264 0.0955-0.0917 0.0317-0.1826 0.0635-0.27423 0.0954-0.0917 0.0317-0.18342 0.0632-0.27503 0.0945-0.0922 0.0316-0.18402 0.0635-0.27582 0.0946-0.0924 0.031-0.1842 0.062-0.27657 0.0929-0.0924 0.0312-0.18467 0.0623-0.27659 0.0929-0.0931 0.031-0.18484 0.0607-0.27737 0.0913-0.0925 0.0305-0.18545 0.0611-0.27816 0.0914-0.0934 0.0304-0.18465 0.0604-0.27735 0.0905-0.0927 0.0297-0.18548 0.06-0.27813 0.0898-0.0926 0.0296-0.18509 0.0588-0.27734 0.0882-0.0922 0.0293-0.18509 0.0589-0.2773 0.0882-0.0923 0.029-0.18494 0.0577-0.2773 0.0866-0.0923 0.0285-0.18396 0.0574-0.27571 0.0858-0.0925 0.0286-0.18379 0.0571-0.27491 0.0851-0.092 0.0279-0.18359 0.0555-0.2749 0.0834-0.0913 0.0276-0.18264 0.0555-0.27329 0.0826-0.0906 0.0274-0.18091 0.0541-0.2717 0.0811-0.0909 0.0271-0.18147 0.0535-0.27166 0.0803-0.0902 0.0264-0.17974 0.0533-0.2693 0.0797-0.0896 0.0262-0.17857 0.0522-0.26768 0.0779-0.0892 0.0259-0.17742 0.0512-0.26529 0.0764-0.0885 0.0254-0.17646 0.0507-0.26368 0.0757-0.0879 0.025-0.17471 0.0493-0.2621 0.0739-0.0868 0.0244-0.17354 0.0491-0.25969 0.0733-0.0862 0.0239-0.1717 0.0479-0.25727 0.0719-0.085 0.0237-0.1698 0.0468-0.2541 0.0701-0.0844 0.0232-0.16866 0.0463-0.25249 0.0694-0.0832 0.0227-0.16651 0.0451-0.24849 0.0671-0.0826 0.0225-0.16459 0.0442-0.24612 0.0663-0.0813 0.022-0.16198 0.044-0.24292 0.0654-0.0803 0.0216-0.15987 0.0423-0.23893 0.0632-0.0797 0.0207-0.15869 0.0413-0.23654 0.0617-0.0784 0.0205-0.15597 0.041-0.23253 0.0609-0.0773 0.0203-0.15334 0.0396-0.22938 0.0593-0.0753 0.0191-0.15027 0.0389-0.22377 0.0579-0.0749 0.0191-0.14651 0.0371-0.22137 0.0561-0.0724 0.0187-0.14488 0.0374-0.21662 0.0555-0.0718 0.0186-0.1433 0.0358-0.21262 0.0532-0.0706 0.0175-0.13791 0.0352-0.20784 0.0526-0.0687 0.0171-0.13565 0.0342-0.20307 0.0509-0.0671 0.016-0.13407 0.0326-0.19908 0.0486-0.0665 0.0158-0.13096 0.0324-0.19348 0.0477-0.0631 0.0155-0.12619 0.0311-0.18872 0.0463-0.0632 0.0154-0.12401 0.0301-0.18391 0.0448-0.0605 0.0151-0.1217 0.0299-0.17918 0.0432-0.0612 0.0152-0.11526 0.0276-0.17354 0.0424-0.0557 0.0133-0.1114 0.027-0.16637 0.0402-0.0546 0.0134-0.10855 0.0254-0.16159 0.0385 0 0-0.0178 4e-3 -0.0527 0.013-0.0344 9e-3 -0.0869 0.0216-0.15844 0.0389-0.0707 0.0165-0.15845 0.0386-0.26357 0.0637-0.10517 0.0252-0.22607 0.0533-0.36702 0.0864-0.13977 0.0326-0.29664 0.0691-0.46973 0.10896-0.1738 0.0399-0.36389 0.0831-0.57237 0.13016-0.20867 0.0463-0.43433 0.096-0.67585 0.14881-0.24422 0.0526-0.50417 0.10785-0.78083 0.16585-0.27871 0.0578-0.57542 0.11787-0.88741 0.18059-0.31411 0.062-0.64482 0.12649-0.99235 0.19288-0.34972 0.0654-0.71696 0.13305-1.0996 0.20198-0.3862 0.0681-0.78807 0.13705-1.2069 0.20712-0.42115 0.0688-0.85996 0.13849-1.3133 0.2083-0.45635 0.0685-0.92811 0.13663-1.4157 0.20472-0.49075 0.0661-0.99695 0.1313-1.5172 0.19609-0.52351 0.0623-1.0616 0.12225-1.6131 0.1811-0.55425 0.0556-1.122 0.10927-1.7027 0.16011-0.58162 0.0469-1.1752 0.091-1.7809 0.13155-0.60683 0.0356-1.2245 0.0677-1.852 0.0954-0.62737 0.0226-1.2632 0.0395-1.9071 0.0514-0.64205 6e-3 -1.2911 6e-3 -1.9462-5.5e-4 -0.65266-0.0133-1.3097-0.0334-1.9693-0.0612-0.65547-0.0352-1.3124-0.0791-1.9693-0.13109-0.65092-0.0598-1.2994-0.12888-1.9462-0.20705-0.63786-0.0876-1.2717-0.18465-1.8992-0.29224-0.61666-0.11706-1.2249-0.24545-1.8244-0.38428-0.58549-0.14935-1.1595-0.31017-1.7208-0.48241-0.54546-0.18242-1.0751-0.37781-1.5886-0.58493-0.49437-0.2183-0.97018-0.44905-1.4262-0.69186-0.4343-0.25427-0.84746-0.52121-1.2368-0.8001-0.3644-0.29065-0.70466-0.59391-1.018-0.90878-0.28639-0.32695-0.54472-0.66474-0.77463-1.0148-0.20024-0.36169-0.37026-0.73528-0.50902-1.119-0.10709-0.39519-0.18201-0.80064-0.22444-1.2158-0.0087-0.42607 0.01684-0.8613 0.07592-1.3054 0.09379-0.45408 0.22274-0.91587 0.3857-1.3852 0.19847-0.47851 0.4324-0.96414 0.70014-1.4547 0.30413-0.49887 0.64205-1.0022 1.0136-1.5099 0.40762-0.5146 0.84876-1.0327 1.3214-1.5525 0.50766-0.52557 1.0466-1.0523 1.6155-1.5794 0.60287-0.53175 1.2348-1.0624 1.8928-1.5913 0.69151-0.53251 1.4079-1.0626 2.1468-1.5884 0.77139-0.52843 1.5628-1.0525 2.3745-1.5708 0.83999-0.51893 1.6978-1.032 2.5702-1.5376 0.899-0.50532 1.8099-1.002 2.7309-1.4905m-1.1017 0.99819-1.1604 0.65783-1.1095 0.65522-1.0579 0.65187-1.0062 0.64687-0.95376 0.64113-0.90367 0.63533-0.85277 0.62875-0.80269 0.62139-0.75176 0.6132-0.70241 0.60509-0.65406 0.59587-0.60617 0.58626-0.55758 0.57573-0.51142 0.56592-0.46602 0.55452-0.42143 0.54312-0.37684 0.53252-0.33462 0.52026-0.2924 0.50809-0.25176 0.495-0.21272 0.48355-0.17367 0.47049-0.13698 0.45742-0.10112 0.44431-0.06682 0.43199-0.03252 0.41809-5.91e-4 0.40497 0.0305 0.3918 0.05919 0.37944 0.08796 0.36548 0.11432 0.35303 0.14068 0.33987 0.16461 0.32662 0.18704 0.31419 0.20937 0.30173 0.22937 0.28927 0.24937 0.27674 0.26616 0.2651 0.28301 0.25329 0.29897 0.24084 0.31262 0.22984 0.32547 0.2189 0.33751 0.20787 0.34793 0.1969 0.35759 0.18671 0.36484 0.17648 0.37372 0.16617 0.37854 0.15752 0.3851 0.14705 0.38898 0.13892 0.39159 0.12975 0.39338 0.12094c0.01636 3e-3 0.03231 9e-3 0.04672 0.0129 0.01403 3e-3 0.02799 9e-3 0.04182 0.012 0.01376 3e-3 0.02607 6e-3 0.0373 9e-3 0.01144 3e-3 0.02308 8e-3 0.03231 9e-3 0.0087 3e-3 0.01881 6e-3 0.02792 6e-3 0.0087 3e-3 0.01675 4e-3 0.02279 5e-3 0.0068 2e-3 0.01306 2e-3 0.01986 3e-3 0.0054 0 0.01035 1e-3 0.0141 2e-3 0.0041 4.5e-4 0.0094 5.1e-4 0.01145-8.9e-4 0.0022-2.6e-4 0.0041 4.3e-4 0.0067-7.9e-4 7.36e-4 -2e-3 0.0033-3e-3 0.0023-4e-3 -2.68e-4 -2e-3 2.2e-4 -3e-3 -0.0023-6e-3 -0.0012-2e-3 -4e-3 -4e-3 -0.0062-7e-3 -3e-3 -4e-3 -0.0056-5e-3 -0.0094-9e-3 -0.0027-2e-3 -0.0078-5e-3 -0.01308-0.01-0.0045-2e-3 -0.0099-6e-3 -0.01662-9e-3 -0.0073-4e-3 -0.0125-6e-3 -0.02012-0.0109-0.0078-5e-3 -0.01543-8e-3 -0.02375-0.0126-0.0078-5e-3 -0.01744-8e-3 -0.02685-0.0142-0.0078-5e-3 -0.02032-0.011-0.0299-0.0163-0.01058-6e-3 -0.02197-9e-3 -0.03315-0.0165-0.01108-5e-3 -0.02357-0.0106-0.03549-0.0174-0.0125-6e-3 -0.02594-0.013-0.03943-0.0188-0.01305-8e-3 -0.02662-0.0131-0.04112-0.0194-0.014-6e-3 -0.02929-0.0126-0.04448-0.0196-0.01524-8e-3 -0.0306-0.0149-0.0467-0.0225-0.01581-8e-3 -0.0324-0.0142-0.0492-0.0224-0.01759-7e-3 -0.03314-0.0165-0.05156-0.0233-0.01759-7e-3 -0.03459-0.018-0.05298-0.0248-0.0183-8e-3 -0.03634-0.017-0.05534-0.0256-0.0183-8e-3 -0.03728-0.018-0.05667-0.0273-0.01941-0.01-0.03897-0.0186-0.05821-0.0288-0.02033-9e-3 -0.04075-0.0193-0.06056-0.0297-0.02142-9e-3 -0.04234-0.0198-0.06298-0.0307-0.02109-0.0111-0.04321-0.0202-0.06488-0.0314-0.02206-0.0113-0.04454-0.0217-0.06721-0.0322-0.02289-0.0104-0.04599-0.0233-0.06876-0.0338-0.02357-0.0106-0.04613-0.0223-0.07044-0.0344-0.02435-0.0106-0.04833-0.0241-0.07272-0.0364-0.02448-0.0118-0.04825-0.0252-0.07322-0.0376-0.02497-0.0128-0.05023-0.0259-0.0759-0.039-0.02517-0.0129-0.05073-0.0272-0.07658-0.0398-0.02588-0.014-0.05223-0.0277-0.07889-0.0416-0.02599-0.0141-0.05235-0.0289-0.07893-0.0429-0.02666-0.0141-0.05386-0.0293-0.08129-0.0438-0.02765-0.0155-0.05459-0.0286-0.08205-0.0445-0.02775-0.0155-0.05453-0.0313-0.08272-0.0471-0.02782-0.0156-0.05663-0.0317-0.08438-0.0478-0.02852-0.0168-0.05582-0.0322-0.0843-0.0487-0.02852-0.0168-0.05726-0.0341-0.08596-0.0511-0.02824-0.0169-0.05646-0.0333-0.08599-0.051-0.02865-0.018-0.05786-0.0356-0.08677-0.0535-0.02865-0.018-0.05794-0.0357-0.08755-0.0542-0.02977-0.0184-0.0593-0.0363-0.08905-0.0549-0.0281-0.019-0.05818-0.0379-0.08752-0.0573-0.02971-0.0194-0.05902-0.0386-0.08906-0.0581-0.02999-0.0196-0.05959-0.0397-0.089-0.0597-0.03045-0.0197-0.05953-0.0403-0.08908-0.0607-0.03049-0.0208-0.05915-0.0417-0.08903-0.063-0.03002-0.0206-0.05915-0.0417-0.08892-0.0631-0.029-0.0216-0.05912-0.0435-0.08896-0.0654-0.02931-0.022-0.05889-0.045-0.08817-0.0668-0.02963-0.0223-0.05954-0.045-0.08894-0.0677-0.02862-0.0226-0.05854-0.0456-0.08815-0.0692l0.0012 2e-3c-0.02915-0.0233-0.05765-0.0469-0.08655-0.0701-0.02815-0.0237-0.05669-0.0472-0.0858-0.0708-0.02801-0.0235-0.05651-0.047-0.08411-0.0709-0.02801-0.0235-0.05478-0.0471-0.08178-0.0716-0.02707-0.024-0.05381-0.0475-0.08011-0.0715-0.02684-0.0237-0.05339-0.0486-0.07942-0.0724-0.0258-0.024-0.05141-0.0479-0.07727-0.0721-0.02487-0.0245-0.05088-0.0487-0.07553-0.073-0.02487-0.0245-0.04923-0.0483-0.07291-0.0731-0.02467-0.0241-0.04937-0.0486-0.07291-0.0731-0.02326-0.0245-0.04683-0.0488-0.06961-0.0741-0.02324-0.0243-0.04565-0.0491-0.06817-0.0739-0.02259-0.0243-0.04466-0.0492-0.06663-0.0738-0.02192-0.0247-0.04309-0.0491-0.0642-0.074-0.02133-0.0247-0.04268-0.0501-0.06346-0.0746-0.02074-0.0244-0.04031-0.049-0.06009-0.0739-0.02088-0.0245-0.04043-0.0493-0.06018-0.0739-0.01944-0.0245-0.0381-0.0495-0.05674-0.0746-0.01842-0.025-0.03661-0.0495-0.05579-0.0736-0.01824-0.0246-0.03627-0.0491-0.05424-0.0734-0.01714-0.025-0.03509-0.0491-0.05232-0.0737-0.01702-0.0248-0.03346-0.0488-0.04998-0.0736-0.0167-0.0244-0.0332-0.0485-0.04925-0.0728-0.0157-0.0247-0.03188-0.0487-0.04754-0.0727-0.01508-0.0241-0.02987-0.0479-0.04442-0.0719-0.01499-0.024-0.02983-0.0478-0.04363-0.0719-0.0147-0.0237-0.02836-0.0476-0.04203-0.0712-0.01347-0.0238-0.02735-0.0477-0.04046-0.0713-0.01333-0.0236-0.02646-0.047-0.03889-0.0703-0.01319-0.0236-0.02474-0.047-0.03656-0.0704-0.01252-0.0228-0.02418-0.0465-0.03573-0.0695-0.01138-0.023-0.02331-0.045-0.035-0.0679-0.0111-0.0227-0.02175-0.0452-0.03252-0.0678-0.0098-0.0228-0.02091-0.0449-0.031-0.067-0.01057-0.0222-0.01981-0.0442-0.02942-0.067-0.01035-0.0218-0.01942-0.0433-0.02864-0.0647-9e-3 -0.0219-0.0178-0.0431-0.02708-0.0646-0.0086-0.0214-0.01854-0.043-0.02625-0.0637-0.0083-0.0212-0.01626-0.0419-0.024-0.0629-8e-3 -0.0207-0.01647-0.0418-0.02398-0.0614-0.0076-0.0203-0.0148-0.0407-0.02237-0.0606-7e-3 -0.0197-0.0146-0.0394-0.02158-0.06-0.0068-0.0196-0.01314-0.0388-0.01921-0.058-0.0063-0.019-0.01249-0.0375-0.01917-0.0567-0.0063-0.0188-0.01187-0.0375-0.01768-0.0558-0.0057-0.0181-0.01188-0.0359-0.01763-0.054-0.0053-0.0176-0.01071-0.0364-0.01603-0.0532-0.0048-0.0172-0.0097-0.0337-0.0153-0.051-0.0054-0.0163-0.01-0.0344-0.01454-0.0503-4e-3 -0.0163-9e-3 -0.0322-0.01371-0.0486-0.0041-0.0164-0.0085-0.0323-0.01299-0.0477-0.0032-0.0155-0.0084-0.0302-0.01218-0.0455-0.0044-0.0154-0.0081-0.0307-0.01213-0.0445-0.0035-0.0143-0.0066-0.0276-0.01057-0.0415-0.0041-0.0136-0.0066-0.0276-0.0099-0.0414-0.0041-0.0136-0.0075-0.0259-0.0106-0.0382-0.0042-0.01-0.0062-0.0244-9e-3 -0.0367-3e-3 -0.0108-0.0066-0.0222-0.0099-0.0342-0.0023-0.0116-0.0051-0.022-0.0085-0.0326-0.0023-0.0116-0.0057-0.0211-0.0085-0.032-0.0024-0.0117-0.0055-0.0195-0.0078-0.0287-0.0029-0.01-0.0057-0.0166-0.0077-0.0262-0.0025-9e-3 -0.0051-0.0176-0.0077-0.0255-0.0025-9e-3 -0.0052-0.0161-8e-3 -0.0222 0 0-0.0011-4e-3 -0.0024-7e-3 -0.0018-2e-3 -0.0045-8e-3 -0.0075-0.0173-0.0038-9e-3 -0.0075-0.0172-0.01205-0.0282-0.0043-0.0122-0.01107-0.0241-0.01697-0.0398-0.0061-0.0158-0.01299-0.0321-0.0209-0.0511-0.0076-0.0187-0.01569-0.0402-0.0247-0.063-0.0087-0.023-0.01755-0.0486-0.02687-0.0758-0.0094-0.0272-0.01936-0.0562-0.02926-0.0876-0.0098-0.0319-0.01963-0.0658-0.02975-0.10186-0.01031-0.0365-0.02048-0.0747-0.03046-0.11542-0.0095-0.0415-0.02023-0.0856-0.02946-0.13137-0.0095-0.0465-0.01742-0.095-0.02613-0.14647-0.0082-0.0518-0.01619-0.10697-0.02365-0.16385-0.0062-0.0578-0.01146-0.11816-0.01624-0.18121-0.0038-0.064-0.0073-0.13024-0.0097-0.1994-7.53e-4 -0.0703-2.43e-4 -0.14319 0.0017-0.21913 0.0029-0.0769 0.0069-0.15691 0.013-0.23964 0.0073-0.0837 0.01655-0.17038 0.02756-0.26014 0.01268-0.0913 0.02823-0.18576 0.04612-0.28296 0.02003-0.0989 0.04238-0.20092 0.067-0.30574 0.02749-0.1066 0.05725-0.21612 0.09107-0.32929 0.03608-0.11453 0.07576-0.2322 0.1183-0.3528 0.04596-0.12291 0.09586-0.24943 0.1496-0.37865 0.05729-0.13104 0.11842-0.26455 0.18401-0.40209 0.06908-0.13952 0.14281-0.28298 0.22162-0.42869 0.08289-0.1481 0.17067-0.29849 0.26398-0.45276 0.09747-0.15618 0.20081-0.31631 0.30874-0.47852 0.11386-0.16479 0.23319-0.33197 0.35826-0.50254 0.1305-0.17269 0.26616-0.3483 0.40853-0.5266 0.14845-0.18057 0.30333-0.36387 0.46437-0.54978 0.16777-0.18835 0.34056-0.37894 0.52101-0.57216 0.18726-0.19534 0.38066-0.3926 0.58079-0.59216 0.20684-0.20185 0.42094-0.40623 0.64134-0.61213 0.22698-0.20808 0.46248-0.41771 0.70369-0.62864 0.24811-0.21372 0.50314-0.42802 0.76481-0.64404 0.26915-0.21805 0.54422-0.43755 0.82608-0.65765 0.28945-0.22173 0.58563-0.44427 0.88736-0.66729 0.3092-0.22491 0.62419-0.44949 0.9446-0.67457 0.32864-0.22683 0.66162-0.45379 1.0002-0.6803 0.3463-0.22772 0.69748-0.45482 1.0527-0.68127 0.36217-0.22778 0.72949-0.4544 1.0995-0.68 0.37704-0.22665 0.75768-0.45191 1.1408-0.67551 0.39077-0.22465 0.78336-0.44676 1.1772-0.66718m-0.40644-1.2028c-0.06551 0.0333-0.13127 0.0657-0.19723 0.0993-0.06593 0.0335-0.13332 0.0675-0.20049 0.10166-0.06703 0.0342-0.13458 0.0692-0.20283 0.10408-0.06755 0.0351-0.13643 0.071-0.20529 0.10642-0.06946 0.0359-0.13857 0.0716-0.20845 0.10798-0.06982 0.0365-0.14044 0.0734-0.21092 0.11031-0.07043 0.037-0.14174 0.0741-0.21326 0.11191-0.071 0.0377-0.14279 0.0762-0.21489 0.11434-0.07209 0.0383-0.14388 0.0763-0.21651 0.11512-0.07328 0.0394-0.14651 0.0788-0.2197 0.11829-0.07316 0.0396-0.14688 0.0796-0.22051 0.11982-0.07442 0.04-0.14796 0.0799-0.22216 0.1205-0.07434 0.0404-0.14904 0.0816-0.2237 0.12286-0.07482 0.0408-0.14929 0.0823-0.22456 0.12376-0.07531 0.0419-0.15044 0.0836-0.22616 0.126-0.07512 0.0423-0.1513 0.085-0.22694 0.12755-0.07569 0.0426-0.15079 0.0854-0.22699 0.12851-0.07614 0.0432-0.15165 0.0865-0.22778 0.13006-0.0761 0.0435-0.15193 0.0874-0.22856 0.13156-0.07601 0.0438-0.15291 0.0887-0.2294 0.13325-0.07591 0.0441-0.15213 0.0883-0.22861 0.13322-0.07646 0.0447-0.15305 0.0905-0.22942 0.13557-0.07624 0.045-0.15314 0.09-0.2294 0.13555-0.07623 0.0456-0.15175 0.0915-0.22862 0.13728-0.07554 0.0457-0.15195 0.0916-0.22866 0.13799-0.07541 0.046-0.15104 0.0933-0.22711 0.13956-0.07542 0.0466-0.15111 0.0928-0.2271 0.13955-0.076 0.047-0.15163 0.0936-0.22632 0.14031-0.0752 0.047-0.14972 0.0936-0.22553 0.14109-0.07453 0.0475-0.15085 0.0949-0.22477 0.14203-0.07449 0.0472-0.1487 0.0952-0.22314 0.14283-0.07448 0.0477-0.14852 0.0952-0.22239 0.14283-0.07312 0.0476-0.14708 0.0958-0.22082 0.14358-0.07297 0.0481-0.14678 0.0966-0.21921 0.14442-0.07236 0.0479-0.14529 0.0963-0.21761 0.14442-0.07229 0.0482-0.14494 0.0967-0.216 0.14448-0.07159 0.0483-0.142 0.0961-0.21364 0.14448-0.07094 0.0484-0.14251 0.0969-0.21285 0.14527-0.07032 0.0483-0.13937 0.0962-0.20966 0.14454-0.06967 0.0484-0.13907 0.0973-0.20811 0.14528-0.06832 0.0482-0.13748 0.0961-0.2057 0.1446-0.06779 0.0478-0.13644 0.0963-0.20408 0.14459-0.06796 0.0494-0.1348 0.097-0.20178 0.14537-0.06655 0.0481-0.13209 0.0965-0.19774 0.14467l-1.5226 1.1595-1.3788 1.1501-1.2349 1.1366-1.0886 1.1208-0.94148 1.1002-0.79276 1.0789-0.64397 1.0528-0.49595 1.0235-0.34872 0.99338-0.20143 0.96008-0.0573 0.92365 0.08527 0.88551 0.22706 0.84505 0.36412 0.80292 0.49801 0.75919 0.62957 0.71381 0.75634 0.66603 0.87836 0.61818 0.99645 0.5687 1.1106 0.51757 1.2175 0.46721 1.3198 0.41587 1.4172 0.36303 1.5075 0.31165 1.5939 0.25861 1.6715 0.2063 1.7436 0.15479 1.8101 0.10299 1.8686 0.0522 1.9216 2e-3 1.9674-0.0476 2.0069-0.0954 2.0391-0.14368 2.0643-0.18866 2.0838-0.23288 2.0946-0.27668 2.1023-0.31763 2.1011-0.35653 2.0944-0.39556 2.0813-0.43064 2.061-0.46422 2.0376-0.49624 2.0061-0.52597 1.9707-0.55339 1.9297-0.57846 1.8832-0.602 1.8325-0.62168 1.778-0.64129 1.7178-0.65631 1.6552-0.67048 1.5879-0.6824 1.5173-0.69111 1.4451-0.69829 1.3681-0.70232 1.2912-0.7048 1.2102-0.7057 1.1276-0.70346 1.0449-0.69885 0.95991-0.69345 0.87407-0.68571 0.78817-0.67556 0.7023-0.6646 0.61563-0.65051 0.52966-0.63636c0.0203-0.0259 0.0395-0.0509 0.0588-0.0763 0.0188-0.025 0.0379-0.0501 0.0565-0.0746 0.0187-0.0249 0.0367-0.0502 0.054-0.0741s0.0341-0.0471 0.0508-0.0709c0.0159-0.023 0.0325-0.0464 0.0484-0.0693 0.0158-0.0228 0.0312-0.045 0.0469-0.0677 0.0157-0.0224 0.0303-0.0445 0.0443-0.0663 0.0142-0.0213 0.0281-0.0425 0.042-0.064 0.0142-0.0213 0.0263-0.0417 0.0387-0.0622 0.013-0.0202 0.0255-0.0406 0.0379-0.0607 0.0129-0.0199 0.0243-0.0402 0.0357-0.0591 0.0107-0.0193 0.0214-0.038 0.0332-0.0569 0.0106-0.0187 0.0221-0.0368 0.0316-0.0544 0.0106-0.0182 0.0206-0.0357 0.0294-0.0536 8e-3 -0.0177 0.0189-0.0342 0.0275-0.0514 9e-3 -0.0167 0.0183-0.0324 0.0255-0.0491 9e-3 -0.0156 0.0171-0.0318 0.024-0.0476 8e-3 -0.0156 0.0148-0.0303 0.0222-0.0457 6e-3 -0.0152 0.0148-0.0303 0.0206-0.0444 5e-3 -0.0137 0.0125-0.0281 0.0186-0.0419 5e-3 -0.0137 0.0119-0.0256 0.0177-0.0395 5e-3 -0.0126 0.011-0.0264 0.0155-0.039 5e-3 -0.0121 9e-3 -0.0243 0.014-0.0366 5e-3 -0.012 9e-3 -0.0233 0.0125-0.0341 6e-3 -0.0105 9e-3 -0.0218 0.0132-0.0323 6e-3 -0.0105 8e-3 -0.0217 0.0109-0.0309 4e-3 -8e-3 7e-3 -0.02 0.01-0.0292 4e-3 -8e-3 4e-3 -0.0178 9e-3 -0.027 3e-3 -9e-3 5e-3 -0.0165 6e-3 -0.0246 2e-3 -7e-3 3e-3 -0.015 5e-3 -0.0227 2e-3 -7e-3 3e-3 -0.015 6e-3 -0.0212 2e-3 -7e-3 3e-3 -0.0137 3e-3 -0.0199-6e-5 -5e-3 1e-3 -0.0104 3e-3 -0.0173-5e-5 -5e-3 1e-3 -0.0111 2e-3 -0.0152-5e-5 -5e-3 2e-3 -9e-3 -4.7e-4 -0.0137-5e-5 -5e-3 -1e-3 -9e-3 -2e-3 -0.0125 2.3e-4 -3e-3 -5e-5 -5e-3 -2e-3 -9e-3 2.3e-4 -3e-3 -2e-3 -6e-3 -1e-3 -8e-3 -3e-3 -4e-3 -2e-3 -5e-3 -6e-3 -7e-3 -3e-3 -2e-3 -4e-3 -4e-3 -5e-3 -4e-3 -2e-3 -7.4e-4 -5e-3 -7.4e-4 -5e-3 -2e-3 -3e-3 -2.1e-4 -5e-3 6e-5 -8e-3 -5.8e-4 -1e-3 6e-5 -5e-3 5e-5 -7e-3 6.5e-4 -3e-3 -2.1e-4 -7e-3 2e-3 -0.01 4e-3 -6e-3 2e-3 -7e-3 5e-3 -0.0105 8e-3 -4e-3 3e-3 -7e-3 6e-3 -0.0115 7e-3 -5e-3 2e-3 -9e-3 6e-3 -0.0127 9e-3 -3e-3 5e-3 -9e-3 7e-3 -0.0125 0.0122l-0.0136 0.0137c-4e-3 5e-3 -0.0109 9e-3 -0.0163 0.0156-5e-3 5e-3 -8e-3 0.0125-0.0162 0.018-5e-3 5e-3 -0.0114 0.0118-0.0168 0.0196-7e-3 6e-3 -0.0133 0.0132-0.0187 0.021-7e-3 8e-3 -0.012 0.0153-0.0194 0.0237-7e-3 8e-3 -0.0123 0.017-0.021 0.0257-9e-3 8e-3 -0.0148 0.0171-0.0221 0.0281-9e-3 8e-3 -0.0157 0.0194-0.0236 0.0295-7e-3 0.0112-0.0165 0.0216-0.024 0.0326-8e-3 0.012-0.0161 0.0237-0.0256 0.034-8e-3 0.0125-0.0174 0.0241-0.0267 0.0361-8e-3 0.0125-0.0189 0.0254-0.0283 0.0376-0.0107 0.0138-0.0196 0.0274-0.0304 0.041-8e-3 0.0125-0.0197 0.0274-0.0307 0.0426-0.011 0.0153-0.0222 0.0296-0.0332 0.045-0.011 0.0153-0.0236 0.0308-0.0347 0.0466-0.0123 0.0166-0.024 0.0325-0.0363 0.0488-0.0132 0.0157-0.0237 0.0322-0.0361 0.0494-0.0115 0.0178-0.0261 0.0345-0.0387 0.051-0.0141 0.0182-0.0256 0.0353-0.0394 0.0535-0.0143 0.0183-0.0267 0.0363-0.0409 0.0544-0.0137 0.0189-0.0285 0.0378-0.0427 0.0567-0.0143 0.0184-0.0296 0.0376-0.0435 0.0567-0.0138 0.0191-0.0297 0.039-0.0452 0.059-0.0158 0.0196-0.0309 0.0403-0.0467 0.0599-0.0159 0.0202-0.0318 0.0409-0.0483 0.0613-0.0163 0.0212-0.033 0.042-0.0492 0.0629-0.0164 0.0214-0.0333 0.0423-0.0506 0.0638-0.0175 0.0215-0.0361 0.0433-0.0532 0.0653-0.0177 0.0219-0.036 0.0434-0.0539 0.0661-0.0189 0.0222-0.0371 0.0456-0.0556 0.0677-0.019 0.0226-0.0379 0.045-0.0572 0.0687-0.0194 0.023-0.0389 0.0473-0.0586 0.07-0.0199 0.0235-0.0398 0.0468-0.0604 0.0707-0.0204 0.024-0.0415 0.0469-0.0619 0.0715-0.0209 0.0243-0.042 0.0487-0.0636 0.0731-0.0213 0.0247-0.0437 0.049-0.0653 0.074-0.0218 0.0251-0.0444 0.0496-0.0667 0.0748-0.0229 0.0247-0.0452 0.0503-0.0684 0.0754-0.0233 0.0251-0.0466 0.0504-0.0696 0.0765-0.0236 0.0254-0.0474 0.051-0.0716 0.0769-0.0242 0.026-0.0482 0.0518-0.0729 0.0782-0.0246 0.0262-0.0492 0.0526-0.0748 0.0786-0.025 0.0266-0.0508 0.0528-0.0761 0.0797-0.0262 0.0263-0.0517 0.0535-0.078 0.0801-0.0268 0.0268-0.0525 0.0543-0.0798 0.0804-0.0267 0.0269-0.0541 0.0542-0.0812 0.0816-0.0271 0.0272-0.0545 0.0532-0.0818 0.0808-0.0276 0.0277-0.0562 0.0549-0.0847 0.082-0.0285 0.0272-0.0572 0.0557-0.086 0.0831-0.0289 0.0275-0.058 0.0552-0.0864 0.0835-0.0292 0.0277-0.0582 0.0554-0.0879 0.0836-0.0297 0.0281-0.059 0.056-0.0895 0.0837-0.03 0.028-0.061 0.0558-0.0915 0.0839-0.0306 0.028-0.0613 0.0566-0.0922 0.0847-0.031 0.0282-0.0626 0.0563-0.094 0.0847-0.0315 0.0284-0.0628 0.0571-0.0947 0.0854-0.0321 0.0283-0.0639 0.0564-0.0963 0.0845-0.0324 0.0283-0.0644 0.057-0.0971 0.0853-0.0326 0.0282-0.066 0.0556-0.0984 0.0849-0.0329 0.0284-0.0664 0.0574-0.0992 0.0857-0.0333 0.0287-0.0662 0.0572-0.10023 0.0853-0.034 0.028-0.068 0.0574-0.10173 0.0853-0.0341 0.0283-0.0678 0.0558-0.10203 0.0842-0.0344 0.0284-0.0694 0.0575-0.10338 0.0854-0.0345 0.0284-0.0695 0.0561-0.10406 0.0847-0.0346 0.0286-0.0702 0.0569-0.1051 0.0844-0.0351 0.0278-0.0701 0.0568-0.1056 0.0847-0.0355 0.0281-0.0706 0.0571-0.10559 0.0847-0.0354 0.0281-0.071 0.0548-0.10659 0.083-0.0355 0.0281-0.0717 0.0568-0.10742 0.0837-0.0362 0.0274-0.0714 0.0553-0.1073 0.083-0.0358 0.027-0.0724 0.056-0.10821 0.0829-0.0358 0.027-0.0714 0.0538-0.10728 0.0813-0.0361 0.0273-0.0731 0.0554-0.10896 0.0821-0.0357 0.027-0.0725 0.0534-0.10895 0.0805-0.0354 0.0266-0.0719 0.0542-0.10815 0.0805-0.0375 0.0272-0.0731 0.0541-0.10896 0.0805-0.0364 0.0262-0.0731 0.0526-0.10888 0.0791l-0.91162 0.63838-0.98636 0.64394-1.0602 0.64864-1.1334 0.65102-1.2048 0.65097-1.2754 0.65018-1.3445 0.64703-1.4103 0.64149-1.4746 0.63524-1.5356 0.6258-1.595 0.61479-1.6505 0.60147-1.7027 0.58659-1.751 0.56937-1.7968 0.54981-1.837 0.52867-1.8733 0.50605-1.9048 0.48027-1.9323 0.45297-1.955 0.42334-1.9713 0.39299-1.9828 0.36031-1.9896 0.3261-1.9908 0.28955-1.9856 0.25142-1.974 0.21187-1.9577 0.17159-1.935 0.12895-1.9059 0.0864-1.8712 0.0415-1.8294-4e-3 -1.7829-0.0503-1.7299-0.0974-1.6706-0.14431-1.605-0.19363-1.5337-0.24209-1.4569-0.29044-1.3746-0.33954-1.2867-0.38783-1.1926-0.43574-1.0943-0.48481-0.99049-0.53209-0.88279-0.57853-0.7703-0.6249-0.65308-0.66961-0.53184-0.71355-0.40754-0.75497-0.28001-0.79722-0.14936-0.83544-0.01632-0.87283 0.11907-0.90865 0.2568-0.94201 0.39533-0.97297 0.53541-1.0016 0.67624-1.0278 0.81627-1.0516 0.95625-1.073 1.097-1.0905 1.2353-1.1056 1.3721-1.1184 1.5088-1.1272 1.6406-1.1328 1.7701-1.1361 1.8979-1.1347c0.08059-0.0468 0.16124-0.0933 0.24138-0.13939 0.08029-0.0458 0.15927-0.0909 0.23894-0.13623 0.08032-0.0456 0.16028-0.0909 0.23818-0.13541 0.07859-0.0444 0.15694-0.0885 0.23491-0.13245 0.0768-0.0434 0.15496-0.087 0.23251-0.13 0.0769-0.0431 0.15318-0.0859 0.23017-0.12844 0.07578-0.042 0.15244-0.0838 0.22774-0.12529 0.0748-0.041 0.15057-0.0829 0.22532-0.12378 0.07473-0.0408 0.14828-0.0807 0.22129-0.12065 0.07374-0.04 0.14575-0.0788 0.2189-0.11811 0.07193-0.0391 0.1435-0.0775 0.21492-0.11584 0.0708-0.0377 0.14164-0.0757 0.21248-0.11365 0.07042-0.0373 0.1399-0.0749 0.20853-0.11113 0.06915-0.0367 0.13664-0.0719 0.20526-0.10801 0.06749-0.0358 0.13499-0.0715 0.2013-0.10651 0.06625-0.0347 0.13152-0.0689 0.19733-0.1033 0.0652-0.0338 0.1293-0.0678 0.19326-0.10108" fill="#666" stroke-width="0"/></g></svg>