<?xml version="1.0" encoding="UTF-8"?>
<svg enable-background="new 0 0 2416.921 1677.689" version="1.1" viewBox="0 0 2416.921 1677.689" xmlns="http://www.w3.org/2000/svg">
 <path d="m2122.7 81.777c0.254-0.227 1.268-1.105 1.465-1.273-1.966-2.851-2.925-4.22-4.584-5.602-2.991 0.831 1.777 6.663 3.119 6.875z"/>
 <path d="m2122.9 82.524c-0.581 6.03 3.655 7.159 7.912 6.119-3.106-2.003-5.732-3.467-7.912-6.119z"/>
 <path d="m2355.9 535.4c-2.244-5.235-3.044-10.977-4.832-16.344-14.396-41.04-20.393-50.313-41.273-101.79-66.938-165-13.889-74.663-53.44-157.89 7.102-25.506 1.497-42.425 0.783-49.281 0.521-4.399-1.956-16.049-10.891-26.665v-3e-3c-0.011-9e-3 -0.083-0.096-0.092-0.106l4e-3 0.031c-8.166-7.459-16.559-10.368-19.488-12.092 9.42-9.704 51.896-53.894 47.315-67.801-10.612 5.174 2.803 13.455-64.209 40.517 19.594-37.81 22.538-39.563 19.274-44.271-8.841 8.439-10.975 14.342-38.484 30.248-3.337-0.827-4.748-4.603-8.168-5.37-6.405-6.706-38.929-28.52-46.969-29.783 2.352 2.286 4.692 4.093 6.637 6.406-6.614-3.608-13.477-11.724-17.341-11.781 1.327 2.372 3.18 4.355 5.201 6.14-1.46-0.251-3.048-0.499-4.569-0.81-0.083-0.059-0.818-0.58-0.89-0.632v-1e-3c-2.352-1.577-4.866-4.087-6.501-5.716v-1e-3c-0.057-0.056-2e-3 0-0.055-0.053l-1e-3 2e-3c-0.517-0.483-18.232-13.766-20.863-15.314-0.352 0.607-1.085 1.956-1.586 2.956-3.609-0.736-7.116-2.387-10.424-4.908 1.181-0.254 2.246-0.482 3.278-0.691-4.113-2.435-15.007-6.58-19.796-5.973 0 0 0.89 1.049 1.836 2.166-0.102 0.254-0.432 1.065-0.56 1.383-2.463-1.091-4.808-2.744-7.511-1.623 1.374 1.409 2.849 2.771 4.328 4.07-0.551 0.032-1.465 0.075-1.992 0.107-4.02-3.12-15.107-2.404-16.787-11.805 3.349 0.78 5.918 3.124 8.854 5.217-1.49-4.15-5.895-6.177-10.28-6.92-2.222-3.416-4.668-6.532-7.781-9.126 0.941 6.307 7.326 9.247 8.808 15.127-2.977-0.946-5.773-2.456-8.812-3.162-5.505-1.261-6.006-5.196-9.919-6.066-2.185 0.486-4.539 1.232-6.19 2.741 2.338 2.511 5.036 4.672 7.108 7.402-0.904 0.651-1.547 1.139-2.356 1.764 4.927 2.555 7.728 3.589 11.206 4.982-2.333 2.012-5.458-0.526-8.231-0.186-1.975-1.778-4.314-3.123-6.525-4.501 0.267-3.66-3.685-4.999-7.323-5.077-5.147-0.242-9.335-4.611-14.461-4.354-0.422 2.112 1.64 3.395 2.698 4.939-12.521-5.331-12.643-9.621-19.009-9.851 1.636 1.697 3.408 3.36 5.148 4.943-2.182-0.661-4.544-1.244-6.809-1.625 1.868 1.758 3.798 3.205 5.964 4.61-1.116 0.172-2.214 0.353-3.147 0.508-1.054-0.954-2.194-1.907-3.388-2.835v-2e-3c-0.02-0.013-0.049-0.037-0.073-0.055v5e-3c-9.9-6.984-10.191-5.685-12.311-5.479 0.028 1 0.039 2.529 0.12 4.935-1.455-0.913-2.93-1.896-4.511-3.004-13.157-10.089-9.685-3.498-22.551-12.222-0.658 0.296-1.575 0.762-2.208 1.083-2.031-1.983-4.355-3.352-7.133-3.721 12.137 14.642 7.307 12.834 13.737 12.896 7.525 5.605 6.32 8.489 11.033 10.671v2e-3c3.3 1.452 6.302 3.226 8.111 6.376-4.081 0.113-7.899-1.565-11.332-3.781-3.58-5.457-9.589-8.773-16.115-10.236 0.792 0.898 1.442 1.608 2.528 2.705-2.139 0.61-4.542 0.63-7.558 0.061v-1e-3c-0.036-5e-3 -0.044-7e-3 -0.085-0.015v1e-3c-7.587-1.122-10.112-6.12-15.588-4.18 5.544 3.784 9.282 9.076 14.52 13.067l-0.059 0.039 0.109 2e-3 0.011 9e-3 0.013-8e-3c2.489 0.038 9.659-2.371 13.938 4.77-2.801-1.608-5.955-1.898-9.008-2.179-9.524-0.877-7.049-2.644-13.961-5.478-0.049 0.667-0.129 2.284-0.157 3.54-2.582-0.898-3.429-1.172-4.458-1.509 1.111 5.236 7.219 5.952 10.579 9.271-2.048 0.15-4.668 0.341-6.907 0.61 1.597 1.754 3.787 2.897 6.152 3.211 0.036 0.17 0.263 1.211 0.284 1.306-2.896 0.035-5.776 0.202-8.622 0.089-1.804-0.229-3.231-0.212-4.667-0.04 2.158 2.581 5.252 3.641 8.372 4.915 0.355 2.645 2.586 4.128 4.47 5.743-5.256 0.192-10.217-7.123-18.037-7.583-0.046 0.262-0.27 1.444-0.362 1.897-6.197-1.343-6.131-1.536-12.839-3.599-4.007-1.484-8.241-1.264-12.2-2.834 0.063 0.779 0.064 0.91 0.124 1.66-11.219-0.95-3.492-1.553-24.268-3.168 2.706 3.324 7.249 1.497 10.831 2.789-2.034 0.157-4.114 0.509-6.128 0.85-16.153 2.74-9.142-1.356-22.683 0.04-2.235 0.231-4.545 0.468-6.809 0.247 0-0.056-4.546-0.608-4.602-0.614 1.046 2.316 3.311 2.846 5.561 3.758 0.322 1.095 0.65 2.141 1.061 3.469-1.448-0.27-12.953-2.948-16.031-1.131 2.311 1.174 4.677 2.237 6.966 3.467 1.633 2.798 3.743 4.969 6.275 6.456-10.072-1.165-1.183-4.449-20.676-2.102 2.63 1.2 5.278 1.511 8.18 1.834-0.607 1-0.728 1.143-1.32 2.229 0.905 0.222 4.444 1.057 7.237 1.693-2.643 0.162-4.688 0.344-6.604 0.592v-1e-3c-34.104-2.177-26.514-12.925-40.412-8.601 3.791 1.963 8.255 0.929 11.894 3.147-4.536 0.431-8.969-0.113-13.497 1.106 1 0.376 20.633 4.642 24.324 11.409 2.795 0.294 3.995 0.213 11.17 3.912-0.058 0.315-0.172 1.005-0.223 1.318-2.739-0.478-6.636-3.342-8.699-0.281 0.502 0.159 1.796 0.545 2.402 0.735-5e-3 0.273-0.013 0.672-0.032 1.731-1.716 0.366-3.376 0.696-4.937 0.98-3.796-0.337-7.355-0.492-11.076-0.209 1.528 0.883 2.325 1.335 3.642 2.09-3.276 0.533-7.364-1.142-9.808 1.826 1.853 1.177 3.094 1.935 4.715 2.947 0.179 0.431 0.564 1.353 0.78 1.769 1.737 0.735 3.267 1.618 4.811 3.005-0.383 0.318-1.094 0.914-1.468 1.233-14.151-0.943-18.957-2.924-21.38-3.146 0.54 1 1.232 2.29 2.233 3.746-3.974-0.225-7.452-3.241-11.528-1.568 4.317 2.216 8.591 5.466 13.732 4.967 1.007 2.449 3.466 3.934 6.75 4.077 3.265 1.357 5.67 4.632 9.459 4.862 0.165 0.821 0.329 1.56 0.502 2.254-3.064 0.135-6.186 0.08-9.205 0.027-22.666-0.399-20.243 5.364-37.443 4.894-2.2-0.154-4.149 0.538-6.089 1.568 3.386 0.665 7.193 0.755 9.084 3.95-14.559 0.971-15.238 0.899-18.529 1.899 1 0.389 1.686 0.662 3.971 1.502-20.649 7.265-19.634 3.693-24.919 1.888 9e-3 0.072 0.278 2.072 0.278 2.072 0.675 0.356 2.503 1.33 4.026 2.149-2.492 1.673-5.275 3.039-7.732 4.245l0.017 0.072c2.933-8e-3 5.988-0.11 9.033-0.058-1.889 2.486-4.989 2.989-8.003 3.774 3.089 2.675 7.274-0.472 10.307 1.977-1 0.413-16.192 6.407-32.99 16.46l0.024 0.07c11.85-1.472 15.289-11.527 26.147-4.546 1-0.281 2.608-0.691 4.693-1.329l2e-3 1e-3c0.027-0.01 0.089-0.028 0.123-0.039l-7e-3 -2e-3c4.336-1.619 8.707-2.199 12.99-1.714 0.07 0.375 0.169 0.831 0.239 1.172-14.15 5.565-14.443 1.531-23.289 7.498 4.234 0.514 8.391-0.392 12.257 1.239-2.559 0.465-5.186 0.322-7.764 0.593-2.489 0.491-4.87 1.578-7.392 1.861-7.144-1.036-10.767 1.14-18.438 1.51-2.957 0.142-9.383 0.636-7.132 2.887 2.078 0.519 4.59 0.706 6.769 1.078-8.634 2.795-8.921-2.716-16.519 2.438 4.16-0.21 7.632 0.445 11.564 0.495 2.021 0.079 4.235-0.83 6.138 0.166 1.773 0.855 3.722 1.273 5.729 1.66 1.673 2.041 4.323 1.573 6.682 1.573-4.246 1.682-6.057 3.2-12.477 2.258-4.687-0.759-9.391 0.702-14.081 0.251-2.907-0.284-4.907 2.049-6.625 4.375 7.083-1.273 14.292-2.569 21.31-1.118-3.777 1.038-7.722 1.267-11.5 2.257l8e-3 0.075c3.446 0.199 7.028 0.691 9.895 2.917-3.267 0.951-6.854 1.487-11.775 2.103-0.02 0.058-0.51 1.571-0.524 1.614 2.057 0.193 4.074-0.021 5.92 0.71 0.751 1.212 1.349 2.566 1.905 3.747-4.094 0.829-8.119 1.145-13.981 1.72 0.257 0.649 0.541 1.273 0.837 1.909-1.279 0.594-2.5 1.186-3.776 1.838 3.378 0.175 6.405-0.621 9.598-1.75-0.476 0.848-0.79 1.452-1.198 2.244 3.976 0.542 8.042-1.562 11.758 0.353-1.69 0.607-3.457 1.079-5.167 1.534-11.59 3.079-9.285 4.984-21.817 7.762-2.447 0.503-4.644 1.54-6.711 2.952 2.887 1.146 2.907 1.144 4.738 1.861-5.071 3.036-10.947 0.997-16.646 2.063 3.964 2.42 8.344 2.77 12.421 4.715-0.864 0.383-1.748 0.788-2.611 1.183-3.345-0.134-6.385 1.111-9.156 2.967-3.47 0.897-6.462 2.921-9.682 4.336-4.202-0.416-8.315-2.883-12.449-0.543 1.871 0.62 4.104 1.293 5.903 1.836 0.829 1.625 0.721 1.365 1.243 2.365 2.813-0.313 5.694-0.638 8.501 0.273-4.757 3.777-10.377 7.355-16.045 5.382-6.19-1.977-15.389-0.033-13.029 3.169 1.568 0.457 2.951 0.707 4.992 1.032-0.013-0.594-0.015-1.055 0.021-1.718 2.951-0.227 6.047-0.626 9.028 0.099-4.377 2.219-9.227 3.03-13.131 6.381 8.591 1.785 12.55-6.264 24.838-6.089-10.212 7.907-30.329 18.546-37.458 25.787 6.737 0.073 12.207-4.663 18.846-4.679-3.543 2.203-7.312 3.847-9.963 7.248 6.688-2.069 14.032-2.378 21.234-0.575-11.698 7.04-8.964-1.179-26.266 10.771 9.198 0.312 4.887-3.953 24.693-3.095 8.613 0.37 8.959 0.103 11.846-0.578 1.948-0.46 4.401-1.048 6.638-1.005-13.337 6.643-6.518 4.743-17.907 4.743 0.18 1.937 1.389 3.566 2.486 5.182-3.601 3.433-5.494-1.75-9.507 8.533 2.386 0.555 4.8 0.865 9.04 0.625-1.739 1.467-3.661 3.11-5.482 4.632-3.506 0.414-6.72 1.703-9.38 3.961 1.044 0.34 2.101 0.679 3.138 1.009-4.663 1.866-8.01 2.95-12.072 4.169 0.39 0.502 1.148 1.439 1.794 2.204-4.407 4.178-10.504 5.336-16.248 6.515-5.521-0.422-6.304-5.898-12.732-2.783 3.228 1.926 7.088 2.666 10.432 4.435-4.146 2.567-5.332 3.395-6.819 4.401 0.554 0.721 1.065 1.372 1.689 2.081-0.51 0.61-0.898 1.103-1.345 1.681 0.749 0.365 1.371 0.67 2.144 1.036-1.216 1.419-4.933 3.215-2.66 5.221 0.234 0.152 6.38 2.454 6.792 2.632-3.75 0.837-7.489 2.907-11.414 2.039-4.014-0.86-8.167-0.191-11.956 1.433 9.01 3.245 5.802 0.015 21.178-0.295-2.19 1.829-5.301 1.788-7.62 3.473 0.997 0.473 1.983 0.929 2.927 1.356-1.92 1.016-3.018 1.664-4.148 2.901 1.422 1.909 3.887-0.786 5.788-0.818 3.401 0.08 6.817-0.306 10.046-1.334-0.073 0.324-0.315 1.404-0.339 1.509-3.124 2.478-3.801 3.452-8.388 5.286-12.339 5.525 5.208-0.891-12.7 5.228 1.716 1.642 4.01 1.048 6.143 1.11-7.551 4.809-7.387-0.718-13.229 5.006 3.44-0.2 7.28-0.684 10.548-1.123-0.588 1.4-2.554 3.01-0.641 4.206 1.585-0.572 4.047-1.888 5.776-2.691-2.244 3.599-6.832 3.893-10.173 6.364 4.632 0.807 9.023-0.885 13.486-1.527-4.531 6.693-3.649 1.715-5.671 9.441 1.993-0.181 4.318-0.38 6.371-0.534-2.632 1.428-4.821 2.537-6.831 4.535 2.758-0.354 5.101-1.056 7.9-1.914-1.826 3.026-5.152 4.516-7.04 7.656 4.986-0.518 9.109-3.336 13.984-3.76-0.426 1.386-0.866 2.763-1.297 4.119-17.283 3.547-19.842 11.993-26.497 7.392-3.195-2.089-11.99-0.084-15.418 1.666 6.076 1.347 12.713 1.897 17.154 6.41-1.902 0.235-4.103 0.018-5.53 1.56-4.108-0.121-18.034 5.59-19.823 7.085 7.548 0.183 10.926-4.273 15.946-0.471-0.424 0.212-4.247 2.096-4.534 2.243 0.629 0.863 0.538 0.736 1.152 1.576-1.311 0.927-2.568 2.056-4.065 2.635-4.246 0.614-8.62-0.558-12.87 0.408-1.435 1.614 0.648 2.184 2.042 3.02-2.696-0.654-5.298-0.788-8.055-0.572 1.992 3.163 5.523 3.549 9.229 3.786-3.662 1.863-7.523 2.844-11.396 4.689 3.02 0.586 5.016 0.936 7.989 1.489-0.054 0.622-0.064 0.785-0.115 1.372-2.427 0.56-4.307 1.879-4.731 4.334 1.722-0.232 3.972-0.572 6.049-0.813-4.435 5.159-20.86 7.869-17.935 11.633 1.825 1.369 6.915-4.644 15.655-6.61 0.059 0.184 0.592 1.815 0.652 1.999 9.857 0.789 4.021 1.457 13.407-1.638 0.211 0.975 0.483 1.945 0.643 2.926-2.457 1.327-5.379 1.509-7.402 3.716 1.348-0.089 2.795-0.201 4.147-0.313 0.5 0.313 1.124 0.69 1.634 0.996-12.06 6.961-17.786 2.921-20.054 8.504-1.749 4.33-5.318 7.613-7.92 10.703 0 0 0.902 1.988 0.904 1.994 2.219-1.764 4.219-3.878 6.034-6.443 10.441-0.12 3.162 3.565 12.447 2.223 0.147 0.442 0.424 1.292 0.574 1.77-8.417 0.676-6.164-0.611-11.335 4.738 2.371 0.171 5.811 0.296 9.578 0.273-0.145 1.199-0.252 2.365-0.281 2.814 2.343-0.255 4.806-0.46 7.192-0.574-8.385 6.416-11.979 4.027-15.552 8.254 3.887 0.909 8.266-2.606 21.239-6.182 0.308 0.299 0.863 0.832 1.155 1.107-0.5 1.104-0.665 1.521-0.983 2.325 1.535-0.136 3.21-0.254 4.703-0.284-2.519 0.905-5.28 0.604-7.832 1.291-14.573 5.245-13.03 3.386-16.874 5.865 1.703 0.41 3.112 0.744 4.6 1.125-2.634 1.663-5.859 1.441-8.617 3.182 4.071 0.234 7.981-0.752 11.852 0.109-2.237 1.649-4.049 2.973-5.167 5.38 2.078-0.04 3.602-0.074 5.196-0.082-1.411 1.237-2.872 2.406-4.339 3.573 4.087 0.568 7.966-0.023 11.977 0.028-0.599 1-1.784 3.034-2.071 3.537 1.691 0.066 3.342 0.259 4.911 0.914-3.376 1.624-6.85 2.508-9.54 5.355 5.554-1.206 10.466-2.559 15.213 1.021-7.917-0.75-3.989-1.098-13.272 1.705 0.519 0.206 3.66 1.478 4.178 1.687-2.669 0.964-6.209 0.776-7.676 3.665 4.566-0.418 8.816-1.721 13.302-2.137-8.445 5.279-2.53 3.636-12.078 6.439 0.142 0.139 0.966 0.965 0.966 0.965 10.114-1.331 12.48-3.245 11.262 7.798 2.544-1.311 3.747-3.801 5.646-5.709 1.414-0.567 2.995-0.627 4.502-0.841-0.449 0.727-0.882 1.466-1.247 2.123 1.577-0.11 3.208-0.204 4.867 0.091-0.728 0.83-2.245 2.604-2.78 3.237 9.681-1.342 5.105 1.836 15.325-1.376-0.628 0.53-1.306 1.114-1.306 1.114 2.159 3.711 3.293 3.914 8.024 3.161-1.423 0.979-2.56 1.789-3.919 2.732-1.872-0.528-3.843-0.556-5.658-0.66l-0.018 0.072 1.113 0.522-0.98 0.677c1.281 0.269 2.562 0.581 3.795 0.934-14.438 9.855-28.989 20.784-45.437 27.6-39.104 17.907-171.35 20.289-284.74-1.452-18.835-3.416-18.405-7.18-74.705-9.733-33.09-1.499-90.872 5.443-97.025 7.419-42.906 12.437-120.45 34.14-168.99 71.773-1.647-1.979-3.844-4.548-6.284-6.943-2.802-3.372-6.055-6.77-10.543-11.013l1e-3 -1e-3c-0.025-0.023-0.038-0.034-0.057-0.053h-1e-3c-1.308-1.188-2.777-2.493-4.254-3.8-1.101-0.968-2.095-1.849-3.095-2.677l0.011-3e-3c-0.022-0.014-0.063-0.04-0.081-0.056l-2e-3 1e-3c-4.825-3.19-10.552-6.272-16.455-5-1.602 0.234-11.027 1.267-11.043 1.271-8.357 1.206-16.172 4.734-24.445 6.754l3e-3 1e-3c-2.578 0.623-4.837 1.44-7.264 2.416 0.272 0.31 0.736 0.817 1.013 1.119-1.773 0.798-3.298 1.645-4.662 2.589l0.025 0.069c2.497-0.267 5.026-0.74 7.487-1.156-11.133 6.378-31.289 12.19-41.615 15.76-14.761 2.97-30.432 9.435-46.479 10.542-9.19 0.676-8.114 1.93-26.216 1.601-4.239-0.077-8.621-0.155-12.911 0.292l-4e-3 0.075c2.731 0.625 5.491 1.182 8.214 1.817-7.046 1.079-14.006-1.29-21.032-1.059l-0.01 0.074c6.089 2.006 12.768 1.676 18.746 4.026-2.871-0.071-5.914-0.178-8.898-0.125l-9e-3 0.075c1.465 0.385 2.791 0.737 4.132 1.133-2.92 1.07-6.127 0.964-9.156 1.497l1e-3 0.075c4.294 0.55 8.671 0.378 12.967 0.646-0.626 0.268-1.524 0.656-2.398 1.04 5.436 0.559 10.281-0.333 15.571-0.451-7.118 3.346-10.749 2.8-12.887 2.624-8.355-0.69-2.245 1.255-14.737 0.689l-0.01 0.075c1.476 0.336 2.96 0.691 3.987 0.934-10.87 1.659-7.721 2.98-22.958 1.47-10.12-1.003-17.568-0.363-33.4-5.362-1.602-0.51-28.237-8.293-37.078-7.601 4.878 3.379 10.935 3.036 15.895 5.917-3.906-0.018-7.544-1.067-11.731-1.454 0.836 0.583 1.518 1.071 2.394 1.689-3.407-0.652-5.059-1.03-6.059-1.243-0.232 0.286-0.806 1.005-0.909 1.13 20.695 6.282 22.154 4.706 29.124 8.039 14.766 7.059 39.034 8.66 57.862 11.251-0.056 0.627-0.096 1.282-0.133 1.866-115.98 8.294-137.16-58.108-419.76 29.083-0.022 7e-3 -0.012 4e-3 -0.088 0.028l1e-3 1e-3c-17.406 5.581-93.021 38.035-103.66 49.715l0.041 0.061c5.659-2.139 10.713-5.66 16.279-7.991 0.544 0.413 1.303 0.985 1.831 1.401 116.69-55.692 173-64.154 187.22-68.518 1 0 129.4-30.741 218.62-9.714 23.678 5.582 71.592 10.89 112.59 8.469l0.01-0.074c-1.45-0.494-3.371-1.16-5.308-1.742 4.869-0.064 7.816 1.51 12.901 0.966 4.506-0.414 9.077-1.242 13.632-1.061-4.291 0.676-8.776 1.558-14.072 2.768-4.005 0.859-8.978-0.816-12.135 2.598-7.965 0-19.774 2.332-26.549 1.101h-3e-3c-44.551-3.757-23.787 0.905-62.604-6.282-41.03-9.529-110.25-7.773-122.96-5.03h-1e-3s-19.051 0.773-33.099 2.705c-22.407-3.266-175.46 31.453-188.6 49.573 4.372-0.216 7.504-3.455 11.625-4.296-24.176 17.773-23.171 13.423-31.226 20.94-3.354 1.036-6.325 3.005-9.436 4.548-31.947 16.181-107.83 58.254-123.08 90.666 5.46-3.428 16.861-17.826 23.002-19.669 0.18-0.316 1.012-1.78 1.497-2.639 0.839-0.207 1.702-0.403 2.558-0.59 1.426-2.297 2.401-4.899 5.467-4.899 0 0 32.423-19.379 37.399-21.817-2.131 3-4.9 5.419-5.795 9.211 10.489-9.764 6.633-4.28 11.897-12.464 1.172-0.665 2.266-1.269 3.341-1.845-0.853 2.63-1.141 3.608-1.447 4.625 2.093-1.659 3.824-3.561 5.461-5.741 2.698-3.716 5.435-3.605 23.119-13.807 0.198 0.341 0.905 1.564 0.963 1.665 0.878-1 1.71-1.969 3.015-3.369-1.705 6.255-6.72 10.822-8.085 17.476 1.644 1.766 2.312-2.331 11.829-18.401-0.049 3.016 8e-3 5.682 0.771 8.485 1.037-4.214 2.049-8.552 4.538-12.19 0.412 0.196 1.345 0.646 1.859 0.89 0.12 3.073-0.08 6.074-0.269 8.727 1.959-2.471 2.65-5.355 3.069-8.509 0.827-0.499 1.557-0.931 2.23-1.317-0.782 2.398-1.219 4.849-1.299 7.287-2.669 2.886-6.223 6.702-7.174 11.138 0.601 4.206 4.183 8.281 1.476 12.083-1.158-2.147-2.097-3.748-3.057-5.288 0.221 12.482-1.329 3.793-9.29 26.919-0.08 0.224-0.463 1.333-0.577 1.657-3.522 1.895-6.733 3.634-9.463 6.266 0.913 0 1.771 6e-3 2.699 0.029-5.187 3.371-19.358 16.281-22.364 18.285-1.313 2.363-3.538 4.629-9.17 6.394-3.233 0.853-3.753 4.721-6.184 6.565-11.521 9.528-38.482 35.964-38.482 35.964-7.526 6.525-2e-3 1.092-9.177 11.946-5.584 6.742-35.087 30.327-37.11 34.7 6.529-3.596 22.17-19.234 26.679-21.534 5.801-2.736 9.863-8.059 15.581-10.907-3.83 5.744-8.567 12.282-14.684 17.371-3.167 3.052-7.829 4.786-8.791 9.618 2.993-2.394 5.117-5.367 8.438-6.851 0 0-31.54 29.027-44.707 43.173-7.968 8.546-2.776 5.142-12.03 15.515v1.75c4.66-4.086 25.959-32.381 53.338-52.407 5.712-5.939 12.747-10.509 18.798-16.046 2.448-2.377 4.405-5.371 7.339-7.156 3.591-0.717 4.463 0.838 7.25-5.183 2.119-4.58 1.468-3.453 14.039-12.072 10.548-7.232 21.453-14.711 32.405-21.736-0.449 1.224-0.849 2.311-1.236 3.413-3.351 2.093-5.992 4.103-8.611 6.366 1.144-0.187 2.198-0.337 3.69-0.549-44.094 31-46.622 32.27-50.912 37.166 0 0 54.137-37.594 73.942-49.649-0.651 1.527-1.24 2.775-0.389 4.237 3.966-6.183 2.426-6.312 9.446-9.988-0.144 1.476-0.318 3.313-0.318 3.313 0.852-0.679 1.981-1.553 2.981-2.297-2.448 4.647-8.109 6.556-10.006 11.634 1.469-0.643 2.964-1.31 4.378-2.141-1.356 3.125-12.11 12.867-15.891 18.785 0.421 1.001 1.253 3.001 1.86 4.496-1.004 0.983-2.181 2.141-3.339 3.322 0.238-2.286 1.125-4.619-1.006-6.209-1.557 2.477-0.592 5.109-0.522 7.768-2.672 3.964-6.147 7.433-9.347 10.967-1.338-1.329-2.959-0.461-3.506 1.131-4.469 9.001-11.942 16.048-19.102 23.099-0.497-1.914-0.913-3.847-1.237-5.746l-0.074-3e-3c-1.19 4.589-0.372 10.236-4.104 13.753 0.604-2.312 0.888-4.354 0.321-6.636-2.939 10.211 0.189 7.971-9.419 16.013 1-0.067 2.051-0.155 3.436-0.216-19.37 30.594-8.53 6.369-59.328 64.423 0.077 0.153 0.728 1.454 0.788 1.577 10.206-10.604 20.132-24.063 46.756-44.29-0.19 1.428-0.267 2.109-0.386 3.109 3.656-2.489 4.728-6.9 8.237-9.281-0.958 11.08-9.79 11.106-15.998 21.039 1-0.014 2.054-0.049 3.661-0.05-4.769 5.452-11.843 8.364-15.89 14.643 4.398-1.38 63.75-51.045 66.873-51.402 0.501-0.791 0.945-1.489 1.472-2.293 0.17 0.847 0.37 1.699 0.402 2.559-3.095 3.251-7.448 5.101-10.305 8.646l0.046 0.058c8.27-4.217 14.504-8.354 19.62-13.02 0 0 2.349-1.55 4.807-3.033-6.513 10.214-32.784 25.542-40.504 34.56l0.046 0.058c8.856-4.645 16.062-11.829 24.167-17.532 0.229 0.157 0.866 0.583 1.151 0.776 0.864-1.286 1.857-2.585 2.928-3.721 0.344 1.902 1.085 4.006-0.162 5.721-7.091 11.687-8.282 9.47-9.307 14.748-1.145 5.877-2.246 2.949-31.266 35.7-1.787 0.253-3.892 0.127-5.086 1.711-22.53 26.297-12.209 17.495-16.932 24.333-0.658 1-27.178 31.021-28.403 46.328 3.877-5.885 5.348-12.526 9.086-18.227-0.387 1.794-0.863 4.112-1.205 6.476l0.07 0.025c10.792-17.714 44.032-61.796 61.222-72.202-1.097 3.427-3.784 5.792-5.847 8.996 3.03-1.315 5.048-3.756 7.435-5.904-1.024 3.081-2.195 6.023-3.209 8.501-0.968 2.077-1.37 4.279-1.627 6.547 12.154-13.354 11.164-13.487 15.574-16.469 0.057 5.388-4.464 8.811-7.922 12.369-10.832 9.802-29.197 33.216-32.006 39.669 4.897-3.112 26.859-33.161 36.461-38.429-1.051 3.412-3.029 7.516-4.285 9.714 0 0 0.33 1.073 0.594 1.871 4.388-5.461 4.834-12.945 9.1-18.363 3.553-2.38 5.935-5.893 8.239-9.29 6.054-8.929 4.861-5.053 8.589-12.023 1.505-2.817 2.226-4.277 7.339-7.811 0.089 0.101 1.516 1.695 1.516 1.695 0.83-2.014 1.993-3.831 3.722-5.207-0.269 2.659-0.623 5.869-0.807 8.995-0.604 0.399-1.149 0.785-1.731 1.194v1e-3c-3.295 2.202-5.642 5.475-7.962 8.696l0.049 0.056c2.077-1.142 4.087-2.452 5.792-3.594-6.705 14.434-15.8 19.817-19.997 26.904 5.896-2.936 6.5-1.827 16.726-14.869 2.044-2.757 5.157-4.548 7.068-7.436 0.296 0.296 0.713 0.712 1.005 0.996 1.027-5.326 3.901-10.073 7.132-14.391-3.175 10.484-0.475 10.737-3.053 17.182 0.108 0.029 0.991 0.284 1.369 0.4 0.139 0.977 0.249 1.705 0.375 2.579-3 6.036-11.543 17.734-16.445 27.305-12.18 21.607-8.625 21.265-13.643 32.16-1.373 2.982-2.793 6.065-3.177 9.437l0.069 0.025c0.972-1.427 19.45-37.927 21.128-45.702 1.007-1.791 2.075-3.505 3.173-5.249 1.27 3.589-0.562 7.052-1.77 10.336-1.053 2.438-0.338 5.146-0.633 7.672-5.679 20.919 1.334 1.613-6.816 23.532-11.922 31.703-3.086 3.099-9.878 34.7-0.599 2.789-1.218 5.673-1.103 8.605l0.074 0.01c2.64-8.188 4.015-16.822 5.507-25.21 0.789-5.773 7.023-16.251 14.175-34.745 0.268 1.437 0.51 2.73 0.728 3.981l0.075-1e-3c1.291-8.215 3.455-17.507 9.716-24.155 3.185 6.622-0.592 22.763-2.896 29.099 0 0 0.449 0.224 1.366 0.694 0.285 1.426 0.446 2.238 0.66 3.303l0.074 1e-3c1.462-5.864 1.981-12.657 6.584-17.082-1.411 7.759-2.591 15.99-6.358 23.16-0.474-0.357-0.858-0.637-1.299-0.952-0.299 4.053-0.49 8.01-3.808 10.38-0.711 4.552-3.128 7.889-4.612 12.244 2.014-1.707 2.653-2.12 10.303-17.062 3.642 14.466-9.098 16.333-13.511 42.813 10.502-6.474 26.53-36.74 29.762-38.866 1.94-1.373 2.938-3.614 4.123-5.564 0.104 2.245 0.245 4.752 0.213 7.218-0.6 1.347-1.277 2.933-1.836 4.269 0.707 0.154 1.298 0.303 2.011 0.484-4.775 8.563-3.402 4.238-6.601 11.261-4.108 9.028-9.872 11.719-14.062 21.408 4.293-3.206 6.459-8.16 10.793-11.051-1.106 4.948-4.834 8.555-6.421 13.562 4.635-3.735 8.36-8.778 9.56-14.585 0.802-4.161 4.593-6.638 6.405-10.277l4e-3 3e-3c0.021-0.049 0.014-0.035 0.031-0.069l-1e-3 -1e-3c1.485-3.575 3.437-6.989 5.326-10.288 8.74-15.272-0.022-3.83 15.626-19.509-0.182 1.592-0.33 2.821-0.479 3.976-1.641 2.138-3.489 3.918-3.295 6.693 0.278-0.053 1.182-0.197 2.127-0.317-0.794 5.013-3.403 9.262-4.798 14.407 1.039-1.054 2.017-2.08 3.165-3.344-0.212 1.906-0.34 3.464-0.43 5.015 3.134-2.825 3.493-7.13 4.508-10.927 0.971 1.839 1.661 3.984 2.109 6.552-2.645 3.324-4.787 7.057-7.197 10.547-0.011 0.018-6e-3 0.01-0.045 0.066l3e-3 1e-3c-1.598 2.472-2.934 4.991-3.595 6.197 0.907-0.064 1.246-0.091 2.488-0.14-2.07 3.148-4.958 5.682-5.975 9.535 6.412-4.827 8.643-11.457 12.51-15.73 2.952-3.262 2.471-3.158 3.16-8.416 0.704-1 1.988-3.33 4.264-6.425 2.576 7.483-2.44 10.94-3.896 15.86 0.584-0.493 2.604-2.19 2.755-2.318-0.873 2.623-1.853 4.952-2.993 7.116-1.11-0.339-2.211-0.652-3.247-0.948-0.99 3.86-1.65 8.015-0.719 11.835 0.828-1.138 1.207-2.293 1.652-3.684 2.135-6.66 6.574-7.303 8.145-16.088 1.594-8.906 7.111-11.458 6.386-17.516 2.272-10.458 3.554-6.188 9.518-18.899 0.274 0.132 1.672 0.79 1.874 0.889 1.382-2.037 3.263-4.816 5.976-6.708-0.633 1.393-1.211 2.51-1.616 3.997 3.881 12.197-2.144 7.271-7.91 23.478 1-0.617 1.808-1.126 3.418-2.104-1.513 5.315-4.841 10.256-4.785 15.965l0.072 0.017c3.745-7.771 7.109-15.843 10.926-23.573-0.285 3.812-14.584 48.85-14.29 57.755 3.911-4.003 1.084-2.379 6.179-18.001 0.156 1.314 0.279 2.319 0.458 3.797l0.073 8e-3c8.581-24.434 12.738-25.905 14.798-35.399 1.536-7.08 2.137-4.669 5.088-9.486 0.082 0.161 0.26 0.52 0.342 0.677-2.247 5.077 0.147 10.481 2.486 14.623l0.071-0.02c-0.188-11.804 8.031-32.05 14.16-42.692-0.018 1.615 0.098 3.144 0.19 4.4 2.149-2.059 2.907-4.715 4.249-7.231-0.19 2.652-7.799 22.13-8.247 23.185-3.339 2.079-1.626 7.098-5.055 9.384 0.276 1.89 0.308 4.253 2.122 5.638-0.636 5.26-4.192 9.614-5.476 14.727-5.115 8.26-4.337 18.323-4.861 20.187-0.842 3.011-1.565 5.695-0.583 8.655 0.533-1.118 0.62-1.311 1.06-2.236 0.49-0.053 1.476-0.153 2.029-0.204 0.492 5.71-3.248 10.73-2.326 16.586 2.102-3.593 2.645-7.573 4.215-11.297 0.274 0.212 0.803 0.619 1.108 0.845 1.153-13.26 6.221-16.859 7.339-24.614 0.759-5.253 1.448-6.228 3.717-11.288-0.791 0.381-1.119 0.532-2.041 0.998 1.622-4.52 1.672-9.389 2.863-13.979-0.011 1.445-0.049 3.217-0.065 4.221 2.983-4.29 3.933-9.21 6.759-13.386 0.419 3.452-0.8 6.803-2.172 10.032 0.364 0.103 0.923 0.256 1.292 0.357-0.606 2.188-1.051 4.149-1.359 6l0.068 0.028c1.705-2.37 3.073-5.009 4.443-7.489 1.36 15.753-0.954 8.617 0.442 18.151-0.944-0.356-1.82-0.665-2.273-0.816-0.645 3.337 0.8 6.268 1.839 9.355l0.074-9e-3c0.465-6.442 6.066-32.238 6.55-34.015 1.528 2.307 0.81 5.022 0.176 7.421-0.866 2.995 0.238 6.165-0.542 9.166-4.276 15.95-3.904 14.769-2.466 18.736 1.601-6.507 2.342-12.458 4.522-18.193 0.498 4.762-1.555 9.175-1.083 14.146 2.33-4.083 2.549-8.39 4.239-12.544 0.283 2.745-0.039 5.558-0.259 8.184-0.323 3.277 1.152 6.665-0.055 9.852-1.065 2.891-2.13 5.327-1.88 8.325 1.157-1.555 1.99-3.17 2.763-4.942 0.515 0.872 0.664 1.117 1.198 2.034 1.143-2.698 2.036-5.615 3.249-8.33 1.323 3.051-0.499 6.084-0.869 9.384 5.597-6.552 17.078-42.587 23.937-44.358-1.738 3.875-7.119 13.712-5.298 24.501 2.698-2.823 3.469-6.27 4.292-10.103 2.14-9.959 1.007-2.244 10.979-24.922 0.536 0.673 1.112 1.424 1.636 2.111 1.298-5.325 3.386-10.336 6.856-14.709-0.112 1.404-0.198 2.557-0.282 3.932 0.112-0.163 12.779-24.483 12.779-24.483-0.855 3.201-1.157 6.506-1.445 9.709-0.312-0.26-1.724-1.408-1.746-1.426-0.844 1.651-0.663 3.304-0.601 5.154-2.467 6.94-7.142 13.144-8.429 20.559-0.167-0.424-0.851-2.136-0.852-2.14-2.66 2.206-1.696 5.333-1.467 8.473-0.294-1.424-0.528-2.544-0.8-3.84-1.322 4.189-2.063 8.379-2.011 12.809 5.785-8.925 7.05-19.64 13.39-27.884-1.551 5.64-3.965 11.094-6.182 16.351-1.995 4.444-2.446 9.467-4.751 13.786-2.756 5.296-4.245 11.098-4.131 16.976 3.958-4.701 15.76-40.609 16.147-45.072 0.843 0.578 1.529 1.068 1.758 1.237 2.974-7.557 1.877-16.059 6.241-22.863 2.45-4.017 3.619-8.661 5.896-12.754 1.414-2.914 13.768-24.835 12.578-33.704 1.372-2.342 2.39-4.166 3.293-5.897 2.238 7.582-12.509 34.782-15.599 49.058 2.06-2.147 11.335-23.398 11.727-24.403 0.598 0.376 1.146 0.739 1.444 0.946 0.526-1 1.383-2.635 2.435-4.475-1.327 6.981-4.744 8.759-3.976 13.555 0.659 4.109-4.179 16.719-5.988 21.518-3.312 8.115-4.954 16.809-6.236 24.994l0.068 0.028c0.656-0.876 13.282-35.103 13.461-35.676 0.035 0.058 0.803 1.328 0.836 1.384 0.422-1.001 1.298-3.007 2.563-6.349-0.111 13.998-7.54 22.589-4.372 31.304-1.342 8.024-4.999 14.477-3.521 19.95 5.797-9.497 4.775-17.841 12.825-43.201 0.829 5.678-0.504 11.443-0.616 17.125l0.071 0.02c2.747-4.802 3.096-10.592 4.077-15.896l-0.068-0.029c-0.549 0.749-1.087 1.544-1.615 2.313 1.719-15.496 15.238-67.731 18.932-74.179 1.818 8.003-0.043 16.425 1.703 24.47 0.759 3.111 0.748 6.252 0.351 9.431 0.431-0.39 0.791-0.691 1.271-1.078 4.012 24.505 2.997 25.498 6.604 30.549 0.584-6.011-2.428-6.4-2.814-18.26-0.321-9.866-2.769-13.898-2.374-21.535 1.482 3.141 2.504 6.525 3.566 9.896 1.161-2.516 2.406-4.3-2.055-17.354-2.492-6.809-2.003-14.255-3.366-21.272-0.035-12.667 16.56-31.15 19.095-35.999 2.449 0.709 5.481 2.202 6.128 5.293-1.087-0.164-2.191-0.301-3.191-0.448 1.164 1.666 2.16 3.469 2.326 5.518-3.476 10.638-13.677 24.525-11.551 58.373 2.701 9.534-1.803 20.26 3.185 29.3l0.071-0.021c-0.166-3.093-0.705-6.148-0.986-9.228 3.109 6.246 3.548 22.129 5.781 28.098-0.278-0.161-1.801-1.038-1.835-1.058 0.505 2.386 1.807 4.308 4.086 5.051 1.481 7.594 1.865 14.214 8.936 14.645-1.912-2.025-4.136-3.917-5.379-5.021 1.209 0.127 2.612 0.293 3.712 0.449-3.237-3.088-1.563-3.632-7.679-17.767-2.176-5.032-0.58-4.906-3.314-26.341 0.587 0.406 1.169 0.821 1.492 1.058-0.372-2.535-0.605-5.015-0.636-7.828 4.217 3.702 3.272 9.53 6.022 18.006l0.074-5e-3c0.935-5.447-0.939-10.853-1.12-16.264 3.625 7.692-0.161 14.852 11.657 29.312 0.762 1.122 2.167 1.119 3.482 1.567-1.83-2.57-3.271-5.272-4.103-8.398-0.89-3.683-4.183-6.011-5.806-9.25-1.677-4.521-1.364-9.572-3.077-14.095-1.65-4.678-5.016-9.619-3.054-14.676 0.655 2.403 1.269 4.573 2.101 6.719l0.073-0.016c-1.766-37.962-11.452-47.27 3.303-68.575 4.347 1.669 8.237 4.737 12.992 5.279l0.025-0.07c-3.682-2.395-7.981-3.867-11.321-6.784 0.862-0.441 1.68-0.828 2.05-0.99-0.588-0.739-1.13-1.417-1.518-1.902 0.87-1.209 1.757-2.325 2.599-3.502 3.124 0.715 5.474 1.736 8.808 1.736 8e-3 -8e-3 1.642-1.485 1.65-1.492-2.589-1.036-5.082-1.393-7.882-1.48 1.015-2.322 2.833-4.113 4.591-5.845 32.07-31.697 41.45-29.867 60.583-43.156 39.531-13.373 92.217-22.232 104.62-26.727 1 0.441 1.965 0.891 3.12 1.389-1-0.092-34.7 10.195-37.583 12.991 7.249-0.827 14.55-4.086 21.721-5.825 6.615-0.824 13.016-2.215 19.029-4.136-15.908 13.104-53.713 20.835-60.716 26.364 7.565-0.314 44.455-14.539 45.456-14.959 8.073-0.403 14.458-5.736 21.762-5.31 6.62 0.388 37.591-13.404 46.264-17.123l1e-3 2e-3c0.041-0.022 0.021-0.012 0.069-0.033l-1e-3 -2e-3c3.904-2.07 31.38-12.381 45.007-20.309l0.25-0.063v1e-3c8.091-1.026 11.033-5.835 23.568-10.551-3.491 2.793-7.842 4.558-10.792 8.048-0.873 0.103-1.864 0.242-2.454 0.335-0.043 1.081-0.083 2.102-0.106 3.102-117.25 62.186-90.731 44.611-111.15 54.606l0.031 0.069c35.089-14.175 69.295-29.696 103.42-48.102 0.531 0.133 1.798 0.456 2.366 0.599-3.202 2.248-5.919 5.143-9.097 7.409-3.157 2.314-6.721 4.235-9.534 7.048l0.04 0.063c7.167-2.635 13.333-7.486 19.798-11.319 27.196-12.544 41.226-26.813 52.057-32.553-0.331 1.283-0.635 2.588-0.889 3.702-1.659 0.775-3.382 1.686-4.747 3.084-10.001 10.121-33.309 20.749-37.247 27.453 4.875 1.793 23.199-14.434 40.558-24.501-3e-3 0.018-17.46 87.539-21.303 110.82-6.729 33.964-6.007 82.786-6.664 96.354-7.319 21.284-18.737 37.599-22.455 43.437-29.634 46.546-29.829 58.727-84.16 102.61-18.356 16.195-12.532 25.234-30.105 98.688-9.606 36.569-14.912 61.823-32.122 90.287-14.85 22.662-29.214 28.898-35.354 37.085l1.231 0.778c-1 1.382-1.344 1.851-2.103 2.956 8.75-0.648 6.062 0.246 12.224-3.577 9.093-1.18 5.833-3.978 14.85-9.101-0.598 0.998-1.044 1.807-1.614 2.772-2.838 2.232-5.605 4.681-7.998 7.364 0.611 0.323 2.409 1.326 3.012 1.663-43.152 73.398-50.733 72.975-57.745 105.44 2.147-2.077 3.939-4.346 4.518-7.295 1.941-1.047 3.552-2.727 4.666-4.866 0.715-0.846 1.458-1.608 2.279-2.439-0.584 5.864-1.684 11.031-2.291 17.401 0.022 0.019 1.193 0.916 1.282 0.985 0.59-3.894 1.066-7.736 2.403-11.292-0.896 23.712 2.243 15.203-0.652 24.754h-1e-3c-6.046 17.518-3.092 21.607-0.963 25.854 0.229-0.217 0.777-0.719 0.998-0.927 0.162 0.923 0.345 1.969 0.514 2.879l0.074 3e-3c0.552-2.063 1.057-4.345 1.586-7.158 0.244 2.688 0.509 5.779 0.647 8.834l0.076 4e-3c0.548-3.797 0.679-7.993 3.458-10.902 0.14 3.342 0.097 6.792 0.442 10.18l0.075 3e-3c0.696-3.704 1.073-7.484 1.761-11.164 0.067 3.656 0.51 10.921 1.363 14.461l0.075-6e-3c0.455-5.366 2.091-10.477 3.089-15.844 1.299 5.279-1.211 11.248 1.87 16.057 2.27 3.224 0.354 7.255 1.043 11.124 1.946-1.927 2.682-4.481 4.016-6.726 1.507 4.153 0.914 8.66 3.313 12.68-0.108-3.6-0.507-6.933-0.154-10.307 1.46 4.796 1.637 10.037 6.058 13.313-0.831-3.565-2.747-6.759-3.128-10.369 1.249-0.281 2.477-0.519 3.942-0.812 1.796 5.044 1.99 5.555 3.508 8.928 1.307 0.915 4.05 1.263 3.967 3.515 0.208 4.976 0.477 9.455 1.669 13.877l0.074-7e-3c0.184-2.405 0.407-4.534 0.681-6.505 2.402 4.133 3.586 8.685 5.934 13.086 0.284-0.735 0.888-2.244 1.542-3.814 0.779 1.785 1.6 3.87 2.044 4.944 1.536-1.776 1.953-3.97 2.271-6.318 0.709 1.806 1.254 3.708 1.773 5.411v1e-3c0.01 0.03 0.026 0.083 0.036 0.116l3e-3 -7e-3c0.693 2.101 1.667 4.167 2.671 6.309 0.337-1 0.674-2.008 1.076-3.13 1.078 2.187 1.896 3.747 2.416 4.747 0.565-0.663 1.126-1.298 1.84-2.069 2.693 7.174 4.657 9.702 16.359 11.897 30.34 5.669 96.075 6.945 103.99-6.087 0.541-1.838-1.579-5.981-2.22-7.909 0.063-0.902 0.151-1.789 0.263-2.639 1.689-0.499 3.839-1.204 4.839-1.561-0.409-1.227-0.862-2.671-1.414-4.042l1e-3 -1e-3c-0.012-0.026-0.019-0.046-0.035-0.083l-3e-3 4e-3c-0.869-1.895-1.788-3.583-2.714-5.242-0.205-0.368-0.541-0.961-0.745-1.314l-0.493-0.856c2.192-1.129 4.359-1.62 6.742-1.913-0.765-1.411-1.538-2.851-2.414-4.265l1e-3 -1e-3c-0.023-0.036-0.014-0.022-0.041-0.064-1.416-2.219-2.898-4.471-4.468-6.615v1e-3c-0.797-1.087-1.579-2.117-2.306-3.067 0.378-0.786 0.921-1.905 1.317-2.707 0.154-0.036 1.398-0.316 1.648-0.373 0.796-2.695-0.703-4.572-5.716-10.921-1.256-1.683-2.56-3.32-3.873-4.986v3e-3c-3.119-3.999-6.711-7.976-10.681-11.821-0.541-1.3-1-2.625-1.444-3.908 1.922 2.093 2.907 3.155 2.907 3.155 1.357 0.088 2.589 0.234 3.567 0.398-0.408-1.479-0.818-3.156-1.346-4.745 1.552 0.98 3.406 2.842 7.946 4.218 0.158-0.363 0.75-1.693 0.921-2.075 2.079 0.981 4.061 3.43 6.542 2.7 3.249-6.93-21.565-11.212-34.985-22.236-0.193-1.065-0.433-2.411-0.619-3.438 3.231 0.604 5.399 3.128 6.951 6.01 2.922-2.191 1.934-5.476 0.896-8.953 2.192 1.919 4.832 4.062 7.844 5.53l0.048-0.056c-1.224-1.743-2.56-3.398-3.888-5.061 2.018 0.996 3.936 2.22 5.869 3.382h1e-3v1e-3c3.4 1.921 7.324 2.802 10.669 4.849l0.049-0.057c-0.973-1.176-1.491-1.808-2.129-2.567 3.641 1.086 7.293 3.415 11.167 1.676-0.147-2.548-1.665-4.585-4.097-5.37-11.482-6.286-14.027-2.37-36.638-24.482-20.107-22.324-6.865-86.199-6.354-96.484 28.594-122.18 27.248-97.918 76.215-155.35 15.205-14.887 63.705-46.236 69.752-50.808 43.236-30.57 85.483-82.752 104.37-90.771 23.313-8.415 26.999-14.681 39.838-17.745 20.76-5.382 41.994-15.251 45.413-16.712 18.236 14.712 31.86 20.607 49.601 29.97 2.334 1.3 5.159 2.219 6.544 4.691 18.344 29.488 7.159 8.012 21.501 40.849 4.66 10.046 31.647 103.42 21.17 162.45-7.015 39.557-0.278 23.998 97.716 149.93 3.501 9.113 9.827 14.961 15.843 30.098h-1e-3c1.664 4.111 2.397 7.914 3.384 12.212h-1e-3c4.788 20.836-0.542 47.9 0.215 55.16 1.832-0.604 3.533-1.387 5.426-2.662 0.188 0.662 0.374 1.331 0.57 1.987 0.57-1 1.099-1.911 1.776-3.007 0.129 0.34 0.479 1.254 0.638 1.67 0.918 0 1.837-9e-3 3.033 0.033 0.333-1 1.429-3.953 1.881-5.161 0.382 3.017 0.472 3.739 0.712 5.594 0.467-1.153 0.851-2.026 1.551-3.607 0 0 1.2 0.724 1.201 0.725 0.048-3.288-0.085-5.855 2.393-7.979 1.322-5.73-0.602-10.743-0.684-16.358 6.98 15.714 19.166 55.916 18.216 74.359-0.476 0.175-1.939 0.73-2.091 0.786 5.614 4.092 2.867 2.064 9.939-2.05 0.778-0.181 1.502-0.316 2.211-0.414v2e-3c0.053-0.01 0.037-8e-3 0.075-0.013v-2e-3c1.435-0.278 2.688-0.488 4.09-0.772v3e-3c0.044-0.011 0.045-0.012 0.074-0.018v-1e-3c0.725-0.195 1.395-0.354 2.046-0.485v2e-3c0.049-0.012 0.033-9e-3 0.074-0.017v-2e-3c0.481-0.123 1.579-0.406 2.062-0.534v2e-3c0.616-0.19 1.337-0.365 2.015-0.478 0.519-0.088 1.483-0.247 1.992-0.328 0.372 1.017 0.712 2.096 1.015 3.055-0.1 1.277-0.175 2.359-0.254 3.408-1.027-0.541-1.82-0.948-2.565-1.317l-0.047 0.057c0.924 1.271 1.863 2.71 2.87 4.399-3.332-0.054-6.007 0.104-8.561 0.41 2.519 1.615 5.229 3.004 8.213 3.198l-0.024 0.036 0.095-0.029 0.016 1e-3 5e-3 -7e-3c6.056-1.871 4.465-2.133 9.156-2.233-0.194 0.287-2.888 4.269-3.092 4.549 0 0-0.025-0.086 0.758 3.704 5.571-2.305 7.976-6.92 16.555-8.546l-0.159 1.09-0.023 9e-3 0.018 0.027-7e-3 0.05 0.032-0.011c0.432 0.694 0.759 1.13 1.211 1.709 1.21-0.06 1.995-1.112 2.995-1.678 3.085 2.25 1.74 6.08 2.73 9.708 0.901 0.801 2.322 1.55 3.714 1.849 0.784-0.392 1.69-1.042 2.4-1.55 6.101-4.36 3.189-0.556 13.338-3.242 0.048 2.954 0.554 5.637 1.45 8.305 0.781-3.219 1.193-4.919 1.622-6.667 2.202 5.547 5.922 10.57 6.779 16.591l0.074 6e-3c0.636-2.142 1.257-4.376 1.847-6.641 0.878 1.441 1.615 2.973 2.161 4.156 0 1e-3 0.464 4.837 0.464 4.838 0.681-0.037 1.28-0.058 2.155-0.058 0.175 1.277 0.354 2.411 0.553 3.631 0.117-0.04 1.273-0.475 1.315-0.491 0.333-1 0.378-1.193 1.122-3.261 0.562 2.161 1.264 4.479 1.845 6.183 0.726-0.335 2.816-1.269 4.212-1.87 6.731 4.993 3.022 7.015 15.939 9.059 17.784 2.822 104.18 8.539 105-4.64-0.211-2.318-3.315-9.067-4.152-10.915 1.109 0.378 2.442 0.851 3.492 1.259-0.895-1.921-1.286-2.768-1.817-3.886 1.477 1.007 2.616 1.73 3.827 2.463-0.361-1.405-0.66-2.601-1.068-3.78h0.01l-0.026-0.053-9e-3 -0.024h-4e-3c-0.273-0.544-4.604-8.692-4.638-8.752 1.46-0.282 3.414-0.749 4.415-1.024-3e-3 -5e-3 -1.214-1.998-1.526-2.506h2e-3c-0.014-0.022-0.046-0.072-0.058-0.093h-1e-3c-1.486-2.4-3.227-4.661-4.764-6.988 0.098-0.197 0.387-0.778 0.492-0.993 0.267 0.112 1.914 0.823 2.132 0.939 0.516-0.172 2.187-0.677 3.191-0.951-1.098-1.469-1.591-2.13-2.138-2.856-0.035-0.047-0.012-0.015-0.048-0.063-1.051-1.366-2.355-2.978-3.382-4.21v1e-3c-14.37-17.149-13.43-17.181-18.012-23.11 3.148 1.398 6.044 3.311 9.079 4.62-0.729-1.542-1.497-2.874-2.709-4.398 1.652 0.049 2.204 0.035 5.007 0.256-3.445-4.306-6.807-7.146-10.381-10.954-0.543-1.609-0.948-3.236-1.336-4.811 2.054 1.129 3.481 1.86 4.938 2.572-4.605-6.688-10.969-11.638-14.722-15.729 9.358 6.047 10.308 9.385 15.898 13.403l0.056-0.049c-0.942-1.809-1.739-3.476-2.435-5.092 2.378 0.801 4.746 1.638 4.765 1.645-0.896-5.21-4.589-6.653-7.282-9.644-14.292-16.267-43.433-28.721-42.433-28.197-15.723-8.229-16.941-3.884-47.168-17.529 0 0-24.899-10.06-43.466-25.951l3e-3 -1e-3c-0.036-0.028-0.053-0.041-0.079-0.063-20.741-16.134-30.678-31.02-36.046-33.014-14.297-18.228-13.425-17.922-26.048-36.401-46.072-67.44-44.039-77.531-45.159-104.52-4.247-102.42 38.224-116.55 33.883-232.44 133.3 47.352 215.41 38.009 407.84 11.206 18.321-2.552 37.266-5.19 55.669-9.169 2.943 4.305 5.441 8.962 8.08 13.376 10.019 16.063 24.581 22.463 40 37.855 109.07 124.72 79.519 88.637 144.68 182.29 28.95 47.005 31.542 28.367 66.995 79.573-1.263 3.42 0.84 6.553 2.045 9.163h1e-3c4.204 9.003 8.741 18.98 11.959 28.779v-2e-3c1.933 5.406 2.676 11.179 3.761 16.789l-1e-3 -1e-3c1.265 6.467 0.882 13.255 0.552 19.647-0.498 4.132-3.041 28.414-2.345 32.007 0.35-0.579 0.702-1.135 1.576-2.374 0.203 0.644 0.533 1.631 0.731 2.271 0.739-1.344 1.616-2.983 2.468-4.503 0.216 0.151 1.219 0.857 1.251 0.88 0.413-0.557 2.152-3.05 3.543-5.156 0.107 1.036 0.215 1.729 0.363 2.715 0.444-0.296 0.819-0.531 1.354-0.817 0.548 0.694 1.204 1.486 1.572 1.913 0.53-1.001 2.32-4.534 3.665-7.224 0.289 0.208 0.826 0.59 1.125 0.801-0.36 1.355-0.731 2.822-1.199 4.752l0.065 0.034c0.947-1.047 1.802-1.956 2.609-2.778 0.366 0.208 1.07 0.63 1.43 0.847 0.565-3.11 1.311-6.271 2.878-8.999 4.835 14.269 9.989 36.671 11.649 48.354 2.874 20.272-0.759 19.159-4.322 30.868 0.266 0.028 1.691 0.184 1.882 0.204 0.012 1.878 0.064 2.948 0.106 3.948 0 0 2.1-0.534 4.485-1.1 0.966 0.478 1.504 0.774 2.356 1.214 0.373-1.867 0.953-3.826 1.744-5.644 0.743 1.8 1.661 4.027 2.598 5.928 0.758-1.369 1.409-2.678 2.135-4.44 0.431 1.374 0.767 2.325 1.188 3.471 0.698-1.881 1.289-3.725 1.839-6.013 0.601 2.344 1.575 4.296 2.902 6.089 0.989-1.942 1.799-3.636 2.777-6.093 0.664 1.865 1.269 3.367 1.972 5.017 0.594-2.469 1.178-4.907 2.23-7.118 0.251 12.54-1.231 12.598-6.719 31.807 0.129 0.147 2.478 2.703 2.524 2.755 0.335-0.289 0.646-0.521 1.083-0.767 0.024 1.193 0.062 2.586 0.151 3.806 0.801-0.943 1.335-1.505 2.191-2.419 0.157 0.972 0.341 1.986 0.548 3.019l0.073 3e-3c1.779-6.048 1.511-5.521 6.109-8.9 1.066 0.137 2.374 0.321 3.335 0.479l-1.032-2.131c-0.301-2.416 0.128-6.305 2.348-9.859-0.33 4.772 0.391 9.971 5.025 11.053 3.632 2.645 2.189-2.141 0.445 20.531 0.715 0.984 1.236 2.771 1.609 3.89 0.394-0.403 0.939-0.898 1.467-1.313 0.794 1.722 1.359 2.921 1.908 4.084 0.2-1 0.476-2.397 0.865-3.976 0.616 1.843 1.069 3.217 1.569 4.67l0.074-0.011c0.224-4.47 0.731-8.101 1.597-11.416 0.607 0.892 1.44 2.102 2.39 3.493l0.068-0.027c-0.247-1.613-0.471-3.178-0.663-4.651 0.457 0.149 1.284 0.42 1.713 0.561 0.727 0.975 1.465 1.841 2.224 2.757-0.227-2.583-0.402-5.102-0.35-9.305l-2e-3 2e-3c-0.012-0.604-0.022-0.892-0.034-1.492 1.045 2.845 1.569 5.684 3.107 8.205l-1e-3 9e-3 0.011 9e-3 0.056 0.092 5e-3 -0.045c1.59 1.355 3.496 2.379 5.184 3.282 0.77 2.486 1.774 4.946 2.786 6.943 0.446-1 1.895-4.148 3.111-6.593 1 0.269 2.556 0.709 3.335 0.936 0.045-1.1 0.154-2.429 0.27-3.547 0.627 0.5 3.359 2.672 3.998 3.151 1.322-1.377 3.064-1.924 4.931-2.281 3.114 11.872 3.181 13.343 5.773 15.318 0-1.438-0.068-3.813-0.095-5.289 3.363 4.037 5.816 8.885 6.755 14.126 0.497-1.262 0.966-2.747 1.466-5.613 0.414-0.294 1.407-1.007 1.807-1.305-0.702-0.407-0.948-0.561-1.786-1.016-0.521-1.02-1.021-2.066-1.482-3.112 2.556 1.702 4.392 4.25 5.177 7.188-0.078 0.516-0.219 1.46-0.295 1.981 2.568 0.257 4.542 1.355 5.452 3.749 0.394-1.788 0.953-3.442 1.844-5.096 0.818 1.819 1.497 3.191 2.307 4.76 0.628-1.076 1.379-2.374 2.559-4.914-0.478-0.394-1.514-1.242-1.936-1.696 0.136-1.194-0.385-2.281-0.825-3.449 10.766 16.798 11.706 18.606 69.007 4.465 80.448-20.859 64.184-28.138 57.614-36.291-0.205-1.501-0.864-2.949-2.07-4.553 7e-3 -0.298 0.029-0.871 0.046-1.194 1.824 0.851 2.703 1.277 3.703 1.754-0.118-0.836-0.212-1.714-0.272-2.574 1.01 0.049 1.69 0.122 2.642 0.209-1.208-1.377-2.405-2.766-3.658-4.062v-1e-3c-0.017-0.016-0.012-0.012-0.057-0.058l-1e-3 2e-3s-3.281-2.902-6.803-6.216c0.183-0.918 0.398-1.823 0.643-2.693 2.59 0.066 5.114-0.242 7.575-1.102-5.036-4.431-6.877-6.027-9.752-8.12h5e-3c-2.79-2.018-3.156-2.288-4.261-3.077 0.167-1.495 0.437-3.435 0.649-4.874 1.44 0.04 2.979 0.098 4.428 0.153 0.322-0.701 0.558-1.234 1.022-2.06-0.535-0.345-11.969-7.751-11.969-7.751-4.451-2.967-13.548-8.887-18.299-11.307v1e-3c-1.948-1.022-3.858-2.01-5.786-2.864-0.084-0.427-0.162-0.855-0.303-1.567 0.538 0.042 1.81 0.135 2.374 0.181 2.035 0.995 3.972 1.657 5.971 2.124-2.688-3.016-6.283-4.502-9.885-6.32 3.382 0.794 6.089 1.71 8.496 2.871 0.029 0.013 0.037 0.017 0.07 0.032v-1e-3c0.996 0.451 3.223 1.406 3.97 1.721-0.024-0.504-0.071-1.617-0.09-1.99 3.896 1.167 7.641 1.864 11.667 1.864l0.012-0.074c-1.589-0.502-3.652-1.132-5.708-1.643 2.701 0.107 4.73 0.027 7.618-0.067-1-0.955-1.02-0.971-2.474-2.367 0.53-0.186 1.523-0.529 2.057-0.713-4.488-4.201-7.278-4.159-10.775-4.465-3.875-1.445-7.339-2.493-10.591-3.209l1e-3 -1e-3c-3.368-0.777-7.327-1.851-11.027-2.71-0.196-0.842-0.37-1.691-0.531-2.592 1.8-0.254 2.946-0.397 3.946-0.53-0.74-0.334-8.48-2.685-9.243-2.907-0.111-0.776-0.201-1.584-0.268-2.408 2.145 0.13 3.795 0.249 5.338 0.442 1.405 0.967 2.794 2.035 4.292 2.964l1e-3 6e-3c0.029 0.011 0.049 0.026 0.08 0.045l-1e-3 -0.018c0.908 0.315 1.736 0.553 2.603 0.852-0.119-0.693-0.351-2.217-0.555-3.785 7.707 1.005 7.829 2.76 14.804 3.086-1.823-1.125-3.756-2.09-6.266-3.008 3.052 0.391 5.791 0.607 8.684 0.737-0.878-1.048-1.846-2.054-2.996-3.071 1.248-0.09 2.535-0.164 3.729-0.216-0.48-0.333-2.655-1.83-3.163-2.18 0.149-0.023 1.999-0.316 2.067-0.325-0.693-1.552-0.849-1.995-1.542-3.104 0 0-27.698-7.295-27.699-7.295-15.828-4.594-29.123-14.514-46.927-24.107v-1e-3c-0.019-9e-3 -0.083-0.044-0.103-0.055l1e-3 2e-3c-15.831-8.382-35.266-17.202-48.494-28.395-3.777-3.154-25.484-20.317-34.794-33.62 4.394-2.589 9.032-4.625 13.457-7.306-0.641 1.414-1.233 2.996-1.656 4.332 2.871-1.171 4.921-2.697 7.779-5.068l3e-3 -1e-3 0.244-0.286c0.578 0.822 0.816 1.157 1.335 1.924 1-0.625 2.415-1.531 4.291-2.508-1.464 2.136-3.154 4.081-4.948 5.939 9.528-1.761 22.577-14.494 30.132-21.011h2e-3c0.017-0.019 0.048-0.043 0.07-0.063l-8e-3 -2e-3c4.045-4.047 8.408-8.71 12.787-13.439v1e-3c0.021-0.023 0.036-0.04 0.053-0.057v-1e-3c21.547-24.233 50.207-39.127 53.172-88.21 1.579-16.384 1.412-31.73 4.754-46.927l3e-3 7e-3c4e-3 -0.027 0.016-0.109 0.022-0.133l-1e-3 -2e-3c6.733-41.249 11.792-47.891 10.921-54.97 20.397-57.008 19.228-63.015 34.989-89.906 7.756-13.233 20.152-32.813 12.152-57.863-6.604-20.683-17.816-52.096-40.94-61.104-29.761-11.189-36.339-7.157-59.813-5.694-71.364 1.288-121.55-15.572-151.92-19.575-6.531-0.862-13.284-1.753-19.845-3.149 20.455-16.561 37.386-44.847 22.547-111.97-3.278-14.855-1.469-4.055-36.737-76.629 28.353-120.75 15.118-252.38 51.871-291.09 1.589 3.158 20.692 26.265 59.747 40.573 14.388 5.001 7.917 5.739 23.109 4.65 17.45 12.374 17.835 23.173 61.945 55.301 31.131 22.674 29.564 23.175 30.5 31.373 1.442 12.722-2.827 22.838 4.36 29.21 9.829 10.363 26.734 11.363 31.577 12.693 4.559 7.811 15.038 11.378 23.441 8.049 2.655-1.468 5.256 0.716 7.963 0.992 4.559 1.147 27.596 3.149 39.404-14.208 6.936-10.281 11.973-22.205 20.933-31.084 17.165-17.786 15.286-20.07 8.238-39.248zm-2085 261.7c-0.822 2.476-2.895 4.234-4.082 6.537-0.42 1.755-0.3 3.598-0.43 5.387-0.127 0.163-0.416 0.52-0.544 0.686-4.41 1.617-8.118 4.645-12.388 6.543 0.644-3.958 1.093-8.133 3.399-11.5 0.233 1.908 0.366 3.809 0.465 5.42l0.073 0.012c4.012-9.989 7.185-10.216 27.092-29.4-1.268 4.981-11.841 11.372-13.585 16.315zm2.659-17.483c-26.126 17.188-6.725 1.052-32.742 22 0.061-0.633 0.282-2.931 0.345-3.561-7.112 9.61-4.562 5.683-5.591 11.628-1.275 0.599-2.675 0.908-4.046 1.301-1.013-1.566-2.734-3.154-2.198-5.159 0.972-3.333 5.084-4.093 6.601-7.097 4.197-5.882-0.821-13.567 10.617-14.853 0.502 3.002 0.972 5.541 1.725 8.322 1.087-2.793 0.379-5.511 0.538-8.306 0.039-1.701 1.998-1.942 3.236-2.582-0.357 3.615-0.872 7.108 1.112 10.208 1.198-2.831 0.982-5.783 1.785-8.605 2.023-2.631 4.217-3.011 8.009-7.405 3.98-4.61 0.729-1.643 22.239-11.753 0.095 0.6 0.137 0.814 0.269 1.647 3.995-2.958 7.779-5.024 12.148-7.398-0.019-0.162-0.175-1.543-0.194-1.713 3.871-1.785 7.956-3.333 11.742-4.859 10.107 1.78 59.303-22.583 82.887-20.551-40.661 11.432-82.76 26.568-118.48 48.736zm1692.1-716.96c-4.872-5.852-4.205-1.397-10.349-8.113 3.469 0.926 7.089 1.227 10.536 2.271 2.698 2.318 6.046 3.689 9.02 5.586-2.61 1.119-5.707 1.205-9.207 0.256zm44.264 992c1-0.135 171.4-21.52 185.71-26.367-2.357 17.655-1.913 24.602-12.583 51.738-5.397 5.312-1.784 2.248-28.993 47.668-6.238 9.357-38.539 43.862-39.492 44.863 2.598 4.639 6.756 6.01 12.99 1.616-0.569 1.407-1.105 3.222-0.443 5.01-0.528 1.001-15.757 27.388-18.039 30.191-2.693-2.982-5.304-5.411-8.27-8.726-0.387 1.813-0.901 4.329-0.901 4.329 1.45 2.694 3.643 5.773 5.231 7.959-0.46 0.294-0.972 0.631-1.562 1.008-2.987-2.08-4.251-7.155-8.678-6.38 0.295 1.281 0.56 2.076 0.892 3.282-1.572 0.782-3.079 0.546-4.662-0.1-0.063 0.073-0.882 1.076-0.953 1.162 0.792 1 0.021 0.067 1.652 2.106-0.898-0.024-2.681-0.07-3.594-0.07 0.229 1 0.859 3.487 1.151 4.625-1.309 0.342-3.126 0.809-4.757 1.245l3e-3 0.074c2.499 0.459 4.646 1.101 6.56 1.96-0.392 0.466-0.288 0.345-1.025 1.221-2.896 0.132-5.249 0.319-7.402 0.59l-4e-3 0.075c2.81 0.685 5.798 1.01 8.507 2.224-2.331-0.354-4.508-0.509-6.554 0.514 1 0.59 2.213 1.307 3.864 2.215-2.705 0.166-4.343 0.362-6.073 0.621 1.693 0.685 3.323 0.977 5.178 1.121-2.511 1.188-5.094 2.498-7.302 3.59l0.021 0.072c2.294-0.316 5.616-0.477 8.116 1.737-0.903 0.334-1.74 0.683-2.18 0.883 6.943 4.123 13.248 7.242 19.716 11.093-0.152 1.551-0.139 1.95-0.223 2.95-1.783 0.253-3.221 0.471-4.52 0.683-6.493-1.786-10.989-7.959-17.998-8.436l-0.011 0.075c4.129 0.905 7.689 3.583 10.036 7.546-2.361-0.806-6.916-2.931-6.916-2.931-2.29-1.224-5.058-1.25-7.694-0.987-0.172 1-0.314 1.838-0.576 3.636-1.006 0.109-1.78 0.215-2.665 0.35 2.755 2.55 2.73 2.974 3.109 4.287-0.798 0.706-1.698 1.372-2.463 2.101-1.776-0.239-4.157-0.75-8.7 0.28 1.405 1.232 2.515 2.169 4.377 3.728-2.14 1.665-4.846 2.824-8.271 3.542-1.052 0.156-1.984 0.319-2.921 0.502 1.514 1.23 2.879 2.602 3.892 4.262-2.371 1.132-5.226 1.498-7.093 3.494-5.693 4.999-7.53 12.723-10.346 19.418-3.109-7.356-6.935-14.508-10.634-21.425-19.477-36.414-6.839-20.792-47.572-80.237-19.862-25.962-41.092-102.91-51.429-128.82 0.197-0.026 19.882-0.041 72.498-7.167z"/>
 <path d="m1688.2 194.5c-0.603-1.121-1.197-2.123-1.197-2.123-2.845-0.985-5.338 1.455-6.338 1.788-3.004 1.884-6.53 2.228-9.815 3.938 13.173 0.963 5.393-1.303 17.35-3.603z"/>
 <path d="m1566.9 389.09c0.285-0.623 0.835-1.754 1.354-2.755 2.123-0.815 4.887-1.336 4.958-4.116-5.531-0.142-4.131 3.531-10.282 5.913-3.017 1.168-3.265 1.368-6.082 5.38 3.946-0.222 6.284-3.629 10.052-4.422z"/>
 <path d="m1541.3 438.62c2.587-1.378 5.626-0.962 8.478-1.134-0.324-0.344-0.813-0.886-1.229-1.372 1.43-0.353 3.297-0.283 3.708-2.105-5.788-1.608-10.311 3.096-15.817 3.631 1.331 1.622 3.4 1.859 4.86 0.98z"/>
 <path d="m303.63 1101.9c-5.814 8.036-20.573 46.344-19.021 57.825 0.57-1.101 1.042-2.258 1.273-3.484 4.95-22.858 10.293-34.641 12.902-40.606 4.711-10.774 5.032-11.44 4.846-13.735z"/>
</svg>
