<?xml version='1.0' encoding='utf-8'?>
<svg xmlns="http://www.w3.org/2000/svg" version="1.1" width="600px" height="976px" viewBox="0 0 600 976"> <g id="layer1"> <g style="fill:rgb(255,0,0); fill-opacity:1.0; stroke-linejoin: miter"> <path d="M306.6513,61.986954Q201.75145,62.568855,127.72208,133.35185Q54.31788,206.79843,51.59985,310.54007Q51.70375,414.35284,123.05875,489.59167Q197.27774,563.23413,300.10745,565.6172Q405.00812,565.0653,479.0603,494.29944Q552.48596,420.86887,555.2294,317.1271Q555.15027,213.3148,483.81735,138.06046Q409.62177,64.401566,306.7928,61.988693"/> </g> <g style="fill:rgb(0,0,0); fill-opacity:0.12941177; stroke-linejoin: miter"> <path d="M306.4565,77.63228Q208.24323,78.069885,138.50809,144.69641Q69.36584,214.46246,67.244095,310.89633Q67.72971,409.1106,134.39442,478.81042Q202.92845,547.1835,299.7066,549.9719Q397.92188,549.8224,467.848,483.3946Q537.1931,413.8284,539.5851,317.39957Q539.38684,219.1829,472.91718,149.29497Q403.3155,79.98631,306.88644,77.64102"/> </g> <g style="fill:rgb(255,255,255); fill-opacity:1.0; stroke-linejoin: miter"> <path d="M281.98407,270.57217L347.26834,307.71463L282.46066,345.68094L281.98407,270.57217 Z M347.16605,232.01859C332.4262,231.69891,317.66028,231.79257,302.92786,231.89374C273.55624,232.064,244.05865,232.26709,214.93428,235.70819C202.63942,237.15842,192.47783,246.44334,189.68066,258.96198C185.70393,276.79138,185.77866,296.22083,185.8951,314.54938C186.01115,332.87616,186.13425,352.30246,190.33954,370.07956C193.29262,382.56235,203.5709,391.715,215.88626,393.01144C230.41933,394.5424,245.03613,395.26822,259.67908,395.58566C274.41895,395.90567,289.1852,395.8118,303.91824,395.71066C333.28925,395.541,362.7873,395.33786,391.9117,391.89645C404.20685,390.44363,414.3737,381.16153,417.17087,368.64273C421.1475,350.8131,421.04874,331.38693,420.93228,313.06006C420.8163,294.73117,420.71716,275.30194,416.51184,257.52426C413.55887,245.04176,403.27493,235.887,390.95956,234.59293C376.42642,233.06198,361.80914,232.33633,347.16605,232.01859 Z"/> </g> <g style="fill:rgb(255,204,164); fill-opacity:1.0; stroke-linejoin: miter"> <path d="M312.1238,435.57916Q312.28058,435.64285,312.42902,435.73428L312.42902,435.73428Q312.28058,435.64285,312.1238,435.57916Q311.96664,435.5162,311.80273,435.48196Q311.96664,435.5162,312.1238,435.57916 Z M348.60663,518.76135Q349.62317,519.1715,350.45734,519.7223Q349.62317,519.1715,348.60663,518.76135Q347.59106,518.35156,346.39325,518.083L346.39325,518.083Q347.59106,518.35156,348.60663,518.76135 Z M331.4074,518.7848Q331.4026,518.7831,331.39932,518.78186Q331.3942,518.77966,331.3899,518.7777 Z M370.43643,535.17Q373.57742,536.4368,375.4821,537.69476L375.4821,537.69476Q373.57742,536.4368,370.43643,535.17Q367.29684,533.90424,362.91824,532.62836Q367.29684,533.90424,370.43643,535.17 Z M376.2703,538.1745Q376.36807,538.2143,376.50186,538.2924L376.5013,538.2918Q376.36807,538.2143,376.2703,538.1745Q376.17178,538.1348,376.10965,538.13385Q376.17178,538.1348,376.2703,538.1745 Z M379.6561,785.4697Q379.65817,785.47034,379.66116,785.47217L379.65073,785.4675Q379.65372,785.46924,379.6561,785.4697 Z M313.91513,431.7461Q313.5769,431.60965,313.22012,431.5209Q304.9663,428.45984,300.48087,430.03122L299.9824,430.22232Q292.849,432.8771,292.8554,449.70413L293.43817,467.73685L298.07437,529.706Q285.4803,531.972,281.8417,543.34894Q280.93228,544.0843,276.02695,570.4209Q269.3201,594.85815,269.6629,595.47156Q268.2555,602.61646,270.83075,610.10535Q284.54092,648.51324,287.0397,651.75934Q291.25543,661.0682,308.18744,686.5048Q311.8779,692.76227,318.46826,705.1772Q341.40057,748.402,360.6154,790.4069Q392.0884,797.1106,421.73312,784.61523Q431.8444,780.8115,452.17993,771.3422Q453.4405,770.81647,453.59613,769.5047L434.8771,726.5721Q416.82996,680.14825,413.7451,674.8787Q411.5179,669.5715,410.55978,663.82733Q409.06454,655.51654,411.18106,642.0859L422.46814,586.09174Q423.8136,575.3445,421.5589,568.89026Q419.52368,563.4249,415.0565,560.1271Q412.5201,558.18774,409.53787,556.7599L396.42374,551.1499Q380.98788,535.8377,379.5176,535.24493Q379.42245,535.2066,379.38583,535.22955Q376.3654,532.97186,371.90048,531.1713Q368.95096,529.9814,365.37076,528.99176Q358.20035,519.477,352.83633,516.1962Q351.62204,515.3671,350.16833,514.7809Q343.99475,512.29175,333.49136,514.17163L327.89285,489.7441L320.36066,446.65292L317.8679,436.32385Q316.40945,432.75162,313.91513,431.7461 Z"/> </g> <g style="fill:rgb(243,236,236); fill-opacity:1.0; stroke-linejoin: miter"> <path d="M305.82544,430.5427Q301.6484,430.67224,299.26337,432.75964Q297.08755,434.7236,296.65707,439.0023Q296.45255,441.03665,296.68475,443.91992L297.55188,448.4818Q297.7497,448.92474,297.91638,449.18597Q298.8811,451.08276,304.88202,451.13837Q318.16278,450.96265,317.7746,441.99567Q317.52072,436.85754,314.02713,433.41925Q310.85687,430.55878,305.85867,430.54208"/> </g> <g style="fill:rgb(255,255,255); fill-opacity:1.0; stroke-linejoin: miter"> <path d="M414.3008,648.8012L297.8596,686.8796L314.2211,728.5047L429.8912,694.75714L414.31638,648.8465"/> </g> <g style="fill:rgb(0,0,0); fill-opacity:1.0; stroke-linejoin: miter"> <path d="M436.52167,663.4785L301.55255,709.85944L468.83643,1070.2684L468.83643,1070.2684L637.2726,1065.8479L637.2726,1065.8479L436.55823,663.5692L436.52167,663.4785 Z"/> </g> </g> </svg>